/* XPM */
static char *magick[] = {
/* columns rows colors chars-per-pixel */
"64 54 250 2",
"   c Gray0",
".  c #020202",
"X  c #010202",
"o  c #010205",
"O  c #040404",
"+  c #060606",
"@  c #060605",
"#  c Gray1",
"$  c #00040a",
"%  c #01060d",
"&  c #000309",
"*  c #03080f",
"=  c #000b09",
"-  c #0d0000",
";  c #0d0800",
":  c Gray3",
">  c Gray4",
",  c #09090a",
"<  c Gray5",
"1  c Gray6",
"2  c #0d0d0e",
"3  c #000a16",
"4  c #020a13",
"5  c #010e1d",
"6  c #010c1a",
"7  c #00110e",
"8  c #071411",
"9  c #03111f",
"0  c #001b16",
"q  c #0e1917",
"w  c #110000",
"e  c #110e07",
"r  c #180a0a",
"t  c #111111",
"y  c #131313",
"u  c #111212",
"i  c #151515",
"p  c Gray9",
"a  c #191919",
"s  c #1d1d1d",
"d  c #1b1312",
"f  c #000f22",
"g  c #021123",
"h  c #011126",
"j  c #041325",
"k  c #061629",
"l  c #011329",
"z  c #071a2e",
"x  c #091523",
"c  c #0a1a2c",
"v  c #071e36",
"b  c #0b1d32",
"n  c #00221b",
"m  c #002720",
"M  c #002e25",
"N  c #002b22",
"B  c #003027",
"V  c #003229",
"C  c #00342a",
"Z  c #00362c",
"A  c #00392e",
"S  c #003b30",
"D  c #003d31",
"F  c #073e33",
"G  c #132334",
"H  c #162739",
"J  c #1b2b3e",
"K  c #270000",
"L  c #2c0000",
"P  c #291414",
"I  c #360101",
"U  c #310000",
"Y  c #3c0000",
"T  c #301f01",
"R  c #3e1b1b",
"E  c Gray13",
"W  c #222222",
"Q  c #272727",
"!  c Gray14",
"~  c #2a2a2a",
"^  c #2f2f2f",
"/  c #2d2d2d",
"(  c #313131",
")  c #353535",
"_  c #373737",
"`  c Gray22",
"'  c Gray23",
"]  c Gray24",
"[  c #3e3e3e",
"{  c #1d2f44",
"}  c #1f3042",
"|  c #243447",
" . c #004135",
".. c #004336",
"X. c #034539",
"o. c #01493c",
"O. c #09493e",
"+. c #094339",
"@. c #024e40",
"#. c #0a4e42",
"$. c #4c0000",
"%. c #500000",
"&. c #533905",
"*. c #630000",
"=. c #6b0101",
"-. c #700101",
";. c #750e0e",
":. c #7b0202",
">. c #7c0d0d",
",. c #7b1313",
"<. c #7f1e1e",
"1. c #603f02",
"2. c #6e2d2d",
"3. c #6a4501",
"4. c #6a4e12",
"5. c #7a5102",
"6. c #7d5a10",
"7. c #72612b",
"8. c #726337",
"9. c #414141",
"0. c Gray26",
"q. c #444444",
"w. c Gray28",
"e. c #494949",
"r. c Gray29",
"t. c Gray30",
"y. c Gray31",
"u. c #4c5453",
"i. c #505050",
"p. c #565656",
"a. c #5a5a5a",
"s. c #5d5d5d",
"d. c Gray37",
"f. c #5a6361",
"g. c #664444",
"h. c #626262",
"j. c Gray40",
"k. c Gray41",
"l. c #6d6d6d",
"z. c #727272",
"x. c #747474",
"c. c #737f7e",
"v. c Gray49",
"b. c #797979",
"n. c #830000",
"m. c #8e0101",
"M. c #830b0b",
"N. c #861818",
"B. c #8c1515",
"V. c #9a0000",
"C. c #900c0c",
"Z. c #9a1b1b",
"A. c #853a3a",
"S. c #9b2121",
"D. c #973737",
"F. c #973a3a",
"G. c #a60303",
"H. c #ac0000",
"J. c #ae0c0c",
"K. c #ac1f1f",
"L. c #b20c0c",
"P. c #a62e2e",
"I. c #ab2828",
"U. c #a63636",
"Y. c #ac3131",
"T. c #815c0f",
"R. c #9f6e04",
"E. c #906915",
"W. c #9a7011",
"Q. c #87773f",
"!. c #887433",
"~. c #977b2e",
"^. c #a56931",
"/. c #984646",
"(. c #aa4141",
"). c #a94949",
"_. c #a65858",
"`. c #aa5252",
"'. c #ac5c5c",
"]. c #a45454",
"[. c #a66666",
"{. c #aa6763",
"}. c #a56a6a",
"|. c #a97876",
" X c #ac7b7b",
".X c #aa7373",
"XX c #b06e6e",
"oX c #b07878",
"OX c #b07474",
"+X c #a38431",
"@X c #a78935",
"#X c #aa8a33",
"$X c #ae933c",
"%X c #9c8644",
"&X c #ae8b48",
"*X c #aa924c",
"=X c #ad995a",
"-X c #ac9c67",
";X c #868686",
":X c #818181",
">X c Gray54",
",X c #898989",
"<X c Gray55",
"1X c Gray56",
"2X c Gray57",
"3X c #929292",
"4X c #959595",
"5X c Gray59",
"6X c #9b9b9b",
"7X c #989898",
"8X c #9d9d9d",
"9X c Gray62",
"0X c #a98686",
"qX c #af8f84",
"wX c #af9391",
"eX c #b08b8b",
"rX c #b29494",
"tX c #b29a9a",
"yX c #b3ab88",
"uX c #b2ac91",
"iX c Gray64",
"pX c Gray63",
"aX c #a5a5a5",
"sX c #aaaaaa",
"dX c Gray68",
"fX c #b1b1b1",
"gX c #b6b6b6",
"hX c #b9b9b9",
"jX c #bebebe",
"kX c Gray76",
"lX c #c6c6c6",
"zX c #cacaca",
"xX c #cecece",
"cX c #d2d2d2",
"vX c #d5d5d5",
"bX c #dadada",
"nX c Gray87",
"mX c #e2e2e2",
"MX c #e7e7e7",
"NX c Gray90",
"BX c #eaeaea",
"VX c #efefef",
"CX c Gray93",
"ZX c #f1f1f1",
"AX c Gray95",
"SX c Gray96",
"DX c Gray97",
"FX c Gray98",
"GX c #fdfdfd",
"HX c None",
/* pixels */
"HXHXHXHXHXHXHXHXHXHXHXHXHXHXHXHXHXHXHXHXHXHXHXHXHXHXHXHXHXHXHXHXHXHXHXHXHXHXHXHXHXHXHXHXHXHXHXHXHXHXHXHXHXHXHXHXHXHXHXHXHXHXHXHX",
"HXHXHXHXHXHXHXHXHXHXHXHXHXHXHXHXHXHXHXHXHXHXHXHXHXHXHXHXHXHXHXHXHXHXHXHXHXHXHXHXHXHXHXHXHXHXHXHXHXHXHXHXHXHXHXHXHXHXHXHXHXHXHXHX",
"HXHXHXHXHXHXHXHXHXHXHXHXHXHXHXHXHXHXHXHXHXHXHXHXHXHXHXHXHXHXHXHXHXHXHXHXHXHXHXHXHXHXHXHXHXHXHXHXHXHXHXHXHXHXHXHXHXHXHXHXHXHXHXHX",
"HXHXHXHXHXHXHX    HXHXHXHXHXHXHXHXHXHXHXHXHXHXHXHXHXHXHXHXHXHXHXHXHXHXHXHXHXHXHXHXHXHXHXHXHXHXHXHXHXHXHXHXHXHXHXHXHXHXHXHXHXHXHX",
"HXHXHXHXHXHX  w L HXHXHXHXHXHXHXHXHXHXHXHXHXHXHXHXHXHXHXHXHXHXHXHXHXHXHXHXHXHXHXHXHXHXHXHXHXHXHXHXHXHXHXHXHXHXHXHXHXHXHXHXHXHXHX",
"HXHXHXHXHX    *.. HXHXHXHXHXHXHXHXHXHXHXHXHXHXHXHXHXHXHX            HXHXHXHXHXHXHXHXHXHXHXHXHXHXHXHXHXHXHXHXHXHX      HXHXHXHXHX",
"HXHXHXHX  - I :.  HXHXHXHXHXHXHXHXHXHXHXHXHXHXHX                            HXHXHXHXHXHXHXHXHXHXHXHXHXHXHXHXHX  [ h.j.1 HXHXHXHX",
"HXHXHX  L K :.*.    HXHXHXHXHXHXHXHXHXHXHX                                      HXHXHXHXHXHXHXHXHXHXHXHXHXHXHX  t.h.z.p.HXHXHXHX",
"HXHX  K %.*.n.n.$.Y HXHXHXHXHXHXHXHXHX            O   O     O                       HXHXHXHXHXHXHXHXHXHXHXHXHXt p.h.z.v.HXHXHXHX",
"HXHX- *.-.:.m.V.n.Y HXHXHXHXHXHXHXHX      O O : : 1 : 1 1 1 1 : : : O O                 HXHXHXHXHXHXHXHXHXHXHXs s.j.x.;X  HXHXHX",
"HX  $.=.:.C.S.G.G.*.HXHXHXHXHXHX      O : : 1 t i i i i a a i i i i t 1 : O               HXHXHXHXHXHXHXHXHXHX` j.j.v.,Xt HXHXHX",
"HX- *.>.M.Z.P.(.H.V.HXHXHXHXHX      O : 1 t i a s s E E E Q Q Q E E s a i t : O             HXHXHXHXHXHXHXHX  p.k.z.:X<X` HXHXHX",
"HXU ;.N.B.U.I.`.J.G.HXHXHXHX      : 1 t i s s Q Q ~ ~ ^ ( ^ ^ ^ ^ ^ ~ Q E a i 1 O             HXHXHXHXHXHXHX  _ l.v.,X;X_ HXHXHX",
"HXI ,.D.F.(.Y.'.J.m.HXHXHXHX  O : 1 i a E Q ~ ^ ( _ _ _ ` ` ` _ _ ) ( ^ Q E q.j.k.k.k.k.k.k.q.O             HXs a.x.v.s.O HXHXHX",
"HXI ,.]./.(._.OXL.=.HXHXHX  O : t i s Q ~ ( _ _ ` [ [ [ [ [ [ [ ` ` _ ^ Q s ,XcXbXnXnXmXmXnXxXi.            HX  r.i.b.`   HXHXHX",
"HXL <.[._.). XoXK.I HXHX    O 1 i s ~ ^ _ ` ` [ 9.9.9.9.9.9.9.9.[ [ ` ( s t <XbXnXmXNXNXNXNXmXkX^           HXHXt.p.;X` HXHXHXHX",
"HX- /..X.X XrXXXA.. HXHX  O 1 i s ~ ( _ ` [ 9.9.q.q.q.q.q.q.q.q.9.9.[ ( i : 3XmXNXBXBXBXBXBXBXNX3X:         HXHXt.s.<X[ HXHXHXHX",
"HX  2.`.0XeXtX}.P HXHX  . : t s Q ( ` [ 9.q.q.q.r.r.r.r.r.r.q.q.q.9.[ _ i : 4XNXBXCXCXZXZXZXCXBXbX9.        HXHXt.k.3X9.HXHXHXHX",
"HXHXr ).|.wXrXg.  HX    : 1 a Q ^ ` [ q.q.r.r.r.r.r.r.r.r.r.r.q.q.q.9.` t : 4XBXCXZXSXSXSXSXZXCXBXsX:       HXHXt.h.4Xq.HXHXHXHX",
"HXHX  R {.qX|.d   HX  O : i E ~ _ [ 9.q.r.r.r.t.t.t.t.t.t.r.r.r.q.q.9.[ t : 7XCXZXSXSXFXFXSXSXZXCXnX_       HXHXt.s.4Xq.HXHXHXHX",
"HXHXHX. ^.&X-X  HXHX  O 1 a Q ( ` 9.q.r.r.t.t.t.t.t.t.t.t.t.r.r.r.q.q.[ t : 8XCXZXSXFXFXFXFXSXZXCXBXb.      HXHXt.s.4Xq.HXHXHXHX",
"HXHX  ; R.$XyXe HX    : i E ^ ` 9.q.r.r.t.t.t.t.i.t.t.t.t.t.r.r.r.r.q.9.t : 8XCXZXFXFXGXGXFXFXSXZXBXgX1     HXHXt.s.4Xr.HXHXHXHX",
"HXHXHXT W.$XuX8.HX    1 a Q ( [ q.r.r.t.t.t.t.i.i.i.t.t.t.t.t.r.r.r.q.q.t : 7XCXZXSXFXGXGXFXSXSXCXBXvX(     HXHXt.h.7Xr.HXHXHXHX",
"HXHXHX5.E.@X=X#X    O t s ~ _ 9.q.r.t.t.t.t.i.t.i.i.t.t.t.t.t.r.r.r.r.q.t : 7XCXZXSXFXFXFXFXSXZXCXBXnXt.    HXHXr.h.7Xr.HXHXHXHX",
"HXHXHX3.T.+X*X@X    O i E ^ ` 9.r.t.t.t.t.i.i.i.i.i.t.t.t.t.t.t.r.r.r.q.t : 7XBXCXZXSXSXSXSXZXCXBXNXnXj.    HXHXr.s.4Xq.HXHXHXHX",
"HXHX  1.6.~.%X+XO   : i Q ( [ q.r.t.t.t.i.i.i.i.i.i.t.i.t.t.t.t.r.r.r.q.t : 4XNXBXCXZXZXZXZXCXCXBXmXnXv.O   HXHXr.s.3Xq.HXHXHXHX",
"HXHX  &.4.7.Q.!.$ O : a Q _ 9.r.t.t.i.i.i.i.t.t.t.t.t.i.t.t.t.t.r.r.r.q.t : 3XmXNXBXCXCXCXCXBXNXmXnXbX,XO   HXHXr.s.<Xr.HXHXHXHX",
"HX  & 6 l b { b %   : a ~ _ 9.r.t.t.i.i.i.t.r.[ 9.q.q.t.i.i.p.p.p.a.a.a.` _ 8XnXmXNXNXNXBXNXNXmXnXbXvX;XO   + q u.f.c.u.8 O HXHX",
"HX  $ 5 l b | G %   : a ~ ` q.r.t.t.i.i.t.r._ Q k.:X:X;X,X<X3X7X8XiXsXfXhXjXxXvXbXnXmXmXmXnXnXnXbXvXxXb.O   M F +.O.#.#.X.n   HX",
"HX  $ 5 l b | G *   : a ~ ` q.t.i.i.i.i.t.[ E i x.<X<X3X4X7X8XiXsXfXgXjXkXzXxXcXvXvXbXbXbXbXbXvXcXxXlXs.    M Z D  .o.@.X.n   HX",
"HXHX& 6 l z } G *   : a ~ ' w.t.t.i.i.i.t.` i 1 x.<X<X<X3X4X7XpXiXsXfXgXhXkXlXzXxXcXcXcXcXcXcXxXzXlXjXq.    7 M A D ..o. .7 HXHX",
"HXHXo 6 l k { c $   : p ~ ` w.t.i.i.i.i.t.` t 1 x.<X<X<X3X4X7X8XpXiXsXfXgXhXjXkXlXzXzXzXzXzXzXlXkXjXfX^     n B Z D  . . .M   HX",
"HXHX  3 g k J x     O t ~ ` q.t.t.i.i.i.t.` t 1 x.<X<X<X3X3X4X7X8XpXiXsXfXfXgXhXjXjXkXkXkXkXkXjXhXgX4X1     m B Z A D  . .D   HX",
"HXHX  3 g c H x   HXO 1 E ` r.t.t.i.i.i.t.` 1 : x.<X,X,X<X<X3X4X7X8XpXiXsXdXfXfXgXhXhXhXhXhXhXgXgXfXk.      N C A A A  . .D   HX",
"HXHX  4 j b G x HXHX  : s _ q.t.i.i.i.i.i.[ 1 1 x.<X,X,X,X<X3X3X4X7X8XpXiXiXsXdXdXfXfXfXfXfXfXdXdXiX(       M C A A D  . .D   HX",
"HXHX  % g b b 4 HXHX  O i ^ q.t.t.i.i.i.i.[ 1 1 x.<X,X,X,X<X<X3X3X4X7X8X8XpXpXiXiXsXsXdXsXsXsXsXiX:X:       M C A A D .. .D   HX",
"HXHXHX% g c c * HXHXHX  1 Q [ t.t.i.i.i.i.9.: 1 x.<X,X,X,X,X,X<X<X3X4X4X7X8X8X8XpXpXiXiXpXpXpXpX7X[         M C A D D .. .D   HX",
"HXHXHX$ 9 c k % HXHXHX  O a _ r.t.i.i.i.t.9.: 1 x.<X,X,X,X,X,X<X<X<X3X3X4X4X7X7X7X8X8X8X8X8X8X8Xz.1         M C A D S  . .D   HX",
"HXHX  o 9 c k $ HXHXHXHX  : Q q.t.t.t.i.t.9.: 1 x.<X,X,X,X,X,X,X<X<X<X<X3X3X4X4X4X4X7X7X7X7X4X,X^           B C A D S  . .D   HX",
"HXHXHXo 5 k k $ HXHXHXHXHX  i ( 9.q.q.r.r.9.: 1 x.<X,X,X,X,X,X,X,X,X,X<X<X<X3X3X3X3X3X3X3X4X<Xt.O           M C A D S  . .D   HX",
"HXHXHX  6 k j o HX          1 t.s.s.s.s.h.s.p.a.:X<X,X,X,X,X,X,X,X,X,X,X,X<X<X<X<X3X<X3X<X<Xs.1     O       M C A D S  . .D   HX",
"HXHXHX  6 j g o HX            ^ b.<X<X<X<X<X<X<X<X<X,X,X,X,X,X,X,X,X,X,X,X,X,X<X<X<X<X<X,Xh.t       O       N C A S D  . .D   HX",
"HXHXHX  3 l g   HX            O ^ b.,X<X<X<X<X<X<X<X,X,X,X,X,X,X,X,X,X,X,X,X,X,X,X,X,X;Xs.i       O O       m B C A S  . .D   HX",
"HXHXHX  3 g g   HX                Q k.,X<X<X<X<X<X<X,X,X,X,X,X,X,X,X,X,X,X,X,X,X,X,X;Xt.t       O O         m M C A A  .D S   HX",
"HXHXHX  6 l g   HX    O ~ _ ( :     1 t.:X,X<X<X<X<X,X,X,X,X,X,X,X,X,X,X,X,X,X,X,Xz.^ O       O O O         0 m C Z A D  .C   HX",
"HXHXHX  5 l l   HX    O ( 9.9._ :     O E s.:X,X<X<X,X,X,X,X,X,X,X,X,X,X,X,X;Xx.q.t         : O O O         = m M C A D  .n HXHX",
"HXHXHX  f l l   HX    O ( [ 9.9._ :       : E t.x.;X,X,X,X,X,X,X,X,X,X,Xv.h.` t           O : O O O           n N B Z A Z   HXHX",
"HXHXHXHX% 6 $ HX        ^ ` [ [ [ ( t         O t E ` i.j.l.z.l.k.h.r.^ a :           O : : O O O O         HXO 0 m B n = HXHXHX",
"HXHXHXHX    HXHXHX      a E E Q Q Q E :               O : : : : : O                 O O O O                 HXHX        HXHXHXHX",
"HXHXHXHXHXHXHXHXHXHX                                                                                      HXHXHXHXHXHXHXHXHXHXHX",
"HXHXHXHXHXHXHXHXHXHXHXHXHXHXHXHXHXHXHXHXHXHXHXHXHXHXHXHXHXHXHXHXHXHXHXHXHXHXHXHXHXHXHXHXHXHXHXHXHXHXHXHXHXHXHXHXHXHXHXHXHXHXHXHX",
"HXHXHXHXHXHXHXHXHXHXHXHXHXHXHXHXHXHXHXHXHXHXHXHXHXHXHXHXHXHXHXHXHXHXHXHXHXHXHXHXHXHXHXHXHXHXHXHXHXHXHXHXHXHXHXHXHXHXHXHXHXHXHXHX",
"HXHXHXHXHXHXHXHXHXHXHXHXHXHXHXHXHXHXHXHXHXHXHXHXHXHXHXHXHXHXHXHXHXHXHXHXHXHXHXHXHXHXHXHXHXHXHXHXHXHXHXHXHXHXHXHXHXHXHXHXHXHXHXHX",
"HXHXHXHXHXHXHXHXHXHXHXHXHXHXHXHXHXHXHXHXHXHXHXHXHXHXHXHXHXHXHXHXHXHXHXHXHXHXHXHXHXHXHXHXHXHXHXHXHXHXHXHXHXHXHXHXHXHXHXHXHXHXHXHX"
};
