/* XPM */
static char * image_name[] = {
"45 45 189 2",
"  	c None",
". 	c #186175D60000",
"X 	c #000000000000",
"o 	c #082004100820",
"O 	c #082008200820",
"+ 	c #4924A28930C2",
"@ 	c #514451445144",
"# 	c #492449244924",
"$ 	c #49244D344924",
"% 	c #208179E70820",
"& 	c #104010401040",
"* 	c #28A22CB228A2",
"= 	c #38E338E338E3",
"- 	c #28A228A228A2",
"; 	c #30C22CB230C2",
": 	c #186114511861",
"> 	c #514455555965",
", 	c #10400C301040",
"< 	c #186118611861",
"1 	c #208120812081",
"2 	c #2081249228A2",
"3 	c #186171C60000",
"4 	c #28A282071040",
"5 	c #28A27DF70820",
"6 	c #28A2249228A2",
"7 	c #30C230C230C2",
"8 	c #410341034103",
"9 	c #30C292482081",
"0 	c #30C234D338E3",
"q 	c #79E77DF78617",
"w 	c #C71BC71BC71B",
"e 	c #71C675D671C6",
"r 	c #965892489658",
"t 	c #FFFFFFFFFFFF",
"y 	c #EFBEEFBEEFBE",
"u 	c #5144AAAA38E3",
"i 	c #A699FFFF8E38",
"p 	c #596559656185",
"a 	c #AEBA10401040",
"s 	c #E79D14511861",
"d 	c #208104100000",
"f 	c #FFFF61856185",
"g 	c #F7DE2CB22081",
"h 	c #C71BAAAAA699",
"j 	c #DF7D14511861",
"k 	c #71C608200820",
"l 	c #FFFF30C230C2",
"z 	c #E79D20811861",
"x 	c #79E714511861",
"c 	c #28A204100000",
"v 	c #EFBE18611861",
"b 	c #79E70C300820",
"n 	c #FFFFE38DE79D",
"m 	c #FFFF28A228A2",
"M 	c #E79D18611861",
"N 	c #8E381C711861",
"B 	c #596559655965",
"V 	c #861749240820",
"C 	c #D75C24921040",
"Z 	c #B6DA10401040",
"A 	c #B6DA14511040",
"S 	c #10403CF30000",
"D 	c #69A6C30B5144",
"F 	c #CF3C96585144",
"G 	c #EFBE38E328A2",
"H 	c #BEFB18611861",
"J 	c #410375D638E3",
"K 	c #30C28E381861",
"L 	c #38E33CF34103",
"P 	c #A69910401040",
"I 	c #8E380C300820",
"U 	c #CF3C14511040",
"Y 	c #FFFF59655965",
"T 	c #D75C41034103",
"R 	c #965820811861",
"E 	c #DF7D20812081",
"W 	c #596508200820",
"Q 	c #38E304100820",
"! 	c #FFFF34D338E3",
"~ 	c #8E3838E338E3",
"^ 	c #6185492428A2",
"/ 	c #F7DE20812081",
"( 	c #8E388A288E38",
") 	c #30C204100000",
"_ 	c #104000000000",
"` 	c #FFFFD34CD75C",
"' 	c #FFFF20812081",
"] 	c #28A220812081",
"[ 	c #69A6A2895965",
"{ 	c #F7DE24922081",
"} 	c #492414511040",
"| 	c #AEBAAEBAAEBA",
" .	c #86170C300820",
"..	c #69A608200820",
"X.	c #104059650000",
"o.	c #FFFF8A288E38",
"O.	c #F7DE38E338E3",
"+.	c #9E79EFBE8617",
"@.	c #71C614511040",
"#.	c #861786178617",
"$.	c #965810401040",
"%.	c #208151441040",
"&.	c #FFFF45144103",
"*.	c #D75C34D338E3",
"=.	c #FFFF49244924",
"-.	c #9E791C712081",
";.	c #618565956185",
":.	c #492404100820",
">.	c #38E35D7528A2",
",.	c #C71BC30BC71B",
"<.	c #8617E38D69A6",
"1.	c #FFFF249228A2",
"2.	c #69A628A228A2",
"3.	c #FFFF65956185",
"4.	c #C71B20812081",
"5.	c #28A26DB60000",
"6.	c #FFFF18611861",
"7.	c #E79D1C711861",
"8.	c #30C2492428A2",
"9.	c #FFFFF3CEEFBE",
"0.	c #B6DAB6DAB6DA",
"q.	c #FFFFA2899E79",
"w.	c #E79D20812081",
"e.	c #51445D750820",
"r.	c #F7DE1C711861",
"t.	c #618549240820",
"y.	c #18616DB60000",
"u.	c #9E7941031040",
"i.	c #A69934D31040",
"p.	c #186120811040",
"a.	c #BEFBC71B69A6",
"s.	c #AEBA92485144",
"d.	c #D75C7DF74924",
"f.	c #CF3C618538E3",
"g.	c #AEBAF3CE8617",
"h.	c #104018610820",
"j.	c #F7DE1C712081",
"k.	c #18610C300820",
"l.	c #AEBAA289A699",
"z.	c #BEFB45144103",
"x.	c #618561856185",
"c.	c #104004100820",
"v.	c #EFBE28A228A2",
"b.	c #69A610401040",
"n.	c #79E718611861",
"m.	c #51442CB228A2",
"M.	c #79E779E779E7",
"N.	c #F7DE30C230C2",
"B.	c #F7DE18611861",
"V.	c #410304100820",
"C.	c #E79D34D330C2",
"Z.	c #C71B18611861",
"A.	c #F7DE28A22081",
"S.	c #DF7DA289A699",
"D.	c #F7DE28A228A2",
"F.	c #E79D30C230C2",
"G.	c #D75CD34CD75C",
"H.	c #EFBE41034103",
"J.	c #C71B14511040",
"K.	c #000014510000",
"L.	c #514408200820",
"P.	c #C71B59655965",
"I.	c #B6DA249228A2",
"U.	c #492410401040",
"Y.	c #208110401040",
"T.	c #082010400820",
"R.	c #FFFF7DF779E7",
"E.	c #618514511040",
"W.	c #AEBA45144103",
"Q.	c #000008200000",
"!.	c #DF7D2CB22081",
"~.	c #59655D755965",
"^.	c #71C671C671C6",
"/.	c #AEBAAAAAAEBA",
"(.	c #69A66DB671C6",
").	c #28A282070820",
"_.	c #71C6CB2B5965",
"`.	c #A699FBEE8E38",
"'.	c #69A6C71B5144",
"].	c #E79DE79DE79D",
"[.	c #FFFFFBEEFFFF",
"{.	c #BEFBBEFBBEFB",
"}.	c #8E388E389658",
"|.	c #A699A699A699",
" X	c #9E79A2899E79",
".X	c #DF7DDF7DDF7D",
"XX	c #F7DEF7DEF7DE",
"oX	c #861782078617",
"OX	c #71C6D34C5965",
". . . . . . . . . . . . . . . . . . . . . . . . . . . . . . . . . . . . . . . . . . . . . ",
".               .                 .                 .                 .                 . ",
".               .                 .                 .                 .                 . ",
".               .                 .                 .                 .                 . ",
".               .           o X O + @ # # # # # # $ % X               .                 . ",
".               .       & * $ = - . X X X X X X X X . ; ; o           .                 . ",
".               .     : > - , X X . X X X X X X X X . X o O , X       .                 . ",
".               .   < 1 , X X X X . X X X X X X X X . X X X o X 2     .                 . ",
". . . . . . . . 3 % 4 . . . . . . . . . . . . . . . . . . . . . % 5 . . . . . . . . . . . ",
".               % 2 X X X X X X X . X X X X X X X X . X 6 7 ; 7 ; = 8 9 0 0 0 0         . ",
".             < % X X X X X X X X . X X X X X X X X . X q w w w w w e % X X X X         . ",
".           < 6 . X X X X X X X X . X X X X X X X X . X r t t t t t y u X X X X         . ",
".         X o X . X X X X X X X X . X X X X X X X X . X r t t t t t t i p X X X         . ",
".         O : X . X X X X a s d X . X X X X X X X X . X r t t t t t f g h : X X         . ",
".       X < X X . X X X X s j k X . X X X X X X X X . X r t t t t t l z x > X X         . ",
".       X O X X . X X X c v j b X . X X X X X X X X . X r t t t t n m M N B & X         . ",
". . . . . . . . . . . . V C Z A S . . . . . . . . . . . D i i i i F G A H J K . . . . . . ",
".       L X X X . X X X Z P I U X . X X X X X X X X . X r t t t t Y T R E 8 @ X         . ",
".       : X X X . X X X j W Q v X . X X X X X X X X . X r t t t t ! ~ ^ / ; ( ,         . ",
".       X X X X . X X ) v _ X v Q . X X X X X X X X . X r t t t ` ' ] [ { } | :         . ",
".       X X X X . X X  .U X X j ..X.X X X X X X X X . X r t t t o.O., +.! @.#.:         . ",
".       X X X X . X X U Z X X U $.%.; * ; * * ; ; - K ; | t t t &.*.; i =.-.;.<         . ",
".       X X X X . X X v :.X X a H >.w ,.w w w w w w <.w y t t t 1.2.$ i 3.4.# :         . ",
".       X X X ) 5.X ) 6.X X X ..7.8.t t t t t t t t i t ` 9.t ` 6., 0.i q.w.7 :         . ",
". . . . % . e.r.t.y.u.i.X . . 5.r.p.i i i i i i i i i a.{ s.+.d.f.X i i g.r.h.5 . . . . . ",
".       = X v v s _ U  .X X X X j.k.t t t t t t t t i m ' s l.&.z.x.t i t ' c.X         . ",
".       6 W 6.Q 6...s c X X X X v.b.y t t t t t t t i 6.} 6.n.m m.M.t i t N...X         . ",
"r.B.6.6.6.6.V.X 7.v U X X X X X C.Z.6.1.m m m ' { { A.S.X D.v F.: G.t i t H.J.6.v v v v . ",
"K.X X X X X X X u.v L.X X X X X P.v I.L.U.} } Y., & T.: ,.R.v E.7 t t i y W.v P L.Q Q Q Q.",
".         & , X . X X X X X X X r !., ~.t t t t t t i t t t ^.& /.t t i ,.: U X X X X X X.",
".         o < X . X X X X X X X r i 7 t t t t t t t i t t t t t t t t i (.X X X         . ",
".           X X . X X X X X X X r i t t t t t t t t i t t t t t t t t D , X X X         . ",
". . . . 3 3 3 . . % ).).).).).)._.i i i i i i i i i i i i i i i i `.'.% . . . . . . . . . ",
".       X X X X . - r | | | | | ].i t t t t t t t t i t t t t t [.{.7 . X X X X         . ",
".       X X X X . , $ w t t t t t i t t t t t t t t i t t t t t }.7 X . X X X X         . ",
".       X X X X . X X 1 |.t t t t i t t t t t t t t i t t t ].}., X X . X X X X         . ",
".       X X X X . X X X X 6  X.XXXi t t t t t t t t i XX.X X6 X X X X . X X X X         . ",
".       X X X X . X X X X X X = oXOXw w t t t t w w OXoX= X X X X X X . X X X X         . ",
".       X X X X . X X X X X X X X % 7 ; ;.;.;.;.; ; % X X X X X X X X . X X X X         . ",
".       X X X X 3 X X X X X X X X . X X X X X X X X . X X X X X X X X . X X X X         . ",
". . . . . . . . . . . . . . . . . . . . . . . . . . . . . . . . . . . . . . . . . . . . . ",
".               .                 .                 .                 .                 . ",
".               .                 .                 .                 .                 . ",
".               .                 .                 .                 .                 . ",
". . . . . . . . . . . . . . . . . . . . . . . . . . . . . . . . . . . . . . . . . . . . . "};
