/* XPM */
static char * WPrefs3D_xpm[] = {
"48 48 375 2",
"  	c None",
". 	c #A3FF84",
"+ 	c #77B563",
"@ 	c #4A4A4A",
"# 	c #39393B",
"$ 	c #353537",
"% 	c #323234",
"& 	c #2E2E31",
"* 	c #2C2C2E",
"= 	c #29292B",
"- 	c #262628",
"; 	c #73B15F",
"> 	c #393939",
", 	c #6C6C6C",
"' 	c #626266",
") 	c #83A479",
"! 	c #808080",
"~ 	c #6F6F70",
"{ 	c #626263",
"] 	c #585859",
"^ 	c #4E4E4F",
"/ 	c #444446",
"( 	c #3C3C3D",
"_ 	c #303031",
": 	c #4D6F42",
"< 	c #242427",
"[ 	c #292929",
"} 	c #1C1C1C",
"| 	c #9A9A9B",
"1 	c #9C9C9E",
"2 	c #949495",
"3 	c #878787",
"4 	c #88A67D",
"5 	c #6D6D6D",
"6 	c #606060",
"7 	c #545454",
"8 	c #3F3F3F",
"9 	c #353535",
"0 	c #2C2C2C",
"a 	c #1F1F1F",
"b 	c #44633A",
"c 	c #0D0D0D",
"d 	c #030303",
"e 	c #000000",
"f 	c #7AB765",
"g 	c #96B88B",
"h 	c #A0BE97",
"i 	c #9EBC94",
"j 	c #91AF87",
"k 	c #84A37A",
"l 	c #7D9B73",
"m 	c #75936B",
"n 	c #6C8B62",
"o 	c #66845B",
"p 	c #607E55",
"q 	c #59774F",
"r 	c #537149",
"s 	c #4E6C43",
"t 	c #46653C",
"u 	c #405F36",
"v 	c #3B5931",
"w 	c #35542B",
"x 	c #538144",
"y 	c #70AD5B",
"z 	c #1C1C1D",
"A 	c #8F8F91",
"B 	c #ADADAD",
"C 	c #9A9A9A",
"D 	c #888888",
"E 	c #777777",
"F 	c #666666",
"G 	c #749269",
"H 	c #525252",
"I 	c #474747",
"J 	c #373737",
"K 	c #2D2D2D",
"L 	c #262626",
"M 	c #1D1D1D",
"N 	c #141414",
"O 	c #3D5B33",
"P 	c #020202",
"Q 	c #050505",
"R 	c #9F9FA3",
"S 	c #A9A9A9",
"T 	c #9D9D9D",
"U 	c #828282",
"V 	c #727272",
"W 	c #5B5B5B",
"X 	c #6D8B63",
"Y 	c #414141",
"Z 	c #303030",
"` 	c #272727",
" .	c #171717",
"..	c #39572F",
"+.	c #040404",
"@.	c #060606",
"#.	c #070707",
"$.	c #080808",
"%.	c #111111",
"&.	c #29292D",
"*.	c #506E48",
"=.	c #28282C",
"-.	c #28282B",
";.	c #1F1F22",
">.	c #050506",
",.	c #79B765",
"'.	c #939393",
").	c #A5A5A5",
"!.	c #999999",
"~.	c #737373",
"{.	c #696969",
"].	c #565656",
"^.	c #6A885F",
"/.	c #464646",
"(.	c #3C3C3C",
"_.	c #232323",
":.	c #1B1B1B",
"<.	c #090909",
"[.	c #37552C",
"}.	c #181818",
"|.	c #797979",
"1.	c #757575",
"2.	c #6B6B6B",
"3.	c #6F6F6F",
"4.	c #0F0F0F",
"5.	c #1E1E1E",
"6.	c #98B98C",
"7.	c #ABABAB",
"8.	c #8B8B8B",
"9.	c #FF1818",
"0.	c #5C5C5C",
"a.	c #67855D",
"b.	c #424242",
"c.	c #313131",
"d.	c #202020",
"e.	c #505050",
"f.	c #DFDFDF",
"g.	c #F4F4F4",
"h.	c #F1F1F1",
"i.	c #ECECEC",
"j.	c #BFBFBF",
"k.	c #454546",
"l.	c #A6C49C",
"m.	c #9F9F9F",
"n.	c #7D7D7D",
"o.	c #717171",
"p.	c #4C0000",
"q.	c #4D4D4D",
"r.	c #64835A",
"s.	c #3D3D3D",
"t.	c #343434",
"u.	c #242424",
"v.	c #1A1A1A",
"w.	c #131313",
"x.	c #0A0A0A",
"y.	c #585858",
"z.	c #EAEAEA",
"A.	c #FFFFFF",
"B.	c #FEFEFE",
"C.	c #FBFBFB",
"D.	c #E9E9E9",
"E.	c #A0BE96",
"F.	c #919191",
"G.	c #818181",
"H.	c #494949",
"I.	c #617F57",
"J.	c #282828",
"K.	c #E6E6E6",
"L.	c #F5F5F5",
"M.	c #E8E8E8",
"N.	c #D8D8D8",
"O.	c #4E4E51",
"P.	c #A3A3A3",
"Q.	c #9BBA91",
"R.	c #8A8A8A",
"S.	c #7B7B7B",
"T.	c #707070",
"U.	c #5E7D54",
"V.	c #363636",
"W.	c #555555",
"X.	c #E4E4E4",
"Y.	c #D9D9D9",
"Z.	c #CECECE",
"`.	c #747474",
" +	c #94B38A",
".+	c #5C7A51",
"++	c #0E0E0E",
"@+	c #E1E1E1",
"#+	c #FAFAFA",
"$+	c #D0D0D0",
"%+	c #77B463",
"&+	c #92B387",
"*+	c #9BB991",
"=+	c #92B188",
"-+	c #89A77F",
";+	c #809E75",
">+	c #7B9971",
",+	c #547249",
"'+	c #4D6B43",
")+	c #47663D",
"!+	c #436139",
"~+	c #3C5B32",
"{+	c #37562D",
"]+	c #CAE8C0",
"^+	c #D9F8CF",
"/+	c #C9E7BF",
"(+	c #BDDCB3",
"_+	c #6CAA58",
":+	c #484849",
"<+	c #929292",
"[+	c #8EAD84",
"}+	c #646464",
"|+	c #56754C",
"1+	c #515151",
"2+	c #EEEEEE",
"3+	c #D6D6D6",
"4+	c #C5C5C5",
"5+	c #9FBD95",
"6+	c #404040",
"7+	c #8D8D8D",
"8+	c #8AA87F",
"9+	c #676767",
"0+	c #5F5F5F",
"a+	c #506E45",
"b+	c #D3D3D3",
"c+	c #E7E7E7",
"d+	c #BDBDBD",
"e+	c #9EBD94",
"f+	c #898989",
"g+	c #86A57C",
"h+	c #636363",
"i+	c #48673E",
"j+	c #161616",
"k+	c #101010",
"l+	c #4E4E4E",
"m+	c #CCCCCC",
"n+	c #E0E0E0",
"o+	c #C8C8C8",
"p+	c #9AB990",
"q+	c #868686",
"r+	c #858585",
"s+	c #84A279",
"t+	c #3B3B3B",
"u+	c #0C0C0C",
"v+	c #010101",
"w+	c #4F4F4F",
"x+	c #C3C3C3",
"y+	c #96B58C",
"z+	c #333333",
"A+	c #809F76",
"B+	c #5A5A5A",
"C+	c #3A3A3A",
"D+	c #3E3E3E",
"E+	c #5B7951",
"F+	c #484848",
"G+	c #DEDEDE",
"H+	c #BABABA",
"I+	c #989898",
"J+	c #92B088",
"K+	c #7E9C73",
"L+	c #CACACA",
"M+	c #D1D1D1",
"N+	c #CBCBCB",
"O+	c #D7D7D7",
"P+	c #C9C9C9",
"Q+	c #BEDCB4",
"R+	c #EDEDED",
"S+	c #E5E5E5",
"T+	c #8EAC84",
"U+	c #7C7C7C",
"V+	c #2B2B2B",
"W+	c #DBF9D0",
"X+	c #F2F2F2",
"Y+	c #B3B3B3",
"Z+	c #86A47B",
"`+	c #2F2F30",
" @	c #191919",
".@	c #F3F3F3",
"+@	c #FCFCFC",
"@@	c #F9F9F9",
"#@	c #EBEBEB",
"$@	c #C7E6BD",
"%@	c #A8A8A8",
"&@	c #5C7A52",
"*@	c #54724A",
"=@	c #4D6B42",
"-@	c #44623A",
";@	c #79976F",
">@	c #6B8961",
",@	c #2A2A2A",
"'@	c #2E2E2F",
")@	c #535353",
"!@	c #EFEFEF",
"~@	c #D5D5D5",
"{@	c #CDCDCD",
"]@	c #C6C6C6",
"^@	c #AFCDA4",
"/@	c #A4A4A4",
"(@	c #9C9C9C",
"_@	c #626262",
":@	c #66845C",
"<@	c #4B4B4C",
"[@	c #323232",
"}@	c #212121",
"|@	c #CFCFCF",
"1@	c #C0C0C0",
"2@	c #B6B6B6",
"3@	c #ABC9A0",
"4@	c #A7A7A7",
"5@	c #9E9E9E",
"6@	c #969696",
"7@	c #8F8F8F",
"8@	c #6E6E6E",
"9@	c #58764E",
"0@	c #5E7C53",
"a@	c #121212",
"b@	c #F8F8F8",
"c@	c #E3E3E3",
"d@	c #C2C2C2",
"e@	c #B1B1B1",
"f@	c #A7C59C",
"g@	c #A1A1A1",
"h@	c #7E7E7E",
"i@	c #416037",
"j@	c #679C56",
"k@	c #87A57D",
"l@	c #DBDBDB",
"m@	c #AAAAAA",
"n@	c #A2C098",
"o@	c #7F7F7F",
"p@	c #679457",
"q@	c #222222",
"r@	c #BCBCBC",
"s@	c #B5B5B5",
"t@	c #949494",
"u@	c #656565",
"v@	c #2A2A2B",
"w@	c #6D6D6E",
"x@	c #B7B7B7",
"y@	c #D2F0C8",
"z@	c #AFAFAF",
"A@	c #98B78E",
"B@	c #575757",
"C@	c #4C4C4C",
"D@	c #F6F6F6",
"E@	c #D7F6CD",
"F@	c #B8B8B8",
"G@	c #B0B0B0",
"H@	c #8E8E8E",
"I@	c #616161",
"J@	c #669356",
"K@	c #6C8A61",
"L@	c #628058",
"M@	c #5A784F",
"N@	c #527148",
"O@	c #4C6B42",
"P@	c #45643B",
"Q@	c #3E5C34",
"R@	c #4F6E45",
"S@	c #739169",
"T@	c #AECCA4",
"U@	c #ADCCA3",
"V@	c #A0BF96",
"W@	c #9CBA92",
"X@	c #97B68D",
"Y@	c #78966D",
"Z@	c #638159",
"`@	c #537249",
" #	c #506F46",
".#	c #787878",
"+#	c #5C7B52",
"@#	c #0B0B0B",
"##	c #252525",
"$#	c #3A5930",
"%#	c #517E41",
"                                                                                                ",
"  . . . . . . . . . . . . . . . . . . . . . . . . . . . . . . . . . . . . . . . . . . . . . .   ",
"  .                 .                 .                 .                 .                 .   ",
"  .                 .                 .                 .                 .                 .   ",
"  .                 .                 .                 .                 .                 .   ",
"  .                 .                 .                 .                 .                 .   ",
"  .                 .                 .                 .                 .                 .   ",
"  .                 .                 + @ # $ % & * = - ;                 .                 .   ",
"  .                 .           > , ' ) ! ~ { ] ^ / ( _ : < [             .                 .   ",
"  .                 .       } | 1 2 3 4 5 6 7 @ 8 9 0 a b c d e e         .                 .   ",
"  . . . . . . . . . . . . f g h i j k l m n o p q r s t u v w w w x y . . . . . . . . . . . .   ",
"  .                 .   z A B C D E F G H I 8 J K L M N O d e e e P Q e   .                 .   ",
"  .                 . a R S T U V F W X @ Y > Z ` a  .c ..e e +.@.#.$.%.&.*.=.-.;.>.        .   ",
"  .                 ,.'.).!.D ~.{.6 ].^./.(.9 K _.:.N <.[.e }.W |.1.2.3.4.w e e e e         .   ",
"  .               5.6.7.T 8.|.9.9.0.H a.b.> c.[ d. .4.@.w e e.f.g.h.i.j.9.9.e e e e         .   ",
"  .               k.l.m.8.n.o.9.9.p.q.r.s.t.0 u.v.w.x.P w e y.z.A.B.C.D.9.9.p.e e e         .   ",
"  .               1 E.F.G.1.5 9.9.p.H.I.> Z J.d. .4.#.e w e ].K.A.L.M.N.9.9.p.e e e         .   ",
"  .             O.P.Q.R.S.T.{.9.9.9./.U.V.0 u.} w.x.d e w e W.X.A.z.Y.Z.9.9.9.e e e         .   ",
"  .             `.!. +U `., 9.9.9.9.p..+Z ` a  .++@.e e w e 7 @+#+@+$+9.9.9.9.p.e e         .   ",
"  . . . . . . %+&+*+=+-+;+>+9.p.p.9.p.q ,+'+)+!+~+{+w w w w n ]+^+/+(+9.p.p.9.p.w _+. . . . .   ",
"  .           :+C <+[+E , }+9.p.@ 9.p.|+[ d. .4.@.e e e w e 1+Y.2+3+4+9.p.5+9.p.e e         .   ",
"  .           6+7+R.8+o.9+0+9.p./.9.p.a+d.}.%.<.P e e e w e e.b+c+Z.d+9.p.e+9.p.5.e         .   ",
"  .           J 3 f+g+5 h+9.9.p.Y 9.9.i+j+k+x.+.e e e e w e l+m+n+o+9.9.p.p+9.9.} e         .   ",
"  .           t.q+r+s+{.0+9.p.p.t+9.9.p.u+$.+.v+e e e e w e w+b+f.x+9.p.p.y+9.9.p.e         .   ",
"  .           z+r+! A+}+B+9.p.8 c.a 9.p.C+Y D+C+D+z+/.c.E+F+m.D.G+H+9.p.I+J+~.9.p.e         .   ",
"  .           t.U S.K+6 9.9.p.t+K M 9.p.L+$+$+M+m+N+O+P+Q+G+R+S+o+9.9.p.<+T+3.9.p.e         .   ",
"  .           z+U+9.>+0.9.9.p.J V+} 9.p.g.B.B.B.B.B.B.C.W+X+9.L+Y+9.9.p.8.Z+}+9.p.e         .   ",
"  .           `+9.9.9.y.9.p.p.z+L  @9.p..@B.B.+@@@X+#@n+$@9.9.9.%@9.p.p.G.l y.9.p.e         .   ",
"  . 9.9.9.9.9.9.9.p.9.p.9.p.&@*@=@-@9.p.9.9.9.9.9.9.9.9.9.9.p.9.p.9.p.j Z+;@>@9.p.9.9.9.9.9..   ",
"  . p.p.p.p.p.p.p.p.9.9.9.p.V.,@d.N 9.9.9.p.p.p.p.p.p.p.p.p.p.9.9.9.p.G.3.G C+9.9.9.p.p.p.p..   ",
"  .             '@)@n 9.p.p.Z L :.k+k+9.p.p.!@f.~@{@]@d+^@B /@(@9.p.p.E _@:@a e 9.p.p.      .   ",
"  .               <@a.I p.[@,@}@}.++4.-+p.C.M.Y.|@o+1@2@3@4@5@6@7@p.S.8@W.9@$.e e p.        .   ",
"  .               } 0@s.t.[ d. @a@x.++4 h.b@c@b+P+d@H+e@f@g@I+F.D h@T.0.t.i@P e e e         .   ",
"  .                 j@(.V+ @%.u+<.Q u+k@h.X+l@m+x+H+Y+m@n@C F.f+o@T.F H } [.e e e e         .   ",
"  .            @9 c.p@t+` } %.%.k+4.q@e+b@X+3+]@r@s@B P.i t@R.! 3.W e.K x.w e e e e         .   ",
"  .           [@u@0.>@s.v@w@m@Y+).m.x@y@B.S+{@1@2@z@4@5@A@8.n.8@B+V.q@<.e w e e e e         .   ",
"  .           0 B@C@I.t.L }., |@K.g.D@E@G+x+F@G@4@m.I+H@8+`.I@W.Z @.e e e w e e e e         .   ",
"  . . . . . . J@K@L@M@N@O@P@Q@R@S@5+T@U@3@V@W@X@=+T+8+s+Y@S@Z@`@Q@w w w w w w w w _+. . . . .   ",
"  .           J.@ V. #d. @w.u+Q #.v.C@A+U ! U+.#o.2.F W +#Z  .@.v+e e e e w e e e e         .   ",
"  .           v.0 }.i@++@##.+.v+e e e w  @} q@` ##_.M  .$#e e e e e e e e w e e e e         .   ",
"  .           P P e %#e e e e e e e e %#e e e e e e e e %#e e e e e e e e %#e e e e         .   ",
"  .                 .                 .                 .                 .                 .   ",
"  .                 .                 .                 .                 .                 .   ",
"  .                 .                 .                 .                 .                 .   ",
"  .                 .                 .                 .                 .                 .   ",
"  .                 .                 .                 .                 .                 .   ",
"  . . . . . . . . . . . . . . . . . . . . . . . . . . . . . . . . . . . . . . . . . . . . . .   ",
"                                                                                                "};
