/* XPM */
static char * WPrefs_xpm[] = {
"58 58 256 2",
"  	c None",
". 	c #030304",
"+ 	c #0A4202",
"@ 	c #0B8E02",
"# 	c #619B21",
"$ 	c #8F8F8F",
"% 	c #1AAA0A",
"& 	c #A63B31",
"* 	c #E2DEB2",
"= 	c #2B5306",
"- 	c #B6923E",
"; 	c #61B01A",
"> 	c #7E5232",
", 	c #ADC1AA",
"' 	c #191D70",
") 	c #265E02",
"! 	c #7A281C",
"~ 	c #1BD703",
"{ 	c #9FB32F",
"] 	c #489215",
"^ 	c #AEAEAB",
"/ 	c #5ED30B",
"( 	c #4A220E",
"_ 	c #68686C",
": 	c #4EA10D",
"< 	c #143202",
"[ 	c #6A622E",
"} 	c #14185B",
"| 	c #9E5636",
"1 	c #94C224",
"2 	c #3F960C",
"3 	c #EEEA34",
"4 	c #316617",
"5 	c #26D206",
"6 	c #3A9710",
"7 	c #464A8E",
"8 	c #24B30B",
"9 	c #A8A9A9",
"0 	c #94880C",
"a 	c #61DE07",
"b 	c #111F08",
"c 	c #879480",
"d 	c #101246",
"e 	c #CB6E5A",
"f 	c #C6E22A",
"g 	c #5155CD",
"h 	c #46B20E",
"i 	c #38DE09",
"j 	c #8AE212",
"k 	c #6E6E6E",
"l 	c #A1971E",
"m 	c #4DB70A",
"n 	c #383937",
"o 	c #9E8032",
"p 	c #368E11",
"q 	c #131412",
"r 	c #A2A2A1",
"s 	c #0E7E02",
"t 	c #3EBE10",
"u 	c #24BA09",
"v 	c #F5F5F5",
"w 	c #E6CC25",
"x 	c #828E76",
"y 	c #AE7242",
"z 	c #8E8E32",
"A 	c #84B71E",
"B 	c #A5C729",
"C 	c #7B7BD2",
"D 	c #D6D5D4",
"E 	c #C26E52",
"F 	c #4F8911",
"G 	c #9E9E9E",
"H 	c #2E5222",
"I 	c #43D407",
"J 	c #7EEA0A",
"K 	c #864222",
"L 	c #6E8A4E",
"M 	c #3ABE0E",
"N 	c #51C107",
"O 	c #C2AA2C",
"P 	c #58EB02",
"Q 	c #2E305A",
"R 	c #262BC1",
"S 	c #3B3C54",
"T 	c #74D26A",
"U 	c #0B0C2F",
"V 	c #7AC21A",
"W 	c #D6BA1A",
"X 	c #358A12",
"Y 	c #2A5E06",
"Z 	c #6AEF06",
"` 	c #56E603",
" .	c #5E62D2",
"..	c #9A9A9A",
"+.	c #4E4F4E",
"@.	c #D6CA8E",
"#.	c #34C609",
"$.	c #0D0E0F",
"%.	c #4CD80A",
"&.	c #6D9924",
"*.	c #424245",
"=.	c #465E1E",
"-.	c #BA6652",
";.	c #467638",
">.	c #2C2F76",
",.	c #CECECA",
"'.	c #1F203F",
").	c #22AE0A",
"!.	c #3A220C",
"~.	c #101239",
"{.	c #74B023",
"].	c #292B25",
"^.	c #74CD12",
"/.	c #D0BC2A",
"(.	c #64EA06",
"_.	c #9AB282",
":.	c #788010",
"<.	c #769A6A",
"[.	c #BABAB8",
"}.	c #C0C0BF",
"|.	c #ECECEC",
"1.	c #96CA6E",
"2.	c #2EC508",
"3.	c #C2BA86",
"4.	c #74DC12",
"5.	c #ADBE31",
"6.	c #7A8167",
"7.	c #4E4E96",
"8.	c #3FA10E",
"9.	c #8A8ACA",
"0.	c #CEC69E",
"a.	c #5A5A5A",
"b.	c #869226",
"c.	c #A2CA7E",
"d.	c #56E202",
"e.	c #348613",
"f.	c #8A8A8A",
"g.	c #A2BA86",
"h.	c #969696",
"i.	c #1D2397",
"j.	c #090A0A",
"k.	c #9EA66E",
"l.	c #4E5E36",
"m.	c #6CA520",
"n.	c #94C81E",
"o.	c #54CC08",
"p.	c #21BE07",
"q.	c #7A7A7A",
"r.	c #329622",
"s.	c #313138",
"t.	c #282A70",
"u.	c #3A1612",
"v.	c #838383",
"w.	c #252525",
"x.	c #EFDF38",
"y.	c #2E7E12",
"z.	c #92A687",
"A.	c #B2B835",
"B.	c #AEE21E",
"C.	c #14142E",
"D.	c #668E5E",
"E.	c #58D605",
"F.	c #6AC814",
"G.	c #43CC11",
"H.	c #3A40C9",
"I.	c #308212",
"J.	c #5E581E",
"K.	c #2A4818",
"L.	c #6EDF11",
"M.	c #929E6A",
"N.	c #9EB696",
"O.	c #522212",
"P.	c #6BBD16",
"Q.	c #964E3A",
"R.	c #26AE0A",
"S.	c #DAC953",
"T.	c #2AC309",
"U.	c #4FAD0E",
"V.	c #4A6E26",
"W.	c #79A126",
"X.	c #64E608",
"Y.	c #6E9662",
"Z.	c #37396C",
"`.	c #5EAA16",
" +	c #21267A",
".+	c #9696CE",
"++	c #54951D",
"@+	c #8C2D23",
"#+	c #4E506A",
"$+	c #666766",
"%+	c #98D41E",
"&+	c #565655",
"*+	c #74CA3A",
"=+	c #57D715",
"-+	c #94B02C",
";+	c #89A72A",
">+	c #DA8266",
",+	c #9E9ECE",
"'+	c #E0E0E0",
")+	c #45AB0C",
"!+	c #B4B4B4",
"~+	c #5E629E",
"{+	c #BA5242",
"]+	c #0A9202",
"^+	c #0D0E25",
"/+	c #7A7AAE",
"(+	c #66D209",
"_+	c #282E9A",
":+	c #2EDE06",
"<+	c #47484C",
"[+	c #8ECE4E",
"}+	c #FBFBFB",
"|+	c #1FC207",
"1+	c #6ADF0D",
"2+	c #C8C9C7",
"3+	c #41423A",
"4+	c #7ABA1D",
"5+	c #B35B49",
"6+	c #652316",
"7+	c #1D2180",
"8+	c #B5BF33",
"9+	c #448A0E",
"0+	c #191B1D",
"a+	c #747575",
"b+	c #77AA21",
"c+	c #60605F",
"d+	c #13141E",
"e+	c #3ECA0A",
"f+	c #5FBE11",
"g+	c #ACA834",
"h+	c #3ACA0E",
"i+	c #93BD33",
"j+	c #1C3F05",
"k+	c #9692B6",
"l+	c #0A0A22",
"m+	c #D2D232",
"n+	c #6CD41A",
"o+	c #6A7666",
"p+	c #AAAACA",
"q+	c #22265A",
"r+	c #828A7E",
"s+	c #867E38",
"t+	c #43861B",
"u+	c #E6E6E6",
"v+	c #BBA61B",
"w+	c #7A9F6F",
"x+	c #46DE02",
"y+	c #347010",
"z+	c #80CF19",
"A+	c #F4F63E",
"B+	c #663216",
"C+	c #1F2276",
"D+	c #A9B332",
"E+	c #9E9682",
"F+	c #6ED40B",
"G+	c #32762E",
"                                                                                                                    ",
"                                                                                                                    ",
"                                                                                                                    ",
"      + ]+]+]+]+]+]+]+]+]+]+]+]+]+]+]+]+]+]+]+]+]+]+]+]+]+]+]+]+]+]+]+]+]+]+]+]+]+]+]+]+]+]+]+]+]+@ G+G !+9 +.      ",
"      ]+~ |+|+|+|+|+|+|+|+~ ~ |+|+|+|+|+|+|+|+~ ~ |+|+|+|+|+|+|+|+~ ~ |+|+|+|+|+|+|+|+~ ~ p.|+|+p.% ;.D '+2+9       ",
"      ]+|+y.y.y.y.y.y.y.y.8 p.y.y.y.y.y.y.y.y.8 u y.y.y.y.y.y.y.y.u 8 y.y.y.y.y.y.y.y.p.8 y.y.y.y.4 a.v '+2+9       ",
"      ]+p.y.y.y.y.y.y.y.y.8 u y.y.y.y.y.y.y.I.8 8 I.y.y.y.y.y.y.y.u 8 y.y.y.y.y.y.y.y.u 8 y.y.y.y.4 h.v ,.}.9       ",
"      ]+p.y.y.y.y.y.y.y.y.8 p.y.y.y.y.y.y.I.e.u p.X X X X X X X X p.8 I.y.y.y.y.y.y.y.p.8 y.y.y.G+3+'+|.!+!+!+      ",
"      ]+p.y.y.y.y.y.y.y.y.8 u y.y.I.I.e.e.X p 2.2.6 8.6 8.6 6 6 6 2.T.X e.I.I.y.y.y.y.u 8 y.y.y.y+c+v ,.r }.!+      ",
"      ]+p.y.y.y.y.y.y.y.y.8 u y.I.I.e.p r.8.)+h+I m h m h m m m )+I h+6 6 X I.I.y.y.y.p.8 y.y.y.H ,.'+G ..2+}.      ",
"      ]+p.y.y.y.y.y.y.y.y.8 p.I.X p 6 8.)+h N x+d.E.o.E.o.o.o.E.N x+x+h )+8.6 p I.I.y.p.% y.y.y.+.'+!+h.9 }.z.      ",
"      ]+p.y.y.y.y.y.y.y.y.8 p.X r.8.)+m N o.E.` d.E.a a d.a d.a d.` d.o.N m )+6 r.e.I.p.8 y.y.4 r 2+h.9 [., D.      ",
"      ]+p.y.y.y.y.y.y.y.y.8 |+8.)+h N E.E.E.N 6 ) < b b b < = y.m (.P a E.o.t )+8.6 p |+8 y.y.K.^ 9 $ r ^ T @       ",
"      ]+~ 8 ).8 ).8 ).8 8 5 :+e+I x+d.d.h j+$.. . . . . . . . . . < y+o.` X.d.%.I #.#.5 5 u ).a.^ $ $ G !+T ]+      ",
"      ]+~ p.u p.u u u p.2.:+i x+P P o.j+j.j.. j.j.$.$.j.. . . . . . . b I.d.P ` ` x+i :+:+2.r.v.h.v.v.^ , G.]+      ",
"      ]+p.y.y.y.I.I.X p 8.e+x+E.E.6 q j.j.$.q $.q $.l+. . . . . . . . . . K.N X.E.o.N x+e+;.o+..r+v.G 2+, |+]+      ",
"      ]+p.y.y.y.I.I.p 6 )+%.` a I.j.j.$.q j.$.q q l+^+U U l+l+. . . . . . . b N 1+a a o.t+o+$ $ v.$ ^ 2+N.|+]+      ",
"      ]+|+y.y.y.I.I.6 )+N d.P y+j.$.q q l+U ^+~.~.d U ~.d U U U U $.. . . . s.H X )+9+V.o+$ f.f.$ ..}.2+z.p.]+      ",
"      ]+|+y.y.y.I.p 8.h N ` m . $.q $.l+U d d d d } } } } } d d U s.*.*.<+3++.}.<+j.j+&+q.$ v.$ h.r 2+2+z.|+]+      ",
"      ]+p.y.y.I.X 6 )+N E./ b q q d+U ~.} d } } } } } } } } } d C.v.D D '+'+'+'+^ j.d+k v.$ h.G r !+,.!+w+p.]+      ",
"      ]+p.y.y.I.p 8.t / a ) . q d+~.d '.} } } ' ' ' ' ' } ' } } C.$ '+'+u+u+u+u+D ]._ f.$ h.G 9 !+}.D !+Y.|+]+      ",
"      ]+|+I.I.e.6 )+N E.N $.q q ~.d '.s.t.' ' ' ' ' ' ' ' ' ' d ^+$ u+|.|.|.|.|.u+q.v.$ h.9 ^ !+[.2+2+..w+p.]+      ",
"      ]+p.I.I.X 8.m o.a 4 j.q C.d } q+3+S ' ' ' 7+' 7+t.Q ' ' } ^+h.|.v v v v v u+f.$ G 9 ^ !+[.[.[.}.x Y.|+]+      ",
"      ]+~ 8 8 T.#.I ` P b q 0+C.} } S *.S t.7+7+' C+Z.<+<+t.' } ^+G |.v v }+v v D q.G ^ !+[.}.[.[.^ p+<.8 ~ ]+      ",
"      ]+~ u p.#.I %.` o.$.q d+d } ' *.>.S *.7+7+7+t.*.+.<+n ' } l+G |.}+}+}+}+v [.v.9 !+[.}.}.[.9 h...w+u ~ ]+      ",
"      ]+|+e.9+6 U.o.a 9+$.q d d } ' *.7+S <+t.7+7+>.<+<++.<+S s.$.G v v }+}+}+}+!+..!+}.!+[.^ G $ q.c ++t+|+]+      ",
"      ]+T.X ] : h / a 4 q d+d } ' ' *.Z.Z.<+Z.7+C+Z.+.<++.<+<+n . ..|.v }+v v v r 9 !+[.!+9 ..v.a+a+r+p t+2.]+      ",
"      ]+T.F ] : m / 1+K.$.0+'.q+' 7+t._+Z.+.<+<+<+<++.+.<++.<+s.. ..|.|.v v v |.h.9 [.^ G $ a+_ c+q.++F 9+T.]+      ",
"      ]+T.] ++: f+/ a j+q '.s.Q C+Q C+_+<+#++.+.#++.+.+.<+<+<+n . h.u+|.|.v |.2+$ 9 9 h.v.a+$+c+c+c ++] t+T.]+      ",
"      ]+2.F ++: f+(+L.j+q w.n S *.Q ' _+<+<+S *.<++.+.&+&+a.a.&+s.G '+'+u+u+u+h.v.G f.q.c+a.a.a.v.; ++] ] 2.]+      ",
"      ]+2.++# `.f+/ L.= q w.n *.Z.7+i.R Z.w.a.$ $ h...r 9 !+!+}.2+,.D '+'+'+2+a+f.v.k $+c+&+a._ ..; ++++F 2.]+      ",
"      @ T.++: `.f+F+1+y+q ].s.Q Z._+R R Q j.&+$ f.h.h.G r 9 !+}.}.2+,.,.D D !+a+q.a+c+&+&+a.c+$ P.; # ++++2.]+      ",
"      @ 2.++# `.f+(+1+] q w.S #+7 H.H.H.Q j.&+$ f.$ E+..G 9 ^ !+[.}.2+2+2+2+!+q.k _ a.a.c+c+a+_.F.; : &.++#.]+      ",
"      @ 5 t e+G.d.` (.U.d+n _ k ~+g g H.Q . &+f.f.$ $ h...G 9 9 ^ !+!+[.}.}.}.9 $ _ &+c+$+k f.T d.I e+M t ~ ]+      ",
"      @ 5 t e+G.E.d.(.U.].c+v.f./+/+ .g Q . &+$ f.$ $ h.h...r 9 9 ^ !+!+!+[.!+[.!+9 c+<+#+_ c a a I G.e+t :+]+      ",
"      @ #.&.&.m.P.^.F+: l.v.G ..k+9.C g n . &+f.f.f.f.f.h.h.h.G G r r 9 p+9 ^ 9 9 r n j.0+&+{.n+F.; m.# &.h+]+      ",
"      ]+h+&.m.`.P.F+F+++6.E+^ ^ p+,+9.7.n . &+f.f.f.f.f.$ h.h.h...G G r r r G h.$ q.0+. . 9+1+4.^.{.W.&.&.h+]+      ",
"      ]+h+W.&.b+4+^.F+m.M.^ 3.[.!+p+.+<+n . &+$ f.f.f.f.f.f.$ h.h.h.h...G h.q._ a+f.q.s.0+: L.4.F.P.{.W.&.h+]+      ",
"      ]+h+W.m.b+P.F+F+m.k.0.@.,.}.!+~++.n . &+f.f.f.f.f.f.f.f.$ h.h.$ h.$ a+k a+..}.2+2+!+1.4.4.^.{.b+W.W.h+]+      ",
"      ]+h+W.W.{.V ^.V b.z @.* D [.k a.c+a.+.a+$ f.f.f.f.f.f.f.f.f.$ $ f.c+c+v.[.}.2+2+2+2+D c.4.^.4+b+W.W.I ]+      ",
"      ]+G.W.;+A V A v+v+S.S.3.[ c+f.f.f.f.f.f.f.f.f.f.f.f.f.f.f.f.f.f.a+*._ f.9 ^ !+^ ^ h.D }.[+z+4+b+W.W.G.]+      ",
"      ]+G.W.;+A b+l W S.x.S.s+$.j.c+f.$ f.$ f.$ f.f.f.f.f.f.f.f.f.f.f.<+_ _ +._ $ ..9 9 9 }.2+N.z+V A ;+;+G.]+      ",
"      ]+I ;+;+W.b.v+w x.x./.J.C.. . n v.f.$ f.$ f.f.f.f.f.f.f.f.f.f.f.s.h.r $ _ c+k v.f.v.!+}.9 z+i+b+;+;+G.]+      ",
"      ]+:+G.U.:.l W x.3 x.- n 3+q . . $.&+v.$ f.f.f.f.f.f.f.f.f.f.v.c+w.h.D '+2+9 h.v.a+&+h.G G d.=+%.o.G.:+]+      ",
"      ]+i U.F 0 v+w A+A+8+[ 3+S n q . . . j.n c+q.v.f.f.f.v.q.c+n $.q 0+a.r '+D 2+2+}.9 $+!+9 G 1+(+/ o.o.i ]+      ",
"      ]+t 0 0 v+w 3 A+3 0 s.s.s.n s.q . . j.j.j.d+w.].].].w.0+$.$.j.j.. $.*.v.9 ^ 9 !+9 !+|.[._.z+1 -+k.-+I ]+      ",
"      s y+B+K | O A+A+m+J.w.s.s.s.].q . . . $.0+].n *.<+<+*.n w.0+$.. . . a+}.h.$ v.f.E+!+[...i+[+1 -+-+g+%.]+      ",
"      ].( 6+! @+5+@.A+f z+/ (+(+F+(+(+o.F.(+F./ (+(+(+^.F+F+(+(+(+E.E.F.t+0+..,.G q.v.h...a+L z+n.i+{ g+-+E.]+      ",
"      !.( 6+! & e >+3 B.J Z Z J J J J J J J J Z Z J J J J J J J J Z Z J J 9+q <+v.h.!+v.n =.V n.1 i+{ { g+%.@       ",
"      ( 6+! @+{+>+y g+%+%+(.(.j j j j j j j j Z (.j j j j j j j j Z Z j j j P.=.b q b j+F n.%+n.5.D+D+D+D+=+]+      ",
"      O.! ! & E -.y { %+%+L.a %+%+n.%+%+n.%+%+L.1+%+%+%+%+%+%+%+%+X.X.%+%+%+%+%+%+n.n.d.L.B B 5.{ D+D+D+D+=+]+      ",
"      6+! @+{+-.5+y D+5.5.L.a 5.5.B B B B B B 1+1+B B B B B B B B 1+4.B B B B B B B 5.a 1+5.5.A.A.A.D+O A.=+]+      ",
"      6+@+& e 5+5+- A.8+A.n+=+8+A.A.8+8+8+A.5.n+a A.8+A.8+8+A.8+8+/ n+8+8+8+8+A.8+5.A./ n+A.A.A.A.A.A.D+D+/ ]+      ",
"      6+@+{+-.5+s+o.=+=+=+x+:+E.=+=+=+=+=+=+=+i i =+=+=+E.=+=+=+=+i i =+=+=+E.=+=+/ =+:+i =+/ =+/ =+=+=+=+:+]+      ",
"      u.! Q.Q.> V.@ ]+@ @ @ @ @ ]+@ ]+@ ]+@ @ @ ]+@ ]+@ @ ]+@ @ @ @ @ @ @ @ @ @ ]+@ @ @ @ ]+]+]+]+]+]+]+]+]++       ",
"                                                                                                                    ",
"                                                                                                                    ",
"                                                                                                                    "};
