/* XPM */
static char * image_name[] = {
"48 48 47 1",
" 	c None",
".	c #000000000000",
"X	c #082082079658",
"o	c #10407DF7AEBA",
"O	c #00007DF79E79",
"+	c #186179E7A699",
"@	c #08207DF7A699",
"#	c #10408207AEBA",
"$	c #10408207A699",
"%	c #10407DF79E79",
"&	c #18618617A699",
"*	c #104079E79E79",
"=	c #B6DAB6DAB6DA",
"-	c #71C671C671C6",
";	c #38E338E338E3",
":	c #082000009E79",
">	c #082082079E79",
",	c #08208207A699",
"<	c #08208207AEBA",
"1	c #08208617A699",
"2	c #104079E7AEBA",
"3	c #FFFFFFFFFFFF",
"4	c #104075D6A699",
"5	c #00008207A699",
"6	c #A699A699A699",
"7	c #79E77DF779E7",
"8	c #10408617A699",
"9	c #186175D6A699",
"0	c #18618A289658",
"q	c #082079E7AEBA",
"w	c #186179E79E79",
"e	c #30C230C230C2",
"r	c #18618A289E79",
"t	c #18617DF79E79",
"y	c #08207DF7AEBA",
"u	c #10407DF79658",
"i	c #08208617AEBA",
"p	c #104079E79658",
"a	c #082079E7A699",
"s	c #082079E79E79",
"d	c #10408A28A699",
"f	c #104079E7A699",
"g	c #00007DF7A699",
"h	c #08207DF79E79",
"j	c #000086179E79",
"k	c #10407DF7A699",
"l	c #104082079E79",
"                                                ",
"                                                ",
"                                                ",
"                                                ",
"                                                ",
"                                                ",
"                                                ",
"                                                ",
"                                                ",
"                                                ",
"                                                ",
"                                                ",
"                                                ",
"                                                ",
"                                                ",
"                                                ",
"                                                ",
"  ...............              ...............  ",
"  .XoO+o@#$%&*=-.;                              ",
"  .$:::::>,<1%=-.;       .     .$:::::>,<1%=-.; ",
"  .233333145%,67.;       ..                     ",
"  .833333@#90&67.; . . .....   .833333@#90&67.; ",
"  .q333:::::,@=-.; . . ......                   ",
"  .weee33333%1=-.; . . ....... .weee33333%1=-.; ",
"  .1%,r33333t267.; . . ......                   ",
"  .*yu@33333ip67.; . . .....   .*yu@33333ip67.; ",
"  .$a*ueeeeeas=-.;       ..                     ",
"  .=-df$4ug,*q=-.;       .     .=-df$4ug,*q=-.; ",
"  .eehja*fjg<kl4.;                              ",
"  ...............;             ...............; ",
"   ;;;;;;;;;;;;;;;                              ",
"                                                ",
"                                                ",
"                                                ",
"                                                ",
"                                                ",
"                                                ",
"                                                ",
"                                                ",
"                                                ",
"                                                ",
"                                                ",
"                                                ",
"                                                ",
"                                                ",
"                                                ",
"                                                ",
"                                                "};
