/* XPM */
static char * image_name[] = {
"48 48 67 1",
" 	c None",
".	c #FFFFEFBE69A6",
"X	c #FFFFFBEEB6DA",
"o	c #082004100820",
"O	c #082008200820",
"+	c #410345144103",
"@	c #410345144924",
"#	c #38E33CF34103",
"$	c #410341034103",
"%	c #000000000000",
"&	c #28A228A228A2",
"*	c #49244D345144",
"=	c #208120812081",
"-	c #8E38861738E3",
";	c #FFFFF7DEA699",
":	c #FFFFFFFFFFFF",
">	c #20811C712081",
",	c #30C230C230C2",
"<	c #000004100000",
"1	c #30C22CB21040",
"2	c #4924492430C2",
"3	c #9E7996584924",
"4	c #186118611861",
"5	c #30C22CB230C2",
"6	c #38E334D338E3",
"7	c #79E775D630C2",
"8	c #208124922081",
"9	c #A699A289A699",
"0	c #BEFBC30BBEFB",
"q	c #BEFBBEFBBEFB",
"w	c #492449244924",
"e	c #CF3CCF3CCF3C",
"r	c #DF7DDF7DDF7D",
"t	c #D75CD75CD75C",
"y	c #10400C301040",
"u	c #FFFFFBEEFFFF",
"i	c #79E779E779E7",
"p	c #104010401040",
"a	c #F7DEF3CEF7DE",
"s	c #38E338E338E3",
"d	c #79E77DF779E7",
"f	c #B6DAB6DAB6DA",
"g	c #186114511861",
"h	c #CF3CCB2BCF3C",
"j	c #A69996584924",
"k	c #9E799E799E79",
"l	c #9E799A699E79",
"z	c #EFBEF3CEEFBE",
"x	c #49244D344924",
"c	c #514451445144",
"v	c #69A669A669A6",
"b	c #30C234D330C2",
"n	c #514455555144",
"m	c #965892489658",
"M	c #EFBEEFBEEFBE",
"N	c #E79DEBADE79D",
"B	c #861786178617",
"V	c #861782078617",
"C	c #71C671C671C6",
"Z	c #AEBAAEBAAEBA",
"A	c #41033CF34103",
"S	c #B6DAB2CAB6DA",
"D	c #618565956185",
"F	c #A6999E795144",
"G	c #71C675D671C6",
"H	c #8E3882074103",
"J	c #9E7992484924",
"                                                ",
"                                                ",
"                            .                   ",
"                            X                   ",
"                     oOO+@#####$OO%             ",
"                   %&*==%-;%:%X.%=>%            ",
"                  %,&<%%%12%%%%%%%%OO%          ",
"               . %&O%%%%%%%%X%%%%%%%%=o         ",
"               X%&<%%%%%%%%%3%%%%o4444566666    ",
"               %&%%%%%%%%%%%7%%%%8900qqw%%%%    ",
"            -;%:oX.%%%%%%%%%%%%%%&e::::r$<%%    ",
"            128%%%%%%%%%%%%%%%%%%8e:::::t8%%    ",
"            %8yX%%%%%%%%%%%%%%%%%&e:::::ui%%    ",
"        .  %,Op3%%%%%%%%%%%%%%%%%8e::::::rp%    ",
"        X %><%%7%%%%%%%%%%%%%%%%%&e::::::as%    ",
"         %>O%6%%%%%%%%%%%%%%%%%%%8e::::::ud%    ",
"     -; :8X.%O%%%%%%%%%%%%%%%%%%%&e:::::::f4    ",
"     12%gO%%%%%%%%%%%%%%%%%%%%%%%8e:::::::h8    ",
"      %gX%&%%%%%%%%%%%%%%%%%%%%%%&e:::::::h8    ",
"     %4oj%O%%%%%%%%%%%%$kkllkl9l9fz:::::::h8    ",
"    %O%%7%%%%%%%%%%%%%%xu:::::::::::::::::h8    ",
"   %oo%=%%%%%O%%%%%%%%%xu:::::::::::::::::04    ",
"   O%O%o%%%%%6%%%%%%%%%xu:::::::::::::::::k%    ",
"  %%%%%%%%%%.%%%%%%%%%%xu::::::::::::::::ax%    ",
" %%%g%%%%%O%X<p%%%%%%%%xu::::::::::::::::r4%    ",
" %o%o%%%%%&%%%O%%%%%%%%cu::::::::::::::::v%%    ",
" %%%%%%%%-;%:%X.%%%%%%%xu:::::::::::::::e8%%    ",
" O%%%%%o%12y%%%%%%%%%%%x:::::::::::::::r$o%%    ",
" %%%%%%=%%%OX%%%%Obbbbbd::::::::::::::an%%%%    ",
" %%%%%%%%%%o3%%%%pmtrrrM:::::::::::::NiO%%%%    ",
" %%%o%%%y%%%7%%%%%%vr::::::::::::::ues%%%%%%    ",
" %%%g%%%o%%%o%%%%%%%,Ba:::::::::::aV&%%%%%%%.   ",
" %%%%%%%o%%%%%%%%%%%%%4CZet:::teZC4%%%%%%%%%X   ",
" %%%%O%%%%%%%%%%%%%%%%%%O8,ccc,8O%%%%%%%%%%%    ",
" y%%%<%%%%%%OOOpp#mMzaaaaaaaaazNB&%%%%%%%-; : X.",
" %%%%<%%.%%%p4=88&8AVSetaaateSVby%%%%%%%%12     ",
" %<%%%%%X%%%%y>&&&&&&,+xvvvx+5>O%.%%%%%%%   X   ",
" %%%%%%%%OOyggsBhheeeeeeeeehhi8%%X%%%%      3   ",
"  %%%-;%:gX.5,,b+ikSfeeefSkiAg%%%%%%%%      7   ",
"   %%12%%%p8bbbbbbswcDDDcws&y%-;%:%X.%          ",
" %%%%%ooXoo=nVVBBBBBBBBBVVc4%%12%%%             ",
" %%%%%p4F44>>&xDCGBBBGCDx8y%%%%%%X%             ",
" %%%%%%yH>>>>>>=5,A2#,5=4o%%%%%%%J%             ",
" %%%%%%%O>,bbbbbbb66bb,4O%%%%%%% 7              ",
" %%%%%%%%%og8&5bbb5&8go%%%%%%%%%                ",
" %%%%%%%%%%%%oOpppOO%%%%%%%%%%%%                ",
"                                                ",
"                                                "};
