/* XPM */
static char * image_name[] = {
"48 48 205 2",
"  	c None",
". 	c #5AD65AD69CE6",
"X 	c #084208426318",
"o 	c #000000000000",
"O 	c #4A525294CE72",
"+ 	c #42104A52C630",
"@ 	c #42104210C630",
"# 	c #39CE4210C630",
"$ 	c #39CE4210BDEE",
"% 	c #318C39CEBDEE",
"& 	c #318C318CBDEE",
"* 	c #294A318CB5AC",
"= 	c #294A294AB5AC",
"- 	c #2108294AB5AC",
"; 	c #21082108AD6A",
": 	c #18C62108AD6A",
"> 	c #18C618C6AD6A",
", 	c #10841084A528",
"< 	c #08421084A528",
"1 	c #08420842A528",
"2 	c #084208429CE6",
"3 	c #000000009CE6",
"4 	c #108410841084",
"5 	c #294A294A294A",
"6 	c #108418C6AD6A",
"7 	c #BDEEBDEEE738",
"8 	c #94A494A4D6B4",
"9 	c #318C318CAD6A",
"0 	c #318C318C318C",
"q 	c #294A294AAD6A",
"w 	c #9CE69CE6D6B4",
"e 	c #B5ACB5ACDEF6",
"r 	c #5AD65AD6BDEE",
"t 	c #39CE39CE39CE",
"y 	c #39CE39CEBDEE",
"u 	c #4A524A524A52",
"i 	c #FFFFFFFFFFFF",
"p 	c #8420EF7A94A4",
"a 	c #8C62F7BC94A4",
"s 	c #94A4EF7A94A4",
"d 	c #A528F7BC9CE6",
"f 	c #AD6AEF7A9CE6",
"g 	c #B5ACEF7A9CE6",
"h 	c #C630EF7A9CE6",
"j 	c #CE72EF7AA528",
"k 	c #D6B4EF7AA528",
"l 	c #D6B4EF7A9CE6",
"z 	c #DEF6EF7A9CE6",
"x 	c #EF7AEF7A94A4",
"c 	c #F7BCDEF69CE6",
"v 	c #F7BCD6B48420",
"b 	c #8C62EF7A9CE6",
"n 	c #9CE6EF7A94A4",
"m 	c #AD6AEF7AA528",
"M 	c #BDEEEF7AAD6A",
"N 	c #DEF6EF7AA528",
"B 	c #DEF6F7BCA528",
"V 	c #E738EF7A9CE6",
"C 	c #F7BCD6B494A4",
"Z 	c #F7BCD6B48C62",
"A 	c #8C62F7BCB5AC",
"S 	c #94A4F7BCB5AC",
"D 	c #9CE6F7BCAD6A",
"F 	c #A528F7BCAD6A",
"G 	c #D6B4EF7AAD6A",
"H 	c #CE72EF7AB5AC",
"J 	c #D6B4EF7AB5AC",
"K 	c #E738EF7AB5AC",
"L 	c #E738F7BCAD6A",
"P 	c #E738E738AD6A",
"I 	c #F7BCD6B4AD6A",
"U 	c #94A4F7BCBDEE",
"Y 	c #94A4F7BCC630",
"T 	c #A528F7BCC630",
"R 	c #AD6AF7BCBDEE",
"E 	c #C630EF7AB5AC",
"W 	c #D6B4EF7AC630",
"Q 	c #E738EF7ABDEE",
"! 	c #EF7AEF7AB5AC",
"~ 	c #EF7ADEF6B5AC",
"^ 	c #9CE6EF7AD6B4",
"/ 	c #C630EF7AC630",
"( 	c #CE72EF7ACE72",
") 	c #D6B4EF7ACE72",
"_ 	c #EF7AEF7AC630",
"` 	c #EF7AE738C630",
"' 	c #F7BCD6B4BDEE",
"] 	c #F7BCD6B4A528",
"[ 	c #F7BCCE729CE6",
"{ 	c #9CE69CE69CE6",
"} 	c #94A494A494A4",
"| 	c #8C628C628C62",
" .	c #842084208420",
"..	c #7BDE7BDE7BDE",
"X.	c #9CE6F7BCCE72",
"o.	c #A528EF7ACE72",
"O.	c #AD6AF7BCCE72",
"+.	c #BDEEEF7AD6B4",
"@.	c #D6B4EF7AD6B4",
"#.	c #E738EF7ACE72",
"$.	c #EF7AEF7ACE72",
"%.	c #F7BCE738CE72",
"&.	c #F7BCDEF6CE72",
"*.	c #F7BCC630AD6A",
"=.	c #AD6AEF7ADEF6",
"-.	c #B5ACEF7ADEF6",
";.	c #CE72EF7AD6B4",
":.	c #DEF6EF7AD6B4",
">.	c #EF7AEF7ADEF6",
",.	c #F7BCCE72BDEE",
"<.	c #F7BCCE72B5AC",
"1.	c #F7BCBDEEA528",
"2.	c #739C739C739C",
"3.	c #9CE6EF7AE738",
"4.	c #AD6AEF7AE738",
"5.	c #C630EF7ADEF6",
"6.	c #DEF6EF7ADEF6",
"7.	c #EF7AE738E738",
"8.	c #F7BCE738D6B4",
"9.	c #F7BCC630BDEE",
"0.	c #F7BCB5ACB5AC",
"q.	c #F7BCB5ACA528",
"w.	c #9CE6EF7AEF7A",
"e.	c #AD6AEF7AEF7A",
"r.	c #C630EF7AEF7A",
"t.	c #DEF6EF7AEF7A",
"y.	c #E738EF7AEF7A",
"u.	c #F7BCDEF6DEF6",
"i.	c #F7BCD6B4CE72",
"p.	c #6B5A6B5A6B5A",
"a.	c #A528E738EF7A",
"s.	c #AD6AE738EF7A",
"d.	c #BDEEE738F7BC",
"f.	c #CE72EF7AF7BC",
"g.	c #D6B4EF7AF7BC",
"h.	c #E738EF7AF7BC",
"j.	c #F7BCDEF6E738",
"k.	c #F7BCD6B4DEF6",
"l.	c #F7BCC630D6B4",
"z.	c #F7BCCE72C630",
"x.	c #F7BCB5ACAD6A",
"c.	c #F7BCAD6AAD6A",
"v.	c #BDEEDEF6F7BC",
"b.	c #D6B4E738F7BC",
"n.	c #F7BCD6B4E738",
"m.	c #631863186318",
"M.	c #AD6AD6B4F7BC",
"N.	c #B5ACD6B4F7BC",
"B.	c #D6B4DEF6F7BC",
"V.	c #F7BCC630E738",
"C.	c #F7BCAD6ABDEE",
"Z.	c #F7BCAD6ACE72",
"A.	c #94A4D6B4F7BC",
"S.	c #C630D6B4F7BC",
"D.	c #DEF6D6B4F7BC",
"F.	c #EF7ACE72F7BC",
"G.	c #F7BCBDEEE738",
"H.	c #F7BCAD6AD6B4",
"J.	c #F7BC9CE6C630",
"K.	c #94A4CE72F7BC",
"L.	c #A528D6B4F7BC",
"P.	c #CE72C630F7BC",
"I.	c #E738CE72F7BC",
"U.	c #F7BCBDEEF7BC",
"Y.	c #F7BCBDEEEF7A",
"T.	c #F7BC94A4CE72",
"R.	c #5AD65AD65AD6",
"E.	c #8C62BDEEF7BC",
"W.	c #94A4B5ACF7BC",
"Q.	c #A528B5ACF7BC",
"!.	c #AD6AB5ACF7BC",
"~.	c #B5ACB5ACF7BC",
"^.	c #BDEEBDEEF7BC",
"/.	c #C630C630F7BC",
"(.	c #D6B4CE72F7BC",
").	c #F7BCB5ACE738",
"_.	c #F7BCA528DEF6",
"`.	c #F7BCA528D6B4",
"'.	c #F7BC9CE6D6B4",
"].	c #E738BDEEF7BC",
"[.	c #DEF6BDEEF7BC",
"{.	c #F7BCAD6AE738",
"}.	c #8420AD6AF7BC",
"|.	c #94A4AD6AF7BC",
" X	c #9CE6AD6AF7BC",
".X	c #A528A528F7BC",
"XX	c #AD6AA528F7BC",
"oX	c #C630B5ACF7BC",
"OX	c #DEF6B5ACF7BC",
"+X	c #E738AD6AF7BC",
"@X	c #EF7AA528F7BC",
"#X	c #EF7AA528EF7A",
"$X	c #F7BC9CE6E738",
"%X	c #F7BC94A4D6B4",
"&X	c #529452945294",
"*X	c #7BDEA528F7BC",
"=X	c #8420A528F7BC",
"-X	c #8C62A528F7BC",
";X	c #9CE694A4F7BC",
":X	c #AD6A94A4F7BC",
">X	c #B5AC9CE6F7BC",
",X	c #E738A528F7BC",
"<X	c #EF7A9CE6EF7A",
"1X	c #EF7A8C62E738",
"2X	c #421042104210",
"                                                                                                ",
"                                                                                                ",
"                                                                                                ",
"                                                                                                ",
". . . . . . . . . . . . . . . . . . . . . . . . X . . . . . . . . . . . o o                     ",
"O + + @ # $ % % & * = = - ; : > > , , < 1 2 3 3 X . 3 3 3 3 3 3 3 3 3 X 4 o o                   ",
"O + + @ # $ % % & * = = - - : > > , , < 1 1 3 3 X . 3 3 3 3 3 3 3 3 3 X 5 4 o                   ",
"O + + @ # $ % % % * = = - ; ; > > 6 , < 1 2 3 3 X . 3 3 7 8 9 8 7 3 3 X 0 4 o                   ",
"O + + @ # $ % % * * * = - ; : > > , , , 1 1 3 3 X . 3 3 q w e w q 3 3 X 0 4 o                   ",
"O + + @ # $ % % % * = = - ; ; > > , , < 1 2 3 3 X . 3 3 2 r 7 r 2 3 3 X t 4 o                   ",
"+ + + @ # $ % % * * = = - ; : > > , , < 1 2 3 3 X . 3 3 q w e w q 3 3 X 0 4 o                   ",
"O + + @ # $ % % % * = = - - > > > , , < 1 1 3 3 X . 3 3 7 8 9 8 7 3 3 X t 4 o                   ",
"+ + + @ # y % % * * = = - ; > > > , , < 1 2 3 3 X . 3 3 3 3 3 3 3 3 3 X t 4 o                   ",
"O + + @ # y % % % * = = - ; ; > 6 , , < 1 2 3 3 X . 3 3 3 3 3 3 3 3 3 X t 4 o                   ",
"X X X X X X X X X X X X X X X X X X X X X X X X X . X X X X X X X X X X 0 4 o                   ",
"  u u u u u u u u u u u u u u u u u u u u u u u u u u u u u u u u u u u 0 4 o                   ",
"  0 t 0 0 t 0 0 t 0 0 t 0 0 t 0 t 0 t 0 0 t 0 0 t 0 0 t 0 0 t 0 0 t 0 0 5 4 o                   ",
"  4 4 4 4 4 4 4 4 4 4 4 4 4 4 4 4 4 4 4 4 4 4 4 4 4 i i i i i i i i i i i i i i i i i i i i o o ",
"  o o o o o o o o o o o o o o o o o o o o o o o o o i p p p a s d f g h j k l z z x x c v 0 4 o ",
"                                                  o i b b n d d m m M j j j N B B V x C Z t 5 4 ",
"                                                  o i A S D S F F M k G H J K L P P I c Z t 0 4 ",
"                                                  o i U U U Y T R E G J W Q ! ! P ~ I c C t 0 4 ",
"                    i i i i i i i i i i i i i i i i i U Y ^ T R E / / ( ) _ _ _ ` ' I ] [ t 0 4 ",
"                  o i { { { { { } } } | |  . . .....i X.o.O.O.+./ W ) @.#.#.$.%.&.' I ] *.t 0 4 ",
"                  o i { { { { } } } | |  . . .......i ^ =.-.-.+.;.;.:.:.:.>.$.%.&.,.<.*.1.t 0 4 ",
"                  o i { { } } } | | |  . . .......2.i 3.4.-.-.5.5.6.6.6.>.7.8.&.&.' 9.0.q.t 0 4 ",
"                  o i { } } } | | |  . . .......2.2.i w.e.-.r.r.r.t.y.o y.7.u.&.i.,.9.0.q.t t 4 ",
"                  o i } } } | | |  . . .....2.2.2.p.i a.s.d.f.f.g.g.h.o o 7.j.k.l.z.9.x.c.t 0 4 ",
"                  o i } } | | |  . . .......2.2.p.p.i a.a.v.d.f.f.b.b.o o o j.n.l.z.9.0.c.t 0 4 ",
"                  o i } | | |  . .......2.2.2.p.p.m.i M.M.N.N.d.f.B.b.o o o o n.V.l.C.Z.0.t 0 4 ",
"                  o i | |  . . .......2.2.2.p.p.p.m.i A.A.M.M.N.v.S.D.o o o F.V.G.l.H.Z.J.t t 4 ",
"                  o i |  . . .......2.2.2.p.p.m.m.m.i K.K.L.M.N.N.S.P.I.I.o U.Y.G.G.H.Z.T.t 0 4 ",
"                  o i  . . .......2.2.2.p.p.m.m.m.R.i E.W.Q.!.~.^.^./.P.(.o o U.Y.)._.`.'.t 0 4 ",
"                  o i  . .......2.2.p.p.p.m.m.m.R.R.i E.W.W.Q.!.!.!./.P.].[.].U.U.{._.`.'.t 0 4 ",
"                  o i  .......2.2.2.p.p.m.m.m.R.R.R.i }.}.|. X.XXXXX~.oXOXOX+X+X@X#X$X%X%Xt 0 4 ",
"                  o i ....2.2.2.p.p.p.m.m.m.R.R.&X&Xi *X=X=X-X;X:X>X>X>XOX,X@X@X@X<X<X1X%Xt 0 4 ",
"                  o i ..2.2.2.p.p.p.m.m.m.R.R.R.&X&Xi t 0 t t t t t t 0 t t 0 t t t t t t t 0 4 ",
"                  o i 2.2.2.p.p.p.m.m.R.R.R.&X&X&Xu u u o u u u u u u u u u u u u u u u u u t 4 ",
"                  o i 2.2.p.p.m.m.m.m.R.R.&X&X&Xu u u u o u t 0 t 0 t 0 0 0 t 0 t 0 0 t 0 0 5 4 ",
"                  o i 2.p.p.m.m.m.R.R.R.&X&X&Xu u u u 2Xo t 5 4 4 4 4 4 4 4 4 4 4 4 4 4 4 4 4 o ",
"                  o i o o o o o o o o o o o o o o o o o o t 4 o o o o o o o o o o o o o o o o o ",
"                  o 4 0 u u u u u u u u u u u u u u u u u 0 4 o                                 ",
"                  o 4 5 0 0 0 t 0 0 t 0 0 t 0 t 0 t 0 t 0 5 4 o                                 ",
"                  o o 4 4 4 4 4 4 4 4 4 4 4 4 4 4 4 4 4 4 4 o o                                 ",
"                    o o o o o o o o o o o o o o o o o o o o o                                   ",
"                                                                                                ",
"                                                                                                ",
"                                                                                                "};
