/* XPM */
static char * image_name[] = {
"48 48 231 2",
"  	c None",
". 	c #59655D759E79",
"X 	c #082004106185",
"o 	c #000000000000",
"O 	c #49245144CF3C",
"+ 	c #41034D34C71B",
"@ 	c #41034924C71B",
"# 	c #41034514C71B",
"$ 	c #38E34103C71B",
"% 	c #38E33CF3BEFB",
"& 	c #30C238E3BEFB",
"* 	c #30C234D3BEFB",
"= 	c #28A230C2B6DA",
"- 	c #28A22CB2B6DA",
"; 	c #28A228A2B6DA",
": 	c #20812492B6DA",
"> 	c #20812081AEBA",
", 	c #18612081AEBA",
"< 	c #18611C71AEBA",
"1 	c #18611861AEBA",
"2 	c #10401451A699",
"3 	c #10401040A699",
"4 	c #08200C30A699",
"5 	c #08200820A699",
"6 	c #082004109E79",
"7 	c #000004109E79",
"8 	c #000000009E79",
"9 	c #10400C301040",
"0 	c #000004100000",
"q 	c #28A2249228A2",
"w 	c #10401451AEBA",
"e 	c #BEFBBEFBE79D",
"r 	c #96589248D75C",
"t 	c #30C22CB2AEBA",
"y 	c #30C234D330C2",
"u 	c #104014511040",
"i 	c #28A228A2AEBA",
"p 	c #9E799E79D75C",
"a 	c #B6DAB6DADF7D",
"s 	c #59655965BEFB",
"d 	c #38E338E338E3",
"f 	c #492449244924",
"g 	c #492445144924",
"h 	c #FFFFFFFFFFFF",
"j 	c #8617F3CE9658",
"k 	c #8E38F3CE9658",
"l 	c #9658F3CE9658",
"z 	c #A699F3CE9E79",
"x 	c #AEBAF3CE9E79",
"c 	c #B6DAF3CE9E79",
"v 	c #C71BF3CE9E79",
"b 	c #CF3CF3CEA699",
"n 	c #D75CF3CEA699",
"m 	c #D75CF3CE9E79",
"M 	c #DF7DF3CE9E79",
"N 	c #EFBEF3CE9658",
"B 	c #EFBEEBAD9658",
"V 	c #F7DEDB6C9E79",
"C 	c #F7DED75C8617",
"Z 	c #8E38F3CE9E79",
"A 	c #9E79F3CE9658",
"S 	c #AEBAF3CEA699",
"D 	c #BEFBF3CEAEBA",
"F 	c #DF7DF3CEA699",
"G 	c #E79DEFBE9E79",
"H 	c #F7DED75C9658",
"J 	c #F7DEDB6C8E38",
"K 	c #8E38F3CEB6DA",
"L 	c #9658F3CEB6DA",
"P 	c #9E79F3CEAEBA",
"I 	c #A699F3CEAEBA",
"U 	c #D75CF3CEAEBA",
"Y 	c #CF3CF3CEB6DA",
"T 	c #D75CF3CEB6DA",
"R 	c #E79DF3CEB6DA",
"E 	c #E79DF3CEAEBA",
"W 	c #E79DEBADAEBA",
"Q 	c #F7DEDB6CAEBA",
"! 	c #9658F3CEBEFB",
"~ 	c #9658F3CEC71B",
"^ 	c #A699F3CEC71B",
"/ 	c #AEBAF3CEBEFB",
"( 	c #C71BF3CEB6DA",
") 	c #D75CF3CEC71B",
"_ 	c #E79DF3CEBEFB",
"` 	c #EFBEF3CEB6DA",
"' 	c #EFBEDF7DB6DA",
"] 	c #9E79F3CED75C",
"[ 	c #C71BF3CEC71B",
"{ 	c #CF3CF3CECF3C",
"} 	c #D75CF3CECF3C",
"| 	c #EFBEF3CEC71B",
" .	c #EFBEE79DC71B",
"..	c #F7DED34CBEFB",
"X.	c #F7DED75CA699",
"o.	c #F7DECB2B9E79",
"O.	c #9E799E799E79",
"+.	c #9E799A699E79",
"@.	c #965896589658",
"#.	c #965892489658",
"$.	c #8E388E388E38",
"%.	c #8E388A288E38",
"&.	c #861786178617",
"*.	c #861782078617",
"=.	c #79E77DF779E7",
"-.	c #9E79F3CECF3C",
";.	c #A699F3CECF3C",
":.	c #AEBAF3CECF3C",
">.	c #BEFBF3CED75C",
",.	c #D75CF3CED75C",
"<.	c #E79DF3CECF3C",
"1.	c #EFBEF3CECF3C",
"2.	c #F7DEEBADCF3C",
"3.	c #F7DEE38DCF3C",
"4.	c #F7DEC30BAEBA",
"5.	c #79E779E779E7",
"6.	c #AEBAF3CEDF7D",
"7.	c #B6DAF3CEDF7D",
"8.	c #CF3CF3CED75C",
"9.	c #DF7DF3CED75C",
"0.	c #EFBEF3CEDF7D",
"q.	c #F7DECF3CBEFB",
"w.	c #F7DED34CB6DA",
"e.	c #F7DEBAEAA699",
"r.	c #71C675D671C6",
"t.	c #9E79EFBEE79D",
"y.	c #AEBAF3CEE79D",
"u.	c #C71BF3CEDF7D",
"i.	c #DF7DF3CEDF7D",
"p.	c #EFBEEBADE79D",
"a.	c #F7DEEBADD75C",
"s.	c #F7DEDB6CCF3C",
"d.	c #F7DEC71BBEFB",
"f.	c #F7DEBAEAB6DA",
"g.	c #F7DEB6DAA699",
"h.	c #71C671C671C6",
"j.	c #9E79EFBEEFBE",
"k.	c #AEBAEFBEEFBE",
"l.	c #C71BF3CEEFBE",
"z.	c #DF7DEFBEEFBE",
"x.	c #E79DEFBEEFBE",
"c.	c #F7DEE38DDF7D",
"v.	c #F7DED34CCF3C",
"b.	c #69A66DB669A6",
"n.	c #A699E79DEFBE",
"m.	c #AEBAE79DEFBE",
"M.	c #BEFBE79DF7DE",
"N.	c #CF3CEBADF7DE",
"B.	c #D75CEBADF7DE",
"V.	c #E79DEBADF7DE",
"C.	c #F7DEDF7DE79D",
"Z.	c #F7DED75CDF7D",
"A.	c #F7DEC71BD75C",
"S.	c #F7DECF3CC71B",
"D.	c #F7DEB2CAAEBA",
"F.	c #F7DEAAAAAEBA",
"G.	c #A699E38DEFBE",
"H.	c #BEFBDB6CF7DE",
"J.	c #D75CE79DF7DE",
"K.	c #F7DED75CE79D",
"L.	c #F7DEB2CAB6DA",
"P.	c #69A669A669A6",
"I.	c #618565956185",
"U.	c #AEBADB6CF7DE",
"Y.	c #B6DAD75CF7DE",
"T.	c #D75CDB6CF7DE",
"R.	c #F7DEC71BE79D",
"E.	c #F7DEAEBABEFB",
"W.	c #F7DEAAAACF3C",
"Q.	c #9658D75CF7DE",
"!.	c #C71BD34CF7DE",
"~.	c #DF7DD75CF7DE",
"^.	c #EFBECF3CF7DE",
"/.	c #F7DEBAEAE79D",
"(.	c #F7DEAEBAD75C",
").	c #F7DE9E79C71B",
"_.	c #618561856185",
"`.	c #9658CB2BF7DE",
"'.	c #A699D75CF7DE",
"].	c #B6DAD34CF7DE",
"[.	c #CF3CC30BF7DE",
"{.	c #E79DCF3CF7DE",
"}.	c #F7DEBEFBF7DE",
"|.	c #F7DEBAEAEFBE",
" X	c #F7DE9658CF3C",
".X	c #59655D755965",
"XX	c #8E38BAEAF7DE",
"oX	c #9658B6DAF7DE",
"OX	c #A699B6DAF7DE",
"+X	c #AEBAB2CAF7DE",
"@X	c #B6DAB6DAF7DE",
"#X	c #BEFBBAEAF7DE",
"$X	c #C71BCB2BF7DE",
"%X	c #D75CCB2BF7DE",
"&X	c #F7DEBAEAF7DE",
"*X	c #F7DEB2CAE79D",
"=X	c #F7DEA699DF7D",
"-X	c #F7DEA289D75C",
";X	c #F7DE9A69D75C",
":X	c #596559655965",
">X	c #E79DBAEAF7DE",
",X	c #DF7DBAEAF7DE",
"<X	c #F7DEAEBAE79D",
"1X	c #8617AEBAF7DE",
"2X	c #9658AEBAF7DE",
"3X	c #9E79AAAAF7DE",
"4X	c #A699A699F7DE",
"5X	c #AEBAA289F7DE",
"6X	c #C71BB2CAF7DE",
"7X	c #DF7DB2CAF7DE",
"8X	c #E79DAAAAF7DE",
"9X	c #EFBEA289F7DE",
"0X	c #EFBEA289EFBE",
"qX	c #F7DE9E79E79D",
"wX	c #F7DE9658D75C",
"eX	c #514455555144",
"rX	c #79E7A289F7DE",
"tX	c #8617A289F7DE",
"yX	c #8E38A289F7DE",
"uX	c #9E799A69F7DE",
"iX	c #AEBA9658F7DE",
"pX	c #B6DA9E79F7DE",
"aX	c #E79DA699F7DE",
"sX	c #EFBE9E79EFBE",
"dX	c #EFBE9A69EFBE",
"fX	c #EFBE8E38E79D",
"gX	c #514451445144",
"hX	c #38E334D338E3",
"jX	c #49244D344924",
"kX	c #38E33CF338E3",
"lX	c #410341034103",
"                                                                                                ",
"                                                                                                ",
"                                                                                                ",
"                                                                                                ",
". . . . . . . . . . . . . . . . . . . . . . . . X . . . . . . . . . . . o o                     ",
"O + @ # $ % & & * = - ; : > , < 1 2 3 4 5 6 7 8 X . 8 8 8 8 8 8 8 8 8 X 9 0 o                   ",
"O + @ # $ % & & * = - ; : : , < 1 2 3 4 5 5 7 8 X . 8 8 8 8 8 8 8 8 8 X q 9 o                   ",
"O + @ # $ % & & & = - ; : > > < 1 w 3 4 5 6 7 8 X . 8 8 e r t r e 8 8 X y u o                   ",
"O + @ # $ % & & = = = ; : > , < 1 2 3 3 5 5 7 8 X . 8 8 i p a p i 8 8 X y u o                   ",
"O + @ # $ % & & & = - ; : > > < 1 2 3 4 5 6 7 8 X . 8 8 6 s e s 6 8 8 X d u o                   ",
"+ + @ # $ % & & = = - ; : > , < 1 2 3 4 5 6 7 8 X . 8 8 i p a p i 8 8 X y u o                   ",
"O + @ # $ % & & & = - ; : : < < 1 2 3 4 5 5 7 8 X . 8 8 e r t r e 8 7 X d u o                   ",
"+ + @ # $ % & & = = - ; : > < < 1 2 3 4 5 6 7 8 X . 8 8 8 8 8 8 8 8 8 X d u o                   ",
"O + @ # $ % & & & = - ; : > > < w 2 3 4 5 6 7 8 X . 8 8 8 8 8 8 8 8 7 X d u o                   ",
"X X X X X X X X X X X X X X X X X X X X X X X X X . X X X X X X X X X X y u 0                   ",
"  f f f f f f f f f f f f f f f f f f f f f f f f f f f f f f f f f f g y u o                   ",
"  y d y y d y y d y y d y y d y d y d y y d y y d y y d y y d y y d y y q u o                   ",
"  u u u u u u u u u u u u u u u u u u u u u u u u u h h h h h h h h h h h h h h h h h h h h o o ",
"  o 0 o 0 o o 0 o o 0 o o 0 o o o o 0 o 0 o o 0 o o h j j j k l z x c v b n m M M N B V C y 9 0 ",
"                                                  o h Z Z A z z S S D b b b F F F G B H J d q 9 ",
"                                                  o h K L P L I I D n U Y T R E W W Q V J d y u ",
"                                                  o h ! ! ! ~ ^ / ( U T ) _ ` ` W ' Q V H d y u ",
"                    h h h h h h h h h h h h h h h h h ! ~ ] ^ / ( [ [ { } | | |  ...Q X.o.d y u ",
"                  o h O.O.O.+.+.@.#.#.$.%.&.&.*.=.=.h -.;.:.:.>.[ ) } ,.<.<.1.2.3...Q X.4.d y u ",
"                  o h O.O.+.+.@.#.#.$.%.&.&.*.=.5.5.h ] 6.7.7.>.8.8.9.9.9.0.1.2.3.q.w.4.e.d y u ",
"                  o h O.+.@.@.#.$.$.%.&.*.*.=.5.5.r.h t.y.7.7.u.u.i.i.i.0.p.a.s.s...d.f.g.d y u ",
"                  o h +.@.@.#.$.$.%.&.*.*.=.5.5.r.h.h j.k.7.l.l.l.z.x.o x.p.c.s.v.q.d.f.g.d d u ",
"                  o h @.@.#.$.%.%.&.*.*.=.5.r.r.h.b.h n.m.M.N.N.B.B.V.o 0 p.C.Z.A.S.d.D.F.d y u ",
"                  o h #.#.$.$.%.&.*.*.=.5.5.r.h.b.b.h n.G.H.M.N.N.J.J.o o o C.K.A.S.d.L.F.d y u ",
"                  o h #.$.%.%.&.*.=.=.5.r.r.h.b.P.I.h U.U.Y.Y.M.N.T.J.o o o o K.R.A.E.W.L.d y u ",
"                  o h $.%.&.&.*.=.=.5.r.r.h.b.P.P.I.h Q.Q.U.U.Y.H.!.~.o o o ^.R./.A.(.W.).d d u ",
"                  o h %.&.&.*.=.5.5.r.h.h.b.P.I.I._.h `.`.'.U.].Y.!.[.{.{.o }.|././.(.W. Xd y u ",
"                  o h &.*.*.=.5.5.r.h.h.b.P.I.I._..Xh XXoXOX+X@X#X#X$X[.%X0 o &X|.*X=X-X;Xd y u ",
"                  o h *.*.=.5.5.r.h.b.b.P.I.I._..X:Xh XXoXoXOX+X+X+X$X[.>X,X>X&X&X<X=X-X;Xd y u ",
"                  o h *.=.5.5.r.h.h.b.P.I._._..X.X:Xh 1X1X2X3X4X5X5X@X6X7X7X8X8X9X0XqXwXwXd y u ",
"                  o h =.5.r.r.h.b.P.P.I._._..X:XeXeXh rXtXtXyXuXiXpXpXpX7XaX9X9X9XsXdXfXwXd y u ",
"                  o h 5.r.r.h.b.P.P.I._._..X:X:XeXgXh d y d d d d d d y d hXy d d d d d hXd y u ",
"                  o h r.r.h.b.P.P.I._..X.X:XeXeXgXjXjXf o f f f g g g f g f f f g g g g g g hXu ",
"                  o h h.h.b.P.I.I._._..X:XeXgXgXjXf f g o g kXy d y d y y y d y d y y d y y q 9 ",
"                  o h h.b.P.I.I._..X.X:XeXgXgXjXf f g lXo d q u u u u u u u u u u u u u u u 9 0 ",
"                  o h o o o o o o o o o o o o o o o o o o d u 0 o o o o o o o o o o o o o o o o ",
"                  o u y g g f f f f f f f f f f f f f f g y u o                                 ",
"                  0 9 q y y y d y y d y y d y d y d y d y q u o                                 ",
"                  o 0 9 u u u u u u u u u u u u u u u u u 9 0 o                                 ",
"                    o o o o o o 0 o 0 o 0 o o o o o o o o o o                                   ",
"                                                                                                ",
"                                                                                                ",
"                                                                                                "};
