/* XPM */
static char * image_name[] = {
"48 48 214 2",
"  	c None",
". 	c #CF3CCB2BCF3C",
"X 	c #B6DAB2CAB6DA",
"o 	c #AEBAAEBAAEBA",
"O 	c #AEBAAAAAAEBA",
"+ 	c #A699A699A699",
"@ 	c #A699A289A699",
"# 	c #9E799E799E79",
"$ 	c #9E799A699E79",
"% 	c #965896589658",
"& 	c #965892489658",
"* 	c #8E388E388E38",
"= 	c #8E388A288E38",
"- 	c #38E338E338E3",
"; 	c #861786178617",
": 	c #69A669A669A6",
"> 	c #861782078617",
", 	c #DF7DDF7DDF7D",
"< 	c #EFBEEFBEEFBE",
"1 	c #DF7DDB6CDF7D",
"2 	c #D75CD75CD75C",
"3 	c #CF3CD34CCF3C",
"4 	c #C71BC71BC71B",
"5 	c #596559655965",
"6 	c #79E77DF779E7",
"7 	c #410341035965",
"8 	c #410341035144",
"9 	c #38E33CF34924",
"0 	c #30C230C238E3",
"q 	c #2081208128A2",
"w 	c #28A228A230C2",
"e 	c #28A2249230C2",
"r 	c #28A2249228A2",
"t 	c #8617820779E7",
"y 	c #492449246185",
"u 	c #38E338E34924",
"i 	c #082008200820",
"p 	c #000000000000",
"a 	c #410341034103",
"s 	c #18611C712081",
"d 	c #514455555144",
"f 	c #79E779E779E7",
"g 	c #410345145965",
"h 	c #DF7DE38DDF7D",
"j 	c #186118612081",
"k 	c #965896589E79",
"l 	c #41033CF35144",
"z 	c #FFFFFFFFFFFF",
"x 	c #C71BC30BC71B",
"c 	c #186114511861",
"v 	c #71C675D671C6",
"b 	c #B6DAB6DAB6DA",
"n 	c #2081249228A2",
"m 	c #186114512081",
"M 	c #104014511861",
"N 	c #514451445144",
"B 	c #514455556185",
"V 	c #514451445965",
"C 	c #69A6659571C6",
"Z 	c #596559656185",
"A 	c #514455555965",
"S 	c #59655D756185",
"D 	c #492445144924",
"F 	c #38E33CF34103",
"G 	c #71C671C671C6",
"H 	c #9E799E79AEBA",
"J 	c #79E775D68617",
"K 	c #861786178E38",
"L 	c #71C671C679E7",
"P 	c #6185659569A6",
"I 	c #79E77DF78617",
"U 	c #618561856185",
"Y 	c #20811C712081",
"T 	c #8E388E389658",
"R 	c #69A66DB669A6",
"E 	c #71C675D68617",
"W 	c #69A66DB671C6",
"Q 	c #49244D344924",
"! 	c #BEFBBEFBBEFB",
"~ 	c #71C671C669A6",
"^ 	c #410345144103",
"/ 	c #59655D755965",
"( 	c #492449244924",
") 	c #618565956185",
"_ 	c #71C682079658",
"` 	c #861779E779E7",
"' 	c #79E775D679E7",
"] 	c #96589658A699",
"[ 	c #CF3CCB2BE79D",
"{ 	c #AEBAAEBAC71B",
"} 	c #9E799E79B6DA",
"| 	c #8E388A289E79",
" .	c #79E779E78617",
"..	c #96588E389E79",
"X.	c #8E3882078E38",
"o.	c #861779E78617",
"O.	c #8E3886178617",
"+.	c #9E7992489658",
"@.	c #69A66DB68E38",
"#.	c #B6DAB6DAD75C",
"$.	c #CF3CCF3CEFBE",
"%.	c #D75CD34CEFBE",
"&.	c #D75CD75CEFBE",
"*.	c #96589658BEFB",
"=.	c #86178207B6DA",
"-.	c #8E388A289658",
";.	c #71C66DB671C6",
":.	c #618575D69658",
">.	c #51446DB69E79",
",.	c #71C68617A699",
"<.	c #71C68617AEBA",
"1.	c #71C68A28AEBA",
"2.	c #96588E38BEFB",
"3.	c #96589248BEFB",
"4.	c #AEBAAAAAD75C",
"5.	c #A699A699CF3C",
"6.	c #9E79A289CF3C",
"7.	c #96589658C71B",
"8.	c #69A665959658",
"9.	c #79E779E7AEBA",
"0.	c #86178617B6DA",
"q.	c #8E3882079658",
"w.	c #861779E78E38",
"e.	c #69A6659569A6",
"r.	c #BEFBBAEABEFB",
"t.	c #96589A69A699",
"y.	c #79E786179E79",
"u.	c #AEBAAEBAD75C",
"i.	c #A699A289CF3C",
"p.	c #71C66DB6A699",
"a.	c #79E77DF7AEBA",
"s.	c #8E388A28BEFB",
"d.	c #96588A289658",
"f.	c #9E79A289AEBA",
"g.	c #9E799E79C71B",
"h.	c #61855D7579E7",
"j.	c #A699A289C71B",
"k.	c #86178207AEBA",
"l.	c #69A66DB6A699",
"z.	c #86177DF7AEBA",
"x.	c #6185618569A6",
"c.	c #79E78A289E79",
"v.	c #A699AAAAD75C",
"b.	c #79E77DF79E79",
"n.	c #96589248C71B",
"m.	c #96588E389658",
"M.	c #71C66DB679E7",
"N.	c #86178207A699",
"B.	c #8E388617AEBA",
"V.	c #9E799E79CF3C",
"C.	c #71C671C6A699",
"Z.	c #9E799A69A699",
"A.	c #86178A289E79",
"S.	c #8E38861771C6",
"D.	c #69A665955965",
"F.	c #71C659655144",
"G.	c #8E3879E74103",
"H.	c #79E76DB65965",
"J.	c #69A6618569A6",
"K.	c #618559655965",
"L.	c #8E388617B6DA",
"P.	c #8E388E38BEFB",
"I.	c #A6999E79A699",
"U.	c #9E79A699AEBA",
"Y.	c #96588E3869A6",
"T.	c #CF3CCB2B9658",
"R.	c #E79DE79DB6DA",
"E.	c #E79DDF7DD75C",
"W.	c #E79DDF7DCF3C",
"Q.	c #AEBA9248B6DA",
"!.	c #B6DA8A289E79",
"~.	c #9E7979E78617",
"^.	c #965869A68617",
"/.	c #86177DF771C6",
"(.	c #69A665958E38",
").	c #B6DAA699AEBA",
"_.	c #596555554103",
"`.	c #69A661854103",
"'.	c #79E76DB65144",
"].	c #51444D3438E3",
"[.	c #71C679E7A699",
"{.	c #71C66DB69658",
"}.	c #69A66DB69E79",
"|.	c #79E775D6AEBA",
" X	c #9E7996589E79",
".X	c #492455556185",
"XX	c #9E799A696185",
"oX	c #CF3CC30B5965",
"OX	c #D75CC71B5965",
"+X	c #C71BBAEA8617",
"@X	c #BEFBB6DA8E38",
"#X	c #30C22CB24103",
"$X	c #618561858617",
"%X	c #5965596579E7",
"&X	c #59655D758617",
"*X	c #8E3886178E38",
"=X	c #A699AAAAB6DA",
"-X	c #71C66DB65965",
";X	c #6185596530C2",
":X	c #5965514430C2",
">X	c #596559654924",
",X	c #30C234D34924",
"<X	c #618561858E38",
"1X	c #4924492469A6",
"2X	c #8E389248A699",
"3X	c #AEBAB2CABEFB",
"4X	c #30C230C24103",
"5X	c #492445146185",
"6X	c #186118611861",
"7X	c #30C234D330C2",
"8X	c #D75CDB6CE79D",
"9X	c #E79DE79DE79D",
"0X	c #E79DEBADE79D",
"qX	c #08200C300820",
"                                                                                                ",
"                                                                                                ",
"                          . . . . . . . . . . . . . . . . . . . . . .                           ",
"                          . X X o o O O + + @ # # $ $ % % & * * = = -                           ",
"                          . X o o O O + + @ # # $ $ % % & * * = = ; -                           ",
"                          . o o O O + + @ # # $ $ % % & * * = = ; ; -                           ",
"                          . o O O * % & & & * * * = = = ; ; ; : ; > -                           ",
"                          . O O + , < 1 1 2 2 3 . . . 4 4 3 2 5 > 6 -                           ",
"                          . O + + 1 O 7 8 9 0 q q w e r q $ 2 5 t 6 -                           ",
"                          . + + @ 1 + y 7 u i p a = r q s $ 2 d 6 f -                           ",
"                          . + @ # 2 + g 7 e p - > h w q j k 3 d f f -                           ",
"                          . @ @ # 2 + 7 l w i 2 z x q j c k . d f v -                           ",
"                          . # # $ 2 @ 7 9 e - b + n j m M & . N v v -                           ",
"                          . # $ $ 3 @ u B V C Z A S D F m & . N v G -                           ",
"                          . $ $ % 3 H 9 J K C L P I G U Y T . N G R -                           ",
"                          . $ % % 3 b E L L W W W P U 5 d o 4 Q R R -                           ",
"                          . % % & . , 1 1 2 3 3 . . 4 4 x ! ! Q R : -                           ",
"                          . % & T ~ : X 4 4 4 4 4 4 4 4 O a ^ 5 : : -                           ",
"                          . & * * = ; / N N N N N N N N ( ) R : : ) -                           ",
"                          . * * * = ; v $ $ $ $ $ $ $ $ N R : : ) ) -                           ",
"                          . * = = ; ; f N Q Q Q Q ( ( ( d : : ) ) U -                           ",
"                          . = = ; ; t _ 6 f f v v G R R R : ) ) U / -                           ",
"                          . = ; ; > ` f f ' v v G R R : : ) ) U / / -                           ",
"                          . ; ; > 6 6 f f v v G R R : : ) ) U / / 5 -                           ",
"                          . - - - - - - - - - - - - - - - - - - - - -                           ",
". . . . . . . . . . . . . . . . . . . . . . . . . . . - . . . . . . . . . . . . . . . . . . . . ",
"@ # # $ $ % % & * * = = - . X X o o o O + + @ @ # $ . > % & & * = = - . X X o o O O + + @ # # $ ",
"# # $ $ % % & * * = = ; - . X X p O O + + @ # # $ $ % 3 v * * = = ; - . X o o O O + + @ # # $ $ ",
"# $ $ % % & * * = = ; ; - . o o p O + + @ # # $ $ % % $ . > = = ; ; - . o o O $ @ + @ # # $ $ % ",
"$ $ % % & * * * = ; ; > - . o O p + + @ # # $ $ % % * = v + G ; ; > - . o O O d 5 A ) ) ) ) ) R ",
"= I ] [ [ { } |  .v > 6 - . O O + + @ # # $ $ % * K ..X.o.O.+.5 t 6 - . O O + U K @.@ @ + O O X ",
"#.$.%.%.&.&.#.*.=.S I 6 - . O + + @ # # $ $ % ; K -.; : ) ) ;., 5 6 - . O + + A :.>.,.,.<.<.<.1.",
"2.3.4.5.6.7.8.9.0.S 6 f - . + + @ @ # $ $ % 6 q.w.W U ' e.: : T r.U - . + + @ U t.y.! x x 4 4 . ",
"u.u.3.i.i.0.p.a.s.Z f f - . + @ # # $ $ & f d.z z ( / e.) P e.6 % r.5 . + @ # ) f.y.O 6 G ; 6 * ",
"u.g.q h.j.k.l.z.s.5 f v - . @ @ # $ $ * ; d.L z p z f ;.: x.U f f = a . @ @ # ) f.c.4 & & $ o + ",
"4.v.@.b.u.n.p.a.s.5 v v - . # # $ $ ; m.d.: ( z p p z L M.d / f v v - . # # $ ) f.c.X = = = > $ ",
"N.B.*.V.i.7.C.=.s.A v G - . # $ $ 6 Z.= U ( 5 z p p p z Q N ) v v G - . # $ $ ) f.A.x & R S.D.~ ",
"F.G.H.J.K.B.C.L.P.A G W - . $ $ f I.> 5 Q ) f z p p p p z ) G v G R - . $ $ % ) U._ t Y.T.R.E.W.",
"Q.!.~.^./.(.l.z.s.A R R - . $ % ).' N N R 6 f z p p p z : G G G R R - . $ % % : = a _.`.'.'.].Y.",
"[.P.P.{.w l }.|.z.V R : - . % % ` U d G > f  Xz z z p z v v G R R : - . % % & : + .Xe.XXoXOX+X@X",
"#X$X0.%Xq u 8.p.&XA : : - ^ 5 T ; ` e.f *Xm.: Q Q z p p z G R R : : - . % & * : =XA.O U -X;X:X>X",
"0 %X=.7 c ,X<X1X- ) : ) - 3 x U * f '  X*X/ ( d R G z z G R R : : ) - . & T * : =X2X3 & 6 G v R ",
"9.z.=.l M u 9 - ) : ) ) - . @ x 5 > ` ` N ( / G v v v G R R : : ) ) - . * * = G 3X2X4 # & O + @ ",
"4X5X<X,X6X7X^ : : ) ) U - . * $ , U 6 : 5 ) 5 : : v ) R R : : ) ) U - . * = * 3X8X3X9X9X0X0X< < ",
"/ a 7X- U : : : ) ) U / - . = = $ ! 5 6 6 f qXn 7X6X( 6XN : ) ) U U - . = = = O.; 6 6 f f v v G ",
"v v G W R : : ) ) U / / - . = ; ; T , 5 f f a F ].- ( - N ) ) U / / - . = ; ; > 6 6 f f v v G R ",
"v G R R : : ) ) U / / 5 - . ; ; > t * X - v v G W R : : ) ) U / / 5 - . ; ; > 6 6 f f v v G R R ",
"- - - - - - - - - - - - - . - - - - - - - - - - - - - - - - - - - - - . - - - - - - - - - - - - "};
