/* XPM */
static char * image_name[] = {
"48 48 224 2",
"  	c None",
". 	c #E79DE79DE79D",
"X 	c #DF7DE38DDF7D",
"o 	c #DF7DDF7DDF7D",
"O 	c #D75CDF7DDF7D",
"+ 	c #D75CD75CD75C",
"@ 	c #D75CD34CD75C",
"# 	c #CF3CCF3CCF3C",
"$ 	c #CF3CCB2BCF3C",
"% 	c #C71BC71BC71B",
"& 	c #C71BC30BC71B",
"* 	c #BEFBBEFBBEFB",
"= 	c #BEFBBAEABEFB",
"- 	c #B6DAB6DAB6DA",
"; 	c #000000000000",
": 	c #D75CDB6CD75C",
"> 	c #B6DAB2CAB6DA",
", 	c #EFBEF3CEF7DE",
"< 	c #EFBEF3CEEFBE",
"1 	c #E79DEFBEEFBE",
"2 	c #CF3C9E79A699",
"3 	c #61853CF338E3",
"4 	c #86177DF78E38",
"5 	c #A699AAAAAEBA",
"6 	c #86178A288E38",
"7 	c #861786178E38",
"8 	c #8E388A289658",
"9 	c #D75CA699AEBA",
"0 	c #79E714512081",
"q 	c #61855D755965",
"w 	c #69A669A671C6",
"e 	c #AEBAAEBAAEBA",
"r 	c #861786178617",
"t 	c #79E775D68617",
"y 	c #8E3882079658",
"u 	c #96588E38A699",
"i 	c #96589248A699",
"p 	c #8E3886179E79",
"a 	c #861782079658",
"s 	c #B6DAA289AEBA",
"d 	c #9E792CB238E3",
"f 	c #38E3249230C2",
"g 	c #9E799E79A699",
"h 	c #71C675D679E7",
"j 	c #AEBAAAAAAEBA",
"k 	c #9E799A69AEBA",
"l 	c #C71BBEFBC71B",
"z 	c #A6999A69AEBA",
"x 	c #A699A699AEBA",
"c 	c #BEFB659569A6",
"v 	c #41031C712081",
"b 	c #514455555965",
"n 	c #69A669A679E7",
"m 	c #A699A699A699",
"M 	c #8E388A28A699",
"N 	c #B6DAAAAABEFB",
"B 	c #C71B5D756185",
"V 	c #618514512081",
"C 	c #492449245144",
"Z 	c #AEBAAEBAB6DA",
"A 	c #69A6659571C6",
"S 	c #8E38AAAAB6DA",
"D 	c #B6DA208130C2",
"F 	c #9E7975D679E7",
"G 	c #9E7934D338E3",
"H 	c #410330C230C2",
"J 	c #71C66DB679E7",
"K 	c #6185618569A6",
"L 	c #A699A289A699",
"P 	c #BEFB34D338E3",
"I 	c #492418612081",
"U 	c #596555556185",
"Y 	c #59655D7569A6",
"T 	c #9E799E799E79",
"R 	c #861782078617",
"E 	c #79E771C68617",
"W 	c #A69959656185",
"Q 	c #410338E34103",
"! 	c #596559656185",
"~ 	c #9E799A699E79",
"^ 	c #79E775D679E7",
"/ 	c #CF3CD75CD75C",
"( 	c #CF3CD34CD75C",
") 	c #C71BCB2BCF3C",
"_ 	c #BEFBC30BBEFB",
"` 	c #B6DABAEABEFB",
"' 	c #96589A699E79",
"] 	c #8E389A699658",
"[ 	c #965896589658",
"{ 	c #71C675D671C6",
"} 	c #618561856185",
"| 	c #514451445965",
" .	c #38E33CF34103",
"..	c #30C234D34103",
"X.	c #492445144924",
"o.	c #965892489658",
"O.	c #8E3892489E79",
"+.	c #96588E389658",
"@.	c #71C682079E79",
"#.	c #8E388E388E38",
"$.	c #965882076185",
"%.	c #861775D669A6",
"&.	c #9E79A699A699",
"*.	c #8E388A288E38",
"=.	c #596559655965",
"-.	c #8E3892489658",
";.	c #861775D69658",
":.	c #A6998207A699",
">.	c #69A6618569A6",
",.	c #00000C301040",
"<.	c #000010401040",
"1.	c #000010401861",
"2.	c #8E389A69A699",
"3.	c #79E786179E79",
"4.	c #86178E389E79",
"5.	c #8E388E389658",
"6.	c #965882079E79",
"7.	c #79E779E779E7",
"8.	c #596551445144",
"9.	c #000018611861",
"0.	c #00001C712081",
"q.	c #79E78A28A699",
"w.	c #71C67DF79658",
"e.	c #69A67DF79658",
"r.	c #69A675D68E38",
"t.	c #5965659579E7",
"y.	c #38E33CF34924",
"u.	c #28A228A228A2",
"i.	c #69A665958617",
"p.	c #A6998207B6DA",
"a.	c #0000249228A2",
"s.	c #38E355555965",
"d.	c #000028A230C2",
"f.	c #00002CB230C2",
"g.	c #104030C238E3",
"h.	c #69A686178E38",
"j.	c #30C238E34103",
"k.	c #5144596569A6",
"l.	c #28A22CB238E3",
"z.	c #51444D344103",
"x.	c #8E3875D66185",
"c.	c #96587DF79658",
"v.	c #9E797DF7A699",
"b.	c #00002CB238E3",
"n.	c #28A255555965",
"m.	c #000030C238E3",
"M.	c #000034D34103",
"N.	c #10403CF34103",
"B.	c #596586178E38",
"V.	c #38E338E34924",
"C.	c #18611C712081",
"Z.	c #618555554103",
"A.	c #79E76DB65144",
"S.	c #79E775D669A6",
"D.	c #2081208128A2",
"F.	c #410341034103",
"G.	c #00003CF34103",
"H.	c #492471C679E7",
"J.	c #492475D679E7",
"K.	c #CF3CDB6CDF7D",
"L.	c #104045144924",
"P.	c #38E33CF35144",
"I.	c #410349245965",
"U.	c #28A230C24103",
"Y.	c #618559655144",
"T.	c #BEFBAEBAC71B",
"R.	c #492441035144",
"E.	c #000041034924",
"W.	c #492479E78617",
"Q.	c #000049245144",
"!.	c #596586179658",
"~.	c #186159656185",
"^.	c #104051445965",
"/.	c #492449245965",
"(.	c #49244D346185",
").	c #61855D7569A6",
"_.	c #596559655144",
"`.	c #2081249230C2",
"'.	c #CF3CC30BD75C",
"].	c #79E769A679E7",
"[.	c #00004D345965",
"{.	c #000051445965",
"}.	c #492486178E38",
"|.	c #000055556185",
" X	c #69A69E79A699",
".X	c #C71BD34CD75C",
"XX	c #208169A671C6",
"oX	c #618596589E79",
"OX	c #492455556185",
"+X	c #4924555569A6",
"@X	c #20811C7128A2",
"#X	c #30C234D34924",
"$X	c #C71BBAEAC71B",
"%X	c #0000596569A6",
"&X	c #00005D7569A6",
"*X	c #514492489E79",
"=X	c #1040618569A6",
"-X	c #B6DACF3CCF3C",
";X	c #61859E79A699",
":X	c #51445D7571C6",
">X	c #5965618571C6",
",X	c #186118612081",
"<X	c #410345145144",
"1X	c #FFFFFFFFFFFF",
"2X	c #8617FFFF4924",
"3X	c #104034D338E3",
"4X	c #186130C230C2",
"5X	c #28A230C230C2",
"6X	c #000004100820",
"7X	c #104014511861",
"8X	c #186128A228A2",
"9X	c #104038E34103",
"0X	c #59656DB68617",
"qX	c #2081249228A2",
"wX	c #AEBA96589E79",
"eX	c #A6998E38AEBA",
"rX	c #8E3871C68E38",
"tX	c #30C230C230C2",
"yX	c #28A228A230C2",
"uX	c #69A66DB669A6",
"iX	c #596561855965",
"pX	c #BEFBFFFF9658",
"aX	c #410341034924",
"sX	c #492449244924",
"                                                                                                ",
"                            . . . . . . . . . . . . . . . . . . .                               ",
"                            . . . X o O O + @ # $ $ % & * * = - ;                               ",
"                            . . X o o : + @ # $ $ % & * * = - > ;                               ",
"                            . X o O , < < , , , < 1 1 2 3 4 > > ;                               ",
"                            . o o < 5 6 7 8 8 8 6 6 9 0 q w > e ;                               ",
"                            . o O , r t y u i p a s d f g h e j ;                               ",
"                            . O + , 7 p k l z k x c v b - n j m ;                               ",
"                            . + @ , 7 M N B d u 2 V C w Z A j m ;                               ",
"                            . @ @ < 7 p S D D F G H A J Z K m L ;                               ",
"                            . @ # < r t p Z P P I U J J j Y L T ;                               ",
"                            . # $ < R J t E W 0 Q A J J x ! T ~ ;                               ",
"                            . $ % 1 R t ^ t h b A ^ ^ ^ x b T ~ ;                               ",
"                            . % % . / : ( ) % _ ` - Z ' ] C ~ [ ;                               ",
"                            . % & { } } b | K C  ... .X.C  .[ o.;                               ",
"                            . & * = Z e ~ O.+.@.E 7 T w o.[ o.#.;                               ",
"                            . * = = o.r r r r $.@.$.@.%.w o.+.#.;                               ",
"                            . = = - > e e j x &.L g ~ ' o.o.#.*.;                               ",
"                            . = - > e e j m m L ~ ~ ~ [ +.#.*.r ;                               ",
"                            . ; ; ; ; ; ; ; ; ; ; ; ; ; ; ; ; ; ;                               ",
". . . . . . . . . . . . . . . . . . . . . . . . . . . . . . . . . . . . . . . . . . . . . . . . ",
"O O + @ # $ $ % & * * = - ; . . . X o o O + @ # $ $ % & * * = - =.. . . X o O O + @ # $ $ % & * ",
"O + @ # # $ % & * * = - > ; . . ; ; O ; ; @ # # $ % & * * = - > ; . . X o o : + @ # # $ % & * * ",
"# L i &.-.j & * * = - > > ; . X ; o ; + ; ; # $ - w ;.:.>.^ > > ; . X o ,.<.<.1.1.1.1.1.1.1.<.<.",
"g 2.3.3.@.4.5.[ = - > > e ; . o o O + @ # # $ & n 6.7.- > 8.> e ; . o o 9.0.0.0.0.0.0.0.0.0.0.0.",
"q.3.w.e.r.t.y.u.- > > e j ; . o O + @ # # $ * i.p.E >.q j } e j ; . o O 0.a.s._ s.d.f.g.h.2.g.a.",
"j.k.r.k.l.l.z.x.%.r ^ j j ; . O + @ # # $ - c.v.{ = > R [ *.j j ; . O + f.f.b.h.( n.m.M.N.B.f.f.",
"j.V...C.Z.x.A.S.^ U D.m m ; . + @ @ # $ - c.v.o.= - > =.F.T m m ; . + @ M.M.G.H.J.K.n.G.L.B.G.M.",
"P.I.U.u.z.A.{  .D.Y.u.m L ; . @ @ # $ > T.c.~ = - - ^ R.=.L m L ; . @ @ G.E.E.W.Q.!.K.~.^.!.E.E.",
"/.(...u.F.)...l._.y.`.L T ; . @ # $ ~ '.].T = - e K E } m m L T ; . @ # [.[.{.}.|.|. X.XXXoX{.[.",
"OX+XV.@X@X| y.l.#XP.l.T T ; . # $ +.$X>.> = - e ).v.).j m L T T ; . # $ %X&X&X*X=X%X%XS -X;X&X&X",
":X>XI.OX,XC <XU.U.C R ~ ~ ; . $ % . 8.- 1X- j E :.t j m L 2X~ ~ ; . $ % ^.3X4X&.5X6X; 6XC.7X8X9X",
"t.0XOX+XU./.j.qX*.T ~ ~ [ ; . % % ).wX= 1X1XeXrXR j m L T 2X2X[ ; . % % ; ; C.tXtX6X; ; ; ; ; ; ",
"0Xr.k.k.#XP.V.yXuXT ~ [ o.; . % & ~ uX- 1X; 1X[ j m L T T ~ [ o.; . % & ; ; ; ; ; ; ; ; ; ; ; ; ",
"! 0X:X:X#Xl. .iX^ ~ [ o.#.; . & 9 _ uX} 1X; ; 1Xm L g ~ T pXpX#.; . & * ; ; ; ; ; ; ; ; ; ; ; ; ",
"> r aXy.sX} 7.T ~ [ o.#.#.; . _ 6X- > wX1X; ; ; 1XT wX~ [ o.#.#.; . * = ; ; ; ; ; ; ; ; ; ; ; ; ",
"Z e j m L L ~ ~ [ [ o.#.*.; . ` ; - > e 1X; ; ; ; 1X' [ [ 2X2X*.; . = = - > > e j m L L T ~ [ o.",
"e j m L L T ~ [ o.+.#.*.r ; . = - > e e 1X; ; ; ; ; 1Xo.o.#.2Xr ; . = - > e e j m L L T ~ [ o.o.",
"=.; ; ; ; ; ; ; ; ; ; ; ; =.. ; ; ; ; ; 1X; ; ; ; ; ; 1X; ; ; ; ; . ; ; ; ; ; ; ; ; ; ; ; ; ; ; ",
"                                        1X; ; ; ; ; ; ; 1X                                      ",
"                                        1X; ; ; ; 1X1X1X1X1X                                    ",
"                                        1X; ; 1X; 1X                                            ",
"                                        1X; 1X1X; ; 1X                                          ",
"                                        1X1X    1X; 1X                                          ",
"                                        1X      1X; ; 1X                                        ",
"                                                  1X; 1X                                        ",
"                                                  1X;   1X                                      ",
"                                                    1X1X                                        "};
