/* XPM */
static char * image_name[] = {
"48 48 92 1",
" 	c None",
".	c #000000000000",
"X	c #FFFFFFFFFFFF",
"o	c #9E7914511861",
"O	c #9E7920811861",
"+	c #514451445144",
"@	c #104010401040",
"#	c #AEBAAAAAAEBA",
"$	c #D75CD75CD75C",
"%	c #F7DEF7DEF7DE",
"&	c #F7DEFBEEF7DE",
"*	c #E79DEBADE79D",
"=	c #B6DAB6DAB6DA",
"-	c #69A66DB669A6",
";	c #082004100820",
":	c #965830C21861",
">	c #AEBAAEBAAEBA",
",	c #C71BCB2BC71B",
"<	c #965892489658",
"1	c #9E799A699E79",
"2	c #BEFBBAEABEFB",
"3	c #DF7DE38DDF7D",
"4	c #79E77DF779E7",
"5	c #965838E31861",
"6	c #38E310401040",
"7	c #E79D59655965",
"8	c #965896589658",
"9	c #38E33CF338E3",
"0	c #082008200820",
"q	c #10400C301040",
"w	c #DF7DD34CD75C",
"e	c #F7DE30C230C2",
"r	c #CF3C61856185",
"t	c #A699A289A699",
"y	c #30C230C230C2",
"u	c #965841031861",
"i	c #CF3CCF3CCF3C",
"p	c #EFBEEFBEEFBE",
"a	c #E79D20812081",
"s	c #AEBA6DB669A6",
"d	c #618565956185",
"f	c #8E3845141861",
"g	c #618561856185",
"h	c #DF7D34D330C2",
"j	c #A69979E779E7",
"k	c #492449244924",
"l	c #410341034103",
"z	c #EFBEF3CEEFBE",
"x	c #B6DA61856185",
"c	c #8E388A288E38",
"v	c #28A228A228A2",
"b	c #8E384D341861",
"n	c #38E338E338E3",
"m	c #596559655965",
"M	c #208120812081",
"N	c #861751442081",
"B	c #E79DE79DE79D",
"V	c #DF7DDB6CDF7D",
"C	c #CF3CD34CCF3C",
"Z	c #28A2249228A2",
"A	c #F7DE6DB62081",
"S	c #20811C712081",
"D	c #F7DE79E72081",
"F	c #F7DE8E382081",
"G	c #EFBE9A692081",
"H	c #28A22CB228A2",
"J	c #69A669A669A6",
"K	c #59655D755965",
"L	c #E79DAEBA2081",
"P	c #E79DB2CA2081",
"I	c #71C675D671C6",
"U	c #9E799E799E79",
"Y	c #D75CC30B2081",
"T	c #DF7DDF7DDF7D",
"R	c #CF3CCB2B2081",
"E	c #C71BC30BC71B",
"W	c #8E388E388E38",
"Q	c #861782078617",
"!	c #49244D344924",
"~	c #514455555144",
"^	c #186118611861",
"/	c #BEFBD75C2081",
"(	c #B6DADB6C2081",
")	c #9E79E38D28A2",
"_	c #8E38E79D28A2",
"`	c #9E790C300820",
"'	c #71C6EFBE28A2",
"]	c #6185F3CE28A2",
"[	c #4924F7DE28A2",
"{	c #4103F7DE28A2",
"}	c #30C2FBEE28A2",
"|	c #28A2FBEE28A2",
"                                                ",
"                                                ",
"                                                ",
"                                                ",
"                                     ......X    ",
"               .  ..  .              .oooooX    ",
"                  ..                 .OOOOOX    ",
"           .              .          .+++++X    ",
"              @#$%&&*=-;             .:::::X    ",
"             >&,<<<<<1234            .55555X    ",
"        .  67$1<<<<<<<<<890  .       .+++++X    ",
"          qwer<<<<<<<<<<8ty0         .uuuuuX    ",
"          ip1as<<<<<<<<<<<d9         .fffffX    ",
"         g&1<shj<<<<<<<<<<8kl        .+++++X    ",
"      .  z,<<<jx<<<<<<<<<<<cv  .     .bbbbbX    ",
"        n&<<<<<<<<<<<<<<<<<8mM       .NNNNNX    ",
"        =B<<<<<<<<<<<<<<<<<<cv       .+++++X    ",
"        VC<<<<<<<<<<<<<<<<<<8Z       .AAAAAX    ",
"        p,<<<<<<<<<<<<<<<<<<<S       .DDDDDX    ",
"     .. &=<<<<<<<<<<<<<<<<<<<Z ..    .+++++X    ",
"     .. %><<<<<<<<<<<<<<<<<<<Z ..    .FFFFFX    ",
"        *><<<<<<<<<<<<<<<<<<<v       .GGGGGX    ",
"        C=<<<<<<<<<<<<<<<<<<<H       .+++++X    ",
"        J*<<<<<<<<<<<<<<<<<<KM       .LLLLLX    ",
"      .  z#<<<<<<<<<<<<<<<<<n  .     .PPPPPX    ",
"         IXU<<<<<<<<<<<<<<<-Z        .+++++X    ",
"          ,V<<<<<<<<<<<<<<<n         .YYYYYX    ",
"          0VTt<<<<<<<<<<<-v;         .RRRRRX    ",
"        .  qEcWQ<<<<<<<Ilv0  .       .+++++X    ",
"             !+mmkIJ~^@@v            ./////X    ",
"              ;vq....@^.             .(((((X    ",
"           .              .          .+++++X    ",
"                  ..                 .)))))X    ",
"               .  ..  .              ._____X    ",
"         X                           .+++++X    ",
"        X`.                          .'''''X    ",
"        X`.                          .]]]]]X    ",
"    ....X`.......................X   .+++++X    ",
"    .+++X`.++++++++++++++++++++++X   .[[[[[X    ",
"    .+++X`.++++++++++++++++++++++X   .{{{{{X    ",
"    XXXXX`.XXXXXXXXXXXXXXXXXXXXXXX   .+++++X    ",
"        X`.                          .}}}}}X    ",
"        X`.                          .|||||X    ",
"         .                           XXXXXXX    ",
"                                                ",
"                                                ",
"                                                ",
"                                                "};
