/* XPM */
static char * configs_xpm[] = {
"48 48 251 2",
"  	c None",
". 	c #2C2C2C",
"+ 	c #FEFEFE",
"@ 	c #FD04FD",
"# 	c #FA08FA",
"$ 	c #F80CF8",
"% 	c #F511F5",
"& 	c #F315F3",
"* 	c #F019F0",
"= 	c #EE1DEE",
"- 	c #2221EB",
"; 	c #2726E9",
"> 	c #2B2AE6",
", 	c #2F2EE4",
"' 	c #3332E1",
") 	c #3837DF",
"! 	c #3CDBDC",
"~ 	c #41D8DA",
"{ 	c #45D6D8",
"] 	c #49D3D5",
"^ 	c #4ED1D3",
"/ 	c #52CED0",
"( 	c #56CB56",
"_ 	c #5BC95B",
": 	c #5FC65F",
"< 	c #64C364",
"[ 	c #68C168",
"} 	c #6DBE6D",
"| 	c #BEBB71",
"1 	c #BCB976",
"2 	c #B9B67A",
"3 	c #B6B37E",
"4 	c #B4B183",
"5 	c #B1AE87",
"6 	c #AF888C",
"7 	c #AC8D90",
"8 	c #AA9195",
"9 	c #949194",
"0 	c #949094",
"a 	c #938F93",
"b 	c #928F92",
"c 	c #928E92",
"d 	c #918D91",
"e 	c #908C90",
"f 	c #8F8C8F",
"g 	c #8F8B8F",
"h 	c #8E8B8E",
"i 	c #939093",
"j 	c #908D90",
"k 	c #959195",
"l 	c #918E91",
"m 	c #908E90",
"n 	c #8E8A8E",
"o 	c #969296",
"p 	c #000000",
"q 	c #A79599",
"r 	c #969396",
"s 	c #959295",
"t 	c #FFFFFF",
"u 	c #979397",
"v 	c #959395",
"w 	c #AEAAAE",
"x 	c #616161",
"y 	c #848271",
"z 	c #878476",
"A 	c #8A877A",
"B 	c #8C897E",
"C 	c #8F8C83",
"D 	c #928F87",
"E 	c #95888C",
"F 	c #978D90",
"G 	c #9A9195",
"H 	c #9D9599",
"I 	c #989498",
"J 	c #999599",
"K 	c #979497",
"L 	c #9F9A9E",
"M 	c #233D7A",
"N 	c #949294",
"O 	c #9A969A",
"P 	c #9B979B",
"Q 	c #999699",
"R 	c #989571",
"S 	c #999676",
"T 	c #9A977A",
"U 	c #9B977E",
"V 	c #9B9883",
"W 	c #9C9987",
"X 	c #9D888C",
"Y 	c #9E8D90",
"Z 	c #9F9195",
"` 	c #A09599",
" .	c #A19A9E",
"..	c #9C989C",
"+.	c #9A979A",
"@.	c #A29EA2",
"#.	c #9D999D",
"$.	c #9B989B",
"%.	c #989598",
"&.	c #9D9A9D",
"*.	c #9C999C",
"=.	c #9E9A9E",
"-.	c #9F9B9F",
";.	c #9F9C9F",
">.	c #ABA871",
",.	c #AAA776",
"'.	c #A9A67A",
").	c #A9A57E",
"!.	c #A8A583",
"~.	c #A7A487",
"{.	c #A6888C",
"].	c #A58D90",
"^.	c #A49599",
"/.	c #A09CA0",
"(.	c #A19DA1",
"_.	c #A09DA0",
":.	c #BF04BF",
"<.	c #BE08BE",
"[.	c #BE0CBE",
"}.	c #BD11BD",
"|.	c #BC15BC",
"1.	c #BB19BB",
"2.	c #BA1DBA",
"3.	c #2221BA",
"4.	c #2726B9",
"5.	c #2B2AB8",
"6.	c #2F2EB7",
"7.	c #3332B6",
"8.	c #3837B6",
"9.	c #3CB3B5",
"0.	c #41B2B4",
"a.	c #45B2B3",
"b.	c #49B1B2",
"c.	c #4EB0B2",
"d.	c #52AFB1",
"e.	c #56AE56",
"f.	c #5BAD5B",
"g.	c #5FAC5F",
"h.	c #64AB64",
"i.	c #68AA68",
"j.	c #6DA96D",
"k.	c #A49195",
"l.	c #A39A9E",
"m.	c #A39FA3",
"n.	c #A19EA1",
"o.	c #9E9B9E",
"p.	c #FD42FD",
"q.	c #FA45FA",
"r.	c #F847F8",
"s.	c #F54AF5",
"t.	c #F34DF3",
"u.	c #F04FF0",
"v.	c #EE51EE",
"w.	c #5554EB",
"x.	c #5756E9",
"y.	c #5A59E6",
"z.	c #5C5BE4",
"A.	c #5F5EE1",
"B.	c #6260DF",
"C.	c #65DBDC",
"D.	c #67D8DA",
"E.	c #6AD6D8",
"F.	c #6CD3D5",
"G.	c #6FD1D3",
"H.	c #72CED0",
"I.	c #74CB74",
"J.	c #77C977",
"K.	c #7AC67A",
"L.	c #7CC37C",
"M.	c #7FC17F",
"N.	c #82BE82",
"O.	c #BEBB84",
"P.	c #BCB987",
"Q.	c #B9B68A",
"R.	c #B6B38C",
"S.	c #B4B18F",
"T.	c #B1AE92",
"U.	c #AF9195",
"V.	c #AC9497",
"W.	c #AA969A",
"X.	c #A7999D",
"Y.	c #A59B9F",
"Z.	c #DFFFFF",
"`.	c #92CB92",
" +	c #93C993",
".+	c #94C694",
"++	c #95C395",
"@+	c #96C196",
"#+	c #97BE97",
"$+	c #BEBB98",
"%+	c #BCB999",
"&+	c #B9B69A",
"*+	c #B6B39B",
"=+	c #B4B19B",
"-+	c #B1AE9C",
";+	c #AF9A9D",
">+	c #AC9B9E",
",+	c #AA9C9F",
"'+	c #A79CA0",
")+	c #A59DA1",
"!+	c #BDBEBD",
"~+	c #5A5D5A",
"{+	c #515551",
"]+	c #FFFF00",
"^+	c #B0CBB0",
"/+	c #AFC9AF",
"(+	c #AEC6AE",
"_+	c #AEC3AE",
":+	c #ADC1AD",
"<+	c #ACBEAC",
"[+	c #BEBBAB",
"}+	c #BCB9AA",
"|+	c #B9B6A9",
"1+	c #B6B3A9",
"2+	c #B4B1A8",
"3+	c #B1AEA7",
"4+	c #AFA3A6",
"5+	c #ACA2A5",
"6+	c #AAA1A4",
"7+	c #A7A0A4",
"8+	c #A59FA3",
"9+	c #747274",
"0+	c #777577",
"a+	c #7A777A",
"b+	c #7C7A7C",
"c+	c #7F7C7F",
"d+	c #827F82",
"e+	c #7B787B",
"f+	c #7E7B7E",
"g+	c #858285",
"h+	c #898689",
"i+	c #8D898D",
"j+	c #8C888C",
"k+	c #FDFDFD",
"l+	c #FAFAFA",
"m+	c #F8F7F8",
"n+	c #F5F5F5",
"o+	c #F3F2F3",
"p+	c #F0F0F0",
"q+	c #EEEDEE",
"r+	c #BAB9BA",
"s+	c #B9B8B9",
"t+	c #B8B7B8",
"u+	c #B7B6B7",
"v+	c #B6B5B6",
"w+	c #B6B4B6",
"x+	c #8D8B8D",
"y+	c #8E8C8E",
"z+	c #8E8D8E",
"A+	c #8F8E8F",
"B+	c #918F91",
". . . . . . . . . . . . . . . . . . . . . . . . . . . . . . . . . . . . . . . . . . . . . . . + ",
". @ # $ % & * = - ; > , ' ) ! ~ { ] ^ / ( _ : < [ } | 1 2 3 4 5 6 7 8 8 9 9 0 a b c d e f g h + ",
". @ # $ % & * = - ; > , ' ) ! ~ { ] ^ / ( _ : < [ } | 1 2 3 4 5 6 7 8 8 9 9 9 i i a c d j e g + ",
". @ # $ % & * = - ; > , ' ) ! ~ { ] ^ / ( _ : < [ } | 1 2 3 4 5 6 7 8 8 9 9 k 0 i i b l m j n + ",
". @ # $ % & * = - ; > , ' ) ! ~ { ] ^ / ( _ : < [ } | 1 2 3 4 5 6 7 8 8 9 9 o k 9 0 a c l d n + ",
". p p p p p p p p p p p p p p p p p p p p p p p p p | 1 2 3 4 5 6 7 8 q 9 r r o s k 0 a b c n + ",
". t t t t t t t t p t t t t t t t t t t t t t t t p | 1 2 3 4 5 6 7 8 q 8 r u r v s 9 i i a n + ",
". w w w w w w w x p t w w w w w w w w w w w w w x p y z A B C D E F G H 8 r I u r o k 0 i a n + ",
". w w w w w w w x p t w w w w w w w w w w w w w x p y z A B C D E F G H 8 r J I K u o k 9 0 n + ",
". w w w w w w w x p t w w w w w w w w w w w w w x p y z A B C D E F G H L M J M K K r s N 9 n + ",
". w w w w w w w x p t w w w p p w w w p p w w w x p y z A B C D E F G H L M O M M I u o s k n + ",
". w w w w w w w x p t w w w p p p w p p p w w w x p y z A B C D E F G H L M P M M M I u r o n + ",
". w w w w w w w x p t w w w w p p p p p w w w w x p y z A B C D E F G H L M P M M Q K K K u n + ",
". w w w w w w w x p t w w w w w p p p w w w w w x p R S T U V W X Y Z `  .M ..M +.O J I K u n + ",
". w w w w w w w x p t w w w w p p p p p w w w w x p R S T U V W X Y Z `  .@.#...$.P O J %.I n + ",
". w w w w w w w x p t w w w p p p w p p p w w w x p R S T U V W X Y Z `  .@.&.*.*...P O Q J n + ",
". w w w w w w w x p t w w w p p w w w p p w w w x p R S T U V W X Y Z `  .@.=.#.*...P O Q J n + ",
". w w w w w w w x p t w w w w w w w w w w w w w x p R S T U V W X Y M ` M M -.M &.#...P +.O n + ",
". w w w w w w w x p t w w w w w w w w w w w w w x p R S T U V W X Y M ` M M ;.M M =.#...$.P n + ",
". w w w w w w w x p t w w w w w w w w w w w w w x p >.,.'.).!.~.{.].M ^.M M /.M M M #...$.P n + ",
". x x x x x x x x p t x x x x x x x x x x x x x x p >.,.'.).!.~.{.].M ^.M M (.M M -.=.#.*...n + ",
". p p p p p p p p p p p p p p p p p p p p p p p p p >.,.'.).!.~.{.].M ^.M M @.M _./.-.=.&.#.n + ",
". :.<.[.}.|.1.2.3.4.5.6.7.8.9.0.a.b.c.d.e.f.g.h.i.j.>.,.'.).!.~.{.].k.^.l.@.@.(._./.-.=.&.#.n + ",
". :.<.[.}.|.1.2.3.4.5.6.7.8.9.0.a.b.c.d.e.f.g.h.i.j.>.,.'.).!.~.{.].k.^.l.@.m.@.n.(./.-.o.=.n + ",
". p.q.r.s.t.u.v.w.x.y.z.A.B.C.D.E.F.G.H.I.J.K.L.M.N.O.P.Q.R.S.T.U.V.W.X.Y.@.@.(._./.-.=.&.#.n + ",
". p.q.r.s.t.u.v.w.x.y.z.A.B.C.D.E.F.G.H.I.J.K.L.M.N.O.P.Q.R.M T.M M W.M M M @.M _./.-.=.&.#.n + ",
". p p p p p p p p p p p p p p p p p p p I.J.K.L.M.N.O.P.Q.R.M T.M M W.M M M (.M M -.=.#.*...n + ",
". x x x x x x x x x x x x x x x x x . p I.J.K.L.M.N.O.P.Q.R.M T.M M W.M M M /.M M M #...$.P n + ",
". p p p p p p p p p p p p p p p p p p p I.J.K.L.M.N.O.P.Q.R.M T.M M W.M M M ;.M M =.#...$.P n + ",
". p p p p p p p p p p p p p p p p p p p I.J.K.L.M.N.O.P.Q.R.M T.M M W.M M M -.M &.#...P +.O n + ",
". p p p p p p Z.Z.Z.Z.Z.Z.Z.Z.Z.p p p p `. +.+++@+#+$+%+&+*+=+-+;+>+,+'+)+@.=.#.*...P O Q J n + ",
". p p p p p p Z.!+!+!+!+!+!+!+~+p p p p `. +.+++@+#+$+%+&+*+=+-+;+>+,+'+)+@.&.*.*...P O Q J n + ",
". p p p p p p Z.!+p {+!+{+p !+~+p p p p `. +.+++@+#+$+%+&+*+=+-+;+>+,+'+)+@.#...$.P O J %.I n + ",
". p p p p p p Z.!+{+p {+p {+!+~+p p p p `. +.+++@+#+$+]+]+]+]+]+]+]+]+]+]+]+]+]++.O J I K u n + ",
". p p p p p p Z.!+!+{+p {+!+!+~+p p p p `. +.+++@+#+$+]+p ]+p ]+p p ]+p p p ]+p ]+Q %.K K u n + ",
". p p p p p p Z.!+{+p {+p {+!+~+p p p p `. +.+++@+#+$+]+p ]+p ]+p p ]+p p p ]+p p ]+I u r o n + ",
". p p p p p p Z.!+p {+!+{+p !+~+p p p p ^+/+(+_+:+<+[+]+p ]+p ]+p p ]+p p p ]+p p p ]+o s k n + ",
". p p p p p p Z.!+!+!+!+!+!+!+~+p p p p ^+/+(+_+:+<+[+]+p ]+p ]+p p ]+p p p ]+p p ]+r s N 9 n + ",
". p p p p p p Z.~+~+~+~+~+~+~+~+p p p p ^+/+(+_+:+<+[+]+p ]+p ]+p p ]+p p p ]+p ]+u o k 9 0 n + ",
". p p p p p p p p p p p p p p p p p p p ^+/+(+_+:+<+[+]+]+]+]+]+]+]+]+]+]+]+]+]+r o k 0 i a n + ",
". p p p p p p p p p p p p p p p p p p p ^+/+(+_+:+<+[+}+|+1+2+3+4+5+6+7+8+@.u r v s 9 i i a n + ",
". p p p p p p p p p p p p p p p p p p p ^+/+(+_+:+<+[+}+|+1+2+3+4+5+6+7+=.=.r o s k 0 a b c n + ",
". p p p p p p p p p p p p p p p p p p p 9+0+a+b+c+d+e+f+d+g+h+i+j+j k J =.o o k 9 0 a c l d n + ",
". k+l+m+n+o+p+q+r+s+t+u+v+w+x+y+z+A+m B+9+0+a+b+c+d+e+f+d+g+h+i+j+j k k 9 9 k 0 i i b l m j n + ",
". k+l+m+n+o+p+q+r+s+t+u+v+w+x+y+z+A+m B+9+0+a+b+c+d+e+f+d+g+h+i+j+j k k 9 9 9 i i a c d j e n + ",
". k+l+m+n+o+p+q+r+s+t+u+v+w+x+y+z+A+m B+9+0+a+b+c+d+e+f+d+g+h+i+j+j k k 9 9 0 a b c d e f g n + ",
". k+l+m+n+o+p+q+r+s+t+u+v+w+x+y+z+A+m B+9+0+a+b+c+d+e+f+d+g+h+i+j+j k k 9 0 n n n n n n n n n + ",
"+ + + + + + + + + + + + + + + + + + + + + + + + + + + + + + + + + + + + + + + + + + + + + + + + "};
