/* XPM */
static char * image_name[] = {
"48 48 57 1",
" 	c None",
".	c #000000000000",
"X	c #082082079658",
"o	c #10407DF7AEBA",
"O	c #00007DF79E79",
"+	c #186179E7A699",
"@	c #08207DF7A699",
"#	c #10408207AEBA",
"$	c #10408207A699",
"%	c #10407DF79E79",
"&	c #18618617A699",
"*	c #104079E79E79",
"=	c #B6DAB6DAB6DA",
"-	c #71C671C671C6",
";	c #38E338E338E3",
":	c #082000009E79",
">	c #08208617A699",
",	c #104079E7AEBA",
"<	c #A699A699A699",
"1	c #71C675D671C6",
"2	c #08208207A699",
"3	c #79E77DF779E7",
"4	c #10408617A699",
"5	c #FFFFFFFFFFFF",
"6	c #18618A289658",
"7	c #082082079E79",
"8	c #10407DF7A699",
"9	c #18617DF79E79",
"0	c #30C230C230C2",
"q	c #08208617AEBA",
"w	c #104079E79658",
"e	c #082079E7A699",
"r	c #10407DF79658",
"t	c #08208207AEBA",
"y	c #082079E79E79",
"u	c #10408A28A699",
"i	c #104075D6A699",
"p	c #00008207A699",
"a	c #082079E7AEBA",
"s	c #08207DF79E79",
"d	c #000086179E79",
"f	c #104082079E79",
"g	c #104075D69E79",
"h	c #186175D6A699",
"j	c #A699AAAAA699",
"k	c #C71BC71BC71B",
"l	c #BEFB5D755965",
"z	c #71C618611861",
"x	c #71C620812081",
"c	c #186179E79E79",
"v	c #96585D755965",
"b	c #514445144103",
"n	c #18618A289E79",
"m	c #8E3808200820",
"M	c #08207DF7AEBA",
"N	c #104079E7A699",
"B	c #00007DF7A699",
"                                                ",
"                                 ..             ",
"                ...............    .            ",
"                .XoO+o@#$%&*=-.;  .             ",
"          .     .$::::::::>%=-.; .              ",
"          ..    .,<1<1<<1<%2<3.; ...            ",
"       . ....   .4<55555556&<3.;                ",
"      .. .....  .#<55555552@=-.; .. .. .        ",
"     ... ....   .7555555558>=-.; .. .. ..       ",
"          ..    .><<<<<<<<9,<3.; .. .. ...      ",
"     ...  .     .@00000000qw<3.;                ",
"     ...     .  .$e*r72t>%ey=-.;       ...      ",
"            ..  .=-u,>ip82*a=-.;     .......    ",
"     ...     .  .00sd@#+6&t8fg.;      .....     ",
"     ...     .  ...............;       ...      ",
"             .   ;;;;;;;;;;;;;;;        .       ",
"                                                ",
" ...............                                ",
" .XoO+o@#$%&*=-.;              ...............  ",
" .$:::::72t>%=-.;              .XoO+o@#$%&*=-.; ",
" .,55555>ip%2<3.;              .::$%&*72t>%=-.; ",
" .455555@#h6&<3.;              .jk2:::::p%2<3.; ",
" .a555:::::2@=-.;              .kji5lzx5&*&<3.; ",
" .c000555558>=-.;              .jk85lvb5>82=-.; ",
" .>%2n555559,<3.;              .kjt5xmx5%2>=-.; ",
" .*Mr@55555qw<3.;              .jkp000006&,<3.; ",
" .$e%r00000ey=-.;              .00+6&ip%2qw<3.; ",
" .=-uN$grB2*a=-.;              .$e*r@#+6&ey=-.; ",
" .00sde*NdBt8fg.;              .=-uN$grB2*a=-.; ",
" ...............;              .00sde*NdBt8fg.; ",
"  ;;;;;;;;;;;;;;;              ...............; ",
"                                ;;;;;;;;;;;;;;; ",
"     .                                          ",
"    ...        ...............        ... ..    ",
"   .....       .XoO+o@#$%&*=-.;       ...   .   ",
"  .......      .$:::::72t>%=-.;            .    ",
"    ...        .,55555>ip%2<3.;       ...   .   ",
"               .455555@#h6&<3.;    .  ... ..    ",
"    ... .. ..  .a5::::::::@=-.;   ..            ",
"     .. .. ..  .c0<1<1<<1<>=-.;  .... ...       ",
"      . .. ..  .>%<5555555,<3.; ..... ..        ",
"               .*M<5555555w<3.;  .... .         ",
"          . .  .$e55555555y=-.;   ..            ",
"          . .  .=-<<<<<<<<a=-.;    .            ",
"          ...  .00000000008fg.;                 ",
"            .  ...............;                 ",
"            .   ;;;;;;;;;;;;;;;                 ",
"                                                "};
