/* XPM */
static char * image_name[] = {
"48 48 194 2",
"  	c None",
". 	c #CF3CCB2BCF3C",
"X 	c #9E799E799E79",
"o 	c #965896589658",
"O 	c #965892489658",
"+ 	c #9E79A289A699",
"@ 	c #AEBABAEABEFB",
"# 	c #28A2249228A2",
"$ 	c #492445144924",
"% 	c #49244D344924",
"& 	c #492449244924",
"* 	c #30C230C230C2",
"= 	c #E79DEBADE79D",
"- 	c #F7DEF3CEF7DE",
"; 	c #B6DAB6DAB6DA",
": 	c #A699B6DAB6DA",
"> 	c #8E3892489658",
", 	c #71C675D671C6",
"< 	c #71C671C671C6",
"1 	c #69A66DB669A6",
"2 	c #38E338E338E3",
"3 	c #9E799A699E79",
"4 	c #9E79B2CAB6DA",
"5 	c #30C22CB230C2",
"6 	c #410341034103",
"7 	c #79E779E779E7",
"8 	c #861782078617",
"9 	c #D75CDB6CD75C",
"0 	c #DF7DE38DDF7D",
"q 	c #A699B2CAB6DA",
"w 	c #8E388E388E38",
"e 	c #B6DAC30BBEFB",
"r 	c #8E388A288E38",
"t 	c #AEBAAAAAAEBA",
"y 	c #BEFBBAEABEFB",
"u 	c #BEFBBEFBBEFB",
"i 	c #79E77DF779E7",
"p 	c #86178E388E38",
"a 	c #69A671C671C6",
"s 	c #96589A699E79",
"d 	c #69A679E779E7",
"f 	c #861786178617",
"g 	c #28A230C230C2",
"h 	c #596559655965",
"j 	c #082008200820",
"k 	c #618565956185",
"l 	c #861786178E38",
"z 	c #20811C712081",
"x 	c #08200C301040",
"c 	c #9E79AAAAAEBA",
"v 	c #79E782078617",
"b 	c #9E79A699A699",
"n 	c #A699BAEAB6DA",
"m 	c #618561856185",
"M 	c #8E3896589658",
"N 	c #86178A288E38",
"B 	c #79E786178617",
"V 	c #59655D755965",
"C 	c #86177DF769A6",
"Z 	c #79E77DF78617",
"A 	c #69A669A669A6",
"S 	c #514455555965",
"D 	c #514455555144",
"F 	c #514451445144",
"G 	c #18611C711861",
"H 	c #49244D345144",
"J 	c #2081208128A2",
"K 	c #20811C7128A2",
"L 	c #186118612081",
"P 	c #104010401040",
"I 	c #10400C301040",
"U 	c #186114511861",
"Y 	c #104014511861",
"T 	c #104010401861",
"R 	c #38E33CF338E3",
"E 	c #000004100000",
"W 	c #000000000000",
"Q 	c #208120812081",
"! 	c #B6DAB2CAB6DA",
"~ 	c #AEBAAEBAAEBA",
"^ 	c #A699A699A699",
"/ 	c #A699A289A699",
"( 	c #186114512081",
") 	c #28A228A228A2",
"_ 	c #28A228A230C2",
"` 	c #30C234D338E3",
"' 	c #28A22CB230C2",
"] 	c #DF7DDB6CDF7D",
"[ 	c #EFBEEFBEEFBE",
"{ 	c #DF7DDB6CD75C",
"} 	c #D75CD75CD75C",
"| 	c #D75CD34CD75C",
" .	c #C71BCB2BC71B",
"..	c #C71BC71BC71B",
"X.	c #41033CF34103",
"o.	c #410345144924",
"O.	c #410341035965",
"+.	c #410341035144",
"@.	c #38E33CF34924",
"#.	c #30C230C238E3",
"$.	c #28A2249230C2",
"%.	c #38E33CF34103",
"&.	c #38E334D338E3",
"*.	c #492449246185",
"=.	c #38E338E34924",
"-.	c #18611C712081",
";.	c #492445145965",
":.	c #965896589E79",
">.	c #2081249228A2",
",.	c #41033CF35144",
"<.	c #FFFFFFFFFFFF",
"1.	c #C71BC30BC71B",
"2.	c #514455556185",
"3.	c #514451445965",
"4.	c #6185659571C6",
"5.	c #596559656185",
"6.	c #59655D756185",
"7.	c #79E775D68617",
"8.	c #71C671C679E7",
"9.	c #6185659569A6",
"0.	c #71C66DB671C6",
"q.	c #8E388E389658",
"w.	c #4924410330C2",
"e.	c #71C675D68617",
"r.	c #71C675D679E7",
"t.	c #69A669A671C6",
"y.	c #30C220811040",
"u.	c #96589A69A699",
"i.	c #8E3896589E79",
"p.	c #8E3892489E79",
"a.	c #AEBAAEBABEFB",
"s.	c #F7DEFBEEFFFF",
"d.	c #EFBEF3CEF7DE",
"f.	c #E79DEBADEFBE",
"g.	c #DF7DE38DEFBE",
"h.	c #D75CDF7DEFBE",
"j.	c #D75CDB6CEFBE",
"k.	c #CF3CD75CE79D",
"l.	c #F7DEFFFFFFFF",
"z.	c #EFBEF7DEF7DE",
"x.	c #EFBEEFBEF7DE",
"c.	c #E79DEFBEF7DE",
"v.	c #E79DEBADF7DE",
"b.	c #BEFBB6DAB6DA",
"n.	c #E79DE79DDF7D",
"m.	c #B6DAA28969A6",
"M.	c #BEFBBAEAA699",
"N.	c #EFBEEBADE79D",
"B.	c #DF7DDF7DD75C",
"V.	c #F7DEF7DEF7DE",
"C.	c #AEBAA699A699",
"Z.	c #CF3CC71BB6DA",
"A.	c #A6999E7969A6",
"S.	c #A699A2898617",
"D.	c #E79DE38DDF7D",
"F.	c #DF7DD34CB6DA",
"G.	c #96589A698617",
"H.	c #DF7DDF7DDF7D",
"J.	c #38E334D328A2",
"K.	c #30C22CB22081",
"L.	c #410334D328A2",
"P.	c #5965492438E3",
"I.	c #861779E769A6",
"U.	c #BEFBB6DAAEBA",
"Y.	c #D75CC71BA699",
"T.	c #8E3879E75144",
"R.	c #28A21C711040",
"E.	c #30C224922081",
"W.	c #28A21C711861",
"Q.	c #492438E328A2",
"!.	c #9E798E3869A6",
"~.	c #86177DF76185",
"^.	c #BEFBB6DAA699",
"/.	c #5144492438E3",
"(.	c #9658861769A6",
").	c #96588A285965",
"_.	c #8E3882076185",
"`.	c #861775D66185",
"'.	c #861775D65965",
"].	c #E79DE79DE79D",
"[.	c #A69996585965",
"{.	c #9E799A698617",
"}.	c #B6DAAAAA8E38",
"|.	c #410330C22081",
" X	c #C71BBEFBB6DA",
".X	c #69A675D66185",
"XX	c #9E7986175144",
"oX	c #9E79924871C6",
"OX	c #CF3CB6DA79E7",
"+X	c #5144555538E3",
"@X	c #A6999A6979E7",
"#X	c #492430C22081",
"$X	c #492428A22081",
"%X	c #F7DEFBEEF7DE",
"                                                    . X X o O + @ # $ % % & * = - ; : > , < 1 2 ",
"                                                    . 3 o o O + 4 5 % 6 1 7 8 9 0 ; q w < < 1 2 ",
"                                                    . o o O w X e 2 % * r o t y u i 4 p a 1 1 2 ",
"                                                    . o O w w s e d % * f w o X X 5 q p 1 1 1 2 ",
"                                                    . O w w r s : g h , r r r r & j 4 p 1 1 k 2 ",
"                                                    . w w r l s q 5 z $ < 7 k 5 j x c v 1 k k 2 ",
"                                                    . w r r f w b 4 @ n : : : q 4 c s , k k m 2 ",
"                                                    . r r f f 8 p > M > > p p p N B , k k m V 2 ",
"                                                    . r f f 8 C Z 7 7 , , < a 1 1 1 k k m V V 2 ",
"                                                    . f f 8 v Z 7 7 , , < a 1 1 1 k k m V V h 2 ",
"                                                    . 2 2 2 2 2 2 2 2 2 2 2 2 2 2 2 2 2 2 2 2 2 ",
"                                                    1 A 1 A 1 A 1 A 1 A 1 A 1 A 1 A 1 A 1 A 1 1 ",
"                                                    1 h h h S D D D F F F % % % % & & $ $ $ $ G ",
"                                                    1 h h h h D D F F F F H % % % & & & $ $ $ z ",
"                                                    1 h h D D D F F F F % % % & & & $ $ $ $ 6 z ",
"                                                    k h D D & & & & & & & $ $ $ $ $ $ 6 * 6 6 z ",
"                                                    1 D D D < 7 a 1 1 1 1 1 1 k k k 1 1 5 6 6 z ",
"                                                    1 D D D 1 D J J K L P I U Y T I H 1 5 6 R z ",
"                      . . . . . . . . . . . . . . . . . . . . . . J K E W Q $ T T I H 1 5 R 6 z ",
"                      . ! ! ~ ~ t t ^ ^ / X X X X o o O w w w r 2 J Y W G 6 < ( I I % 1 ) R R z ",
"                      . ! ~ ~ t t ^ ^ / X X X o o o O w w r r f 2 J ( E 1 8 m T I x % 1 ) R R z ",
"                      . ~ ~ t t ^ ^ / X X X X o o O w w r r f f 2 K T z h D T x x j & 1 ) R 2 z ",
"                      . ~ t t w o O O O w w r r r r f f f 1 f 8 2 _ _ ` ' ) ' # z x & k ) 2 2 z ",
"                      . t t ^ ] [ 9 { } | | | .  .....| } h 8 i 2 X.o.` R * X.2 * I & k ) 2 2 z ",
"                      . t ^ ^ 9 t O.+.@.#.J J _ $.J K X } h i i 2 %.2 2 ` 2 * * 5 ) h k ) * &.z ",
"                      . ^ ^ / 9 ^ *.O.=.j W 6 l J J -.X | D i 7 2 1 1 1 1 1 k k m m m V ) 2 * z ",
"                      . ^ / X 9 ^ ;.O.$.W * 8 0 ' K L :.| D 7 7 2 m m m m m m m k D Q >.5 * &.z ",
"                      . / X X } ^ O.,._ j } <.1.J L U :.. D 7 , 2 ) ) ) ) ) ) ) ) # * &.&.&.* z ",
"                      . X X X } / +.=.$.` ; ^ ) L L T O . D , , 2 % % % % % % % % ) * &.&.* &.z ",
"                      . X X X | / ,.2.3.4.5.3.6.$ X.( O  .F , < 2 ) ) ) ) # # # # 5 &.&.* * * z ",
"                      . X o o | X =.7.<.<.8.9.Z 0.m z q. .F < 1 R w.X.R R R 2 2 * &.* &.&.* * z ",
"                      . X o o | ; e.r.<.W <.t.9.m h S ~ ..% a 1 2 X.R R 2 2 2 &.&.&.* * * * 5 z ",
"                      . o o O  .] 9 { <.W W <. .....1.u u % 1 1 2 R R 2 2 2 * &.* &.&.* * 5 5 z ",
"                      . o O w < 1 ! ..<.W W W <.....^ 6 $ h 1 1 2 z z z z z z L y.z z z z z z z ",
"                      . O w w r f V F <.W W W W <.F & k 1 1 1 k 2 . . . . . . . . . . . . . . . ",
"                      . w w r r f , X <.W W W <.X X F 1 1 1 k k 2 ^ ^ / X X 3 X o o O w w w r 2 ",
"                      . w r r f f 7 F <.<.<.W <.& & D 1 A k k m 2 ^ / X X 3 X o o O w w r r f 2 ",
"                      . r r f f B C i 7 7 <.W W <.1 1 1 k k m V 2 / X X X X o o O w w r r f f 2 ",
"                      . r f f 8 Z Z i 7 , , <.<.1 1 A k k m V V 2 ; t / u.s i.p.p.p.p.a.f f 8 2 ",
"                      . f f 8 8 i 7 7 , , < a 1 1 1 k k m V V h 2 <.s.d.f.g.g.h.j.j.k.h.f 8 i 2 ",
"                      . 2 2 2 2 2 2 2 2 2 2 2 2 2 2 2 2 2 2 2 2 2 <.<.l.z.z.z.d.x.c.v.c.8 8 i 2 ",
"                                                    . ^ ^ b.n.m.M.<.<.l.l.l.N.B.V.s.l.V.i i 7 2 ",
"                                                    . ^ / C.Z.A.S.] - <.<.D.F.G.H.<.<.<.i 7 7 2 ",
"                                                    . / X w.J.K.L.P.I.U.{ Y.T.C N.<.<.<.7 7 , 2 ",
"                                                    . X X R.R.E.R.R.W.Q.!.~.^.[ <.<.<.<.7 , , 2 ",
"                                                    . X X /.(.)._.`.Q.E.y.'.].<.<.<.<.<., , < 2 ",
"                                                    . X 3 C Z.[.{.Z.}.|.y.Q. X<.<.<.<.<., < 1 2 ",
"                                                    . X o .XS.XXoXOX+X@X#X$X`.%X<.<.<.<.< < 1 2 "};
