/* XPM */
static char * image_name[] = {
"48 48 175 2",
"  	c None",
". 	c #E79DE79DE79D",
"X 	c #DF7DE38DDF7D",
"o 	c #DF7DDF7DDF7D",
"O 	c #D75CDB6CD75C",
"+ 	c #D75CD75CD75C",
"@ 	c #D75CD34CD75C",
"# 	c #CF3CCF3CCF3C",
"$ 	c #CF3CCB2BCF3C",
"% 	c #C71BC71BC71B",
"& 	c #BEFBBAEABEFB",
"* 	c #B6DABAEAB6DA",
"= 	c #B6DAB6DAB6DA",
"- 	c #000000000000",
"; 	c #C71BC30BC71B",
": 	c #B6DAB2CAB6DA",
"> 	c #71C675D671C6",
", 	c #41033CF34103",
"< 	c #20811C712081",
"1 	c #186118611861",
"2 	c #492449244924",
"3 	c #965896589658",
"4 	c #49244D344924",
"5 	c #082004100820",
"6 	c #208124922081",
"7 	c #69A669A669A6",
"8 	c #8E388E388E38",
"9 	c #AEBAAEBAAEBA",
"0 	c #38E338E338E3",
"q 	c #AEBAAAAAAEBA",
"w 	c #104010401040",
"e 	c #861786178617",
"r 	c #514451445144",
"t 	c #FFFFFFFFFFFF",
"y 	c #104014511861",
"u 	c #A699A699A699",
"i 	c #38E334D338E3",
"p 	c #F7DEFBEEF7DE",
"a 	c #410341034103",
"s 	c #082008200820",
"d 	c #A699A289A699",
"f 	c #30C230C230C2",
"g 	c #9E799A699E79",
"h 	c #E79DEBADE79D",
"j 	c #9E799E799E79",
"k 	c #69A66DB669A6",
"l 	c #EFBEF3CEEFBE",
"z 	c #79E77DF779E7",
"x 	c #F7DEF7DEF7DE",
"c 	c #492445144924",
"v 	c #79E779E779E7",
"b 	c #618561856185",
"n 	c #514455555144",
"m 	c #965892489658",
"M 	c #00000C301040",
"N 	c #000010401040",
"B 	c #000010401861",
"V 	c #000008200820",
"C 	c #000004100820",
"Z 	c #000018611861",
"A 	c #00001C712081",
"S 	c #0000208128A2",
"D 	c #8E388A288E38",
"F 	c #38E355555965",
"G 	c #B6DAC30BC71B",
"H 	c #000028A230C2",
"J 	c #104034D338E3",
"K 	c #69A686178E38",
"L 	c #8E389E79A699",
"P 	c #104030C238E3",
"I 	c #00002CB230C2",
"U 	c #000030C238E3",
"Y 	c #69A682078617",
"T 	c #CF3CD34CD75C",
"R 	c #28A255555965",
"E 	c #10403CF34103",
"W 	c #596582078E38",
"Q 	c #000034D34103",
"! 	c #000038E34103",
"~ 	c #492471C679E7",
"^ 	c #492475D679E7",
"/ 	c #CF3CDB6CDF7D",
"( 	c #208155555965",
") 	c #00003CF34103",
"_ 	c #104045144924",
"` 	c #000041034924",
"' 	c #000045144924",
"] 	c #492479E78617",
"[ 	c #000049245144",
"{ 	c #59658A288E38",
"} 	c #186159656185",
"| 	c #104051445965",
" .	c #00004D345965",
"..	c #000051445965",
"X.	c #492486178E38",
"o.	c #000055556185",
"O.	c #69A69E79A699",
"+.	c #C71BD34CD75C",
"@.	c #208169A671C6",
"#.	c #618596589E79",
"$.	c #0000596569A6",
"%.	c #00005D7569A6",
"&.	c #514492489E79",
"*.	c #1040618569A6",
"=.	c #8E38AAAAB6DA",
"-.	c #B6DACF3CCF3C",
";.	c #61859E79A699",
":.	c #082038E338E3",
">.	c #186130C230C2",
",.	c #9E79A699A699",
"<.	c #28A230C230C2",
"1.	c #186128A228A2",
"2.	c #104038E34103",
"3.	c #104055556185",
"4.	c #30C234D330C2",
"5.	c #BEFBBEFBBEFB",
"6.	c #D75CDF7DDF7D",
"7.	c #DF7DE38DE79D",
"8.	c #E79DE38DDF7D",
"9.	c #C71B8A288E38",
"0.	c #71C64D344924",
"q.	c #79E779E78617",
"w.	c #E79DEFBEEFBE",
"e.	c #A699AAAAAEBA",
"r.	c #86178A288E38",
"t.	c #8E388E389658",
"y.	c #8E3892489658",
"u.	c #965892489E79",
"i.	c #BEFB7DF78617",
"p.	c #69A628A230C2",
"a.	c #71C669A669A6",
"s.	c #69A669A671C6",
"d.	c #E79DEBADEFBE",
"f.	c #8E388A289658",
"g.	c #79E779E78E38",
"h.	c #8E3886179E79",
"j.	c #9E799658A699",
"k.	c #96588A289E79",
"l.	c #8E388A289E79",
"z.	c #AEBA82078E38",
"x.	c #9E7934D34103",
"c.	c #492434D338E3",
"v.	c #69A671C679E7",
"b.	c #A6999E79AEBA",
"n.	c #BEFB9A69A699",
"m.	c #A69979E78617",
"M.	c #9E799248A699",
"N.	c #B6DA9A69A699",
"B.	c #965851445965",
"V.	c #596555556185",
"C.	c #AEBAAEBAB6DA",
"Z.	c #69A66DB679E7",
"A.	c #A6999658A699",
"S.	c #BEFB6DB671C6",
"D.	c #9E7975D679E7",
"F.	c #A69969A671C6",
"G.	c #618534D338E3",
"H.	c #596551445965",
"J.	c #69A6659571C6",
"K.	c #86177DF78E38",
"L.	c #AEBA79E78617",
"P.	c #B6DA34D34103",
"I.	c #B6DA3CF34924",
"U.	c #79E738E34103",
"Y.	c #514441034924",
"T.	c #71C66DB679E7",
"R.	c #6185618569A6",
"E.	c #79E775D68617",
"W.	c #965879E78617",
"Q.	c #AEBA55556185",
"!.	c #8E381C7128A2",
"~.	c #514430C238E3",
"^.	c #618559656185",
"/.	c #A699A699AEBA",
"(.	c #59655D756185",
"                                                          . . . . . . . . . . . . . . . . . . . ",
"                                                          . . . X o O O + @ # $ $ % % & & * = - ",
"                                                          . . X o O O + @ # # $ % ; & & * * : - ",
"                                                          . X o O O * > , < 1 < 2 3 = * = : : - ",
"                                                          . o o + = 4 5 - - - - 5 6 7 8 8 : 9 - ",
"                                                          . o O ; 4 - - - - - - 0 3 q 2 w 9 q - ",
"                                                          . O + e 5 - - - - - - r O t & y q u - ",
"                                                          . + @ i - - - - - - - r O t p a u u - ",
"                                                          . @ @ s - - - - - - - r O t t > u d - ",
"                                                          . @ # - - - 5 f 7 7 7 g h t t 8 d j - ",
"                                                          . # $ s - - s k h h h l p t t z j g - ",
"                                                          . $ % i - - s > t t t t t t x c g g - ",
"                          . . . . . . . . . . . . . . . . . . . v 5 - s > t t t t t t * y g 3 - ",
"                          . . . X o O O + @ # $ $ % % & & * = - b 6 0 n j t t t t t O c - 3 m - ",
"                          . . X o O O + @ # # $ % ; & & * * : - s s 0 : l t t t t ; c 5 - m 8 - ",
"                          . X o M N N B B B B B B B B N V : : - - - 5 1 n m q m n 1 C - - m 8 - ",
"                          . o o Z A A A A S S S A A A A B : 9 - = : 9 9 q u d j j g 3 m m 8 D - ",
"                          . o O S S F G F H H J K L P S A 9 q - : 9 9 q u d d j g 3 m m 8 D e - ",
"                          . O + I I U Y T R U U E W I I H q u - - - - - - - - - - - - - - - - - ",
"                          . + @ Q Q ! ~ ^ / ( ) _ W ! ! U u u -                                 ",
"                          . @ @ ) ` ' ] [ { / } | { ` ` ) u d - X o O O + @ # $ $ % ; & & * = - ",
"                          . @ # [  ...X.o.o.O.+.@.#... .[ d j -                                 ",
"                          . # $ $.%.%.&.*.$.$.=.-.;.%.$.o.j g - M N B - B B B B B B N N M : : - ",
"                          . $ % | :.>.,.<.5 - 5 1 y 1.2.3.g g -                                 ",
"                          . % % - - < 4.f 5 - - - - - - - g 3 - S S F G F H I J K L P S A 9 q - ",
"                          . % ; - - - - - - - - - - - - - 3 m -                                 ",
"                          . ; t - - - - - - - - - - - - - m 8 - Q Q ! ~ ^ / ( ) _ W ! Q U u u - ",
"                          . & t t - - - - - - - - - - - - 8 8 -                                 ",
"                          . * t - t 9 9 q u d ,.j g 3 3 m 8 D - [  ...X.o.o.O.+.@.#... .[ d j - ",
"                          . * t - - t q u u j j g 3 m m 8 D e -                                 ",
"                          . - t - - - t - - - - - - - - - - - - | :.>.,.<.5 - 5 1 y 1.2.3.j g - ",
"                              t - - - - t                                                       ",
"                              t - - - - - t               . % ; - - - - - - - - - - - - - 3 m - ",
"                              t - - - - - - t                                                   ",
"                              t - - - - - - - t           . & * - - - - - - - - - - - - - 8 8 - ",
"                              t - - - - t t t t t                                               ",
"                              t - - t - t                 . * = = 9 9 q u d d j g 3 m m 8 D D - ",
"                              t - t t - - t                                                     ",
"                              t t     t - t               . . . . . . . . . . . . . . . . . . . ",
"                              t       t - - t             . . . X o o O + @ # $ $ % ; 5.& * = - ",
"                                        t - t             . . X o o + + @ # # $ % ; 5.& * = : - ",
"                                        t -   t           . X o 6.h 7.7.7.7.7.X X 8.9.0.q.: : - ",
"                                          t t             . X o w.e.r.t.y.u.t.t.j i.p.a.s.: 9 - ",
"                                                          . o O d.f.g.h.j.j.k.l.z.x.c.,.v.9 q - ",
"                                                          . O + d.t.h.b.n.m.M.N.B.c.V.C.Z.q u - ",
"                                                          . + @ d.t.l.A.S.x.D.F.G.H.s.C.J.u u - ",
"                                                          . @ @ d.f.K.k.L.P.I.U.Y.J.T.q R.u d - ",
"                                                          . @ # d.D T.E.W.Q.!.~.^.T.T./.(.d j - "};
