/* XPM */
static char * image_name[] = {
"48 48 63 1",
" 	c None",
".	c #082000009E79",
"X	c #000000000000",
"o	c #B6DAB6DAB6DA",
"O	c #FFFFFFFFFFFF",
"+	c #BEFB5D755965",
"@	c #71C618611861",
"#	c #71C620812081",
"$	c #96585D755965",
"%	c #514445144103",
"&	c #30C230C230C2",
"*	c #082082079658",
"=	c #10407DF7AEBA",
"-	c #00007DF79E79",
";	c #186179E7A699",
":	c #08207DF7A699",
">	c #10408207A699",
",	c #10407DF79E79",
"<	c #18618617A699",
"1	c #104079E79E79",
"2	c #71C671C671C6",
"3	c #38E338E338E3",
"4	c #082082079E79",
"5	c #08208207A699",
"6	c #08208207AEBA",
"7	c #08208617A699",
"8	c #104079E7AEBA",
"9	c #104075D6A699",
"0	c #00008207A699",
"q	c #A699A699A699",
"w	c #79E77DF779E7",
"e	c #A699AAAAA699",
"r	c #C71BC71BC71B",
"t	c #10408617A699",
"y	c #186175D6A699",
"u	c #18618A289658",
"i	c #082079E7AEBA",
"p	c #08203CF39E79",
"a	c #10407DF7A699",
"s	c #186179E79E79",
"d	c #8617BEFBCF3C",
"f	c #61856DB679E7",
"g	c #410349245965",
"h	c #41034D345965",
"j	c #18618A289E79",
"k	c #51446DB679E7",
"l	c #30C2618569A6",
"z	c #18617DF79E79",
"x	c #08207DF7AEBA",
"c	c #10407DF79658",
"v	c #08208617AEBA",
"b	c #104079E79658",
"n	c #082079E7A699",
"m	c #208155556185",
"M	c #082079E79E79",
"N	c #10408207AEBA",
"B	c #10408A28A699",
"V	c #104075D69E79",
"C	c #104079E7A699",
"Z	c #00007DF7A699",
"A	c #08207DF79E79",
"S	c #000086179E79",
"D	c #104082079E79",
"                                                ",
"                                                ",
"                                                ",
"                                                ",
"                                                ",
"                                                ",
"               ........X.                       ",
"               ..............X.                 ",
"               oOOOOO........XX                 ",
"               oOO+@#oOOOOOOOXXX                ",
"            ...oOO+@#oOO+@#........X.           ",
"            ...oOO+$%oOO+@#........XX           ",
"            oOOoOO+$%oOO+$%oOOOOOOOXXX          ",
"            oOOoOOOOOoOO+$%oOO@+@#OXXXX         ",
"            oOO&&&&&&oOOOOOoOO@#@#OXXX          ",
"            oOO+$%%OO&&&&&&oOO$%$%OXoX          ",
"            oOO+$%%OOo     oOO$%$%OOo X         ",
" XXXXXXXXXXXoOOOOOOOOo     oOOOOOOOOoXXXXXXXX   ",
" X*=-;=:>>,<&&&&&&&&&&     &&&&&&&&&&,,,<1o2X3  ",
" X>ooooo4567,o2X3             X..>,<14567,o2X3  ",
" X8OOOOO790,5qwX3             Xer5.....0X5qwX3  ",
" XtOOOOO:>yu<qwX3             Xre9O+@#O,X<qwX3  ",
" XiOOOppppp5:o2X3             XeraO+$%O,,Xo2X3  ",
" Xs&&&dfghd,7o2X3             Xre6O+$%O,57o2X3  ",
" X7,5jdfkldz8qwX3             Xer0&&&&&u<8qwX3  ",
" X1xc:dfkldvbqwX3             X&&;u<90,5vbqwX3  ",
" X>n1cmmmmmnMo2X3             X>n1c:N;u<nMo2X3  ",
" Xo2B8>Vc-51io2X3             Xo2BC>VcZ51io2X3  ",
" X&&AS:CCS-6aDVX3             X&&ASn1CSZ6aDVX3  ",
" XXXXXXXXXXXXXXX3             XXXXXXXXXXXXXXX3  ",
"  333333333333333              333333333333333  ",
"                                                ",
"                                                ",
"                                                ",
"                                                ",
"                                                ",
"                                                ",
"                                                ",
"                                                ",
"                                                ",
"                                                ",
"                                                ",
"                                                ",
"                                                ",
"                                                ",
"                                                ",
"                                                ",
"                                                "};
