/* XPM */
static char * image_name[] = {
"48 48 209 2",
"  	c #28A22CB228A2",
". 	c #FFFFFFFFFFFF",
"X 	c #C71BC71BC71B",
"o 	c #C71BC30BC71B",
"O 	c #861782078617",
"+ 	c #BEFBBEFBC71B",
"@ 	c #79E77DF78617",
"# 	c #B6DABAEABEFB",
"$ 	c #B6DAB6DABEFB",
"% 	c #79E779E779E7",
"& 	c #A699AAAAAEBA",
"* 	c #B6DA965879E7",
"= 	c #CF3C92485144",
"- 	c #DF7DA6996185",
"; 	c #EFBEBAEA79E7",
": 	c #F7DEC30B8E38",
"> 	c #8E38820779E7",
", 	c #A699AAAAB6DA",
"< 	c #69A671C671C6",
"1 	c #A699A699AEBA",
"2 	c #9E79A699AEBA",
"3 	c #9E79A289AEBA",
"4 	c #69A66DB671C6",
"5 	c #9E799E79AEBA",
"6 	c #96589E79A699",
"7 	c #96589A69A699",
"8 	c #6185659569A6",
"9 	c #8E389658A699",
"0 	c #BEFBBAEABEFB",
"q 	c #71C679E779E7",
"w 	c #AEBAB2CAB6DA",
"e 	c #9658861771C6",
"r 	c #AEBA79E74924",
"t 	c #C71B8E385965",
"y 	c #D75CA2896185",
"u 	c #EFBEBAEA8617",
"i 	c #E79DB2CA79E7",
"p 	c #618569A671C6",
"a 	c #C71B9E7979E7",
"s 	c #A69975D64924",
"d 	c #BEFB8A285144",
"f 	c #DF7DAAAA69A6",
"g 	c #F7DECB2B9658",
"h 	c #E79DB6DA8617",
"j 	c #D75CA28971C6",
"k 	c #B6DA7DF75144",
"l 	c #C71B92486185",
"z 	c #D75CA28969A6",
"x 	c #DF7DAAAA71C6",
"c 	c #CF3C9A695965",
"v 	c #AEBA8E3871C6",
"b 	c #86178A289658",
"n 	c #96589658A699",
"m 	c #79E782078E38",
"M 	c #71C675D679E7",
"N 	c #AEBAAEBAB6DA",
"B 	c #B6DA8E386185",
"V 	c #B6DA7DF74924",
"C 	c #C71B92485965",
"Z 	c #D75C9E796185",
"A 	c #CF3C96585965",
"S 	c #69A661855144",
"D 	c #5965618569A6",
"F 	c #8E3892489E79",
"G 	c #86177DF779E7",
"H 	c #AEBA86175965",
"J 	c #CF3C9A696185",
"K 	c #BEFB8A285965",
"L 	c #30C22CB230C2",
"P 	c #38E33CF34103",
"I 	c #492451445144",
"U 	c #49244D345144",
"Y 	c #59655D756185",
"T 	c #86178E389E79",
"R 	c #BEFB86175144",
"E 	c #C71B92484924",
"W 	c #B6DA82074924",
"Q 	c #514449244103",
"! 	c #514459656185",
"~ 	c #BEFB86174924",
"^ 	c #A69979E75144",
"/ 	c #30C234D338E3",
"( 	c #38E338E34103",
") 	c #69A671C679E7",
"_ 	c #CF3C96586185",
"` 	c #69A655554924",
"' 	c #38E338E338E3",
"] 	c #410345144924",
"[ 	c #86178A289E79",
"{ 	c #861755552081",
"} 	c #9E7969A628A2",
"| 	c #71C679E78617",
" .	c #59655D7569A6",
"..	c #8E3871C65965",
"X.	c #EFBEC30B9658",
"o.	c #C71BAEBA9658",
"O.	c #28A2249228A2",
"+.	c #8E3875D669A6",
"@.	c #D75C9A695965",
"#.	c #410341034103",
"$.	c #79E78A289E79",
"%.	c #79E786179658",
"&.	c #618559655144",
"*.	c #E79DB2CA71C6",
"=.	c #E79DB6DA79E7",
"-.	c #D75CAAAA79E7",
";.	c #79E77DF78E38",
":.	c #B6DAA6999658",
">.	c #C71BA28979E7",
",.	c #9658820769A6",
"<.	c #C71B8E385144",
"1.	c #D75C9E795965",
"2.	c #E79DBAEA79E7",
"3.	c #E79DAAAA71C6",
"4.	c #79E782079658",
"5.	c #965879E76185",
"6.	c #8E38596528A2",
"7.	c #D75CA2895965",
"8.	c #596559655965",
"9.	c #71C669A66185",
"0.	c #965869A638E3",
"q.	c #79E7514428A2",
"w.	c #86175D7530C2",
"e.	c #9E7971C64103",
"r.	c #492449244924",
"t.	c #514455556185",
"y.	c #EFBEBEFB79E7",
"u.	c #79E761855144",
"i.	c #5144451438E3",
"p.	c #A6996DB64103",
"a.	c #E79DAEBA6185",
"s.	c #DF7DA2895965",
"d.	c #DF7DA69969A6",
"f.	c #79E749242081",
"g.	c #AEBA75D638E3",
"h.	c #BEFBA2898617",
"j.	c #71C682079658",
"k.	c #9E796DB64103",
"l.	c #B6DA79E74924",
"z.	c #D75C9A694924",
"x.	c #C71B8A284924",
"c.	c #71C67DF79658",
"v.	c #71C65D754924",
"b.	c #DF7DB6DA8617",
"n.	c #596551444924",
"m.	c #28A228A228A2",
"M.	c #41033CF338E3",
"N.	c #96585D7530C2",
"B.	c #69A675D68617",
"V.	c #38E341034924",
"C.	c #CF3C9A695144",
"Z.	c #965875D65965",
"A.	c #28A22CB230C2",
"S.	c #AEBA924871C6",
"D.	c #492455556185",
"F.	c #71C67DF78E38",
"G.	c #C71B9A6969A6",
"H.	c #8E3869A64924",
"J.	c #41034D345965",
"K.	c #514455555965",
"L.	c #514451445144",
"P.	c #E79DB2CA69A6",
"I.	c #EFBEBAEA71C6",
"U.	c #D75C9E7969A6",
"Y.	c #69A675D68E38",
"T.	c #E79DAEBA79E7",
"R.	c #492451445965",
"E.	c #69A679E78E38",
"W.	c #861786178E38",
"Q.	c #410349245144",
"!.	c #69A669A669A6",
"~.	c #61856DB679E7",
"^.	c #A69969A638E3",
"/.	c #AEBA8A2869A6",
"(.	c #CF3C8E385144",
").	c #A6998E388617",
"_.	c #E79DAAAA6185",
"`.	c #EFBEC30B8617",
"'.	c #71C669A65965",
"].	c #618571C68E38",
"[.	c #61856DB68617",
"{.	c #5965659571C6",
"}.	c #618571C68617",
"|.	c #5965659579E7",
" X	c #30C238E34103",
".X	c #38E33CF34924",
"XX	c #18611C712081",
"oX	c #410349245965",
"OX	c #51443CF328A2",
"+X	c #2081249228A2",
"@X	c #492430C22081",
"#X	c #69A6514438E3",
"$X	c #A6997DF76185",
"%X	c #38E345145144",
"&X	c #596569A68617",
"*X	c #8E386DB65965",
"=X	c #38E330C228A2",
"-X	c #E79DA2895965",
";X	c #5144618579E7",
":X	c #CF3CA28969A6",
">X	c #51445D7571C6",
",X	c #28A230C238E3",
"<X	c #4924555569A6",
"1X	c #596565958617",
"2X	c #30C234D34103",
"3X	c #79E771C669A6",
"4X	c #96586DB65144",
"5X	c #51445D7579E7",
"6X	c #6185618569A6",
"                                                                                              . ",
"  X X X o o O o o + + + @ # # # # $ % $ & * = - ; : > , , , < 1 2 2 3 3 4 3 5 6 6 7 8 7 7 9 9 . ",
"  X X o X o O o + + + 0 @ # # # $ $ q w e r t y u u i % , , < 2 2 3 3 3 p 5 6 6 7 7 8 7 9 9 9 . ",
"  X X o o o O + + + 0 # @ # # $ $ $ q w a s d f g h j e 3 2 4 2 3 3 3 3 p 6 6 7 7 7 8 9 9 9 9 . ",
"  o o o o o O + + 0 # # % # $ $ $ w q w * k l z x c t v b 6 4 3 3 3 3 5 p 6 7 7 7 n 8 9 9 9 9 . ",
"  o o o o + m + 0 # # # @ $ $ $ w w M N B V C z Z A t S M b 8 3 3 3 5 6 p 7 7 7 7 9 D 9 9 9 F . ",
"  O O O O m G @ @ @ % % % % q q q M M M H V C J A K K L P I D p p p p p p 8 8 8 8 D 8 D D D D . ",
"  o o + + 0 @ # # # # $ % $ w w w N M N B k C J J K H P U 4 Y 7 5 5 6 7 8 7 7 9 9 9 D 9 9 T T . ",
"  + + + 0 0 @ # # # $ $ q w w w N N M , a R C c E W Q P U 8 ! n 6 6 7 7 8 n 9 9 9 9 D 9 T T T . ",
"  + + + 0 # @ # $ $ $ $ q w w N N N M , B ~ = c d ^ / ( U p Y n 7 7 7 7 8 9 9 9 9 9 D T T T T . ",
"  + 0 0 # # % # $ $ $ w q w N N N N ) , v _ r t B ` ' ] I ) Y n 7 7 7 n 8 9 9 9 9 T D T T T [ . ",
"  0 0 # # # % $ $ $ w w M N N N N , ) & G { } ~ t / ( ] Y | D 7 7 7 n 9 D 9 9 9 F T  .T T [ [ . ",
"  @ @ @ % % % % q q q M M M M M ) M < 4 ..X.o.B   O.  / ] ! D 8 8 8 8 D D D D D  . .D  . .!  .. ",
"  # # # # $ % $ w w w N M N N N , , < 2 +.E @.- Q ( #.! ) b 8 7 n 9 9 9 D 9 9 T T T  .[ [ $.%.. ",
"  # # $ $ $ q w w w N N M , , , , 3 &.h ; ; *.=.*.-.Q D ;.F 8 9 n 9 9 9 D F T T T [ ! [ $.%.%.. ",
"  # $ $ $ $ q w w N N N M , 2 > :.>.= ; *.*.*.*.f f x +.b 9 8 9 9 9 9 9 D F T T [ [  .$.%.%.%.. ",
"  $ $ $ $ w M w N N N , ) , ,.- u =.<.1.2.u i 3.3.- f a G > D 9 9 9 F T D T T T [ [ ! %.%.%.4.. ",
"  $ $ $ w w M N N N N , M , 5.<.= 6.r W u *.*.3.3.x 7.= 2.<.8.9 9 F 9 T  .T T [ [ $.! %.%.4.4.. ",
"  % q q M M M M M M ) M < 9.*.z 0.q.w.e.x =.*.f f - - @.<.r r.Y  .D  . . . . .!  .! ! ! ! t.t.. ",
"  $ w w w N M N , , , , ! - 3.y.u.i.0.p.R f 2.a.s.s.y d.f.g.h.| b T T T  .[ [ $.%.%.! 4.4.j.j.. ",
"  w w w N N M , , , , 6 j 3.h -.Y ` s k.p.l.<.c 1.z.@.R 6.x.h 9.| %.[ [ ! [ $.%.%.%.! j.j.j.c.. ",
"  w w N N N M , , 1 & G a.f f l ! #.^ s V d C t <.f V i.v.g.A b.D ;.%.[  .$.%.%.%.4.t.j.j.c.c.. ",
"  w N N N , M , , , 3 j x -.-.n.I #.^ s k d = c <.t H m.M.N.= - 8.B.4.$.! %.%.%.4.4.t.j.c.c.c.. ",
"  N N N N , ) , , 2 O - x -.H I ] V.' p.H A = C._ t Z./ A.0.l._ S.p ;.%.! %.%.4.4.j.D.c.c.c.F.. ",
"  M M M ) < < < 4 4 G.a.f K ( / A./ / H.{ w.Z.Z.e.6.  O.O.M.} <.j / J.K.! ! t.t.t.D.D.D.D.D.D.. ",
"  N N , , , < 2 1 O f *.z S U ] ] K.] L.R P.I.; : b.A./ P P w.r U.&.8 F.D.4.4.j.j.c.D.c.c.Y.Y.. ",
"  , , , , , 4 2 3 * =.T.^ K.r.#.U 8 U 8.1.- f P.f T.A.( ] R.#.0.<.>.t.B.D.j.j.c.c.c.D.c.E.E.Y.. ",
"L , , , , 1 4 2 W.U.2.C #.I #.] ! ) t.&.x.= A _ A _ A.P R.D P H.~ j Q.p R.c.c.c.c.c.D.E.E.Y.Y.. ",
"  , , 1 2 2 4 3 a =.l !.P ] ] K.p m Y !.r <.1.Z _ G.A.V.! ~.Q.U ^.Z n.D J.c.c.c.c.c.D.Y.Y.Y.Y.. ",
"  , 1 2 2 3 4 3 /.@.^ p ( ] U D | T Y -.x T.i f s.- v.Q.D B.R.D H.(.i K.Q.Y.c.c.c.Y.D.Y.Y.Y.Y.. ",
"  4 < 4 4 4 4 8 d.: ).#./ / P U ! D I Z d.f 3.f 1.U.>.A.V.I R.Q./ r A x n.J.R.D.D.R.R.R.R.J.J.. ",
"  1 2 3 3 3 p @ _.; `.I / K.~.m T 9 '.J z - P.a.s.@.s.P D Y.t.Y.D ` x.7._.!.Y.Y.Y.E.R.Y.Y.].].. ",
"  2 3 3 3 5 p G _.`.u Q./ D | T F 9 5.t 7.f _.E x.R J #. .B.R.F.[.U ^.x.Z i  .Y.Y.Y.J.Y.].].].. ",
"  3 3 3 5 5 p ,.P.`.; ] ( < b T 9 F Z.<.C.y <.~ R k l #.D.~.R.F.Y.{.r.^.x.- S.[.].Y.R.].].].[.. ",
"  3 3 5 5 6 p S.*.`.-.Q.P B.b F F T ..d A A ~ d R R _ ' Q.8 D.F.Y.~.! / ^.(.Z ,.~.].J.].}.}.[.. ",
"  3 3 5 6 6 8 /.=.g /.] P ) b T T T +.k C ~ x.~ d R l ' Q. .J.F.F.B.{.J.O.0.l.-.8.|.J.}.}.[.[.. ",
"  p p p p p 8 +.; : v.A.( U !  .D  .r.g.E C.E <.C C l L A. XQ.R.R.J.Q..XA.XX^ 1._.u.oXJ.oXoXoX. ",
"  5 6 6 7 7 8 5.`.`.r.#./ ) %.T T [ ] /.u.OX+XA.@X#X$XA.P D.Q.Y.Y.Y.}.|. XV.u.1.= l %X&X&X&X&X. ",
"  6 6 7 7 7 8 a : u ( #. X) %.[ [ [ *XZ X.-.m.=X_.g h M.P D.Q.Y.Y.Y.Y.[.V.D. X_ -X.. X;X|.&X&X. ",
"  6 7 7 7 n D H >.:X#.] P B.%.[ [ $.n.V t K O./ x.U.B L .XD.Q.Y.Y.Y.Y.].Q.>XD. X X X,X<X|.|.1X. ",
"  7 7 7 n 9 D * S.+.] ] P B.%.[ [ %.n.s.*.*.Q m.<.f u /..XD.Q.Y.Y.Y.Y.].J.&X>XJ..X2XA.J.<X|.|.. ",
"  7 7 n 9 9 D 3Xh L.] Q.#.| %.$.$.%.,.i : u /.` - *.`.2. XD.Q.].Y.Y.].].J.[.|.<XJ. X+XoX<X;X|.. ",
"  8 8 D 8 D D Q z *XA./ ] R.! ! ! ! Z.- *.; a &.U.z i =.O.2X%XJ.J.J.J.J.J.J.oX%X2X,XA.2X.X%X%X. ",
"  n 9 9 9 9 D !.l.X.] R.] F.%.%.%.%.4XU.f *.d.Q = C.*.3.#.R.V.}.].].].}.J.[.&X|.5X<X X<X5X;X;X. ",
"  9 9 9 9 F D 4 0.*.V.! J.m %.%.%.4.Z.= - - z M.x.<.- y M.J..X[.}.}.[.[.J.&X&X&X|.;X%X5X;X;X;X. ",
"  9 9 9 F F  .%.4XG.R.! J.j.%.%.4.c.L.= 1.y z A.s x.Z d.( V. X|.[.[.[.[.J.&X&X1X1X|.%X;X;X;X;X. ",
"  9 9 F F T  .%.6X+.I ! Q.F.4.4.4.j.] _ 3.d.B A.^ (.U.f M..X2X|.[.[.[.&XoX&X&X1X1X1X%X;X1X5X5X. ",
". . . . . . . . . . . . . . . . . . . . . . . . . . . . . . . . . . . . . . . . . . . . . . . . "};
