/* XPM */
static char * ergonomic_xpm[] = {
"48 48 105 2",
"  	c None",
". 	c #2D2D2D",
"+ 	c #FFFFFF",
"@ 	c #555577",
"# 	c #000000",
"$ 	c #0F0F0F",
"% 	c #727272",
"& 	c #151515",
"* 	c #1E1E1E",
"= 	c #040404",
"- 	c #FEFEFE",
"; 	c #6D6D6D",
"> 	c #0E0E0E",
", 	c #FDFDFD",
"' 	c #1B1B1B",
") 	c #F7F7F7",
"! 	c #6C6C6C",
"~ 	c #060606",
"{ 	c #6A6A6A",
"] 	c #0B0B0B",
"^ 	c #181818",
"/ 	c #101010",
"( 	c #1A1A1A",
"_ 	c #686868",
": 	c #090909",
"< 	c #111111",
"[ 	c #0A0A0A",
"} 	c #161616",
"| 	c #747474",
"1 	c #DCDCDC",
"2 	c #CCCCCC",
"3 	c #CDCDCD",
"4 	c #C8C8C8",
"5 	c #CACACA",
"6 	c #CECECE",
"7 	c #CBCBCB",
"8 	c #C7C7C7",
"9 	c #C5C5C5",
"0 	c #C1C1C1",
"a 	c #BFBFBF",
"b 	c #C0C0C0",
"c 	c #D2D2D2",
"d 	c #737373",
"e 	c #F5F5F5",
"f 	c #F3F3F3",
"g 	c #F2F2F2",
"h 	c #F1F1F1",
"i 	c #EFEFEF",
"j 	c #EEEEEE",
"k 	c #EDEDED",
"l 	c #ECECEC",
"m 	c #EAEAEA",
"n 	c #E9E9E9",
"o 	c #E8E8E8",
"p 	c #E6E6E6",
"q 	c #E5E5E5",
"r 	c #E4E4E4",
"s 	c #E3E3E3",
"t 	c #E1E1E1",
"u 	c #E0E0E0",
"v 	c #DFDFDF",
"w 	c #DDDDDD",
"x 	c #DBDBDB",
"y 	c #DADADA",
"z 	c #F0F0F0",
"A 	c #E7E7E7",
"B 	c #E2E2E2",
"C 	c #DEDEDE",
"D 	c #F4F4F4",
"E 	c #EBEBEB",
"F 	c #191919",
"G 	c #171717",
"H 	c #B3B3B3",
"I 	c #141414",
"J 	c #2A2A2A",
"K 	c #0C0C0C",
"L 	c #868686",
"M 	c #D1D1D1",
"N 	c #A5A5A5",
"O 	c #D4D4D4",
"P 	c #A7A7A7",
"Q 	c #D6D6D6",
"R 	c #3C3C3C",
"S 	c #050505",
"T 	c #494949",
"U 	c #989799",
"V 	c #9995A0",
"W 	c #96919D",
"X 	c #939393",
"Y 	c #BABABA",
"Z 	c #5E5E5E",
"` 	c #8F8E92",
" .	c #7F7B84",
"..	c #7D7B7C",
"+.	c #8D8C8E",
"@.	c #888889",
"#.	c #8C8992",
"$.	c #8E8A96",
"%.	c #828583",
"&.	c #C3C3C3",
"*.	c #999E98",
"=.	c #B9B9B9",
"-.	c #B2B2B2",
";.	c #8B8B8B",
">.	c #C9C9C9",
". . . . . . . . . . . . . . . . . . . . . . . . . . . . . . . . . . . . . . . . . . . . . . . + ",
". @ @ @ @ @ @ @ @ @ @ @ @ @ @ @ @ @ @ @ @ @ @ @ @ @ @ @ @ @ @ @ @ @ @ @ @ @ @ @ @ @ @ @ @ @ @ + ",
". @ # $ $ $ $ % # # # # # # # # # # # # # # # # # # # # % & . # * = @ @ @ @ @ @ @ @ @ @ @ @ @ + ",
". @ $ - - - # ; # # # # # # # # # # # # # # # # # # # # ; > , # , ' @ @ @ @ @ @ @ @ @ @ @ @ @ + ",
". @ $ - # ) # ! # # # # # # # # # # # # # # # # # # # # ! ~ * , # # @ @ @ @ @ @ @ @ @ @ @ @ @ + ",
". @ $ - - - # { # # # # # # # # # # # # # # # # # # # # { ] , ^ , # @ @ @ @ @ @ @ @ @ @ @ @ @ + ",
". @ / # # # ( _ : < < < < < < < < < < < < < < < < < < : _ * = # [ } @ @ @ @ @ @ @ @ @ @ @ @ @ + ",
". @ | 1 2 3 4 5 5 6 6 2 2 2 7 7 7 5 5 4 4 4 8 8 8 9 9 0 a b 9 9 c d @ @ @ @ @ @ @ @ @ @ @ @ @ + ",
". @ ^ e e e e e e e e e f g h i j k l m n o p q r s t u v w 1 x y } @ @ @ @ @ @ @ @ @ @ @ @ @ + ",
". @ ^ e e e e e e e e f g h z j k l m n o A q r s B u v C 1 x y y ^ @ @ @ @ @ @ @ @ @ @ @ @ @ + ",
". @ ^ e e e e e e e D g h z i k l E n o A p r s B u v C w x y y y ^ @ @ @ @ @ @ @ @ @ @ @ @ @ + ",
". @ F e e e e e e D f h z i k l E m o A p q s B t v C w 1 y y y y ^ @ @ @ @ @ @ @ @ @ @ @ @ @ + ",
". @ ( e e e e e D f g z i j l E m n A p q s B t u C w 1 y y y y y G @ @ @ @ @ @ @ @ @ @ @ @ @ + ",
". @ ' e e e e D f g z i j k E m n A p q r B t u v w 1 x y y y y y G @ @ @ @ @ @ @ @ @ @ @ @ @ + ",
". @ F e e e e f g h i j - - - - - - - - - - - v w 1 x y y y y y y } @ @ @ @ @ @ @ @ @ @ @ @ @ + ",
". @ ' e e e f g h z j k - H H H H H H H H H _ C 1 x y y y y y y y G @ @ @ @ @ @ @ @ @ @ @ @ @ + ",
". @ ' e e D g h z i k l - H # H H H # H # H _ w x y y y y y y y y G @ @ @ @ @ @ @ @ @ @ @ @ @ + ",
". @ I e D f h z i k l E - H # H # H # H # H _ 1 y y y y y y y y y ~ @ @ @ @ @ @ @ @ @ @ @ @ @ + ",
". @ J D f g z i j l E m - H H H H H H H H H _ y y y y y y y y y y K @ @ @ @ @ @ @ @ @ @ @ @ @ + ",
". @ L f g z i j k E m n - _ _ _ _ _ _ _ _ _ _ y y y y y y y y y y L @ @ @ @ @ @ @ @ @ @ @ @ @ + ",
". @ L r M M M N N O O O O O O O O O O O O O O O O O O P P Q Q Q L L @ @ @ @ @ @ @ @ @ @ @ @ @ + ",
". @ L k L L L | c L L L L L L L L L L L L L L L L - - | c L L - - - @ @ @ @ @ @ @ @ @ @ @ @ @ + ",
". @ L @ @ @ @ @ @ @ @ @ @ @ @ @ @ @ @ @ @ @ @ @ @ - # - @ - - - # - @ @ @ @ @ @ @ @ @ @ @ @ @ + ",
". @ L @ @ @ @ @ @ @ @ @ @ @ @ @ @ @ @ @ @ @ @ @ @ @ - # - - # - # - @ @ @ @ @ @ @ @ @ @ @ @ @ + ",
". @ L @ @ @ @ @ @ @ @ @ @ @ @ @ @ @ @ @ @ @ @ @ @ @ @ - # - # - # - @ @ @ @ @ @ @ @ @ @ @ @ @ + ",
". @ L @ @ @ @ @ @ @ @ @ @ @ @ @ @ @ @ @ @ @ @ @ @ @ - - - # # - # - @ @ @ @ @ @ @ @ @ @ @ @ @ + ",
". @ L L L L L L L L L L L L L L L L L L L L L L L L - # # # # - # - @ @ @ @ @ @ @ @ @ @ @ @ @ + ",
". @ L @ @ @ @ @ @ @ @ @ @ @ @ @ @ @ @ @ @ @ @ @ @ - - - - - - - # - @ @ @ @ @ @ @ @ @ @ @ @ @ + ",
". @ L L L L L L L L L L L L L L L L L L L L L L L - # # # # # # # - @ @ @ @ @ @ @ @ @ @ @ @ @ + ",
". @ @ @ @ @ @ @ @ @ @ @ @ @ @ @ @ @ @ @ @ @ @ @ @ - - - - - - - - - @ @ @ @ @ @ @ @ @ @ @ @ @ + ",
". @ @ @ @ @ @ @ @ @ @ @ @ @ @ @ @ @ @ @ @ @ @ @ @ @ @ @ @ @ @ @ @ @ @ @ @ @ @ @ @ @ @ @ @ @ @ + ",
". @ @ @ @ @ @ @ @ @ @ @ @ @ @ @ @ @ @ @ @ @ @ @ @ @ @ # # # # # # # # # # # # # # # # # @ @ @ + ",
". @ @ @ @ @ @ @ @ @ @ @ @ @ @ @ @ @ @ @ @ @ @ @ @ @ # + + + + + + + + + + + + + + + + + # @ @ + ",
". @ @ @ @ @ @ @ @ @ @ @ @ @ @ @ @ @ @ @ @ @ @ @ @ # + + R + R + R + + + R + R + R + R + + # @ + ",
". @ @ @ @ @ @ @ @ @ @ @ @ @ @ @ @ @ @ @ @ @ @ @ @ # + + R + R + R + + + R + R + R + R + + # @ + ",
". @ @ @ @ @ @ @ @ @ @ @ @ @ @ @ @ @ @ @ @ @ @ @ @ @ # + + + + + + + + + + + + + + + + + # @ @ + ",
". @ @ @ @ @ @ @ @ @ @ @ @ @ @ @ @ @ @ @ @ @ @ @ @ @ @ # # # # + + + # # # # # # # # # # @ @ @ + ",
". @ @ @ @ @ @ @ @ @ @ @ @ @ @ @ @ @ @ @ @ @ @ @ @ @ @ @ @ @ @ @ + # @ @ @ @ @ @ @ @ @ @ @ @ @ + ",
". @ @ @ @ @ @ @ @ @ @ @ @ @ @ @ @ @ @ @ @ @ @ @ @ @ @ @ @ @ @ + # @ @ @ @ @ @ @ @ @ @ @ @ @ @ + ",
". @ @ @ @ @ @ @ @ @ @ @ @ @ @ @ @ @ @ @ @ @ @ @ @ @ @ @ @ @ + # @ @ @ @ @ @ @ @ @ @ @ @ @ @ @ + ",
". @ @ @ @ @ @ @ @ @ @ @ @ @ @ @ @ @ @ @ @ @ @ @ @ @ R S S S S S S @ @ @ @ @ @ @ @ @ @ @ @ @ @ + ",
". @ @ @ @ @ @ @ @ @ @ @ @ @ @ @ @ @ @ @ @ @ @ @ @ @ T S S S S S S @ @ @ @ @ @ @ @ @ @ @ @ @ @ + ",
". @ @ @ @ @ @ @ @ @ @ @ @ @ @ @ @ @ @ @ @ @ @ @ @ @ n U V W X Y Z @ @ @ @ @ @ @ @ @ @ @ @ @ @ + ",
". @ @ @ @ @ @ @ @ @ @ @ @ @ @ @ @ @ @ @ @ @ @ @ @ @ o `  ...+.b Z @ @ @ @ @ @ @ @ @ @ @ @ @ @ + ",
". @ @ @ @ @ @ @ @ @ @ @ @ @ @ @ @ @ @ @ @ @ @ @ @ @ o @.#.$.%.&.Z @ @ @ @ @ @ @ @ @ @ @ @ @ @ + ",
". @ @ @ @ @ @ @ @ @ @ @ @ @ @ @ @ @ @ @ @ @ @ @ @ @ o *.=.-.;.>.Z @ @ @ @ @ @ @ @ @ @ @ @ @ @ + ",
". @ @ @ @ @ @ @ @ @ @ @ @ @ @ @ @ @ @ @ @ @ @ @ @ @ o Z Z Z Z Z Z @ @ @ @ @ @ @ @ @ @ @ @ @ @ + ",
"+ + + + + + + + + + + + + + + + + + + + + + + + + + + + + + + + + + + + + + + + + + + + + + + + "};
