/* XPM */
static char * image_name[] = {
"48 48 194 2",
"  	c #294A294A294A",
". 	c #FFFFFFFFFFFF",
"X 	c #C630C630C630",
"o 	c #842084208420",
"O 	c #BDEEBDEEC630",
"+ 	c #7BDE7BDE8420",
"@ 	c #B5ACBDEEBDEE",
"# 	c #B5ACB5ACBDEE",
"$ 	c #7BDE7BDE7BDE",
"% 	c #A528AD6AAD6A",
"& 	c #B5AC94A47BDE",
"* 	c #CE7294A45294",
"= 	c #DEF6A5286318",
"- 	c #EF7AB5AC7BDE",
"; 	c #F7BCC6308C62",
": 	c #8C6284207BDE",
"> 	c #A528A528B5AC",
", 	c #6B5A739C739C",
"< 	c #A528A528AD6A",
"1 	c #9CE6A528AD6A",
"2 	c #6B5A6B5A739C",
"3 	c #9CE69CE6AD6A",
"4 	c #94A49CE6A528",
"5 	c #63186B5A6B5A",
"6 	c #8C6294A4A528",
"7 	c #BDEEBDEEBDEE",
"8 	c #739C7BDE7BDE",
"9 	c #AD6AB5ACB5AC",
"0 	c #94A48420739C",
"q 	c #AD6A7BDE4A52",
"w 	c #C6308C625AD6",
"e 	c #D6B4A5286318",
"r 	c #EF7ABDEE8420",
"t 	c #E738B5AC7BDE",
"y 	c #63186B5A739C",
"u 	c #631863186B5A",
"i 	c #C6309CE67BDE",
"p 	c #A528739C4A52",
"a 	c #BDEE8C625294",
"s 	c #DEF6AD6A6B5A",
"d 	c #F7BCCE7294A4",
"f 	c #E738B5AC8420",
"g 	c #D6B4A528739C",
"h 	c #B5AC7BDE5294",
"j 	c #C63094A46318",
"k 	c #D6B4A5286B5A",
"l 	c #DEF6AD6A739C",
"z 	c #CE729CE65AD6",
"x 	c #AD6A8C62739C",
"c 	c #84208C6294A4",
"v 	c #94A494A4A528",
"b 	c #7BDE84208C62",
"n 	c #739C739C7BDE",
"m 	c #AD6AAD6AB5AC",
"M 	c #B5AC8C626318",
"N 	c #B5AC7BDE4A52",
"B 	c #C63094A45AD6",
"V 	c #D6B49CE66318",
"C 	c #CE7294A45AD6",
"Z 	c #6B5A63185294",
"A 	c #5AD663186B5A",
"S 	c #8C6294A49CE6",
"D 	c #84207BDE7BDE",
"F 	c #AD6A84205AD6",
"G 	c #CE729CE66318",
"H 	c #BDEE8C625AD6",
"J 	c #318C318C318C",
"K 	c #39CE39CE4210",
"L 	c #4A5252945294",
"P 	c #4A524A525294",
"I 	c #5AD65AD66318",
"U 	c #84208C629CE6",
"Y 	c #A528AD6AB5AC",
"T 	c #BDEE84205294",
"R 	c #C63094A44A52",
"E 	c #B5AC84204A52",
"W 	c #52944A524210",
"Q 	c #52945AD66318",
"! 	c #BDEE84204A52",
"~ 	c #A5287BDE5294",
"^ 	c #318C318C39CE",
"/ 	c #6B5A739C7BDE",
"( 	c #CE7294A46318",
") 	c #6B5A5AD64A52",
"_ 	c #39CE39CE39CE",
"` 	c #421042104A52",
"' 	c #842052942108",
"] 	c #9CE66B5A294A",
"[ 	c #739C7BDE8420",
"{ 	c #5AD65AD66B5A",
"} 	c #8C62739C5AD6",
"| 	c #EF7AC63094A4",
" .	c #C630AD6A94A4",
"..	c #8C62739C6B5A",
"X.	c #D6B49CE65AD6",
"o.	c #421042104210",
"O.	c #7BDE8C629CE6",
"+.	c #7BDE842094A4",
"@.	c #63185AD65294",
"#.	c #E738B5AC739C",
"$.	c #D6B4AD6A7BDE",
"%.	c #7BDE7BDE8C62",
"&.	c #B5ACA52894A4",
"*.	c #C630A5287BDE",
"=.	c #94A484206B5A",
"-.	c #C6308C625294",
";.	c #E738AD6A739C",
":.	c #94A47BDE6318",
">.	c #8C625AD6294A",
",.	c #D6B4A5285AD6",
"<.	c #5AD65AD65AD6",
"1.	c #739C6B5A6318",
"2.	c #94A46B5A39CE",
"3.	c #7BDE5294294A",
"4.	c #84205AD6318C",
"5.	c #9CE6739C4210",
"6.	c #4A524A524A52",
"7.	c #EF7ABDEE7BDE",
"8.	c #7BDE63185294",
"9.	c #5294421039CE",
"0.	c #A5286B5A4210",
"q.	c #E738AD6A6318",
"w.	c #DEF6A5285AD6",
"e.	c #DEF6A5286B5A",
"r.	c #7BDE4A522108",
"t.	c #AD6A739C39CE",
"y.	c #BDEEA5288420",
"u.	c #739C842094A4",
"i.	c #9CE66B5A4210",
"p.	c #D6B49CE64A52",
"a.	c #C6308C624A52",
"s.	c #739C7BDE94A4",
"d.	c #739C5AD64A52",
"f.	c #DEF6B5AC8420",
"g.	c #5AD652944A52",
"h.	c #421039CE39CE",
"j.	c #94A45AD6318C",
"k.	c #6B5A739C8420",
"l.	c #39CE42104A52",
"z.	c #CE729CE65294",
"x.	c #94A4739C5AD6",
"c.	c #294A318C318C",
"v.	c #AD6A94A4739C",
"b.	c #4A5252946318",
"n.	c #739C7BDE8C62",
"m.	c #C63094A46B5A",
"M.	c #318C39CE39CE",
"N.	c #8C626B5A4A52",
"B.	c #42104A525AD6",
"V.	c #529452945AD6",
"C.	c #529452945294",
"Z.	c #E738B5AC6B5A",
"A.	c #EF7ABDEE739C",
"S.	c #D6B49CE66B5A",
"D.	c #6B5A739C8C62",
"F.	c #E738AD6A7BDE",
"G.	c #4A5252945AD6",
"H.	c #6B5A7BDE8C62",
"J.	c #842084208C62",
"K.	c #42104A525294",
"L.	c #6B5A6B5A6B5A",
"P.	c #63186B5A7BDE",
"I.	c #A5286B5A39CE",
"U.	c #AD6A8C626B5A",
"Y.	c #CE728C625294",
"T.	c #A5288C628420",
"R.	c #EF7AC6308420",
"E.	c #739C6B5A5AD6",
"W.	c #6318739C8C62",
"Q.	c #63186B5A8420",
"!.	c #5AD66318739C",
"~.	c #6318739C8420",
"^.	c #5AD663187BDE",
"/.	c #294A294A318C",
"(.	c #318C39CE4210",
").	c #39CE39CE4A52",
"_.	c #18C621082108",
"`.	c #529439CE294A",
"'.	c #2108294A294A",
"].	c #4A52318C2108",
"[.	c #6B5A529439CE",
"{.	c #A5287BDE6318",
"}.	c #39CE42105294",
"|.	c #5AD66B5A8420",
" X	c #8C626B5A5AD6",
".X	c #39CE318C294A",
"XX	c #E738A5285AD6",
"oX	c #529463187BDE",
"OX	c #CE72A5286B5A",
"+X	c #52945AD6739C",
"@X	c #294A318C39CE",
"#X	c #4A525AD66B5A",
"$X	c #7BDE739C6B5A",
"%X	c #94A46B5A5294",
"                                                                                              . ",
"  X X X X X o X X O O O + @ @ # # # $ # % & * = - ; : > > > , < 1 1 1 1 2 3 3 4 4 4 5 4 4 6 6 . ",
"  X X X X X o X O O O 7 + @ # # # # 8 9 0 q w e r r t $ > > , 1 1 1 1 3 y 3 4 4 4 4 u 4 6 6 6 . ",
"  X X X X X o O O O 7 @ + # # # # # 8 9 i p a s d f g 0 1 1 2 1 1 1 3 3 y 4 4 4 4 4 u 6 6 6 6 . ",
"  X X X X X o O O 7 @ @ $ # # # # 9 8 9 & h j k l z w x c 4 2 1 1 3 3 3 y 4 4 4 4 v 5 6 6 6 6 . ",
"  X X X X O b O 7 @ @ # + # # # 9 9 n m M N B k V C w Z n c 5 3 3 3 3 4 y 4 4 4 4 6 A 6 6 6 S . ",
"  o o o o b D + + + $ $ $ $ 8 8 8 n n n F N B G C H H J K L A y y y y y y 5 u 5 5 A u A A A A . ",
"  X X O O 7 + @ @ # # # $ # 9 9 9 m n m M h B G G H F K P 2 I 4 3 3 4 4 u 4 4 6 6 6 A 6 6 U U . ",
"  O O O 7 7 + @ # # # # 8 9 9 9 m m n Y i T B z R E W K P 5 Q v 4 4 4 4 5 v 6 6 6 6 A 6 U U U . ",
"  O O O 7 @ + # # # # # 8 9 9 m m m n Y M ! * z a ~ ^ K P y I v 4 4 4 4 u 6 6 6 6 6 A U U U U . ",
"  O 7 7 @ # $ # # # # 9 8 9 m m m m / > x ( q w M ) _ ` L / I v 4 4 4 v 5 6 6 6 6 U A U U U U . ",
"  7 7 @ @ # $ # # # 9 9 n m m m m > / % D ' ] ! w ^ K ` I [ A 4 4 4 v 6 A 6 6 6 S U { U U U U . ",
"  + + + $ $ $ $ 8 8 8 n n n n n / n , 2 } |  .M       ^ ` Q A u u u 5 A A A A A { { A { { Q { . ",
"  @ # # # # $ # 9 9 9 m n m m m > > , 1 ..R X.= W K o.Q / c 5 4 v 6 6 6 A 6 6 U U U { U U O.+.. ",
"  @ # # # # 8 9 9 9 m m n Y > > > 1 @.f - - #.t #.$.W A %.S 5 6 v 6 6 6 A S U U U U Q U O.+.+.. ",
"  # # # # # 8 9 9 m m m n Y 1 : &.*.* - #.#.#.#.s s l ..c 6 u 6 6 6 6 6 A S U U U U { O.+.+.+.. ",
"  # # # # 9 n 9 m m m Y / > =.= r t -.X.t r t ;.;.= s i D : A 6 6 6 S U A U U U U U Q +.+.+.+.. ",
"  # # # 9 9 n m m m m > n > :.-.* >.q E r #.#.;.;.l ,.* t -.<.6 6 S 6 U { U U U U O.Q +.+.+.+.. ",
"  $ 8 8 n n n n n n / n , 1.#.k 2.3.4.5.l t #.s s = = X.-.q 6.I { A { { { { { Q { Q Q Q Q Q Q . ",
"  # 9 9 9 m n m Y Y > > Q = ;.7.8.9.2.0.T s t q.w.w.e e.r.t.y.[ c U U U { U U O.+.+.Q +.+.u.u.. ",
"  9 9 9 m m n Y > Y > 4 g ;.f $.I ) p i.0.N -.z X.p.X.T >.a.f 1.[ +.U U Q U O.+.+.+.Q u.u.u.s.. ",
"  9 9 m m m n Y > < % D q.s s j Q o.~ p N a B w -.s N 9.d.t.C f.A %.+.U { O.+.+.+.+.Q u.u.s.s.. ",
"  9 m m m > n > > > 3 g l $.$.g.L o.~ p h a * z -.w F   h.j.* = <.k.+.O.Q +.+.+.+.+.Q u.s.s.s.. ",
"  m m m m > / > > 1 o = l $.F L ` l._ 0.F C * z.( w x.^ c.2.N ( v.y %.+.Q +.+.+.+.u.b.s.s.s.n.. ",
"  n n n / , , , 2 2 m.q.s H K ^ c.^ M.N.' 4.x.x.5.>.      h.] -.g M.B.V.Q Q Q Q Q b.b.b.b.b.b.. ",
"  m m > > > , 1 < o s #.k Z P ` ` V.` C.T Z.A.7.; f.c.^ K K 4.q S.@.u n.b.+.+.u.u.s.b.s.s.D.D.. ",
"  > > > > > 2 1 1 & t F.~ V.6.o.P 5 P <.X.= s Z.s F.c.K ` G.o.2.-.*.Q k.b.u.u.s.s.s.b.s.H.H.D.. ",
"J > Y > > < 2 1 J.S.t B o.L o.` Q / Q @.a.* C ( C ( c.K G.A K N.! g K.y G.s.s.s.s.s.b.H.H.D.D.. ",
"  > > < 1 1 2 1 i t j L.K ` ` V.y b I L.q -.X.V ( m.c.l.Q P.K.P I.V g.A B.s.s.s.s.s.b.D.D.D.D.. ",
"  > < 1 1 1 2 1 U.X.~ y K ` P A [ U I $.l F.t s w.= d.K.A k.G.A N.Y.t V.K.D.s.s.s.D.b.D.D.D.D.. ",
"  2 , 2 2 2 2 5 e.; T.o.^ ^ K P Q A L V e.s ;.s X.S.*.c.l.L G.K.^ q C l g.B.G.b.b.G.G.G.G.B.B.. ",
"  < 1 1 1 3 y + q.7.R.L ^ V.P.b U 6 E.G k = Z.q.w.X.w.K A D.Q D.A ) a.,.q.L.D.D.D.H.G.D.D.W.W.. ",
"  1 1 1 3 3 y D q.R.r K.M.A [ U S 6 :.w ,.s q.R a.T G o.{ k.G.n.Q.P I.a.V t { D.D.D.B.D.W.W.W.. ",
"  1 1 3 3 3 y =.Z.R.- ` K , c U 6 S x.-.z.e -.! T h j o.b.P.G.n.D.!.6.I.a.= v.Q.W.D.G.W.W.W.Q.. ",
"  1 3 3 3 4 y v.#.R.$.K.K k.c S S U } a C C ! a T T ( _ K.u b.n.D.P.Q M.I.Y.V =.P.W.B.W.~.~.Q.. ",
"  3 3 3 4 4 u U.t d U.` K / c U U U ..h B ! a.! a T j _ K.{ B.n.n.k.!.B.  2.N $.<.^.B.~.~.Q.Q.. ",
"  y y y y y 5 ..7.; d.c.K P Q { A { 6.t.R z.R -.B B j J /.(.K.G.G.B.K.).c._.~ X.q.8.B.B.B.B.B.. ",
"  3 4 4 4 4 5 :.R.R.6.o.M./ +.U U U ` U.8.`.'./.].[.{./.K b.K.D.D.D.~.^.(.l.8.X.* j }.|.|.|.|.. ",
"  4 4 4 4 4 5 i ; r K o.(./ +.U U U  XV | $.  .Xq.d f h.K b.K.D.D.D.D.Q.l.b.(.( XX} (.oX^.|.|.. ",
"  4 4 4 4 v A F *.OXo.` K k.+.U U O.g.N w H   ^ a.S.M J ).b.K.D.D.D.D.W.K.+Xb.(.(.(.@X#X^.^.|.. ",
"  4 4 4 v 6 A & v...` ` K k.+.U U +.g.w.#.#.W   -.s r U.).b.K.D.D.D.D.W.B.|.+XB.).(./.B.#X^.^.. ",
"  4 4 v 6 6 A $Xf C.` K.o.[ +.O.O.+.=.t ; r U.) = #.R.t (.b.K.W.D.D.W.W.B.Q.^.#XB.(.'.B.#XoX^.. ",
"  u u A u A A W k  Xc.^ ` G.Q Q Q Q x.= #.- i @.S.k t t   (.}.B.B.B.B.B.B.B.B.}.(.@X/.(.).}.}.. ",
"  v 6 6 6 6 A L.N | ` G.` n.+.+.+.+.%XS.s #.e.W * z.#.;.o.G.l.~.W.W.W.~.B.Q.|.^.oX#X(.#XoXoXoX. ",
"  6 6 6 6 S A 2 2.#.l.Q B.b +.+.+.+.x.* = = k h.a.-.= e h.B.).Q.~.~.Q.Q.B.|.|.|.^.oX}.oXoXoXoX. ",
"  6 6 6 S S { +.%Xm.G.Q B.u.+.+.+.s.C.* X.e k c.p a.V e.K l.(.^.Q.Q.Q.Q.B.|.|.|.|.^.}.oXoXoXoX. ",
"  6 6 S S U { +.u ..L Q K.n.+.+.+.u.` ( ;.e.M c.~ Y.S.s h.).(.^.Q.Q.Q.|.B.|.|.|.|.|.}.oX|.oXoX. ",
". . . . . . . . . . . . . . . . . . . . . . . . . . . . . . . . . . . . . . . . . . . . . . . . "};
