/* XPM */
static char * image_name[] = {
"48 48 127 2",
"  	c #4924451438E3",
". 	c #4103410330C2",
"X 	c #30C234D328A2",
"o 	c #28A228A22081",
"O 	c #208120811861",
"+ 	c #186118611040",
"@ 	c #186114510820",
"# 	c #FFFFFFFFF7DE",
"$ 	c #FFFFFBEED75C",
"% 	c #EFBEEFBEC71B",
"& 	c #AEBAAAAA8617",
"* 	c #71C671C64924",
"= 	c #5965596530C2",
"- 	c #8E3886175965",
"; 	c #CF3CCB2BA699",
": 	c #E79DE38DBEFB",
"> 	c #F7DEF3CECF3C",
", 	c #E79DE79DBEFB",
"< 	c #9E79965869A6",
"1 	c #51444D3428A2",
"2 	c #96588E3869A6",
"3 	c #A699A69979E7",
"4 	c #9E799E7971C6",
"5 	c #EFBEEBADC71B",
"6 	c #A6999E7971C6",
"7 	c #DF7DDB6CB6DA",
"8 	c #BEFBBAEA9658",
"9 	c #B6DAB2CA8E38",
"0 	c #61855D7538E3",
"q 	c #96588A2869A6",
"w 	c #F7DEF7DECF3C",
"e 	c #C71BBEFB9E79",
"r 	c #69A665954103",
"t 	c #DF7DDB6CAEBA",
"y 	c #C71BC30B9658",
"u 	c #D75CCF3CAEBA",
"i 	c #492449242081",
"p 	c #79E775D64924",
"a 	c #79E775D65144",
"s 	c #71C66DB64103",
"d 	c #5965555530C2",
"f 	c #5144514428A2",
"g 	c #B6DAAAAA8E38",
"h 	c #B6DAB6DA8E38",
"j 	c #EFBEE79DC71B",
"k 	c #C71BBAEA9658",
"l 	c #79E779E75144",
"z 	c #86177DF75965",
"x 	c #69A669A64103",
"c 	c #79E771C65144",
"v 	c #8E388E3869A6",
"b 	c #B6DAAEBA8E38",
"n 	c #E79DE79DC71B",
"m 	c #8E3882075965",
"M 	c #D75CD34CAEBA",
"N 	c #A699A28979E7",
"B 	c #96588A286185",
"V 	c #9658924869A6",
"C 	c #CF3CCB2B9E79",
"Z 	c #8E388A286185",
"A 	c #AEBAA2898617",
"S 	c #B6DAAAAA8617",
"D 	c #6185618538E3",
"F 	c #AEBAAEBA8617",
"G 	c #69A6659538E3",
"H 	c #9E79965871C6",
"J 	c #861782075965",
"K 	c #9E799A6971C6",
"L 	c #FFFFF7DED75C",
"P 	c #C71BC30B9E79",
"I 	c #C71BC71B9E79",
"U 	c #DF7DD75CB6DA",
"Y 	c #DF7DE38DB6DA",
"T 	c #D75CD75CAEBA",
"R 	c #8E388E386185",
"E 	c #BEFBB6DA9E79",
"W 	c #5965555538E3",
"Q 	c #A6999E7979E7",
"! 	c #BEFBBEFB9658",
"~ 	c #BEFBB6DA9658",
"^ 	c #79E779E75965",
"/ 	c #AEBAA28979E7",
"( 	c #BEFBC30B9E79",
") 	c #A6999A6971C6",
"_ 	c #5965514428A2",
"` 	c #8E3882076185",
"' 	c #5144555528A2",
"] 	c #D75CCF3CA699",
"[ 	c #F7DEEFBECF3C",
"{ 	c #71C66DB64924",
"} 	c #9658924871C6",
"| 	c #69A66DB64924",
" .	c #69A66DB64103",
"..	c #F7DEF7DEEFBE",
"X.	c #69A661854103",
"o.	c #5144492428A2",
"O.	c #EFBEEBADDF7D",
"+.	c #E79DE38DD75C",
"@.	c #DF7DDB6CCF3C",
"#.	c #FFFFFBEECF3C",
"$.	c #6185596538E3",
"%.	c #D75CD34CC71B",
"&.	c #AEBAAEBA8E38",
"*.	c #CF3CCF3CA699",
"=.	c #CF3CCF3CC71B",
"-.	c #F7DEF7DED75C",
";.	c #71C671C65144",
":.	c #C71BC30BA699",
">.	c #D75CCF3CB6DA",
",.	c #C71BC71BA699",
"<.	c #CF3CC71BA699",
"1.	c #79E77DF75144",
"2.	c #B6DAB6DA9658",
"3.	c #59655D7530C2",
"4.	c #A699A6998617",
"5.	c #EFBEE79DBEFB",
"6.	c #861779E75965",
"7.	c #9E79A28979E7",
"8.	c #79E76DB64924",
"9.	c #CF3CCF3CAEBA",
"0.	c #861786175965",
"q.	c #861786176185",
"w.	c #C71BB6DAA699",
"e.	c #69A665954924",
"r.	c #F7DEEFBEC71B",
"t.	c #86177DF75144",
"y.	c #F7DEF7DEE79D",
"                                  . X o O + @ @ @ @ + O o X .                                 # ",
"  $ $ $ $ $ $ $ $ $ $ $ $ $ % & * = - & ; : > $ $ > : ; & - = * & % $ $ $ $ $ $ $ $ $ $ $ $ $ # ",
"  $ $ $ $ $ $ $ $ $ $ $ , < 1 2 ; $ $ $ $ $ $ $ $ $ $ $ $ $ $ ; 2 1 < , $ $ $ $ $ $ $ $ $ $ $ # ",
"  $ $ $ $ $ $ $ $ $ $ 3 1 4 5 $ $ $ $ $ $ $ $ $ $ $ $ $ $ $ $ $ $ 5 6 1 3 $ $ $ $ $ $ $ $ $ $ # ",
"  $ $ $ $ $ $ $ $ 7 * - : $ $ $ $ $ $ $ $ $ $ $ $ $ $ $ $ $ $ $ $ $ $ : - * 7 $ $ $ $ $ $ $ $ # ",
"  $ $ $ $ $ $ $ 8 1 9 $ $ $ $ $ $ $ $ $ $ $ $ $ $ $ $ $ $ $ $ $ $ $ $ $ % < 1 8 $ $ $ $ $ $ $ # ",
"  $ $ $ $ $ $ & 0 q $ $ $ $ $ $ $ w $ $ $ $ $ $ $ $ $ $ $ $ $ $ $ $ $ $ $ $ e 0 & $ $ $ $ $ $ # ",
"  $ $ $ $ $ & r t $ $ $ $ $ $ $ $ $ $ $ $ $ $ $ $ $ $ $ $ $ $ $ $ $ $ $ $ $ $ y r & $ $ $ $ $ # ",
"  $ $ $ $ 8 0 : $ 5 $ $ $ $ $ $ $ $ $ $ $ $ $ $ $ $ $ $ $ $ $ $ $ u u u u u u u 8 = 6 $ $ $ $ # ",
"  $ $ $ 7 1 i i i i i i i i i i i i i i i i i i i i i i i i i i i p * a s a a a d f i 7 $ $ $ # ",
"  $ $ $ i 9 g : h $ $ $ $ $ $ j $ $ $ $ $ k w $ $ $ i $ $ $ $ $ $ $ $ $ $ , l z i d h x $ $ $ # ",
"  $ $ 3 i $ f i $ 4 & $ $ $ $ $ $ $ $ $ $ i c $ $ i i $ $ $ $ $ $ $ $ $ u v & $ i b $ i 3 $ $ # ",
"  $ , 1 i $ $ n m $ $ M N g $ $ $ $ $ $ 8 7 i $ $ % i $ $ $ $ $ $ $ B y * $ N V $ $ $ = 1 , $ # ",
"  $ < 4 i $ $ $ $ C Z $ $ $ A S $ $ $ $ $ * i $ 9 D i % $ $ $ n 8 F $ $ u i 4 $ $ $ $ G 1 < $ # ",
"  % 1 5 i $ $ $ $ $ $ H J $ $ $ * D 2 $ $ i i K i i i $ L A b $ $ $ B J s $ $ $ $ $ $ x 5 1 % # ",
"  & 2 $ i 5 > P $ $ $ $ $ I U Y $ $ T R i Z E $ > W i N Q w $ u h ! , e T 8 3 u u b ~ x $ i & # ",
"  * ; $ i 0 ~ $ ^ Y 8 ; / ( ) 7 i i $ j $ $ $ $ U $ $ $ $ i _ 7 $ ` 3 - ; 8 p u D i i f $ ; * # ",
". = $ $ i i i ' i ] 7 $ $ $ > $ $ $ $ i $ $ $ $ $ $ $ $ [ 7 6 x i 0 { 4 Z } f | $ $ $  .$ $ f ..",
"X - $ $ i $ $ $ $ $ $ = 0 0 D r l X.z i o.$ $ $ $ $ $ i 0 * z u $ $ $ % $ $ $ $ $ $ $ D $ $ r O.",
"o & $ $ i $ $ $ $ $ $ $ $ $ $ $ 7 M M M i { i B i k i i $ $ $ $ $ $ $ $ $ $ : $ $ $ $  .$ $ & +.",
"O ; $ $ i $ $ $ $ $ $ $ $ $ $ $ $ $ $ $ 2 $ $ $ $ $ $ $ $ $ $ $ $ $ $ $ $ $ $ $ $ $ $ x $ $ ; @.",
"+ : $ $ i $ $ $ $ $ $ $ $ $ $ $ #.$ $ $ $.$ $ $ $ $ $ 9 $ $ $ $ $ $ $ $ $ $ $ $ $ $ $ r $ $ : %.",
"@ > $ $ i $ $ > $ $ $ $ $ $ $ $ $ $ $ $ 5 % , $ $ $ &.*.$ #.$ $ $ $ $ $ $ $ $ $ $ $ $ D $ $ > =.",
"@ $ $ $ i $ $ $ $ $ $ $ $ $ $ $ $ $ $ -.u ; $ 7 $ $ $ & $ $ $ $ $ $ $ $ $ $ $ #.$ #.$ D $ $ $ =.",
"@ $ $ $ i $ $ $ $ $ $ L $ $ $ $ $ $ $ $ Q $ $ ; e $ $ i $ $ $ $ $ $ $ $ $ $ $ $ $ $ $ D $ $ $ =.",
"@ > $ $ i $ $ $ $ $ $ $ $ $ $ $ $ $ $ $ ;.$ $ $ $ $ $ D $ $ $ $ $ $ $ $ $ $ $ $ $ $ $ 0 $ $ > =.",
"+ : $ $ i $ $ $ $ $ $ $ $ $ $ $ $ $ $ $ i $ $ $ $ $ $ N $ $ $ $ w $ $ $ $ $ $ $ $ $ $ d $ $ : %.",
"O ; $ $ i $ $ $ $ $ $ $ $ $ $ $ $ $ $ $ i $ $ $ $ $ $ i :.$ $ $ $ $ $ $ $ $ $ $ $ $ $ = $ $ ; @.",
"o & $ $ i $ $ $ $ $ $ $ $ $ $ $ w $ $ [ s e 6 i i >.$ > & $ $ $ $ $ $ $ $ $ $ $ $ $ $ = $ $ & +.",
"X - $ $ i $ $ $ $ $ $ $ $ $ $ $ $ $ $ z * $ $ $ = $ $ ,.$ K $ $ $ $ $ $ $ > $ $ $ $ $ = $ $ - O.",
". = $ $ i $ $ $ $ $ $ $ > $ #.$ #.$ $ $ H $ $ i h , $ q $ e $ $ $ $ $ $ $ $ $ $ $ $ $ = $ $ i ..",
"  * ; $ i $ $ $ $ $ $ $ $ $ $ $ $ $ 0 $ N $ 3 $ $ $ <.T $ 8 $ $ $ $ $ $ $ $ #.$ $ $ $ = $ ; * # ",
"  & 2 > i $ $ $ $ $ $ $ $ $ $ $ $ $ 1.$ w $ P $ i $ $ i $ $ & $ w $ $ $ $ $ $ $ $ $ $ = $ 2 & # ",
"  % 1 U i $ $ $ $ $ $ $ $ $ $ $ $ $ 1 $ $ d $ $ i $ $ i $ $ i $ $ $ $ $ $ w $ $ $ $ $ = 5 1 % # ",
"  $ < 6 i $ $ $ $ $ $ : $ $ $ $ $ $ Y $ l 2.$ $ i $ $ & 8 $ $ Z $ $ $ $ $ $ $ $ $ $ $ 0 4 < $ # ",
"  $ n 1 i $ $ $ $ $ $ $ $ $ $ $ $ 3.$ $ N 3 $ $ i $ $ r $ $.$ M 4.$ $ $ $ $ $ $ $ $ $ = 1 , $ # ",
"  $ $ 3 i $ $ $ $ $ $ $ $ $ $ $ $ = $ K $ i $ $ d 5.$ i $ $ z $ : b $ $ $ $ $ $ $ L $ f 3 $ $ # ",
"  $ $ $ i h $ $ $ $ $ $ $ $ $ $ i $ $ 6.$ Z 5 $ w 7.$ 8 $ $ N $ $ 1 $ $ $ $ $ $ $ $ h f > $ $ # ",
"  $ $ $ i 1 M $ $ $ $ $ $ $ $ > ; $ $ 8.$ $ i w / z 7 z $ $ $ o.$ $ ;.$ $ $ $ $ $ M 1 z M $ $ # ",
"  $ $ $ i 8 0 : $ $ $ $ $ $ $ i $ $ f e $ $ ` $ 9.<.$ 4 $ $ $ Q w $ $.$ $ $ $ $ I 0 8 Z M $ $ # ",
"  $ $ $ i $ & D : $ $ $ $ 5 $ 0.$ 9 P $ $ $ 1 $ / 8 $ L B $ $ $ d $ 0.$ $ $ $ : D & $ Z M $ $ # ",
"  $ $ $ i $ $ & = M $ $ $ $ 2 $ $ o.$ $ $ $ h $ :.u $ q.$ $ $ $ $ 4.u w.$ $ M D & $ $ Z M $ $ # ",
"  $ $ $ i $ $ $ 8 1 9 $ $ $ R $ i $ $ > $ : I $ 0.& $ 1 5 $ $ $ $ b $ e.$ 9 1 8 $ $ $ Z M $ $ # ",
"  $ $ $ i $ $ $ $ 7 * i 1 6 7 :.$ $ $ $ $ $ 2 $ N 6 $ i $ $ $ $ $ M $ : i * 7 $ $ $ $ Z M $ $ # ",
"  $ $ $ i $ $ $ $ $ $ 3 1 4 5 i $ $ $ $ $ $ { r.8 ; 7 ,.$ $ $ $ $ 5 f 1 3 $ $ $ $ $ $ Z M $ $ # ",
"  $ $ $ i $ $ $ $ $ $ $ , < 1 i ; $ $ $ $ s r.M J $ t.$ $ $ $ ; 2 1 < , $ $ $ $ $ $ $ Z M $ $ # ",
"  $ $ $ i $ $ $ $ $ $ $ $ $ % & * d - 1 i 8 > g ; > 2 ; & - d * & % u u u u u u u u u l M $ $ # ",
"  # # # =.=.=.=.=.=.=.=.=.=.=.=.=.=.=.=.=.=.=.=.=.=.=.=.=.=.=.=.=.=.@.@.@.@.@.@.@.@.@.%.y.# # # "};
