/* XPM */
static char * image_name[] = {
"48 48 161 2",
"  	c None",
". 	c #000000000000",
"X 	c #30C230C230C2",
"o 	c #618561855965",
"O 	c #28A22CB228A2",
"+ 	c #69A661855965",
"@ 	c #492449244103",
"# 	c #28A224922081",
"$ 	c #082004100820",
"% 	c #208120811861",
"& 	c #596555555144",
"* 	c #30C230C228A2",
"= 	c #28A21C712081",
"- 	c #28A2249228A2",
"; 	c #28A220812081",
": 	c #41033CF338E3",
"> 	c #186110401040",
", 	c #10400C300820",
"< 	c #082008200820",
"1 	c #104014511040",
"2 	c #492445144103",
"3 	c #28A2208128A2",
"4 	c #28A218612081",
"5 	c #208118611861",
"6 	c #208120812081",
"7 	c #28A218611861",
"8 	c #28A228A228A2",
"9 	c #4103410338E3",
"0 	c #38E334D330C2",
"q 	c #38E338E330C2",
"w 	c #18611C711861",
"e 	c #104010401040",
"r 	c #38E330C228A2",
"t 	c #30C218612081",
"y 	c #30C220812081",
"u 	c #51444D344103",
"i 	c #61855D755144",
"p 	c #30C22CB228A2",
"a 	c #30C2208128A2",
"s 	c #208114511861",
"d 	c #208118611040",
"f 	c #28A214511861",
"g 	c #20811C712081",
"h 	c #186118611861",
"j 	c #514451444924",
"k 	c #30C2249228A2",
"l 	c #208118612081",
"z 	c #28A21C711861",
"x 	c #18610C301040",
"c 	c #10400C301040",
"v 	c #104008200820",
"b 	c #18610C300820",
"n 	c #186114511861",
"m 	c #38E334D338E3",
"M 	c #410320811861",
"N 	c #79E718611040",
"B 	c #8E381C710820",
"V 	c #492420811861",
"C 	c #30C21C7128A2",
"Z 	c #618559655965",
"A 	c #41033CF34103",
"S 	c #38E328A230C2",
"D 	c #38E32CB230C2",
"F 	c #30C22CB230C2",
"G 	c #30C228A228A2",
"H 	c #38E328A228A2",
"J 	c #410324922081",
"K 	c #96582CB21040",
"L 	c #8E3824921040",
"P 	c #38E318611861",
"I 	c #28A21C7128A2",
"U 	c #514449244103",
"Y 	c #618551445144",
"T 	c #492449244924",
"R 	c #410334D338E3",
"E 	c #410330C230C2",
"W 	c #410328A230C2",
"Q 	c #79E728A21861",
"! 	c #79E720811040",
"~ 	c #38E314511040",
"^ 	c #514449244924",
"/ 	c #38E330C230C2",
"( 	c #618520811861",
") 	c #30C218611040",
"_ 	c #49243CF338E3",
"` 	c #514434D330C2",
"' 	c #9E7938E31861",
"] 	c #61854D344103",
"[ 	c #38E3249230C2",
"{ 	c #69A624922081",
"} 	c #186110401861",
"| 	c #71C6410328A2",
" .	c #596559655144",
"..	c #410334D328A2",
"X.	c #AEBA555530C2",
"o.	c #30C2249230C2",
"O.	c #8E3845144103",
"+.	c #AEBA30C21861",
"@.	c #208110401861",
"#.	c #B6DA492430C2",
"$.	c #B6DA30C22081",
"%.	c #51442CB230C2",
"&.	c #104004101040",
"*.	c #8E3859655965",
"=.	c #A69979E769A6",
"-.	c #96588A2871C6",
";.	c #B6DA9A699658",
":.	c #CF3C69A65144",
">.	c #492438E34103",
",.	c #41032CB230C2",
"<.	c #38E3249228A2",
"1.	c #BEFB75D65965",
"2.	c #C71B5D7530C2",
"3.	c #79E745144103",
"4.	c #AEBA4D344103",
"5.	c #BEFB49242081",
"6.	c #B6DA51444103",
"7.	c #C71B618530C2",
"8.	c #AEBA38E32081",
"9.	c #618559654924",
"0.	c #A6994D344103",
"q.	c #B6DA4D342081",
"w.	c #8E3861855144",
"e.	c #30C228A22081",
"r.	c #9E79492430C2",
"t.	c #BEFB555528A2",
"y.	c #861771C669A6",
"u.	c #A69955555144",
"i.	c #CF3C659530C2",
"p.	c #8E3875D669A6",
"a.	c #A69959654924",
"s.	c #9E7945144103",
"d.	c #BEFB618538E3",
"f.	c #9E7951444924",
"g.	c #9E7951444103",
"h.	c #9E79820771C6",
"j.	c #9E794D344103",
"k.	c #B6DA451428A2",
"l.	c #A699861771C6",
"z.	c #9E7934D32081",
"x.	c #9E797DF769A6",
"c.	c #79E73CF338E3",
"v.	c #965875D65965",
"b.	c #86174D344924",
"n.	c #B6DA38E32081",
"m.	c #96586DB65965",
"M.	c #AEBA410328A2",
"N.	c #B6DA861769A6",
"B.	c #71C638E338E3",
"V.	c #AEBA34D328A2",
"C.	c #B6DA8A2869A6",
"Z.	c #79E7492438E3",
"A.	c #BEFB514430C2",
"S.	c #BEFB7DF75965",
"D.	c #B6DA6DB64924",
"F.	c #9E7928A21861",
"G.	c #AEBA65954924",
"H.	c #A6992CB22081",
"J.	c #A699492438E3",
"K.	c #69A628A228A2",
"L.	c #71C649244103",
"                            . X o O + @ X # $ $ .                                               ",
"                        . % & * # = = - ; ; - ; : : # > , < $ $ .                               ",
"                      1 2 : 3 # = 4 = 5 6 7 4 = 4 4 = = % 8 = 5 9 @ 0 q 0 w e , < $ .           ",
"                  < 0 r 3 - - ; = = 6 5 = ; = 4 5 = = = = 4 - = t 4 7 = 4 y ; r u i u :         ",
"            . $ 8 - p 3 ; ; a 3 3 = 3 4 = 4 4 4 = 4 ; = 4 = 4 s 4 s s d f = f 4 7 y q g ,       ",
"          h j k 3 3 - = k 3 y y ; 4 s l z t x c x f 4 4 7 = = 7 4 s 7 7 v b f f k @ - n .       ",
"      n j m k - - k k y y - 4 - 4 7 M N B V l = y 4 7 = y k 4 f 7 4 s % C y = p @ ; e .         ",
"    j Z A S D F G - k H ; y 3 a J K L P 4 ; ; I 3 3 = = 3 z y 7 = y 3 z ; k U : 6 <             ",
"    * Y T R E G F G G G 3 p W Q ! ~ 3 G ; k ; k 3 3 ; y G k G a y k 3 a r o * h $               ",
"      w : ^ : A / H / G k ( N ) - I 3 I a k C a I I a y k = y ; 3 3 a r & - n .                 ",
"        $ c 6 * : 2 _ R ` ' * k I I 4 3 I 4 I 4 4 ; I 3 = y k 4 4 = ^ @ 6 , .                   ",
"              . $ < < h ] Q l = 3 3 S [ I k I I I = 3 4 I I 3 4 4 6 2 g < .                     ",
"                        _ { l = 3 g = l } s I C a S a y a I 4 4 4 I 9 <                         ",
"                        / | a 3 k k G 4 } x v x v x } 4 4 C I f 4 ;  .,                         ",
"                        ..X.- o.o.S S a l } } > c x } s g 3 = = y 3 0 6                         ",
"                      $ O.+.W o.[ S S 4 l > @.x c } c l I l 4 4 3 3 8 * $                       ",
"                      @ #.$.%.S D k k y s 4 } > @.&.c x s l 4 I = = - O .                       ",
"                      j *.=.S E o.k E k s x x > } x x 5 = @.f = 4 4 0 6 $                       ",
"                      : -.;.E D S R S a s s x > x } s > l s 4 4 = D @ h .                       ",
"                      5 ;.:.%.>.>.,.k <.= 3 4 4 = = 4 @.4 4 } 4 = 0 O ,                         ",
"                      w 1.2.3.R W ,.,.E k f v c x , v x 5 7 z = 4 : g .                         ",
"                      g 4.5.] R [ D H ,.k s n > } n x > 5 = = a : - <                           ",
"                      g 6.7.i w T S 4 o.3 > } x x n n > x s 3 u 0 n .                           ",
"                      h 6.8.9., . w 2 R g } x x v > v v 5 k u : 6 $                             ",
"                      n 0.q.w.c     . , n g * : ; > 7 e.0 j - h $                               ",
"                      1 r.t.y.1               $ , g 6 - 6 h , .                                 ",
"                      1 u.i.p.1                                                                 ",
"                      1 a.t.y.1                                                                 ",
"                      1 s.d.p.1                                                                 ",
"                      1 f.t.y.1                                                                 ",
"                      1 g.q.h.1                                                                 ",
"                      1 j.k.l.h                                                                 ",
"                      1 j.k.l.h                                                                 ",
"                      1 O.z.x.h                                                                 ",
"                      < c.k.v.h                                                                 ",
"                      < b.n.m.h                                                                 ",
"                      < z.M.N.h                                                                 ",
"                      < B.V.C.g                                                                 ",
"                      < Z.A.S.6                                                                 ",
"                      < B.V.D.6                                                                 ",
"                      < 3.F.G.6                                                                 ",
"                      < c.K =.6                                                                 ",
"                      < B.H.G.6                                                                 ",
"                      < c.n.J.6                                                                 ",
"                        K.H.a.6                                                                 ",
"                        L.V.w.6                                                                 ",
"                        $ g - n                                                                 ",
"                          . . .                                                                 "};
