/* XPM */
static char * image_name[] = {
"48 48 139 2",
"  	c None",
". 	c #000000000000",
"X 	c #318C318C318C",
"o 	c #631863185AD6",
"O 	c #294A318C294A",
"+ 	c #6B5A63185AD6",
"@ 	c #4A524A524210",
"# 	c #294A21082108",
"$ 	c #084208420842",
"% 	c #2108210818C6",
"& 	c #5AD65AD65294",
"* 	c #318C318C294A",
"= 	c #294A294A2108",
"- 	c #294A294A294A",
"; 	c #421039CE39CE",
": 	c #4210421039CE",
"> 	c #18C610841084",
", 	c #108408420842",
"< 	c #108410841084",
"1 	c #294A2108294A",
"2 	c #294A18C62108",
"3 	c #210818C618C6",
"4 	c #210821082108",
"5 	c #294A18C618C6",
"6 	c #39CE39CE318C",
"7 	c #39CE318C318C",
"8 	c #18C618C618C6",
"9 	c #39CE318C294A",
"0 	c #318C18C62108",
"q 	c #318C21082108",
"w 	c #52944A524210",
"e 	c #63185AD65294",
"r 	c #318C294A294A",
"t 	c #318C2108294A",
"y 	c #210818C61084",
"u 	c #294A108418C6",
"i 	c #529452944A52",
"p 	c #210818C62108",
"a 	c #294A210818C6",
"s 	c #18C608420842",
"d 	c #39CE39CE39CE",
"f 	c #4210210818C6",
"g 	c #7BDE18C61084",
"h 	c #8C6218C60842",
"j 	c #4A52210818C6",
"k 	c #63185AD65AD6",
"l 	c #421039CE4210",
"z 	c #39CE294A318C",
"x 	c #318C294A318C",
"c 	c #39CE294A294A",
"v 	c #421021082108",
"b 	c #94A4294A1084",
"n 	c #8C6221081084",
"m 	c #39CE18C618C6",
"M 	c #294A18C6294A",
"N 	c #631852945294",
"B 	c #4A524A524A52",
"V 	c #4210318C318C",
"C 	c #4210294A318C",
"Z 	c #7BDE294A18C6",
"A 	c #7BDE21081084",
"S 	c #39CE18C61084",
"D 	c #52944A524A52",
"F 	c #6318210818C6",
"G 	c #318C18C61084",
"H 	c #5AD652945294",
"J 	c #4A5242104210",
"K 	c #4A5239CE39CE",
"L 	c #5294318C318C",
"P 	c #9CE639CE18C6",
"I 	c #63184A524210",
"U 	c #6B5A21082108",
"Y 	c #18C6108418C6",
"T 	c #739C4210294A",
"R 	c #4210318C294A",
"E 	c #AD6A5294318C",
"W 	c #8C6242104210",
"Q 	c #AD6A318C18C6",
"! 	c #2108108418C6",
"~ 	c #108408421084",
"^ 	c #B5AC4A52318C",
"/ 	c #B5AC318C2108",
"( 	c #5294294A318C",
") 	c #8C625AD65AD6",
"_ 	c #A5287BDE6B5A",
"` 	c #94A48C62739C",
"' 	c #B5AC9CE694A4",
"] 	c #CE726B5A5294",
"[ 	c #4A5239CE4210",
"{ 	c #39CE2108294A",
"} 	c #BDEE739C5AD6",
"| 	c #C6305AD6318C",
" .	c #7BDE42104210",
"..	c #AD6A4A524210",
"X.	c #BDEE4A522108",
"o.	c #B5AC52944210",
"O.	c #C6306318318C",
"+.	c #AD6A39CE2108",
"@.	c #63185AD64A52",
"#.	c #A5284A524210",
"$.	c #B5AC4A522108",
"%.	c #8C6263185294",
"&.	c #318C294A2108",
"*.	c #9CE64A52318C",
"=.	c #BDEE5294294A",
"-.	c #8420739C6B5A",
";.	c #A52852945294",
":.	c #CE726318318C",
">.	c #8C62739C6B5A",
",.	c #A5285AD64A52",
"<.	c #9CE64A524210",
"1.	c #BDEE631839CE",
"2.	c #9CE652944A52",
"3.	c #9CE652944210",
"4.	c #9CE68420739C",
"5.	c #B5AC4210294A",
"6.	c #A5288420739C",
"7.	c #9CE6318C2108",
"8.	c #9CE67BDE6B5A",
"9.	c #7BDE39CE39CE",
"0.	c #94A4739C5AD6",
"q.	c #84204A524A52",
"w.	c #B5AC39CE2108",
"e.	c #94A46B5A5AD6",
"r.	c #AD6A4210294A",
"t.	c #B5AC84206B5A",
"y.	c #739C39CE39CE",
"u.	c #AD6A39CE294A",
"i.	c #B5AC8C626B5A",
"p.	c #7BDE4A5239CE",
"a.	c #BDEE5294318C",
"s.	c #BDEE7BDE5AD6",
"d.	c #B5AC6B5A4A52",
"f.	c #9CE6294A18C6",
"g.	c #AD6A63184A52",
"h.	c #A528294A2108",
"j.	c #A5284A5239CE",
"k.	c #6B5A294A294A",
"l.	c #739C4A524210",
"                            . X o O + @ X # $ $ .                                               ",
"                        . % & * = # # - # # - # ; : = > , $ $ $ .                               ",
"                      < @ : 1 = # 2 # 3 4 5 2 # 2 2 # # % - # 3 : @ 6 6 7 8 < , $ $ .           ",
"                  $ 7 9 1 - - # # # 4 3 # # # 2 3 # # # # 2 - # 0 2 5 # 2 q # 9 w e w ;         ",
"            . $ - - r 1 # # t 1 1 # 1 2 # 2 2 2 # 2 # # 2 # 2 3 2 3 3 y u # 5 2 5 q 6 4 ,       ",
"          8 i r 1 1 - # r 1 q q # 2 3 p a 0 > < > u 2 2 5 # # 5 2 3 5 5 , s u u r @ - 8 .       ",
"      8 i d r - - r r q q - 2 - 2 5 f g h j p # q 2 5 # q r 2 u 5 2 3 % t q # r @ # < .         ",
"    i k l z z x r - r c # q 1 t v b n m 2 # # M 1 1 # # 1 a q 5 # q 1 a # r w ; 4 $             ",
"    * N B ; V r x r r r 1 r C Z A S 1 r # r # r 1 1 # q r r r t q r 1 t 9 o * 8 $               ",
"      8 : D : l 7 c 7 r r F g G - M 1 1 t r t t 1 1 t q t # q # 1 1 t 9 H - 8 .                 ",
"        $ < 4 * : J K ; L P * r 1 1 2 1 M 2 1 2 2 # 1 1 # q r 2 2 # D @ 4 , .                   ",
"              . $ $ $ 8 I Z p # 1 1 z z M r 1 1 M # 1 2 M M 1 2 2 4 J 4 $ .                     ",
"                        K U p # 1 4 # p Y 3 M t t z t q t 1 2 2 2 1 : $                         ",
"                        7 T t 1 r r r 2 Y > , > , > Y 2 2 t M 5 2 # & ,                         ",
"                        R E - x x z z t p Y Y > < > Y 3 4 1 # # q 1 7 4                         ",
"                      $ W Q C x z z z 2 p > ! > ~ Y ~ p 1 p 2 2 1 1 - * $                       ",
"                      @ ^ / ( z z r r q 3 2 Y > ! ~ < > 3 p 2 1 # # - O .                       ",
"                      i ) _ z V x r V r 3 > > > Y > > 3 # ! 5 # 2 2 6 4 $                       ",
"                      ; ` ' V z z ; z t 3 3 > > > Y 3 > p 3 2 2 # z @ 8 .                       ",
"                      3 ' ] ( [ [ C t { # 1 2 2 # # 2 ! 2 2 Y 2 # 6 O ,                         ",
"                      8 } |  .; C C C V t u , < > , , > 3 5 a # 2 ; 4 .                         ",
"                      4 ..X.I ; z z c C r 3 Y > Y Y > > 3 # # t : - $                           ",
"                      4 o.O.e 8 B z 2 x 1 > Y > > Y Y > > ! 1 w 7 8 .                           ",
"                      8 o.+.@., . 8 @ ; 4 Y > > , > , , 3 r w : 4 $                             ",
"                      8 #.$.%.<     . , 8 4 * ; # > 5 &.6 i - 8 $                               ",
"                      < *.=.-.<               $ , 4 4 - 4 8 , .                                 ",
"                      < ;.:.>.<                                                                 ",
"                      < ,.=.-.<                                                                 ",
"                      < <.1.>.<                                                                 ",
"                      < 2.=.-.<                                                                 ",
"                      < 3.$.4.<                                                                 ",
"                      < <.5.6.8                                                                 ",
"                      < <.5.6.8                                                                 ",
"                      < W 7.8.8                                                                 ",
"                      $ 9.5.0.8                                                                 ",
"                      $ q.w.e.8                                                                 ",
"                      $ 7.r.t.8                                                                 ",
"                      $ y.u.i.4                                                                 ",
"                      $ p.a.s.4                                                                 ",
"                      $ y.u.d.4                                                                 ",
"                      $  .f.g.4                                                                 ",
"                      $ 9.b _ 4                                                                 ",
"                      $ y.h.g.4                                                                 ",
"                      $ 9.w.j.4                                                                 ",
"                        k.h.,.4                                                                 ",
"                        l.u.%.4                                                                 ",
"                        $ 4 - 8                                                                 ",
"                          . . .                                                                 "};
