/* XPM */
static char * image_name[] = {
"48 48 74 1",
" 	c None",
".	c #52944A520000",
"X	c #39CE318C0000",
"o	c #FFFFDEF60000",
"O	c #AD6A9CE60000",
"+	c #084208420842",
"@	c #6B5A631818C6",
"#	c #F7BCDEF60000",
"$	c #B5AC9CE60842",
"%	c #18C618C618C6",
"&	c #A52894A40000",
"*	c #C630AD6A0842",
"=	c #F7BCD6B40000",
"-	c #AD6A9CE60842",
";	c #631852941084",
":	c #EF7AD6B40000",
">	c #210821082108",
",	c #AD6A9CE61084",
"<	c #4A5242100000",
"1	c #EF7ACE720000",
"2	c #94A484201084",
"3	c #AD6A94A41084",
"4	c #E738CE720000",
"5	c #52944A520842",
"6	c #A52894A41084",
"7	c #DEF6C6300000",
"8	c #18C618C60000",
"9	c #DEF6C6300842",
"0	c #000000000000",
"q	c #9CE68C621084",
"w	c #D6B4BDEE0842",
"e	c #318C294A0000",
"r	c #8C627BDE0000",
"t	c #4A5242100842",
"y	c #4A52421018C6",
"u	c #CE72B5AC0842",
"i	c #108410841084",
"p	c #52944A521084",
"a	c #421039CE0000",
"s	c #4A5242101084",
"d	c #8420739C0842",
"f	c #94A484200842",
"g	c #421039CE0842",
"h	c #BDEEAD6A0842",
"j	c #210818C60842",
"k	c #BDEEA5280842",
"l	c #B5ACA5280842",
"z	c #84207BDE1084",
"x	c #7BDE6B5A0842",
"c	c #7BDE739C0842",
"v	c #8420739C1084",
"b	c #7BDE739C1084",
"n	c #108410840000",
"m	c #421042101084",
"M	c #739C63180842",
"N	c #8C627BDE1084",
"B	c #318C318C0842",
"V	c #294A21080842",
"C	c #6B5A5AD61084",
"Z	c #4210421018C6",
"A	c #421039CE18C6",
"S	c #39CE39CE18C6",
"D	c #7BDE6B5A18C6",
"F	c #52944A5218C6",
"G	c #63185AD618C6",
"H	c #739C6B5A18C6",
"J	c #5AD6529418C6",
"K	c #39CE318C0842",
"L	c #294A294A1084",
"P	c #318C318C1084",
"I	c #18C618C60842",
"U	c #4A524A521084",
"Y	c #39CE39CE2108",
"T	c #318C318C2108",
"                                                ",
"                                                ",
"                                                ",
"                                                ",
"                                                ",
"                                                ",
"                                                ",
"                                                ",
"                                                ",
"              ............................X     ",
"              ooooooooooooooooooooooooooooO+    ",
"              .@@#########################$%    ",
"               ++&*=======------------====-%    ",
"                  ;:::::::>%%%%%%%%%%%::::,%    ",
"                  <1111111>           <2113%    ",
"                  <4444444>            5443%    ",
"                  <4444444>            <446%    ",
"                  <7777777>            8576%    ",
"                  <9999999>             09q%    ",
"                  <wwwwwww>              wq%    ",
"    00000000000000<wwwwwww>000   er      ty%    ",
"   00+++++++++++++tuuuuuuu>++00  <u%      ++    ",
"   00+iii%%%%%%%iipuuuuuuu>%i+00 au>            ",
"   00++ii%>>>>>%iis*******>%%i+0df*>            ",
"    0000+i%>>>>%i+ghhhhhhh>%%ijahhh>            ",
"      000+%>>>>%i+akkkkkkk>+iitkkkk>            ",
"        0+i%>>>>%+alllllllzxxcfllll>            ",
"        00+%>>>>%ia$$$$$$$vbbb2$$$$>            ",
"         0+i%>>>>%g------->%%%s---->            ",
"         00+%>>>>%g333333,>+00ng33,>            ",
"         00+i%>>>>m6666666>+00 +MN6>            ",
"          00+%>>>>y6666666>i+0   m6>            ",
"          00+i>>>>yqqqqqqq>%+00  Bq>            ",
"           00+%>>>yqqqqqqq>%i+00 VC>            ",
"           00+i>>>y222222q>ii+00  +%            ",
"            0+i%>>y2222222>++++0                ",
"            00+i>>ZNNNNNNN>0++000               ",
"             0+i%>ZNNNNNNN>00000                ",
"             00+i>Zvvvvvvv>  00                 ",
"              0+i%Abbbbvbv>                     ",
"              00+%SDDDDDDD>000                  ",
"             00+iFGHHHHHHHJK0000                ",
"            00LLPHHHHHHHHHHJPLI00               ",
"            0+@@@@@@@@@@@@@@@@U+0               ",
"            00VYYYYYYYYYTTATTAT%0               ",
"             00iiiiiiiiiiiiiiii+                ",
"               0000000000000000                 ",
"                                                "};
