/* XPM */
static char * image_name[] = {
"48 48 94 2",
"  	c None",
". 	c #51444D340000",
"X 	c #38E330C20000",
"o 	c #FFFFE38D0000",
"O 	c #AEBA9A690000",
"+ 	c #082004100820",
"@ 	c #514449240000",
"# 	c #69A661851861",
"$ 	c #F7DEDF7D0000",
"% 	c #B6DAA2890820",
"& 	c #186114511861",
"* 	c #082008200820",
"= 	c #A69996580000",
"- 	c #C71BAEBA0820",
"; 	c #F7DEDB6C0000",
": 	c #AEBA9E790820",
"> 	c #618555551040",
", 	c #EFBED75C0000",
"< 	c #208120812081",
"1 	c #AEBA9A691040",
"2 	c #186118611861",
"3 	c #492445140000",
"4 	c #EFBED34C0000",
"5 	c #965882071040",
"6 	c #AEBA96581040",
"7 	c #E79DCF3C0000",
"8 	c #51444D340820",
"9 	c #E79DCB2B0000",
"0 	c #A69992481040",
"q 	c #492441030000",
"w 	c #DF7DC71B0000",
"e 	c #186114510000",
"r 	c #514449240820",
"t 	c #DF7DC30B0820",
"y 	c #000000000000",
"u 	c #9E798A281040",
"i 	c #49243CF30000",
"p 	c #D75CBEFB0820",
"a 	c #9E798E381040",
"s 	c #D75CBAEA0820",
"d 	c #30C228A20000",
"f 	c #8E387DF70000",
"g 	c #492441030820",
"h 	c #492445141861",
"j 	c #CF3CB6DA0820",
"k 	c #10400C301040",
"l 	c #104010401040",
"z 	c #514449241040",
"x 	c #CF3CB2CA0820",
"c 	c #41033CF30000",
"v 	c #20811C712081",
"b 	c #492445141040",
"n 	c #861775D60820",
"m 	c #965886170820",
"M 	c #41033CF30820",
"N 	c #BEFBAAAA0820",
"B 	c #208118610820",
"V 	c #410338E30000",
"C 	c #B6DAA6990820",
"Z 	c #861779E71040",
"A 	c #79E76DB60820",
"S 	c #79E771C60820",
"D 	c #965882070820",
"F 	c #861775D61040",
"G 	c #79E771C61040",
"H 	c #410338E30820",
"J 	c #104010400000",
"K 	c #410341031040",
"L 	c #A69996581040",
"P 	c #71C665950820",
"I 	c #8E3879E71040",
"U 	c #492441031861",
"Y 	c #30C230C20820",
"T 	c #28A224920820",
"R 	c #69A65D751040",
"E 	c #965886171040",
"W 	c #410341031861",
"Q 	c #8E387DF71040",
"! 	c #41033CF31861",
"~ 	c #38E338E31861",
"^ 	c #79E76DB61861",
"/ 	c #51444D341861",
"( 	c #618559651861",
") 	c #71C669A61861",
"_ 	c #596555551861",
"` 	c #38E330C20820",
"' 	c #28A228A21040",
"] 	c #30C22CB21040",
"[ 	c #71C665951861",
"{ 	c #30C230C21040",
"} 	c #186118610820",
"| 	c #492449241040",
" .	c #38E338E32081",
"..	c #30C230C22081",
"                                                                                                ",
"                                                                                                ",
"                                                                                                ",
"                                                                                                ",
"                                                                                                ",
"                                                                                                ",
"                                                                                                ",
"                                                                                                ",
"                                                                                                ",
"                            . . . . . . . . . . . . . . . . . . . . . . . . . . . . X           ",
"                            o o o o o o o o o o o o o o o o o o o o o o o o o o o o O +         ",
"                            @ # # $ $ $ $ $ $ $ $ $ $ $ $ $ $ $ $ $ $ $ $ $ $ $ $ $ % &         ",
"                              * * = - ; ; ; ; ; ; ; : : : : : : : : : : : : ; ; ; ; : &         ",
"                                    > , , , , , , , < & & & & & & & & & & & , , , , 1 2         ",
"                                    3 4 4 4 4 4 4 4 <                       3 5 4 4 6 &         ",
"                                    3 7 7 7 7 7 7 7 <                         8 7 7 6 &         ",
"                                    3 9 9 9 9 9 9 9 <                         3 9 9 0 2         ",
"                                    q w w w w w w w <                         e r w 0 &         ",
"                                    q t t t t t t t <                           y t u 2         ",
"                                    i p p p p p p p <                             p a &         ",
"        y y y y y y y y y y y y y y i s s s s s s s < y y y       d f             g h &         ",
"      y y + + + + + + + * + + * + * g j j j j j j j < + + y y     i j 2             * *         ",
"      y y * k k l & & & & & & & l l z x x x x x x x < & k + y y   c x <                         ",
"      y y + * k l & v v v < v 2 l l b - - - - - - - < 2 & k + y n m - <                         ",
"        y y y y * k 2 v < < < 2 k + M N N N N N N N < & 2 l B V N N N <                         ",
"            y y y * & v < < < 2 k + V N N N N N N N < * l l g N N N N <                         ",
"                y + k 2 < < < v & * V C C C C C C C Z A A S D C C C C <                         ",
"                y y * & v < < < 2 k V % % % % % % % F G G G 5 % % % % <                         ",
"                  y + k 2 < < < v & H : : : : : : : < & & 2 b : : : : <                         ",
"                  y y * & v < < < 2 H 1 1 1 1 1 1 1 < + y y J H 1 1 1 <                         ",
"                  y y + l 2 < < < v K L L L L L L L < * y y   + P I L <                         ",
"                    y y * & v < < < U 0 0 0 0 0 0 0 < l + y       K 0 <                         ",
"                    y y + l v v < < h a a a a a a u < & * y y     Y u <                         ",
"                      y y * & v < < h u u u u u u u < & l + y y   T R <                         ",
"                      y y * l v < < U E E E E E E u < l l * y y     + 2                         ",
"                        y + k & < < U 5 5 5 5 5 5 5 < + * * + y                                 ",
"                        y y + l v < W Q Q Q Q Q Q Q < y + + y y y                               ",
"                          y + k 2 v ! I I I I I I I < y y y y y                                 ",
"                          y y * l v ! F F F F F F F <     y y                                   ",
"                            y + k 2 ! G G G G F G F <                                           ",
"                            y y * & ~ ^ ^ ^ ^ ^ ^ ^ < y y y                                     ",
"                          y y + k / ( ) ) ) ) ) ) ) _ ` y y y y                                 ",
"                        y y ' ' ] [ [ [ [ [ [ [ [ [ [ _ { ' } y y                               ",
"                        y + # # # # # # # # # # # # # # # # | * y                               ",
"                        y y T  . . . . . . . . .....! ....! ..2 y                               ",
"                          y y k k k k k k k k k k l k l l k k +                                 ",
"                              y y y y y y y y y y y y y y y y                                   ",
"                                                                                                "};
