/* XPM */
static char * hotcorners_xpm[] = {
"48 48 86 1",
" 	c #2C2C2C",
".	c #FEFEFE",
"+	c #505075",
"@	c #4E4E74",
"#	c #515176",
"$	c #4B4B72",
"%	c #494971",
"&	c #515175",
"*	c #4F4F74",
"=	c #4C4C73",
"-	c #696984",
";	c #545477",
">	c #5E5E7D",
",	c #676783",
"'	c #58587A",
")	c #5B5B7C",
"!	c #B1B1BB",
"~	c #A5A5B1",
"{	c #A1A1AE",
"]	c #AEAEB9",
"^	c #79798F",
"/	c #5C5C7C",
"(	c #D5D5DA",
"_	c #E6E6E9",
":	c #E8E8EB",
"<	c #EDEDEF",
"[	c #E7E7EA",
"}	c #FDFDFD",
"|	c #FFFFFF",
"1	c #EBEBEC",
"2	c #7F7F93",
"3	c #484871",
"4	c #7B7B85",
"5	c #EFEFEF",
"6	c #A6A6A6",
"7	c #292959",
"8	c #464670",
"9	c #8C8C96",
"0	c #F4F4F4",
"a	c #F5F5F6",
"b	c #F2F2F2",
"c	c #9797A6",
"d	c #474770",
"e	c #4D4D73",
"f	c #9393A3",
"g	c #F4F4F5",
"h	c #F3F3F3",
"i	c #EBEBEE",
"j	c #6D6D87",
"k	c #9D9DAB",
"l	c #F9F9F9",
"m	c #F1F1F1",
"n	c #A5A5A5",
"o	c #EAEAEA",
"p	c #6A6A86",
"q	c #D3D3D6",
"r	c #717171",
"s	c #848484",
"t	c #9F9FA3",
"u	c #47476F",
"v	c #323256",
"w	c #9B9B9A",
"x	c #888889",
"y	c #000012",
"z	c #6B6B6D",
"A	c #757587",
"B	c #46466D",
"C	c #3B3B47",
"D	c #2E2E50",
"E	c #242447",
"F	c #838383",
"G	c #919191",
"H	c #202041",
"I	c #4F4F73",
"J	c #4E4E72",
"K	c #232343",
"L	c #4F4F4F",
"M	c #252548",
"N	c #505074",
"O	c #3A3A57",
"P	c #404060",
"Q	c #505076",
"R	c #49496B",
"S	c #31314E",
"T	c #2F2F49",
"U	c #434362",
"                                               .",
" ++++++++++++++++++++++++++++++++++++++++++++++.",
" ++++++++++++++++++++++++++++++++++++++++++++++.",
" ++@#$%&*=+++++++++++++++++++++++++++%-;>,')@++.",
" ++)!~{]]^@++++++++++++++++++++++++++/(_:<[!#++.",
" ++'[.}|12*++++++++++++++++++++++++++345||.~$++.",
" ++,<||}67+++++++++++++++++++++++++++890||}{%++a",
" ++>:|||bcd+++++++++++++++++++++++++efg||}|]&++.",
" ++;_5h||ij+++++++++++++++++++++++++@kl|mno]*++.",
" ++pqrshltu++++++++++++++++++++++++++vwoxyzAe++.",
" ++BCDEFGHI++++++++++++++++++++++++++JKLMNOP+++.",
" ++QR+*STJ++++++++++++++++++++++++++++JU*++++++.",
" +++++++*++++++++++++++++++++++++++++++++++++++.",
" ++++++++++++++++++++++++++++++++++++++++++++++.",
" ++++++++++++++++++++++++++++++++++++++++++++++.",
" ++++++++++++++++++++++++++++++++++++++++++++++.",
" ++++++++++++++++++++++++++++++++++++++++++++++.",
" ++++++++++++++++++++++++++++++++++++++++++++++.",
" ++++++++++++++++++++++++++++++++++++++++++++++.",
" ++++++++++++++++++++++++++++++++++++++++++++++.",
" ++++++++++++++++++++++++++++++++++++++++++++++.",
" ++++++++++++++++++++++++++++++++++++++++++++++.",
" ++++++++++++++++++++++++++++++++++++++++++++++.",
" ++++++++++++++++++++++++++++++++++++++++++++++.",
" ++++++++++++++++++++++++++++++++++++++++++++++.",
" ++++++++++++++++++++++++++++++++++++++++++++++.",
" ++++++++++++++++++++++++++++++++++++++++++++++.",
" ++++++++++++++++++++++++++++++++++++++++++++++.",
" ++++++++++++++++++++++++++++++++++++++++++++++.",
" ++++++++++++++++++++++++++++++++++++++++++++++.",
" ++++++++++++++++++++++++++++++++++++++++++++++.",
" ++++++++++++++++++++++++++++++++++++++++++++++.",
" ++++++++++++++++++++++++++++++++++++++++++++++.",
" ++++++++++++++++++++++++++++++++++++++++++++++.",
" ++++++++++++++++++++++++++++++++++++++++++++++.",
" ++++++++++++++++++++++++++++++++++++++++++++++.",
" ++QR+*STJ++++++++++++++++++++++++++++JTS*+RQ++.",
" ++BCDEFGHI++++++++++++++++++++++++++IHGFEDCB++.",
" ++pqrshltu++++++++++++++++++++++++++utlhsrqp++.",
" ++;_5h||ij++++++++++++++++++++++++++ji||h5_;++.",
" ++>:|||bcd++++++++++++++++++++++++++dcb|||:>++.",
" ++,<||}67++++++++++++++++++++++++++++76}||<,++.",
" ++'[.}|12*++++++++++++++++++++++++++*21|}.['++.",
" ++)!~{]]^@++++++++++++++++++++++++++@^]]{~!)++.",
" ++@#$%&*=++++++++++++++++++++++++++++=*&%$#@++.",
" ++++++++++++++++++++++++++++++++++++++++++++++.",
" ++++++++++++++++++++++++++++++++++++++++++++++.",
"................................................"};
