/* XPM */
static char * image_name[] = {
"48 48 197 2",
"  	c None",
". 	c #FFFFFFFFFFFF",
"X 	c #000000000000",
"o 	c #AD6AAD6AAD6A",
"O 	c #A528A528A528",
"+ 	c #9CE69CE69CE6",
"@ 	c #94A494A494A4",
"# 	c #8C628C628C62",
"$ 	c #84207BDE7BDE",
"% 	c #94A48C628C62",
"& 	c #529408420842",
"* 	c #739C10841084",
"= 	c #6B5A39CE39CE",
"- 	c #6B5A6B5A6B5A",
"; 	c #842084208C62",
": 	c #9CE69CE6AD6A",
"> 	c #C630CE72E738",
", 	c #CE72D6B4EF7A",
"< 	c #BDEEBDEEDEF6",
"1 	c #739C08420842",
"2 	c #BDEE2108294A",
"3 	c #B5AC294A318C",
"4 	c #6B5A18C618C6",
"5 	c #5AD6294A318C",
"6 	c #DEF6DEF6DEF6",
"7 	c #E738E738E738",
"8 	c #C630C630C630",
"9 	c #BDEEBDEEBDEE",
"0 	c #B5ACB5ACB5AC",
"q 	c #CE72CE72CE72",
"w 	c #631863186318",
"e 	c #8C628C6294A4",
"r 	c #9CE69CE6BDEE",
"t 	c #CE72CE72E738",
"y 	c #D6B4C630DEF6",
"u 	c #842008420842",
"i 	c #C630294A294A",
"p 	c #BDEE4A525AD6",
"a 	c #BDEE7BDE8420",
"s 	c #AD6A318C318C",
"d 	c #94A494A49CE6",
"f 	c #4A524A525AD6",
"g 	c #421042105AD6",
"h 	c #39CE39CE4A52",
"j 	c #21082108294A",
"k 	c #1084108418C6",
"l 	c #294A294A318C",
"z 	c #18C618C6294A",
"x 	c #7BDE7BDE7BDE",
"c 	c #9CE69CE6C630",
"v 	c #8C628C62B5AC",
"b 	c #9CE69CE6CE72",
"n 	c #AD6AAD6AD6B4",
"m 	c #A528A528CE72",
"M 	c #BDEE21082108",
"N 	c #A52839CE4A52",
"B 	c #B5AC42104210",
"V 	c #739C39CE39CE",
"C 	c #6318318C39CE",
"Z 	c #421042104A52",
"A 	c #7BDE7BDE8420",
"S 	c #5AD65AD65AD6",
"D 	c #842084208420",
"F 	c #739C739C9CE6",
"G 	c #BDEE6B5A7BDE",
"H 	c #B5AC39CE39CE",
"J 	c #9CE64A524A52",
"K 	c #4A52294A294A",
"L 	c #4A5221082108",
"P 	c #421042105294",
"I 	c #294A294A294A",
"U 	c #6B5A6B5A739C",
"Y 	c #18C618C62108",
"T 	c #B5ACB5ACDEF6",
"R 	c #84207BDE9CE6",
"E 	c #B5AC10841084",
"W 	c #AD6A39CE39CE",
"Q 	c #421021082108",
"! 	c #6B5A6B5A6318",
"~ 	c #D6B4D6B4D6B4",
"^ 	c #739C739C739C",
"/ 	c #739C739C7BDE",
"( 	c #631808420842",
") 	c #B5AC4A525294",
"_ 	c #C63084208C62",
"` 	c #39CE294A318C",
"' 	c #39CE39CE4210",
"] 	c #631863186B5A",
"[ 	c #108410841084",
"{ 	c #B5AC18C618C6",
"} 	c #AD6A318C39CE",
"| 	c #AD6A6B5A739C",
" .	c #BDEE39CE39CE",
"..	c #529452945294",
"X.	c #9CE69CE6A528",
"o.	c #529452945AD6",
"O.	c #7BDE7BDE9CE6",
"+.	c #8C628C629CE6",
"@.	c #BDEE18C618C6",
"#.	c #C6304A524210",
"$.	c #C6307BDE7BDE",
"%.	c #6318318C318C",
"&.	c #421018C62108",
"*.	c #421042104210",
"=.	c #5AD65AD66318",
"-.	c #294A318C318C",
";.	c #B5AC52946318",
":.	c #294A294A39CE",
">.	c #4A524A524A52",
",.	c #EF7AEF7AEF7A",
"<.	c #BDEEB5ACBDEE",
"1.	c #CE72A528AD6A",
"2.	c #BDEE108418C6",
"3.	c #A528318C39CE",
"4.	c #A52863186B5A",
"5.	c #294A2108294A",
"6.	c #4A5208420842",
"7.	c #B5AC52945AD6",
"8.	c #CE72739C739C",
"9.	c #5AD639CE39CE",
"0.	c #421018C618C6",
"q.	c #18C610841084",
"w.	c #18C618C618C6",
"e.	c #FFFFEF7AEF7A",
"r.	c #AD6A6B5A7BDE",
"t.	c #631839CE39CE",
"y.	c #084208420842",
"u.	c #EF7AE738D6B4",
"i.	c #B5AC7BDE7BDE",
"p.	c #5AD6318C318C",
"a.	c #084200000000",
"s.	c #A5289CE69CE6",
"d.	c #210818C618C6",
"f.	c #318C318C318C",
"g.	c #63184A524A52",
"h.	c #318C294A294A",
"j.	c #39CE18C618C6",
"k.	c #318C39CE39CE",
"l.	c #108408420842",
"z.	c #39CE39CE39CE",
"x.	c #CE72E738FFFF",
"c.	c #94A494A48420",
"v.	c #F7BCF7BCE738",
"b.	c #EF7AEF7ADEF6",
"n.	c #FFFFFFFFEF7A",
"m.	c #4A5252945294",
"M.	c #52948420D6B4",
"N.	c #318C4A527BDE",
"B.	c #5AD6739CA528",
"V.	c #4A526B5A9CE6",
"C.	c #52946B5A9CE6",
"Z.	c #52946B5AA528",
"A.	c #6B5A739C739C",
"S.	c #C630DEF6FFFF",
"D.	c #9CE69CE66B5A",
"F.	c #D6B4CE72BDEE",
"G.	c #BDEEB5ACA528",
"H.	c #BDEEBDEEAD6A",
"J.	c #1084294A4210",
"K.	c #B5ACCE72FFFF",
"L.	c #7BDE7BDE739C",
"P.	c #8C62739C5294",
"I.	c #84206B5A5294",
"U.	c #94A47BDE5AD6",
"Y.	c #210808420000",
"T.	c #5AD64A52318C",
"R.	c #4A52294A1084",
"E.	c #842063184A52",
"W.	c #294A18C60842",
"Q.	c #C630C630BDEE",
"!.	c #A528A52894A4",
"~.	c #5AD65AD64210",
"^.	c #39CE39CE2108",
"/.	c #318C294A18C6",
"(.	c #2108210818C6",
").	c #39CE4210294A",
"_.	c #AD6AB5ACC630",
"`.	c #52944A5239CE",
"'.	c #5AD652945294",
"].	c #5AD652944A52",
"[.	c #631863185294",
"{.	c #631863185AD6",
"}.	c #18C618C60842",
"|.	c #C630CE72CE72",
" X	c #94A48C628420",
".X	c #739C6B5A39CE",
"XX	c #739C739C6318",
"oX	c #5AD65AD6318C",
"OX	c #842084202108",
"+X	c #9CE694A439CE",
"@X	c #18C610840000",
"#X	c #108408420000",
"$X	c #294A21080000",
"%X	c #AD6AAD6AB5AC",
"&X	c #BDEECE72E738",
"*X	c #9CE6A528A528",
"=X	c #EF7AF7BCFFFF",
"                                                                                                ",
"  . . . . . . . . . . . . . . . . . . . . X X . . . . . . . . . . . . . . . . . . . . X X X     ",
"  . o o O O O O O + + + + + @ @ @ @ @ # X X X . o o O O O O O + + + + + @ $ # @ @ # X X X X X   ",
"  . o O O O O O + + + + + @ @ @ @ @ # # X X X . o O O O O O + + + + + % & * = @ # # X X X X X   ",
"  . O O @ + @ @ @ @ @ @ # # # # # - # # X X X . O O O O + ; ; : > , < 1 2 3 4 5 # # X X X X X   ",
"  . O O 6 7 8 8 8 8 9 9 9 9 0 q 7 w # # X X X . O O O e r < t t , y u i p a s 5 = # X X X X X   ",
"  . O O 6 d f g h j k l l j z x 6 w # # X X X . O O O # c v b n m 1 M N a B V C 4 # X X X X X   ",
"  . O O 6 d f f j X X q Z l z A 6 S # D X X X . O O + # b < b F 1 i N G H J K K L D X X X X X   ",
"  . O + 6 d g P k I @ . U j Y x 6 S D D X X X . O + + # b T R 1 E p G W V = 5 Q ! D X X X X X   ",
"  . + + ~ @ P P z ^ . 7 I z k / 6 S D D X X X . + + + D m n ( 2 ) _ W V C Q L ` - x X X X X X   ",
"  . + + ~ @ h h j ' ] j k k [ ^ 6 S D D X X X . + + + D R ( { } |  .V V ` Q ` I ..^ X X X X X   ",
"  . + + q d h e / ; X.@ x - o.^ ~ S D D X X X . + + O.+.1 @.#.$.H V %.Q &.` ' j *.- X X X X X   ",
"  . + + q # ' f h ' =.-.Z k j - ~ S D x X X X . + + F 1 M ;.a H V C &.L l :.:.z >.- X X X X X   ",
"  . + + q ,.,.,.7 7 7 6 6 6 6 <.1.S x x X X X . + + & 2.3.4.B V C &.Q 5.l l :.I S ^ X X X X X   ",
"  . + @ - - 9 8 8 9 9 9 9 9 9 ..S S x x X X X . + 6.2.7.8.s V 9.0.Q q.j l j w.>.- x X X X X X   ",
"  . @ @ @ D ^ ^ ^ ^ ^ ^ ^ ^ - w x x x x X X X e.1 { ) r.H V t.K Q q.y.z k z >.- x x X X X X X   ",
"  . @ @ @ @ - # # # # # # e ..x x x x x X X X u.1 J i.s V p.Q Q 5.a.y.k I ..- x x x X X X X X   ",
"  . @ @ @ # @ o o o o o O O @ x x x x x X X a.. s.Q 3.V C Q L d.k I f.*.S - x x x x X X X X X   ",
"  . @ @ e # # # # D D D D D x x x x x ^ X X y.q 8 g.Q K Q Q h.f.f.f.*.S ^ x x x x ^ X X X X X   ",
"  . @ e # # # # D D D D D x x x x x x ^ X X q 0 S *.Q j.0.h.f.f.k.*.S ^ x x x x x ^ X X X X X   ",
"  . X X X X X X X X X X X X X X X X X X X q ^ w f.I a.l.a.X X X X X X X X X X X X X X X X X X   ",
"  X X X X X X X X X X X X X X X X X X w.q ^ ..I I y.X X X X X X X X X X X X X X X X X X X X X   ",
"  X X X X X X X X X X X X X X X X X X q S >.I I a.X X X X X X X X X X X X X X X X X X X X X X   ",
"  . . . . . . . . . . . . . . . . . q D w I I *.I I I I I z...- ^ ^ ^ ^ ^ ^ ^ ^ ^ ^ ^ X X X X   ",
"  . o o O O O O O + + + + + @ @ @ q D ..I j X k.X X X X X X X X X X X X X X X X X X X X X X     ",
"  . o O O O O O + + + + + @ @ + q x S f.w.X X I X X X X X + - ^ 8 z.^ o ^ z.X X X X X X X X     ",
"  . O O w w w w w w w w w w w q - >.I *.X X X f.X X X X X o ..# o ..# o # w.X X X X X X X X     ",
"  . O O w x.c.v.b.b.v.v.n.n.8 A m.z.>.>.X X X *.X X X X X X X X X X X X X X X X X X X X X X     ",
"  . O O w M.N.B.V.C.Z.Z.B.q A.>.f.# >.k.X X X 8 @ + O + + + + + + @ @ @ @ @ # # # # X X X X     ",
"  . O O w S.D.u.F.G.u.H.~ ^ Z I J.x k.f.X X X ,.+ O + + + + + @ @ @ @ @ @ e # # # # X X X X     ",
"  . O + w K.A 0 @ @ o q L.*.f.P.I.S f.z.X X X . + + + + + + O 7 7 ,.q + e # # # # D X X X X     ",
"  . + + w K.# 0 @ *.>.e z.f.U.Y.T.S z...X X X . + + + + + + 0 . j z.6 ~ x # # # D D X X X X     ",
"  . + + w K.# q 0 / I k.z.R.E.Y.W.^ ..- X X X . + + + + @ @ + @ X @ ~ . w.# # D D D X X X X     ",
"  . + + w x.X.q Q.~ !.z.~.^./.(.).O - x X X X . + + + @ @ @ @ D w # 7 7 X # D D D D X X X X     ",
"  . + + w _.8 9 D.`.I '.! ].[.{.}.q x x X X X . + + @ @ @ @ @ @ + 6 ,...y.# D D D D X X X X     ",
"  . + + w |.0 0  Xf..XXX~.oXOX+X@X7 x x X X X . + @ @ @ @ @ @ # 6 8 *.y.- D D D D D X X X X     ",
"  . + @ w x.9 0 I oX/.).}.X #X/.$X,.x x X X X . @ @ @ @ @ @ # # 6 I z.x D D D D D x X X X X     ",
"  . @ @ w S.w ^ - *.I z ' =.d %XI ,.x x X X X . @ @ @ @ @ e # # O I D D D D D D x x X X X X     ",
"  . @ @ w &X- - *.Z - S d *X%X=X_.,.x x X X X . @ @ @ @ e # # O . q D D D D D x x x X X X X     ",
"  . @ @ 6 0 D - ^ x D o q 7 ,.,.,.,.x x X X X . @ @ @ e # # # @ q ..I D D D x x x x X X X X     ",
"  . @ # D w *.k.*.>.w ^ x D x x x x x x X X X . @ @ e # # # # D x I ..D D x x x x x X X X X     ",
"  . @ # D - >.z.>.w ^ x x x x x x x ^ ^ X X X . @ e # # # # D D D D D D x x x x x ^ X X X X     ",
"  . X X X X X X X X X X X X X X X X X X X X X . X X X X X X X X X X X X X X X X X X X X X X     ",
"  X X X X X X X X X X X X X X X X X X X X X X X X X X X X X X X X X X X X X X X X X X X X X     ",
"  X X X X X X X X X X X X X X X X X X X X X X X X X X X X X X X X X X X X X X X X X X X X X     ",
"  X X X X X X X X X X X X X X X X X X X X X X X X X X X X X X X X X X X X X X X X X X X X X     ",
"    X X X X X X X X X X X X X X X X X X X X X X X X X X X X X X X X X X X X X X X X X X X X     ",
"                                                                                                "};
