/* XPM */
static char * image_name[] = {
"48 48 227 2",
"  	c #FFFFFFFFFFFF",
". 	c #000000000820",
"X 	c #9E79AAAAB6DA",
"o 	c #A6999E79AEBA",
"O 	c #A699A289B6DA",
"+ 	c #9E799A69AEBA",
"@ 	c #9E79A2899E79",
"# 	c #96589658A699",
"$ 	c #9E799658A699",
"% 	c #96589A69AEBA",
"& 	c #8E388E389E79",
"* 	c #96588E389E79",
"= 	c #8E388A289658",
"- 	c #8E388A289E79",
"; 	c #86178A289658",
": 	c #861786179658",
"> 	c #79E782079658",
", 	c #8E3886179658",
"< 	c #79E782078E38",
"1 	c #861782078E38",
"2 	c #71C675D68617",
"3 	c #79E77DF78E38",
"4 	c #49244D345144",
"5 	c #000004100820",
"6 	c #9E799E799E79",
"7 	c #86177DF78E38",
"8 	c #492451446185",
"9 	c #082004100820",
"0 	c #965892489E79",
"q 	c #514455556185",
"w 	c #79E77DF779E7",
"e 	c #492451445965",
"r 	c #BEFBB6DAB6DA",
"t 	c #F7DEF7DEFFFF",
"y 	c #FFFFFBEEFFFF",
"u 	c #AEBAAAAAAEBA",
"i 	c #EFBEEFBEEFBE",
"p 	c #EFBEEBADEFBE",
"a 	c #EFBEE79DEFBE",
"s 	c #F7DEEFBEF7DE",
"d 	c #E79DEBADEFBE",
"f 	c #D75CDB6CD75C",
"g 	c #DF7DDF7DDF7D",
"h 	c #D75CCB2BD75C",
"j 	c #CF3CCB2BCF3C",
"k 	c #71C671C68617",
"l 	c #20812CB24103",
"z 	c #9E799A699E79",
"x 	c #E79DEBADF7DE",
"c 	c #EFBEEBADF7DE",
"v 	c #E79DEFBEF7DE",
"b 	c #DF7DEBADEFBE",
"n 	c #EFBEE38DEFBE",
"m 	c #E79DE38DE79D",
"M 	c #D75CDF7DD75C",
"N 	c #D75CDB6CE79D",
"B 	c #CF3CDB6CCF3C",
"V 	c #D75CCF3CD75C",
"C 	c #6185618569A6",
"Z 	c #DF7DDB6CDF7D",
"A 	c #DF7DD75CDF7D",
"S 	c #CF3CCF3CCF3C",
"D 	c #C71BCB2BC71B",
"F 	c #69A66DB68617",
"G 	c #69A671C68617",
"H 	c #F7DEEBADEFBE",
"J 	c #28A21C714103",
"K 	c #18611C7130C2",
"L 	c #20811C714103",
"P 	c #596555555965",
"I 	c #30C23CF34924",
"U 	c #186118612081",
"Y 	c #28A230C238E3",
"T 	c #28A220814103",
"R 	c #71C6A699BEFB",
"E 	c #10400C301040",
"W 	c #514455555144",
"Q 	c #208130C24103",
"! 	c #69A671C679E7",
"~ 	c #30C22CB230C2",
"^ 	c #208124922081",
"/ 	c #30C21C714103",
"( 	c #69A669A671C6",
") 	c #71C675D671C6",
"_ 	c #410349245144",
"` 	c #30C2208130C2",
"' 	c #71C66DB671C6",
"] 	c #61856DB679E7",
"[ 	c #38E334D338E3",
"{ 	c #08200C301040",
"} 	c #B6DABAEAC71B",
"| 	c #B6DAAAAAB6DA",
" .	c #082008201040",
"..	c #38E33CF35965",
"X.	c #514451446185",
"o.	c #A699A699B6DA",
"O.	c #38E33CF34103",
"+.	c #28A22CB230C2",
"@.	c #208120812081",
"#.	c #104010401861",
"$.	c #492445144924",
"%.	c #1861208130C2",
"&.	c #410341036185",
"*.	c #18611C711861",
"=.	c #B6DABAEAB6DA",
"-.	c #AEBABAEAAEBA",
";.	c #596569A69658",
":.	c #8E388E389658",
">.	c #B6DABEFBB6DA",
",.	c #BEFBCB2BBEFB",
"<.	c #61855D756185",
"1.	c #000010402081",
"2.	c #71C671C679E7",
"3.	c #F7DEEBADF7DE",
"4.	c #0000104028A2",
"5.	c #AEBA9E79AEBA",
"6.	c #69A6659569A6",
"7.	c #A6999A699658",
"8.	c #6185659569A6",
"9.	c #A699AAAAA699",
"0.	c #30C234D338E3",
"q.	c #B6DAAEBAB6DA",
"w.	c #96588E389658",
"e.	c #B6DA9A69B6DA",
"r.	c #618569A671C6",
"t.	c #28A2249228A2",
"y.	c #618561856185",
"u.	c #5144555571C6",
"i.	c #96588A289658",
"p.	c #79E779E771C6",
"a.	c #9E798A289E79",
"s.	c #000008201040",
"d.	c #492459656185",
"f.	c #5144618569A6",
"g.	c #596569A671C6",
"h.	c #618569A669A6",
"j.	c #5965618569A6",
"k.	c #0820451469A6",
"l.	c #2081555579E7",
"z.	c #38E38207B6DA",
"x.	c #51449E79D75C",
"c.	c #69A6AEBADF7D",
"v.	c #8617BEFBEFBE",
"b.	c #9E79CF3CF7DE",
"n.	c #8E38C30BEFBE",
"m.	c #2081514479E7",
"M.	c #082038E35965",
"N.	c #38E369A68617",
"B.	c #49249248BEFB",
"V.	c #6185AAAACF3C",
"C.	c #79E7B6DAC71B",
"Z.	c #8E38BEFBCF3C",
"A.	c #79E7B2CABEFB",
"S.	c #51448207A699",
"D.	c #59659248AEBA",
"F.	c #71C6A699C71B",
"G.	c #0000186130C2",
"H.	c #000028A24924",
"J.	c #30C261858E38",
"K.	c #38E375D6A699",
"L.	c #5965A699DF7D",
"P.	c #8E38C71BEFBE",
"I.	c #71C6B2CAE79D",
"U.	c #41039248C71B",
"Y.	c #49249248CF3C",
"T.	c #49249658CF3C",
"R.	c #38E38A28C71B",
"E.	c #38E36DB69E79",
"W.	c #38E341035144",
"Q.	c #0000145128A2",
"!.	c #00001C7130C2",
"~.	c #000034D35965",
"^.	c #38E37DF7AEBA",
"/.	c #28A25D758617",
"(.	c #00003CF36185",
").	c #000024924103",
"_.	c #5965A699D75C",
"`.	c #000030C25965",
"'.	c #00002CB25144",
"].	c #28A261858617",
"[.	c #30C265958E38",
"{.	c #1040492469A6",
"}.	c #79E7BAEAE79D",
"|.	c #6185A289D75C",
" X	c #0000208138E3",
".X	c #00000C301861",
"XX	c #59655D756185",
"oX	c #41038E38C71B",
"OX	c #38E38617BEFB",
"+X	c #38E371C69E79",
"@X	c #6185AAAADF7D",
"#X	c #28A259658617",
"$X	c #492449245965",
"%X	c #9658CB2BF7DE",
"&X	c #38E379E7A699",
"*X	c #49249A69CF3C",
"=X	c #8617C30BEFBE",
"-X	c #18614D3471C6",
";X	c #38E37DF7B6DA",
":X	c #000038E35965",
">X	c #514459656185",
",X	c #8E3871C69658",
"<X	c #BEFBCF3CBEFB",
"1X	c #861771C69658",
"2X	c #79E775D671C6",
"3X	c #6185A699DF7D",
"4X	c #A699CF3CF7DE",
"5X	c #30C269A68E38",
"6X	c #1040492471C6",
"7X	c #38E36DB69658",
"8X	c #69A6B2CADF7D",
"9X	c #71C6B6DAE79D",
"0X	c #A699AAAAB6DA",
"qX	c #38E371C69658",
"wX	c #A699D34CF7DE",
"eX	c #41038A28BEFB",
"rX	c #6185A289AEBA",
"tX	c #10404D3471C6",
"yX	c #10404D346185",
"uX	c #00002CB24924",
"iX	c #18614D3469A6",
"pX	c #410379E79658",
"aX	c #492482079658",
"sX	c #9658BEFBC71B",
"dX	c #9E79C71BCF3C",
"fX	c #8E38BAEACF3C",
"gX	c #59659248B6DA",
"                                                                                                ",
"                                                                                              . ",
"    X o O + O + @ + + # $ $ % + # # # # & # # & * & = & - ; - - ; - ; : : > , < 1 < : 1 2 3 4 5 ",
"    O 6 + O + + X # # X # % $ # # # # # # & & # ; & - ; ; - ; ; - < > : : , 3 : 7 3 3 7 < 3 8 9 ",
"    X o o # O + + $ $ % $ 0 # # # # & 0 & * & & * * ; & - ; = : ; 1 , < 1 : > 7 < < 3 3 3 3 q . ",
"    o X # O # $ + % # X # # # # # & # & # & & * ; ; & ; ; , ; ; : ; > : > > 7 > : 2 3 w 3 w e . ",
"    X o o # @ + r r   t y   t   t t   t y   y   t t y t t   t t y t   t   t u 7 3 w 3 2 3 2 q . ",
"    # o > y + +   y i p p p p i p a i a i a p s d d d f g h f h f j j p k k k l 3 2 3 2 2 2 4 . ",
"    X + o 3 & z t x d c x d c d d c x v a v d c d d b n a m M N j B f V g M 3 3 C 2 3 3 3 2 8 5 ",
"    % $ $ % + $ t s s b p i b p p b i p b p i b i m m Z A N h h B j S D r r F 9 G 3 2 2 2 2 e . ",
"    % $ + % # # t i p H . J K J J J J L L w P 4 I U 3 . . Y L T K J J   r K R E 2 2 2 2 2 2 W . ",
"    + @ # $ # # y d x d 9 Q J Q l I l z 1 ! 4 I ~ . . . ^ / Q Q J Q Q t V f ( K 2 3 ) 2 ) 2 _ . ",
"    # + + % # 0 t s H b . ` I J J _ ' 1 ] ] [ ~ ^ { . . 5 K U U ` L J y } | ( 9 2 2 2 G w G _ . ",
"    # $ 0 # 0 # t H H a  ./ l ..X.o.= ( O.O.+.@.#.. { D   r $.. %.J J t r | C K 2 ) 2 G 2 ! _ . ",
"    $ @ # % & 0 t v x x . ....&.8 = w w 4 W +.*.#.. E D m j ; . J l Q t =.-.;.E F 2 2 G 2 ! _ . ",
"    # # # # # # t s s b 9 J X.X.:., ' W W ^ ^ #. ..  .>.f ,.0 . K / T t r r <.1.2 ! 2 2.2.F _ . ",
"    # # # # & # t H 3.i . i 4.4.5.( 6._ $.[ U  .. . { =.=.=.7.U +.J T y -.-.<.K F k G G 2.G _ . ",
"    # # & # & :.y b b p . K &.&.1 8.<.4 +.*.5 . . . { r 9.9.0 K J l l y 9.} _ . ! 2 ! G k ! _ . ",
"    0 # & # & & y p p d . :.L ..2.6.W [ ^ { O.0.Y 0.4 f q.9.w.*.w.1./ t e.=.r.K F 2.G G 2.G _ . ",
"    # # & # & :.y i c H . K T T 6.W 4 +.U $.    t h g z z = ' . . J / t e.z 8 9 2.! 2.! ! ! &.. ",
"    & # # & - & t x d d 9 l ....X.W $.t.#.O.t p M D >.-.w.w y.. T l Q y @ @ u.5 F 2 ! ! 2.] _ . ",
"    & & & * & & t s 3.b . / T L L 4 O.^ { O.t h V r 9.7.1 ' 5 . K J J t o o 8  .! ] ! 2.] ! _ . ",
"    & # & & - * t s H b 9 J K / J +.t.{ 5 0.p S >.9.7.1 8.[ 5 J K / T t 7.i.q 5 ! 2.r.] ! F ... ",
"    * & & * ; ; y b b b . Q T l L L +.8.y.9.M =.=.7.; p.[ 5 . J T Q l y 6 :.X.. ! F ! F r.( _ . ",
"    & & w.& ; ; y a m m . T K / L L *.L g p r q.7.1 6.J . J J J K / J t a.w.4 5 ! ( r.] ! r.... ",
"    ; * * & ; ; y A   s.s./ %.L L L . L . . *.#.y.d.f.g.r.r.h.h.8.P y.y.y.j.y.j.y.<.<.<.' y _ . ",
"    & & ; ; - = t n t t   t y y   t   t t t y t y.k.l.z.x.c.v.b.n.m.1.M.N.B.V.C.Z.A.S.D.F.  I 9 ",
"    & ; & - ; :   Z Z g h h B h V D D D q.=.q.=.y.G.H.k.l.J.K.L.P.I.U.Y.x.T.R.Y.c.x.E.R.R.  W.. ",
"    ; & - ; - :   Z A S j V j V D D D D q.r | =.y.s.Q.H.H.!.~.^.I.I.T./.(.).(.K._.K.`.~.(.  I . ",
"    & : ; - 1 1 t t F k ;.;.<.;.;.<.<.u.;.u.g.u.y.'.(.].[.{.~.K.c.}.|.{.Q.s. Xl.Y.J.Q..X.X  I . ",
"    : & - 1 : ; k . . . . . . 9 s.s. .9 . 5 . . XXoXU._.|.OX+X@X}.}.b.c.#X X4.k.K./.Q.s.s.  I 9 ",
"    : - : ; : , < 1 A g N A A n r.C C $Xo | 5.F y.v.v.%X%Xc.&XOX*XY.=Xb.I.K.-X].OX;Xk.:X:X  I . ",
"    - ; ; : < > 7 < g p.>X,X-.<X1X- k 2X2Xe 4 O.P _.3X}.b.4X}.K.5X6X7X8X}.@Xx.L.9X8XT.OXOX  I . ",
"    : ; : ; 1 1 > A p.) p.  t y y t y s t t t y j.-Xm.K.L.n.b.=X3XOX-X3X}.3Xx.@Xv.%X9XoXY.  I . ",
"    : > : : > A   5.7.a.e.( ( E ` *.` ` K ` ` K y.H.Q.~./.*Xv.v.I.+X(.T.3XT.z.;Xx.9Xc.J.J.  ;X. ",
"    ; = 1 < : y 5.0X0X5.X w.5.0XX 5.X 0X5.X X 5.y.).1.!.6XOX}.%X=X#XQ.-XJ.#X{.m.OX|._.qXqXs ` . ",
"    : > > 1 > t y t t y t y t y y t y y t y t t y.-X(.6X+X*X8XP.wXY.G.4.1.).(.#XoX_.x.*XT.  T.. ",
"    : : > 1 3 j ..5.h * e.5.a.e.5.$ a.a.i.# 1X= y._.oXU.Y.oXoX3Xb.9XK.6X X).k.J.oX3X*XeXeXH t.. ",
"    , > > 7 < t ..rXd y     t y t t   y t y y y y.}.3XOXJ.-X-X^.v.}._.;X6X'.(.tX[.;XJ.{.yX  Y . ",
"    > 1 7 < w a M M a ,.Z y k Z i r ,.h M j j ,.y.}._.5X~.Q.uX7X}.c.^.-X~.H.uX~.k.[.7XiXiX  I . ",
"    1 3 w : 3 r d g g n r s y p n A A V h j V r <.}.=XI.OX6X(.+XI.*X`.G.).).Q.4.).-XOXpXaX  Y 9 ",
"    : < > 2 1 #.5 5 . { E . . . . . 5 . . . . . y.*X3Xn.wX%XI.|.}.*X).(.+X&Xl.`.(.qXc.A.C.  Y . ",
"    : 2 3 3 3 3 2 w w ) G ) 2 ! ! ! ! ( ] ! ! r.y.k.tX&X@XP.%Xn.=X9XOXl.OX|.x.OXOXx.}.sXdX  I . ",
"    1 3 3 3 w 2 3 2 2 2 G ) G 2 ! ) F ] 2.] ( <.3X X!.(.J.*X}.}.8Xc._.K.OX_.@X3X3Xx.3XR fX  0.. ",
"    2 < w 3 3 2 w 2 2 ) 2 G k 2 k F k k ] k ] 6.W .X4.'.].*X}.9XT.J./.Y.3X@X_.z.#X6XJ.gXrX  Y . ",
"    3 3 2 3 2 2 3 2 2 2 G ) G 2.! 2.] ] k ] ! (                                             T . ",
"    q 8 q 4 q X.4 q 8 4 $XW _ e $X_ _ _ _ I _ _ ....W.I W.I I I I I I I I I I Y I Y I I Y ~ ~ 5 ",
"  . . . . . 5 . 5 . . . . . . . . . . . . . . . . . . . . 9 . 9 . 9 . . . . . . . . . . . . . . "};
