/* XPM */
static char * image_name[] = {
"48 48 227 2",
"  	c None",
". 	c #FFFFFFFFFFFF",
"X 	c #000000000000",
"o 	c #AEBAAAAAAEBA",
"O 	c #A699A699A699",
"+ 	c #A699A289A699",
"@ 	c #9E799E799E79",
"# 	c #9E799A699E79",
"$ 	c #965896589658",
"% 	c #965892489658",
"& 	c #8E388E388E38",
"* 	c #86177DF779E7",
"= 	c #96588E388E38",
"- 	c #514404100820",
"; 	c #71C614511040",
": 	c #69A638E338E3",
"> 	c #8E388A288E38",
", 	c #69A66DB669A6",
"< 	c #861782078E38",
"1 	c #9E799A69AEBA",
"2 	c #C71BCB2BE79D",
"3 	c #CF3CD34CEFBE",
"4 	c #BEFBBAEADF7D",
"5 	c #71C604100820",
"6 	c #BEFB208128A2",
"7 	c #B6DA2CB230C2",
"8 	c #69A614511861",
"9 	c #59652CB230C2",
"0 	c #DF7DDF7DDF7D",
"q 	c #E79DE79DE79D",
"w 	c #C71BC71BC71B",
"e 	c #C71BC30BC71B",
"r 	c #BEFBC30BBEFB",
"t 	c #BEFBBAEABEFB",
"y 	c #B6DAB6DAB6DA",
"u 	c #CF3CCB2BCF3C",
"i 	c #618561856185",
"p 	c #8E388E389658",
"a 	c #9E799A69BEFB",
"s 	c #BEFBC30BDF7D",
"d 	c #CF3CCF3CE79D",
"f 	c #D75CC71BDF7D",
"g 	c #861704100820",
"h 	c #C71B28A228A2",
"j 	c #BEFB4D345965",
"k 	c #BEFB79E78617",
"l 	c #AEBA34D330C2",
"z 	c #DF7DDB6CDF7D",
"x 	c #965896589E79",
"c 	c #492449245965",
"v 	c #410345145965",
"b 	c #38E33CF34924",
"n 	c #2081208128A2",
"m 	c #104014511861",
"M 	c #28A2249230C2",
"N 	c #2081249228A2",
"B 	c #18611C7128A2",
"V 	c #79E779E779E7",
"C 	c #DF7DE38DDF7D",
"Z 	c #9E799A69C71B",
"A 	c #8E388A28B6DA",
"S 	c #9E799E79CF3C",
"D 	c #AEBAAAAAD75C",
"F 	c #A699A699CF3C",
"G 	c #BEFB1C712081",
"H 	c #A69938E34924",
"J 	c #B6DA3CF34103",
"K 	c #71C638E338E3",
"L 	c #618534D338E3",
"P 	c #CF3CCF3CCF3C",
"I 	c #410341034924",
"U 	c #79E77DF78617",
"Y 	c #59655D755965",
"T 	c #861786178617",
"R 	c #71C671C69E79",
"E 	c #BEFB6DB679E7",
"W 	c #B6DA38E338E3",
"Q 	c #9E7945144924",
"! 	c #4924249228A2",
"~ 	c #492420812081",
"^ 	c #410341035144",
"/ 	c #28A2249228A2",
"( 	c #FFFFFBEEFFFF",
") 	c #69A66DB671C6",
"_ 	c #186118612081",
"` 	c #B6DAB6DADF7D",
"' 	c #861779E79E79",
"] 	c #71C608200820",
"[ 	c #B6DA0C301040",
"{ 	c #AEBA38E338E3",
"} 	c #71C634D338E3",
"| 	c #41031C712081",
" .	c #69A669A66185",
"..	c #861782078617",
"X.	c #D75CD75CD75C",
"o.	c #71C671C671C6",
"O.	c #71C675D679E7",
"+.	c #A699A289CF3C",
"@.	c #618504100820",
"#.	c #B6DA49245144",
"$.	c #C71B86178E38",
"%.	c #410320812081",
"&.	c #38E328A230C2",
"*.	c #69A669A669A6",
"=.	c #79E77DF779E7",
"-.	c #38E33CF34103",
";.	c #6185618569A6",
":.	c #10400C301040",
">.	c #B6DA18611861",
",.	c #AEBA34D338E3",
"<.	c #AEBA69A671C6",
"1.	c #BEFB38E338E3",
"2.	c #514455555144",
"3.	c #CF3CD34CCF3C",
"4.	c #9E799E79A699",
"5.	c #514455555965",
"6.	c #596559655965",
"7.	c #79E77DF79E79",
"8.	c #8E388E389E79",
"9.	c #BEFB18611861",
"0.	c #C71B49244103",
"q.	c #C71B7DF779E7",
"w.	c #618530C230C2",
"e.	c #410345144103",
"r.	c #596559656185",
"t.	c #28A22CB230C2",
"y.	c #B6DA51446185",
"u.	c #28A22CB238E3",
"i.	c #49244D344924",
"p.	c #EFBEF3CEEFBE",
"a.	c #EFBEEFBEEFBE",
"s.	c #BEFBB6DABEFB",
"d.	c #CF3CA699AEBA",
"f.	c #BEFB10401861",
"g.	c #A6992CB238E3",
"h.	c #A699659569A6",
"j.	c #28A2208128A2",
"k.	c #28A228A228A2",
"l.	c #492404100820",
"z.	c #B6DA51445965",
"x.	c #CF3C71C671C6",
"c.	c #596534D338E3",
"v.	c #410318611861",
"b.	c #18610C301040",
"n.	c #18611C711861",
"m.	c #71C675D671C6",
"M.	c #FFFFEFBEEFBE",
"N.	c #AEBA69A679E7",
"B.	c #618538E338E3",
"V.	c #186110401040",
"C.	c #08200C300820",
"Z.	c #EFBEE79DD75C",
"A.	c #B6DA79E779E7",
"S.	c #082004100000",
"D.	c #28A22CB228A2",
"F.	c #A6999E799E79",
"G.	c #208114511861",
"H.	c #30C230C230C2",
"J.	c #410341034103",
"K.	c #618549244924",
"L.	c #30C22CB228A2",
"P.	c #38E318611861",
"I.	c #30C234D338E3",
"U.	c #104004100820",
"Y.	c #38E33CF338E3",
"T.	c #38E338E338E3",
"R.	c #618565956185",
"E.	c #CF3CE38DFFFF",
"W.	c #965892488617",
"Q.	c #F7DEF3CEE79D",
"!.	c #EFBEEBADDF7D",
"~.	c #FFFFFBEEEFBE",
"^.	c #492455555144",
"/.	c #51448207D75C",
"(.	c #30C2451479E7",
").	c #596571C6A699",
"_.	c #492465959E79",
"`.	c #514469A69E79",
"'.	c #51446DB6A699",
"].	c #69A671C671C6",
"[.	c #C71BDF7DFFFF",
"{.	c #9E799A6969A6",
"}.	c #D75CCB2BBEFB",
"|.	c #BEFBB6DAA699",
" X	c #BEFBBAEAAEBA",
".X	c #104028A24103",
"XX	c #B6DACF3CFFFF",
"oX	c #AEBAAEBAAEBA",
"OX	c #79E779E771C6",
"+X	c #8E3871C65144",
"@X	c #861769A65144",
"#X	c #965879E75965",
"$X	c #20810C300000",
"%X	c #5965451430C2",
"&X	c #B6DAD34CFFFF",
"*X	c #49242CB21040",
"=X	c #861765954924",
"-X	c #28A21C710820",
";X	c #C71BC30BBEFB",
":X	c #A699A2899658",
">X	c #596559654103",
",X	c #38E338E32081",
"<X	c #30C22CB21861",
"1X	c #208120811861",
"2X	c #38E3410328A2",
"3X	c #AEBAB6DAC71B",
"4X	c #51444D3438E3",
"5X	c #596555555144",
"6X	c #596555554924",
"7X	c #618561855144",
"8X	c #618561855965",
"9X	c #186118610820",
"0X	c #C71BCB2BCF3C",
"qX	c #96588E388617",
"wX	c #71C669A638E3",
"eX	c #71C671C66185",
"rX	c #5965555530C2",
"tX	c #861782072081",
"yX	c #9E79924838E3",
"uX	c #186110400000",
"iX	c #104008200000",
"pX	c #28A220810000",
"aX	c #AEBAAAAAB6DA",
"sX	c #BEFBCF3CE79D",
"dX	c #96589A699E79",
"fX	c #9E79A289A699",
"gX	c #EFBEF3CEFFFF",
"                                                                                                ",
"  . . . . . . . . . . . . . . . . . . . . X X . . . . . . . . . . . . . . . . . . . . X X X     ",
"  . o o O O + + + @ @ # # # $ $ % % % & X X X . o o O O + + + @ @ # # # $ * & % % & X X X X X   ",
"  . o O O + + + @ @ # # # $ $ $ % % & & X X X . o O O + + + @ @ # # # = - ; : % & & X X X X X   ",
"  . O O % # $ $ $ % % % & & & > > , & > X X X . O O O + # < < 1 2 3 4 5 6 7 8 9 & & X X X X X   ",
"  . O O 0 q w w e e r r t t y u q i > > X X X . O + + p a s d d 3 f g h j k l 9 : > X X X X X   ",
"  . O + z x c v b n m M M N B V C i > > X X X . O + + > Z A S D F 5 G H k J K L 8 > X X X X X   ",
"  . + + 0 x c c n X X P I M B U C Y > T X X X . + + @ > S 4 S R 5 h H E W Q ! ! ~ T X X X X X   ",
"  . + @ z x v ^ m / $ ( ) n _ V 0 Y T T X X X . + @ @ > S ` ' ] [ j E { } : 9 |  ...X X X X X   ",
"  . @ @ X.$ ^ ^ B o.. q / B m O.0 Y T T X X X . @ @ @ T +.D @.6 #.$.{ } L %.~ &.*.=.X X X X X   ",
"  . @ @ X.$ b b N -.;.n m m :.o.z Y T ..X X X . @ @ # T ' @.>.,.<.1.} } &.| &./ 2.o.X X X X X   ",
"  . @ # 3.x b p O.< 4.% V *.5.o.X.6.....X X X . @ # 7.8.5 9.0.q.W } w.%.| &.-.n e.*.X X X X X   ",
"  . # # 3.& -.c b -.r.t.I m n *.X.6...=.X X X . # # R 5 G y.k W } L | ~ M u.u.B i.*.X X X X X   ",
"  . # # 3.p.a.a.q q q C C C 0 s.d.6.=.=.X X X . # # - f.g.h.J } L | | j.M M u.k.6.o.X X X X X   ",
"  . # $ , , r w e r r r r r r 2.Y Y =.=.X X X . # l.f.z.x.l } c.v.%.b.n M n n.i., V X X X X X   ",
"  . $ $ % ..m.m.m.m.m.m.m.m., i =.=.=.V X X X M.5 >.#.N.W } B.! | V.C.B m B i., V V X X X X X   ",
"  . $ % % % , & & & & & & p 2.=.=.=.V V X X X Z.5 Q A.l } 9 | | j.S.C.m D.2., V V V X X X X X   ",
"  . $ % % & $ o o o o o O O % =.=.=.V V X X S.( F.%.g.} L | ~ G.m / H.J.6., V V V V X X X X X   ",
"  . % % p & > > > T T ......=.=.V V V m.X X C.P w K.| ! %.| L.H.H.H.J.6.o.V =.V V m.X X X X X   ",
"  . % p & & > > T T T ....=.=.=.V V V m.X X P y 6.e.%.P.v.L.H.H.I.J.6.o.V V V V V m.X X X X X   ",
"  . X X X X X X X X X X X X X X X X X X X P o.i H.D.S.U.S.X X X X X X X X X X X X X X X X X X   ",
"  X X X X X X X X X X X X X X X X X X n.3.o.2.k./ C.X X X X X X X X X X X X X X X X X X X X X   ",
"  X X X X X X X X X X X X X X X X X X P Y i.k./ S.X X X X X X X X X X X X X X X X X X X X X X   ",
"  . . . . . . . . . . . . . . . . . P T i D./ J.D.k./ k.D.Y.2.*.o.m.m.m.m.m.m.m.m.m.m.X X X X   ",
"  . o o O O + + + @ @ # # # $ $ % P T 2./ n X I.X X X X X X X X X X X X X X X X X X X X X X     ",
"  . o O O + + + @ @ # # # $ $ # u V 6.H.n.X X D.X X X X X # , o.w T.o.o o.T.X X X X X X X X     ",
"  . O O R.R.R.R.R.R.R.R.R.R.R.3.*.i.D.e.X X X H.X X X X X o 2.& o 2.& o & n.X X X X X X X X     ",
"  . O O R.E.W.Q.!.!.Q.Q.~.~.w U ^.Y.i.i.X X X J.X X X X X X X X X X X X X X X X X X X X X X     ",
"  . O + R./.(.)._.`.'.'.).P ].i.H.& i.I.X X X w $ @ + @ @ # # # # $ $ % % % & & & > X X X X     ",
"  . + + R.[.{.Z.}.|.Z. XX.o.I D..X=.I.H.X X X a.@ + @ @ # # # $ $ $ % % % p & & > > X X X X     ",
"  . + @ R.XXU y $ $ oX3.OXe.H.+X@XY H.T.X X X . @ @ @ # # # + q q p.P @ p & & > > T X X X X     ",
"  . @ @ R.XX> y $ J.i.p Y.H.#X$X%X6.T.2.X X X . @ @ # # # # y . n T.C X.=.& > > T T X X X X     ",
"  . @ @ R.&X> 3.y O.k.I.Y.*X=X$X-Xo.2., X X X . @ # # # $ $ @ $ X % X.. n.> > T T T X X X X     ",
"  . @ # R.E.4.P ;XX.:XY.>X,X<X1X2XO , =.X X X . # # # $ $ $ % ..i & q q X > T T T ..X X X X     ",
"  . # # R.3Xe t {.4XD.5X .6X7X8X9X3.=.=.X X X . # # $ $ $ % % % # z p.2.C.> T T ....X X X X     ",
"  . # # R.0Xy y qXH.wXeX>XrXtXyXuXq =.=.X X X . # $ $ $ $ % % & z w e.C.*.T T ......X X X X     ",
"  . # $ R.E.r y k.rX<X2X9XX iX<XpXa.=.=.X X X . $ $ $ % % % & & z D.Y.V T T ......=.X X X X     ",
"  . $ $ R.[.R.m.*.e.D.B -.r.x aXk.a.=.V X X X . $ $ % % % p & & O D.T T T ......=.=.X X X X     ",
"  . $ % R.sX, , e.I *.6.dXfXaXgX3Xa.V V X X X . $ % % % p & & + . P T T ......=.=.=.X X X X     ",
"  . % % 0 y .., o.V T o 3.q a.a.a.a.V V X X X . % % % p & & > $ P 2.D.......=.=.=.V X X X X     ",
"  . % & ..i J.I.J.i.i o.=...=.=.V V V V X X X . % % p & & > > T V D.2.....=.=.=.V V X X X X     ",
"  . % & T , i.Y.i.R.m.=.=.=.=.=.V V m.m.X X X . % p & & > > T T T ......=.=.=.V V m.X X X X     ",
"  . X X X X X X X X X X X X X X X X X X X X X . X X X X X X X X X X X X X X X X X X X X X X     ",
"  X X X X X X X X X X X X X X X X X X X X X X X X X X X X X X X X X X X X X X X X X X X X X     ",
"  X X X X X X X X X X X X X X X X X X X X X X X X X X X X X X X X X X X X X X X X X X X X X     ",
"  X X X X X X X X X X X X X X X X X X X X X X X X X X X X X X X X X X X X X X X X X X X X X     ",
"    X X X X X X X X X X X X X X X X X X X X X X X X X X X X X X X X X X X X X X X X X X X X     ",
"                                                                                                "};
