/* XPM */
static char * iconprefs_xpm[] = {
"48 48 405 2",
"  	c None",
". 	c #2C2C2C",
"+ 	c #FEFEFE",
"@ 	c #8E8B8E",
"# 	c #8F8B8F",
"$ 	c #8F8C8F",
"% 	c #908C90",
"& 	c #918D91",
"* 	c #928E92",
"= 	c #928F92",
"- 	c #938F93",
"; 	c #949094",
"> 	c #959195",
", 	c #969296",
"' 	c #969396",
") 	c #979497",
"! 	c #989598",
"~ 	c #999699",
"{ 	c #9A969A",
"] 	c #9B979B",
"^ 	c #9C989C",
"/ 	c #9C999C",
"( 	c #9E9A9E",
"_ 	c #9D999D",
": 	c #908D90",
"< 	c #939093",
"[ 	c #949194",
"} 	c #959295",
"| 	c #979397",
"1 	c #989498",
"2 	c #999599",
"3 	c #9A979A",
"4 	c #9D9A9D",
"5 	c #9E9B9E",
"6 	c #9F9B9F",
"7 	c #908E90",
"8 	c #A8A8A8",
"9 	c #A7A7A7",
"0 	c #A5A5A5",
"a 	c #A4A4A4",
"b 	c #A2A2A2",
"c 	c #A0A0A0",
"d 	c #9F9F9F",
"e 	c #9D9D9D",
"f 	c #9C9C9C",
"g 	c #9A9A9A",
"h 	c #989898",
"i 	c #979797",
"j 	c #959595",
"k 	c #949494",
"l 	c #929292",
"m 	c #909090",
"n 	c #8F8F8F",
"o 	c #8D8D8D",
"p 	c #000000",
"q 	c #A09CA0",
"r 	c #918E91",
"s 	c #A1A1A1",
"t 	c #8C8C8C",
"u 	c #A19DA1",
"v 	c #969696",
"w 	c #919191",
"x 	c #8B8B8B",
"y 	c #8A8A8A",
"z 	c #888888",
"A 	c #6C6C6C",
"B 	c #A09DA0",
"C 	c #A19EA1",
"D 	c #DDDDDD",
"E 	c #E6E6E6",
"F 	c #C6C6C5",
"G 	c #C5C5C3",
"H 	c #C3C3C1",
"I 	c #C2C2C1",
"J 	c #C0C0C0",
"K 	c #BFBFBF",
"L 	c #BCBCBC",
"M 	c #BBBBBB",
"N 	c #B6B6B6",
"O 	c #CACACA",
"P 	c #E7E7E7",
"Q 	c #5F5F5F",
"R 	c #898989",
"S 	c #A29EA2",
"T 	c #A3A3A3",
"U 	c #DADADA",
"V 	c #949499",
"W 	c #46445B",
"X 	c #434257",
"Y 	c #3D3C4E",
"Z 	c #1F1E27",
"` 	c #121218",
" .	c #262630",
"..	c #242330",
"+.	c #22212E",
"@.	c #1A1924",
"#.	c #79797D",
"$.	c #E1E1E1",
"%.	c #5E5E5E",
"&.	c #878787",
"*.	c #A39FA3",
"=.	c #889088",
"-.	c #434343",
";.	c #3F5D3F",
">.	c #292929",
",.	c #3E5D3E",
"'.	c #5C5C5C",
").	c #959599",
"!.	c #49485C",
"~.	c #484659",
"{.	c #212127",
"].	c #CDCDCD",
"^.	c #414147",
"/.	c #23222E",
"(.	c #1B1B25",
"_.	c #7B7A7F",
":.	c #5D5D5D",
"<.	c #868686",
"[.	c #A4A0A4",
"}.	c #9E9E9E",
"|.	c #7F7F7F",
"1.	c #314231",
"2.	c #3B723B",
"3.	c #244324",
"4.	c #577657",
"5.	c #949294",
"6.	c #D8D8D8",
"7.	c #969597",
"8.	c #444358",
"9.	c #454255",
"0.	c #101013",
"a.	c #242424",
"b.	c #939393",
"c.	c #FAFAFA",
"d.	c #6D6C72",
"e.	c #1F1E29",
"f.	c #17161F",
"g.	c #77777C",
"h.	c #DEDEDE",
"i.	c #848484",
"j.	c #A3A0A3",
"k.	c #AFAFAF",
"l.	c #224222",
"m.	c #060606",
"n.	c #517151",
"o.	c #ADCDAD",
"p.	c #D5D5D5",
"q.	c #969596",
"r.	c #424052",
"s.	c #414050",
"t.	c #1C1A20",
"u.	c #6F6F6F",
"v.	c #FDFDFD",
"w.	c #24242A",
"x.	c #1A1A23",
"y.	c #13121A",
"z.	c #757579",
"A.	c #DBDBDB",
"B.	c #838383",
"C.	c #A5A1A5",
"D.	c #355435",
"E.	c #326132",
"F.	c #254425",
"G.	c #68A068",
"H.	c #DBFBDB",
"I.	c #C4FCC4",
"J.	c #B1D2B1",
"K.	c #858585",
"L.	c #9B9B9B",
"M.	c #D4D4D4",
"N.	c #969695",
"O.	c #3D3C4C",
"P.	c #3C3A4A",
"Q.	c #21212C",
"R.	c #393841",
"S.	c #5F5F67",
"T.	c #1F1F26",
"U.	c #111018",
"V.	c #15141D",
"W.	c #0C0C12",
"X.	c #717174",
"Y.	c #D9D9D9",
"Z.	c #5B5B5B",
"`.	c #818181",
" +	c #A6A2A6",
".+	c #999999",
"++	c #2A2A2A",
"@+	c #424242",
"#+	c #96B696",
"$+	c #CECECE",
"%+	c #C2E2C2",
"&+	c #C1C1C1",
"*+	c #D2D2D2",
"=+	c #939395",
"-+	c #393849",
";+	c #8C8B92",
">+	c #75757D",
",+	c #838289",
"'+	c #9B9B9F",
")+	c #8F8F94",
"!+	c #78777C",
"~+	c #69696E",
"{+	c #535357",
"]+	c #6F6F71",
"^+	c #D6D6D6",
"/+	c #5A5A5A",
"(+	c #808080",
"_+	c #A7A3A7",
":+	c #EAE9EA",
"<+	c #678667",
"[+	c #807D7F",
"}+	c #375636",
"|+	c #828282",
"1+	c #D1D1D1",
"2+	c #8D8D8E",
"3+	c #2F2C3E",
"4+	c #52515D",
"5+	c #3C3B47",
"6+	c #383742",
"7+	c #5A5961",
"8+	c #2E2E35",
"9+	c #3E3D43",
"0+	c #151419",
"a+	c #202023",
"b+	c #69696B",
"c+	c #D3D3D3",
"d+	c #595959",
"e+	c #7E7E7E",
"f+	c #99B899",
"g+	c #BFDCBF",
"h+	c #A2D8A2",
"i+	c #A1BEA1",
"j+	c #7FB680",
"k+	c #CFCFCF",
"l+	c #F1F1F1",
"m+	c #EFEEEF",
"n+	c #EBEBEB",
"o+	c #E8E8E6",
"p+	c #E6E6E4",
"q+	c #E3E3E3",
"r+	c #E2E2E2",
"s+	c #E0E0E0",
"t+	c #DCDCDC",
"u+	c #BFB4B9",
"v+	c #CEA6A9",
"w+	c #585858",
"x+	c #7D7D7D",
"y+	c #A8A4A8",
"z+	c #F3F3F3",
"A+	c #B0AEB1",
"B+	c #6A896A",
"C+	c #605E60",
"D+	c #779577",
"E+	c #151515",
"F+	c #6E6E6E",
"G+	c #C3C3C3",
"H+	c #C2C2C2",
"I+	c #565656",
"J+	c #7B7B7B",
"K+	c #A9A5A9",
"L+	c #D9F9D9",
"M+	c #92AF91",
"N+	c #7BB17B",
"O+	c #739273",
"P+	c #6BA26B",
"Q+	c #496849",
"R+	c #737373",
"S+	c #747474",
"T+	c #6D6D6D",
"U+	c #7C7C7C",
"V+	c #7A7A7A",
"W+	c #A8A5A8",
"X+	c #A9A6A9",
"Y+	c #B0AFB0",
"Z+	c #658464",
"`+	c #504F50",
" @	c #4B6B4B",
".@	c #464646",
"+@	c #8E8E8E",
"@@	c #545454",
"#@	c #787878",
"$@	c #AAA6AA",
"%@	c #9B989B",
"&@	c #A9A9A9",
"*@	c #A6A6A6",
"=@	c #797979",
"-@	c #777777",
";@	c #ABA7AB",
">@	c #767676",
",@	c #ACA8AC",
"'@	c #ABA8AB",
")@	c #ACA9AC",
"!@	c #ADA9AD",
"~@	c #2F2F2F",
"{@	c #030303",
"]@	c #0C0404",
"^@	c #030000",
"/@	c #8E8A8E",
"(@	c #AEAAAE",
"_@	c #262626",
":@	c #1C1C1C",
"<@	c #707070",
"[@	c #C5C5C5",
"}@	c #373737",
"|@	c #1B1B1B",
"1@	c #011D1E",
"2@	c #2F494B",
"3@	c #24383B",
"4@	c #031B22",
"5@	c #011D24",
"6@	c #051E24",
"7@	c #334649",
"8@	c #35474A",
"9@	c #10272A",
"0@	c #02181B",
"a@	c #022226",
"b@	c #294348",
"c@	c #D4E2E5",
"d@	c #324C4F",
"e@	c #01292C",
"f@	c #012A2D",
"g@	c #234347",
"h@	c #809A9C",
"i@	c #05272A",
"j@	c #002224",
"k@	c #003033",
"l@	c #033333",
"m@	c #6B8E8F",
"n@	c #BFD3D4",
"o@	c #214A48",
"p@	c #03333A",
"q@	c #043235",
"r@	c #5E8184",
"s@	c #013134",
"t@	c #002F2F",
"u@	c #FBFBFB",
"v@	c #CCCCCC",
"w@	c #033840",
"x@	c #033C43",
"y@	c #416F74",
"z@	c #4C777C",
"A@	c #C6CFD8",
"B@	c #164D53",
"C@	c #063B44",
"D@	c #5E868B",
"E@	c #013B43",
"F@	c #02383B",
"G@	c #B8B8B8",
"H@	c #1F1F1F",
"I@	c #383838",
"J@	c #02464F",
"K@	c #034A52",
"L@	c #3D7A7F",
"M@	c #025053",
"N@	c #5F8F93",
"O@	c #B2CBC8",
"P@	c #105054",
"Q@	c #5F9298",
"R@	c #014A54",
"S@	c #01464C",
"T@	c #1E1E1E",
"U@	c #035560",
"V@	c #06575C",
"W@	c #448489",
"X@	c #065A65",
"Y@	c #055F62",
"Z@	c #7FB1B3",
"`@	c #9BB9BE",
" #	c #6A9CA0",
".#	c #045661",
"+#	c #00555D",
"@#	c #E4E4E4",
"##	c #114A52",
"$#	c #184246",
"%#	c #779094",
"&#	c #0C2224",
"*#	c #041516",
"=#	c #0A191E",
"-#	c #4F534F",
";#	c #394A4D",
">#	c #14414A",
",#	c #14535A",
"'#	c #F0F0F0",
")#	c #4F4F4F",
"!#	c #0E0E0E",
"~#	c #010303",
"{#	c #393837",
"]#	c #616365",
"^#	c #252626",
"/#	c #010101",
"(#	c #020000",
"_#	c #010206",
":#	c #C4C4C4",
"<#	c #686868",
"[#	c #010100",
"}#	c #020201",
"|#	c #040003",
"1#	c #020202",
"2#	c #000100",
"3#	c #D7D7D7",
"4#	c #2D2D2D",
"5#	c #3C3C3C",
"6#	c #000101",
"7#	c #000200",
"8#	c #2B2B2B",
". . . . . . . . . . . . . . . . . . . . . . . . . . . . . . . . . . . . . . . . . . . . . . . + ",
". @ # $ % & * = - ; > > , ' ) ) ! ~ ~ { ] ^ / ( ( _ / ^ ] { ~ ~ ! ) ) ' , > > ; - = * & % $ # + ",
". # % : & * - < < [ } } ' | 1 1 2 { 3 ] ^ _ 4 ( 5 ( 4 _ ^ ] 3 { 2 1 1 | ' } } [ < < - * & : % + ",
". % : + + + + + + + + + + + + + + + + + + + + 5 6 + + + + + + + + + + + + + + + + + + + + 7 : + ",
". : & + 8 9 0 a b c d e f g h i j k l m n o p 6 q + 8 9 0 a b c d e f g h i j k l m n o p r & + ",
". & * + 9 0 a b s d e f g h i j k l m n o t p q u + 9 0 a b s d e f g h i j k l m n o t p = * + ",
". * - + 0 a m i v j k l w n o t x y z A t y p B C + 0 a b s d e f g h i j k l m n o t y p < - + ",
". = - + a b D E F G H I J K L M N O P Q y R p u S + a b d p p p p p p p p p p p + t y R p < - + ",
". - ; + T s U V W X Y Z `  ...+.@.#.$.%.R &.p S *.+ T f d p R Q R =.c -.;.>.,.'.+ t x R p [ ; + ",
". ; [ + s d U ).!.~.{.p p ].^./.(._.$.:.&.<.p *.[.+ }.d e p =.|.=.|.n 1.2.3.2.4.+ x R z p 5.[ + ",
". ; > + c }.6.7.8.9.0.a.b.c.d.e.f.g.h.'.<.i.p j.[.+ d e f p k.K k.l.m.m.n.L o.a + R z <.p } > + ",
". > , + }.f p.q.r.s.t.u.v.P w.x.y.z.A.'.i.B.p [.C.+ e f g p D.E.l.2.F.3.G.H.I.J.+ z <.K.p ' , + ",
". , | + e L.M.N.O.P.Q.R.S.T.U.V.W.X.Y.Z.B.`.p C. ++ f g .+p ++F.m.F.@+|.#+$+%+&++ <.K.B.p ) | + ",
". , | + L.g *+=+-+;+>+,+'+)+!+~+{+]+^+/+`.(+p  +_++ g .+h p ++F.m.3.|.:+<+[+}+n + K.B.|+p ) | + ",
". | 1 + g h 1+2+3+4+5+6+7+8+9+0+a+b+c+d+(+e+p  +_++ .+h v p ;.2.n.G.f+g+h+i+j+D.+ B.|+`.p ! 1 + ",
". 1 2 + h i k+l+m+n+o+p+q+r+s+s+t+u+v+w+e+x+p _+y++ h v j p >.3.L H.z+A+B+C+D+E++ |+`.|.p ~ 2 + ",
". 1 2 + i j F+A K G+H+&+&+J J &+K I+Z.:.x+J+p y+K++ v j b.p ,.2.o.I.L+M+N+O+P+Q++ `.|.e+p ~ 2 + ",
". 2 { + j k l (+R+S+R+R+R+R+R+S+T+Q U+U+U+V+p W+X++ j b.l p '.4.a J.&+Y+Z+`+ @.@+ |.e+U+p 3 { + ",
". { ] + k l w n F+t o o o o o +@@@x+x+U+V+#@p K+$@+ b.l m + + + + + + + + + + + + e+U+J+p %@] + ",
". { ] + l w n o l 8 &@9 9 *@a a l x+U+V+=@-@p $@;@+ l m n +@t x R z <.K.B.|+`.|.e+U+J+=@p %@] + ",
". ] ^ + w n +@t y R &.<.i.|+`.|.e+U+V+=@-@>@p ;@,@+ m n +@t x R z <.i.|+`.`.|.e+U+J+=@#@p / ^ + ",
". ^ _ + n +@t x R &.<.i.B.`.|.e+U+V+=@-@>@S+p '@)@+ n +@t x R z <.K.B.|+`.|.e+U+J+=@#@>@p 4 _ + ",
". ^ _ + p p p p p p p p p p p p p p p p p p p ,@!@+ ~@p {@]@^@p p p p p p p p p p p p p p 4 _ + ",
". /@( 5 6 q u C S *.[.[.C. +_+_+y+K+X+$@;@,@)@!@(@!@)@,@;@$@X+K+y+_+_+ +C.[.[.*.S C u q 6 5 ( + ",
". /@_ 4 ( 6 q B u S *.*.[.C. + +_+y+W+K+$@;@'@,@!@,@'@;@$@K+W+y+_+ + +C.[.*.*.S u B q 6 ( 4 _ + ",
". /@_ + + + + + + + + + + + + + + + + + + + + '@)@p p p p p p p p p p p p p p p p p p p p 4 _ + ",
". /@^ + 8 9 0 a b c d e f g h i j k l m n o _@;@,@p p p p p p p p p p p p p p p p p p p p / ^ + ",
". /@] + 9 0 a b s d e f g h i j k l m n o t :@$@;@p p p p p p g T+<@[@}@<@&@<@}@p p p p p %@] + ",
". /@] + 0 a b s d e f g h i j k l m n o t y p K+$@p p p p p p 9 @@t &@@@t &@t |@p p p p p %@] + ",
". /@{ + a b d p p p p p p p p p p p + t y R p W+X+p p p p p p p p p p p p p p p p p p p p 3 { + ",
". /@2 + T f d p 1@2@3@4@5@6@7@8@9@0@+ t x R p y+K++ b.f d e f g .+h v j b.l m n +@t x R p ~ 2 + ",
". /@2 + }.d e p a@b@c@d@e@f@g@h@i@j@+ x R z p _+y++ }.d e f g .+h v j b.l m n +@t x R z p ~ 2 + ",
". /@1 + d e f p k@l@m@n@o@p@q@r@s@t@+ R z <.p  +_+u@d e f g .+h s E E l+v@L.+@t x R z <.p ! 1 + ",
". /@| + e f g p w@x@y@z@A@B@C@D@E@F@+ z <.K.p  +_++ e f g .+h v G@+ H@I@r+c+U+x R z <.K.p ) | + ",
". /@| + f g .+p J@K@L@M@N@O@P@Q@R@S@+ <.K.B.p C. ++ f g .+h v j }.j p n c++ T@R z <.K.B.p ) | + ",
". /@, + g .+h p U@V@W@X@Y@Z@`@ #.#+#+ K.B.|+p [.C.+ g .+h v j b.l (+Q +@@#E p z <.K.B.|+p ' , + ",
". /@> + .+h v p ##$#%#&#*#=#-#;#>#,#+ B.|+`.p j.[.+ .+h v j b.l m n g 6.'#)#!#<.K.B.|+`.p } > + ",
". /@[ + h v j p ~#{#]#^#/#p p p (#_#+ |+`.|.p *.[.+ h v j b.l m n +@6.:#-.!#<#K.B.|+`.|.p 5.[ + ",
". /@; + v j b.p [#}#|#1#/#p p p 2#(#+ `.|.e+p S *.+ v j b.l m n +@t 3#4#5#-@K.B.|+`.|.e+p [ ; + ",
". /@- + j b.l p 2#p p p p p p p 6#7#+ |.e+U+p u S + j b.l m n +@t x b . <.K.B.|+`.|.e+U+p < - + ",
". /@- + b.l m + + + + + + + + + + + + e+U+J+p B C + b.l m n +@t x b + v@K.B.|+`.|.e+U+J+p < - + ",
". /@* + l m n +@t x R z <.K.B.|+`.|.e+U+J+=@p q u + l m n +@t x R k v@@@8#|+`.|.e+U+J+=@p = * + ",
". /@& + m n +@t x R z <.i.|+`.`.|.e+U+J+=@#@p 6 q + m n +@t x R z <.>@8#I+`.|.e+U+J+=@#@p r & + ",
". /@: + n +@t x R z <.K.B.|+`.|.e+U+J+=@#@>@p 5 6 + n +@t x R z <.K.B.|+`.|.e+U+J+=@#@>@p 7 : + ",
". /@% + p p p p p p p p p p p p p p p p p p p ( 5 + p p p p p p p p p p p p p p p p p p p : % + ",
". /@# $ % & * = - ; > > , ' ) ) ! ~ ~ { ] ^ / _ ( _ / ^ ] { ~ ~ ! ) ) ' , > > ; - = * & % $ # + ",
". /@/@/@/@/@/@/@/@/@/@/@/@/@/@/@/@/@/@/@/@/@/@/@/@/@/@/@/@/@/@/@/@/@/@/@/@/@/@/@/@/@/@/@/@/@/@+ ",
"+ + + + + + + + + + + + + + + + + + + + + + + + + + + + + + + + + + + + + + + + + + + + + + + + "};
