/* XPM */
static char * image_name[] = {
"48 48 179 2",
"  	c #000000000000",
". 	c #69A669A66185",
"X 	c #71C675D671C6",
"o 	c #965892488E38",
"O 	c #A699A2899E79",
"+ 	c #8E38820779E7",
"@ 	c #61855D755144",
"# 	c #61855D755965",
"$ 	c #618561855965",
"% 	c #8E388A288617",
"& 	c #A6999E799E79",
"* 	c #9E799A699658",
"= 	c #71C671C669A6",
"- 	c #618559655144",
"; 	c #69A665955965",
": 	c #9E7996589658",
"> 	c #9E7992488E38",
", 	c #A69996589658",
"< 	c #96588A288E38",
"1 	c #8E387DF779E7",
"2 	c #8617820779E7",
"3 	c #F7DEEFBEEFBE",
"4 	c #69A65D755965",
"5 	c #DF7DD34CCF3C",
"6 	c #DF7DCF3CCF3C",
"7 	c #EFBEE79DDF7D",
"8 	c #C71BBAEAB6DA",
"9 	c #38E334D330C2",
"0 	c #28A224922081",
"q 	c #4924492438E3",
"w 	c #B6DAB2CAAEBA",
"e 	c #861769A671C6",
"r 	c #CF3CBAEAB6DA",
"t 	c #EFBEDF7DD75C",
"y 	c #E79DCF3CCF3C",
"u 	c #DF7DCF3CC71B",
"i 	c #DF7DDB6CD75C",
"p 	c #30C22CB228A2",
"a 	c #38E334D328A2",
"s 	c #4924451438E3",
"d 	c #79E771C669A6",
"f 	c #DF7DD75CCF3C",
"g 	c #E79DDB6CD75C",
"h 	c #71C66DB66185",
"j 	c #30C228A22081",
"k 	c #41033CF330C2",
"l 	c #618559654924",
"z 	c #AEBAA2899E79",
"x 	c #E79DD75CD75C",
"c 	c #C71BC30BBEFB",
"v 	c #596555555965",
"b 	c #861775D671C6",
"n 	c #E79DD34CCF3C",
"m 	c #F7DEE79DE79D",
"M 	c #79E769A65965",
"N 	c #69A65D755144",
"B 	c #596549244103",
"V 	c #69A655555144",
"C 	c #C71BB2CAAEBA",
"Z 	c #DF7DCB2BC71B",
"A 	c #A6999A699658",
"S 	c #79E769A66185",
"D 	c #DF7DD75CD75C",
"F 	c #618555554924",
"G 	c #9E7992488617",
"H 	c #E79DDF7DDF7D",
"J 	c #DF7DC71BC71B",
"K 	c #CF3CCB2BC71B",
"L 	c #596559655965",
"P 	c #AEBA9A699658",
"I 	c #71C665955965",
"U 	c #9E79861779E7",
"Y 	c #BEFBBEFBB6DA",
"T 	c #965886178617",
"R 	c #B6DAAAAAA699",
"E 	c #69A661855965",
"W 	c #861775D669A6",
"Q 	c #D75CD34CCF3C",
"! 	c #DF7DC71BBEFB",
"~ 	c #E79DE38DDF7D",
"^ 	c #9E798E388617",
"/ 	c #A6998E388617",
"( 	c #9658861779E7",
") 	c #D75CC30BBEFB",
"_ 	c #F7DEE38DDF7D",
"` 	c #59654D344103",
"' 	c #96587DF771C6",
"] 	c #596555554924",
"[ 	c #D75CCF3CCF3C",
"{ 	c #EFBEDB6CD75C",
"} 	c #EFBEEBADE79D",
"| 	c #596551444103",
" .	c #492441034103",
"..	c #B6DA9A699658",
"X.	c #69A661855144",
"o.	c #F7DEDF7DDF7D",
"O.	c #8E3875D669A6",
"+.	c #D75CCB2BC71B",
"@.	c #9658820771C6",
"#.	c #492449244103",
"$.	c #AEBA96589658",
"%.	c #79E76DB66185",
"&.	c #861771C669A6",
"*.	c #EFBEE38DDF7D",
"=.	c #71C669A65965",
"-.	c #CF3CC71BBEFB",
";.	c #B6DAA6999E79",
":.	c #AEBAA2899658",
">.	c #A69996588E38",
",.	c #8E387DF771C6",
"<.	c #BEFBB6DAB6DA",
"1.	c #41033CF338E3",
"2.	c #AEBA96588E38",
"3.	c #71C65D755965",
"4.	c #71C661855144",
"5.	c #5144451438E3",
"6.	c #51444D344103",
"7.	c #69A659654924",
"8.	c #514451444103",
"9.	c #861779E769A6",
"0.	c #618561855144",
"q.	c #AEBA92488617",
"w.	c #861775D66185",
"e.	c #69A669A65965",
"r.	c #79E765955965",
"t.	c #96587DF769A6",
"y.	c #596559654924",
"u.	c #861779E771C6",
"i.	c #4103410330C2",
"p.	c #79E771C66185",
"a.	c #38E338E330C2",
"s.	c #71C661855965",
"d.	c #5144492438E3",
"f.	c #8E38820771C6",
"g.	c #8E3879E769A6",
"h.	c #71C671C66185",
"j.	c #4924410338E3",
"k.	c #CF3CB6DAAEBA",
"l.	c #A6998A2879E7",
"z.	c #9E798A2879E7",
"x.	c #38E330C228A2",
"c.	c #C71BA2899E79",
"v.	c #BEFB9E799658",
"b.	c #B6DA9A698E38",
"n.	c #BEFBA699A699",
"m.	c #DF7DC30BBEFB",
"M.	c #28A220812081",
"N.	c #49243CF330C2",
"B.	c #186118611861",
"V.	c #AEBA8E388617",
"C.	c #BEFBA2899E79",
"Z.	c #28A228A22081",
"A.	c #B6DA96588E38",
"S.	c #861765956185",
"D.	c #9E798E388E38",
"F.	c #D75CC71BC71B",
"G.	c #BEFBA2899658",
"H.	c #30C230C228A2",
"J.	c #A6999A698E38",
"K.	c #96588A2879E7",
"L.	c #C71BAAAAA699",
"P.	c #96588A288617",
"I.	c #CF3CAEBAA699",
"U.	c #86176DB66185",
"Y.	c #38E32CB22081",
"T.	c #D75CBEFBBEFB",
"R.	c #30C224922081",
"E.	c #96587DF779E7",
"W.	c #410334D330C2",
"Q.	c #71C65D755144",
"!.	c #A6998E3879E7",
"~.	c #20811C711861",
"^.	c #861779E76185",
"/.	c #186110401040",
"(.	c #79E771C65965",
").	c #BEFB9E799E79",
"_.	c #C71BAAAA9E79",
"`.	c #30C228A228A2",
"'.	c #E79DC71BBEFB",
"                                                                                              . ",
"  X o O O O O + @ # # $ o % o & O & O * = - # @ ; : & : : : > , < . @ $ $ 1 O & & & & & & 2 . 3 ",
"  4 1 5 5 6 7 8 9 0 q $ w 4 e r t y u i > p a s d f t g g g g g f h j k l z i x x x x t 7 c v 3 ",
"  # b 5 n u m r 9 a M N w B V C x Z Z 7 A p s N S D n Z Z u Z y i b p @ F G H Z J Z J J D K L 3 ",
"  d P g n u m Z l I U l Y T 8 x n J Z 7 R 9 E W $ Q 5 J J J ! Z ~ ^ k / E ( i Z ) ! ! ) u K L 3 ",
"  , u x u u _ Z ` I ' ] [ t { n Z J Z } w 9 S ' | [ n J J Z ! Z ~ >  ...X.W D u ! ! ! ) 6 K . 3 ",
"  : ) Z Z u o.Z ] O.U ] +.o.y Z Z J Z } R  .@.' #.[ x Z J J ! Z ~ :  .$.X.h D 5 ) ! ! ) Z [ . 3 ",
"  * Z n n x _ [ l %.U l +.m x 5 n 5 x } C k &.' | Q *.n 5 5 u 5 7 A  .$.E =.D x 5 u u 5 5 f 2 3 ",
"  : -.[ [ [ [ ;.] 4 U l :.[ [ [ [ [ Q Q >.9 I ,.l <.Q [ Q i Q Q Q T 1.2.S E c Q [ [ [ [ [ c = 3 ",
"  ] ] | ] ] @ N @ 3.T 4.l l 5.q 5.q 6.$ @ k I ,.7.@ 8.q ] 9.0.l =.I k q.w.X.@ #.s q q s #.] e.3 ",
"  @ N N N N 4.r.M 4 t.S S 4 6.6.5.6.5.F M q y.&.S X.F | 5.5.5.5.@ u.i.,.,.p.6.a.k k i.k k 6.u.3 ",
"  $ s.I N N N X.N 5.4.I %.&.%.I X.4.6.d.I s k I =.S S S l | | | F 9.k $ W E q 8.| 6.6.6.5.6.* 3 ",
"  # X.f.g.h.=.h h . &.N M &.S 4 %.E 6.6.$ q q =.N h p.=.7.] q j.s $ j.] h 8.s | 6.6.6.s i.s < 3 ",
"  $ 2 ) k.Q D D D D +.9.M &.I d K D [ [ Q [ [ K d I S I ^ K +.+.+.[ [ Q c y.5.] 5.I 2./ l.z.C 3 ",
"  @ 2 c ' +.x u Z 5 i 9.x.s X.h D g n n n u x D $ 0 s ] G ~ g g { { { t Q s j q q =.c.v.b.b.n.3 ",
"  E u.8 3.>.m.J ! J ~ + M.N.h l Q n J J J ! u D # M.N 7.( i u J Z Z J u [ k B.6.#.s.v.' V.$.;.3 ",
"  ; h +.C.C.m.Z ) Z ~ G p @ ,.F +.x J J ! J u i d 9 q.E + i Z ! J J ! u D y.M.] 6.N / B 3.S =.3 ",
"  ; @ D x Z Z J ) Z ~ ^ p N g.] Z x J J ! ! Z i 1 k b.X.W i u J ! ! ! Z D E Z.] 5.l A.r.S.O.D.3 ",
"  E @ Q n Z Z Z ) Z ~ >.k &.g.F F.g Z Z Z Z 5 H + k 2.N h D 5 J ! ! ! u i %.j | 6.] G.A.A.2.C.3 ",
"  h @ K ~ ~ ~ ~ ~ t i G N.p.g.N -.7 ~ ~ ~ ~ 7 H + k U =.h.Q ~ { n u g t i u.H.| 6.| c.c...A.C 3 ",
"  h | @.>.A A P A P J.X.k F W 4.K.>.P >.>.J.z P @ k K.p.# ^ J.8 [ Q +.z A F Z.| | 6.w.&.h.O.L.3 ",
"  %.N 7.] ` ` ` ` | N I d.5.O.=.N F | ` ` ` ` N F 6.z.g.N ] q ] l l l d.l F H.] ] 6.q k a.i.2 3 ",
"  . E I I M M M M I M S 5.N.p.M I I =.M M M =.M M d.M S X.E 4.X.X.N X.I %.%.a q ] ] 5.a j a.0.3 ",
"  @ F l N I M p.=.I 4.4 9 a N F F N I M p.M X.4.7.k s l | l N X.=.S =.=.S h p H.i.i.q a.Z.H.. 3 ",
"  P.R C ;.I =.%.X.f.C k.z & C C.R P =.=.%.s.,.I.C ;.;.n.;.C z N =.p.M p.U U %.U.W U.&.I $ X.2 3 ",
"  R g } D %.=.%.4 >.~ _ ~ *.*.*.*.D g.I %.X.K.g o.t t *.t m [ 0.=.W X.h c.c.c.c.c.G.c.v.C.G.r 3 ",
"  & ) x Q | Y.s ] ^ g Z Z ! Z J 5 Q l 0 5.7.,.D Z ) J J ) u [ s H.s s l C.A./ A.A.A.A...A.A.C.3 ",
"  , T.y D l R.7.s.( i Z ) ) ! ) Z D E 0 S X.&.D Z ) ) ) ) Z Q ] B.i.5.y.A.' r.' / ' E.U ' / R 3 ",
"  , T.n H &.W.' &.+ i Z ) ) ) ) Z i u.k V.I h D Z ) ) ) ) ! i d M.6.| q V.' Q.S.g.I r.r.4.U n.3 ",
"  : T.n H u.a ,.M W D Z ! ) ) ) Z i u.k q.4.E Q Z ) ) ) ) ! t D.j q | s A...O.E.A.U T U U V.R 3 ",
"  , ! g H ,.k ,.%.9.D x 5 5 5 u 5 H 1 k q.I E Q x u Z u Z u 7 ;.p s y.q 2.c.A...A.A.A.q.A.V.C.3 ",
"  : -.D K ,.| z.W S c Q Q [ Q Q Q -.%.k l.U.X.C [ Q [ Q [ Q [ ^ j s F 6.l.c...A.A.c.c.c.c.v.r 3 ",
"  - l N =.M d.O.g.7.@ l y.F l l l $ | Y.4.O.4.N 7.l ] y.y.l E N H.i.l 6.6.6.s i.5.g.@.' ,.W K.3 ",
"  # I I M O.i.] W =.I X.X.X.4.4 4.M U.x.d.g.S I s.X.X.4 4 4.M U.a a ] ] 6.6.6.#.q s i.i.i.i.. 3 ",
"  @ 4 4.I r.p H.X.N l @ N N I =.%.&.W x.s p.h I =.=.I I I =.M &.a.j 6.| ] ] ] ] | | 8.6.| | h.3 ",
"  . &.O.,.,.l l ,.&.d d d &.%.N S &.&.` I U g.&.&.&.W &.w.&.&.,.I @ ] 6.| ] ] ] ] ] ] y.] y.X 3 ",
"  * [ D i i f Q i D D i i i r X.%.O.d W G.b.q.q.q.q.q.q.q.q.q.q.v.G.g.q ] l F F F ] F F F F X 3 ",
"  > ) u Z y y u u u u u 5 g D h %.g.N $ ..q.V.V.V./ / !./ / !./ q...l.q ] l l l @ @ @ l l l 2 3 ",
"  D.r ! ! J J J J ! ! ! ! u [ s ~.0 a l / ^.w.t./ l.l.z.l.z.z.z.l.2.A.p B.9 1.1.k k 1.1.k 1.# 3 ",
"  G r J J ! J ! J ! ! ! ! u Q s /.a s F !.w.(.w.l./ U l.l.l.l.z.l.2.).j M.A +.F.F.F.-.) T.T.D 3 ",
"  > r J J J J J J J J J ) Z Q 6.B.6.y.F G.A./ l./ l.l.l.l.l.l.z.l.2._.k `.C 3 _ m m m m m } 3 3 ",
"  > ) u Z Z Z Z Z Z Z Z Z 5 D v B.j.y.| G.G.A.2.V.V.q.V.q.q.V.V.q...L.#.`.R } Z y y y Z y y 7 3 ",
"  * [ i H i g i g i i g i g D 0.~.s l 8.w.M ' G.c...A.A.A.A...c._./ 9.k `.z 7 Z J Z J J J J n 3 ",
"  d ( P.K.K.K.K.K.K.K.P.T ^ L.3.~.i.0.6.s a.k 6.6.q s q s s q 6.8.q q s 0 P.H Z J J J '.J Z t 3 ",
"  N E s.s.s.s.s.s.s.s.s.s.s.,.I ~.k X.] 8.8.8.6.6.q 6.6.q 5.q q 5.6.y.@ 0 %.i Z '.J Z J Z Z x 3 ",
"  I &.&.&.&.&.&.&.W &.&.b W ' T 0 a.@ | | | | | | | | | | | | | | | l l 0 . i y Z Z y y y Z t 3 ",
"  + ^ ^ ^ ^ ^ D.^ D.^ ^ ^ D.>.P 6.#.h.=.e.e.e.e.e.e.; e.e.e.e.; ; e.h = j.h i _ o._ o.o.o._ m 3 ",
"3 3 3 3 3 3 3 3 3 3 3 3 3 3 3 3 3 3 3 3 3 3 3 3 3 3 3 3 3 3 3 3 3 3 3 3 3 3 3 3 3 3 3 3 3 3 3 3 "};
