/* XPM */
static char * image_name[] = {
"48 48 208 2",
"  	c #514455555144",
". 	c #514451444924",
"X 	c #410345144103",
"o 	c #49244D344924",
"O 	c #61855D755965",
"+ 	c #596559655144",
"@ 	c #596555555144",
"# 	c #79E77DF779E7",
"$ 	c #861782078617",
"% 	c #AEBAAAAAAEBA",
"& 	c #A699A699A699",
"* 	c #AEBAA699A699",
"= 	c #8E38820779E7",
"- 	c #861775D671C6",
"; 	c #79E76DB669A6",
": 	c #596555554924",
"> 	c #AEBAA2899E79",
", 	c #69A661855965",
"< 	c #69A665956185",
"1 	c #79E775D669A6",
"2 	c #71C669A66185",
"3 	c #618559655144",
"4 	c #A6999E799E79",
"5 	c #9E7992489658",
"6 	c #9E798E388E38",
"7 	c #A69992488E38",
"8 	c #79E775D671C6",
"9 	c #618561855965",
"0 	c #861779E771C6",
"q 	c #38E33CF330C2",
"w 	c #FFFFFFFFFFFF",
"e 	c #71C66DB669A6",
"r 	c #86176DB669A6",
"t 	c #FFFFFBEEF7DE",
"y 	c #EFBED75CD75C",
"u 	c #E79DD34CCF3C",
"i 	c #F7DEEBADDF7D",
"p 	c #000000000000",
"a 	c #186114510820",
"s 	c #38E334D330C2",
"d 	c #4924492438E3",
"f 	c #38E328A22081",
"g 	c #79E765956185",
"h 	c #FFFFF3CEEFBE",
"j 	c #F7DEDB6CDF7D",
"k 	c #BEFBAAAAA699",
"l 	c #208124921861",
"z 	c #30C22CB21861",
"x 	c #71C665955965",
"c 	c #FFFFEFBEEFBE",
"v 	c #69A659654924",
"b 	c #082008200000",
"n 	c #30C22CB22081",
"m 	c #4924451430C2",
"M 	c #CF3CBAEAB6DA",
"N 	c #69A661856185",
"B 	c #618555555144",
"V 	c #596541034103",
"C 	c #DF7DCB2BC71B",
"Z 	c #DF7DC71BBEFB",
"A 	c #FFFFF7DEF7DE",
"S 	c #28A224921861",
"D 	c #A69992488617",
"F 	c #104004100820",
"G 	c #30C218611861",
"H 	c #F7DEE38DDF7D",
"J 	c #B6DA9A699658",
"K 	c #596551444924",
"L 	c #71C669A65965",
"P 	c #59654D3438E3",
"I 	c #DF7DC30BBEFB",
"U 	c #861771C66185",
"Y 	c #79E76DB66185",
"T 	c #5144492438E3",
"R 	c #8E38820771C6",
"E 	c #FFFFFBEEFFFF",
"W 	c #D75CC30BBEFB",
"Q 	c #D75CBEFBB6DA",
"! 	c #AEBA96589658",
"~ 	c #E79DCB2BC71B",
"^ 	c #41033CF330C2",
"/ 	c #D75CB2CAA699",
"( 	c #20811C710820",
") 	c #596549244924",
"_ 	c #8E3879E769A6",
"` 	c #9E798A2879E7",
"' 	c #38E330C22081",
"] 	c #B6DA96588E38",
"[ 	c #F7DED34CC71B",
"{ 	c #8E3879E771C6",
"} 	c #D75CC71BC71B",
"| 	c #186118610820",
" .	c #69A65D755144",
"..	c #B6DA9A698E38",
"X.	c #104014510000",
"o.	c #86176DB66185",
"O.	c #B6DA9E799658",
"+.	c #10400C300000",
"@.	c #AEBA9A699658",
"#.	c #FFFFDB6CD75C",
"$.	c #69A661855144",
"%.	c #082004100000",
"&.	c #71C671C671C6",
"*.	c #96588A288E38",
"=.	c #A6998E388617",
"-.	c #C71BAAAA9E79",
";.	c #EFBEDB6CD75C",
":.	c #CF3CB6DAB6DA",
">.	c #C71BAAAAA699",
",.	c #000004100000",
"<.	c #EFBECB2BC71B",
"1.	c #5144451438E3",
"2.	c #E79DCF3CC71B",
"3.	c #28A21C711040",
"4.	c #D75CBEFBBEFB",
"5.	c #9658820771C6",
"6.	c #C71BB2CAB6DA",
"7.	c #596551444103",
"8.	c #BEFBA6999E79",
"9.	c #38E32CB22081",
"0.	c #CF3CB2CAAEBA",
"q.	c #AEBA92488617",
"w.	c #41033CF328A2",
"e.	c #30C230C22081",
"r.	c #4924451438E3",
"t.	c #28A220811040",
"y.	c #410338E328A2",
"u.	c #49243CF330C2",
"i.	c #618551444924",
"p.	c #9E79861779E7",
"a.	c #79E769A66185",
"s.	c #E79DC30BB6DA",
"d.	c #71C661855144",
"f.	c #208120811040",
"g.	c #28A228A21861",
"h.	c #8E3875D669A6",
"j.	c #861775D669A6",
"k.	c #69A655555144",
"l.	c #51444D344103",
"z.	c #618555554103",
"x.	c #618559654924",
"c.	c #104010400000",
"v.	c #38E334D328A2",
"b.	c #4103410330C2",
"n.	c #38E338E328A2",
"m.	c #618555554924",
"M.	c #8E387DF771C6",
"N.	c #96587DF771C6",
"B.	c #79E771C66185",
"V.	c #9658861779E7",
"C.	c #AEBA9A698E38",
"Z.	c #28A230C22081",
"A.	c #EFBECF3CC71B",
"S.	c #9E798E388617",
"D.	c #DF7DBAEAB6DA",
"F.	c #BEFB9E799658",
"G.	c #FFFFEBADE79D",
"H.	c #410334D328A2",
"J.	c #D75CBAEAB6DA",
"K.	c #E79DBEFBB6DA",
"L.	c #AEBA92488E38",
"P.	c #208108200000",
"I.	c #EFBEC71BB6DA",
"U.	c #C71BA6999E79",
"Y.	c #CF3CB2CAA699",
"T.	c #A6998A288617",
"R.	c #BEFBA2899658",
"E.	c #D75CB2CAAEBA",
"W.	c #71C659655144",
"Q.	c #69A655554924",
"!.	c #DF7DB6DAB6DA",
"~.	c #B6DAA6999E79",
"^.	c #FFFFE79DDF7D",
"/.	c #8E387DF779E7",
"(.	c #FFFFFFFFF7DE",
").	c #A6998E3879E7",
"_.	c #D75CAEBAA699",
"`.	c #CF3CAAAA9E79",
"'.	c #18611C711040",
"].	c #F7DEDB6CD75C",
"[.	c #59654D344103",
"{.	c #30C228A21861",
"}.	c #30C234D328A2",
"|.	c #71C671C669A6",
" X	c #410338E338E3",
".X	c #A6998A2879E7",
"XX	c #DF7DCB2BBEFB",
"oX	c #FFFFDF7DDF7D",
"OX	c #B6DAB2CAB6DA",
"+X	c #4924410328A2",
"@X	c #F7DECB2BC71B",
"#X	c #DF7DB2CAAEBA",
"$X	c #38E3410330C2",
"%X	c #D75CBAEABEFB",
"&X	c #E79DBAEAB6DA",
"*X	c #8E3875D671C6",
"=X	c #186124921040",
"-X	c #AEBA8E388E38",
";X	c #BEFB9E799E79",
":X	c #AEBA8E388617",
">X	c #30C224921861",
",X	c #96588A2879E7",
"<X	c #A699861779E7",
"1X	c #96588A288617",
"2X	c #69A669A64924",
"3X	c #79E775D66185",
"4X	c #9E79820771C6",
"5X	c #FFFFE38DDF7D",
"  . X X . o X .   O O o o o . X . o o o .   + +   o o X X @ o X o . O O @ o X . X X X X X X     ",
"# $ % % & % * = O - ; : % & % % & > & * , < 1 2 3 & 4 5 5 6 6 7 4 3 1 8 9 0 % 4 4 4 4 4 % 0 q w ",
"e @ r t y u w i p a s d w f g y h j y w k p l z x w c c h c c c w v b n m M w j c c c c w w p w ",
"N B V h C Z A u p S D z w F G k H Z M w J p K L P w Z I Z Z Z M w U p Y T R E M I W W Q I w p w ",
"8 < ! h ~ Z c h ^ r / ( w ) c h ~ C Q w Q p _ ` ' w C C C C C W w ] p [ m { w W } } } Z Z w p w ",
"8 4 c u C C H h |  ...X.w h H C C ~ Q w ~ p o.O.+.w ~ C C C C Q w @.p #.m $.w Z } Z } Z } w %.w ",
"&.*.C C C C j h ( =.-.| h ;.Z C C C Q w :.b >.=.+.w y } C C C Q w 7 ,.<.d 1.w Z Z Z Z } W w ( w ",
"8 6 2.~ u C H w ' g -.3.w c C ~ ~ ~ 4.w y p 5...| w ;.C C Z C Q w 6.p <.7.7.w C } } C Z Q w m w ",
"8 & w w w w w M ' B 8.9.:.w w w w w w w 0.p U q.S w w w w w w w w ! p <.3 w.w w w w w w w w e.w ",
"o r.t.3.3.( y.u., i.8.: m y.| ( ( | 3.m P l _ ` K w.3.| 3.p.9.e.1.a.b s.L d.m ( | ( ( | f.m g.w ",
"O 9 Y Y U Y Y h.j.k.D x j.L m 7.d 7.l.z.` q : 5.a.Y K x.d w.d 1.: k c...j.` d v.^ ^ b.^ n.T a.w ",
"O 9 Y v m.v  .$.$.f x a.U h.M.U  .N.7.d p.d g._ L B.j.M.3  ., $.: :.f.Y V.L q x.x.x.x.x.x.r.C.w ",
"O 9 l.0 1 T T T l.r.a.1.a.Y Y z.v ^ | | 1.X.c.x.1.a.Y a.1.z c.c.p d p g.m.d ^ : 7.b.Z.g.Z.a 1 w ",
"< 9 U w A.w w w w w w a._ S.a. .w w w w w w w w Y _ ` z.O.w A E t t t w w ^ : , r.x D.F.F.O.-.w ",
"X . B.G.H.w ~ I W J.w x +.v.x T w ~ Z C C Z Z w m +.S m S.w u y y y y y w ( l l.q $.K...] q.L.w ",
"@ ; , A P.p.~ s.I J.w S.p ' V.S t ~ I I I I W w d p U 7.j.w Q Z Z Z I 4.w c.p 3 r.K I.o.U.Y.q.w ",
"O 2 d w F.T.u C I J.w C.b o.R.( A u I Z Z C I w j.p #.d j.w W C Z C Z W w d b j.b.7.E.F W.g 3.w ",
"+ - ' w H H ~ I I J.w =.p Q.q.3.t u I Z Z I 4.w M.p [ m v w Z Z C Z C 4.w m.p 2 r.r.K.) a.h.h.w ",
"O 1 S w J.E.J.J.!.0.w ~.+.D ` 3.^.u Q Q 4.4.M w R p [ d P w 4.W Z Z I M w  .X.L d n.K...O.O.] w ",
"+ /.v.w w w (.t (.A w 8.a ).` 9.w w (.w (.w (.w C.p Y.x.v w w H C Z y A w 7 X., l.n.[ _.`.U.=.w ",
"+ 0 e.=.=.> > @.~.> 8.T n ) ` T =.=.J @.7 @.> :.m '.-.B.b.~.S.].w w w 7 0.m b $.: q 5.B.L Y I.w ",
"O /.m.[.H.' 9.9.9.z 1.Y T s =.x l.w.' 9.' 9.9.1.v e.Y.j.v w.f.{.' g.y.( d  .'., : l.v.e.}.e.d w ",
"o |.Y _ _ { { _ { M._ V.l. XD j.h.{ { _ _ { { { .Xb.V.U B.j.{ B.L L a.j._ q.'.$.3 3 3 }.Z.r.r.w ",
"X K ' ' 1.$.Y B.a.m.u.P p p P ' y.1.d.Y B.a.Q.w.1.+.X.m n ' m d.Y Y Y $.x.j.p a }.Z.b.e.'.'.b.w ",
"e 5 M XXW 1.a.B.m._ ].C k ~.W >.6.>.l.x U v j.oX4.>.0.Q >.C M m a.Y Y Y .X=.Y - { a.j.x.B 3 3 w ",
"# OXt t w v M.S.7.L.w c (.w t A (.w _ _ S.: h.w G.t t h c t w +XV.q.$. .@X`.!.#X#XE.!.E.#X#X#Xw ",
"|.5 4.W w l 3.z m N.t M M M Q J.M w ' p ' v d.w M Q Q Q J.J.w +.l ^ n.$XD.] p.O.L.] ..L...T.=.w ",
"&.7 Z ~ w u.%.U  .j.w 4.Z Z I I Q w [.p =. .m.w 4.W W W I %Xw w.p r.7.d &Xg i.=.] h..X] N.L.q.w ",
"&.5 Z ~ w N.X.`.L x w 4.I I XXI 4.w 5.c.[ K [.w W W I W Z J.w a.p $.x.g.>.o.k.k.*X) K i.r.p.L.w ",
"&.6 Z C w U p q.d.m.w 4.I I I I Q w U p s.K u.w W W W I W M w J p 7.$.=X#X/ k.=.-.T.L.-XT...L.w ",
"&.*.~ ~ w h.c...x $.w C C C C C Q w ` p s.m.m w 2.Z I I I :.w Q p 7.$.g.`.;X] F.:X=.=.=.=..Xp.w ",
"# & w w w h.b.U.U : w w w w w w w w a.a s.x u.oXw w w w w w w R.p l.$.e.>.<.!.#X_.&X#X#X#XE.#Xw ",
". r.9.9.u.h.S ).5.T ' z S {.{.{.9.w.[.c.x 5. .w.9.g.{.{.{.>Xu.z.l b.$.d v.g.=X=X=X,XS.` S.U j.w ",
"O < j.j.j.O.}.[.S.U j.U B.U U a.a.j.=.t.T =.Y j.B.Y Y Y Y Y j.=.g.n.d.: K : : : d e.l l l g.Z.w ",
"+ 3  .W.v h.%.( Y : x.Q.x.v x Y Y Y 7 c.e.0 $.x x x x x x x d.` l b x.: : : : : : x.x.x.x.x.x.w ",
"+ 3 v v  .*X' ' o.v z.z.z.$.z.x.Y Y V.v.d.D B.L Y a.a.a.a.a.L N. .x.d d : K : : : : : : : : : w ",
"# & w w w w w w w w w w w w c w.B.j.j.{ I.F...F.F.F.F.F.F.F.F.F.Y.<.<X}.x.: : K K K K K K K K w ",
"&.1XI I I W W I I I I I W 2.w z.=.-.$.b.#X-X] :X.X.X` .X.X` .Xp.p.] ..$XB.B.B.1 B.B.B.B.B.1 B.w ",
"|.*.Z Z Z Z Z Z Z Z Z Z I Z w a p p =XK R.2X3X_ ] .X.X.X.X.X.X.X.Xq.K.p p p p p p p p p ,.p p w ",
"&.*.Z Z Z Z Z Z Z Z Z Z Z W w z p d d d U.2X2X2XL..X.X.X.X.X.X.X.X.X<.b p ].w ^.c c h ^.oXoX^.w ",
"&.*.Z Z Z Z Z Z Z Z Z Z Z W w ^ p $.$.n.&XL.L.-X=..X.X.X.X.X.X.X.X4X<.l p u w 5Xh c c h t A A w ",
"|.1XW W W W W W W W W W W Q w ^ p r.$.e.[ E.F.<X4X.X.X.X.X.Xp.N.4X] 5Xr.p %Xw :.Z Z I Z I I I w ",
"# & (.(.(.(.(.(.(.(.(.(.(.h w B p l.L n.N.$.5.[ <.&X#X#XD.#XK.[ #...R n.p :.w J.C C C C C C C w ",
"O 2 { { { { { { { { { { { 2 #.3 p d L d }.l l }.g.g.g.g.g.g.g.g.e.g.v.7.p 7 w Q C C C C C C C w ",
"+ + B B B B B B B B B B k.m.Y j.p r.L K x.x.x.7.7.7.7.7.7.7.7.l.7.: x.R p  .w Q C C C C C C C w ",
"N 2 { { { { { { { { { { { { /.:.p n.a.K K : K : : : : : : : : : : K x.1 p g w !.Z Z Z Z Z Z Z w ",
"9 < { - - - - - - - - - - - j.>.b '.2Xr.d d d d d d d d d d d d d d d L p S w ].5X5X5X5X5X5X5Xw ",
"w w w w w w w w w w w w w w w w w w w w w w w w w w w w w w w w w w w w w w w w w w w w w w w w "};
