/* XPM */
static char * image_name[] = {
"48 48 132 2",
"  	c None",
". 	c #71C671C671C6",
"X 	c #EFBEF3CEEFBE",
"o 	c #D75CD75CD75C",
"O 	c #AEBAAEBAAEBA",
"+ 	c #861786178617",
"@ 	c #618561856185",
"# 	c #38E338E338E3",
"$ 	c #186114511861",
"% 	c #000000000000",
"& 	c #104010401040",
"* 	c #CF3CD75CD75C",
"= 	c #D75CDB6CD75C",
"- 	c #DF7DDF7DDF7D",
"; 	c #D75CDF7DDF7D",
": 	c #C71BC71BC71B",
"> 	c #9E799E799E79",
", 	c #79E779E779E7",
"< 	c #514451445144",
"1 	c #30C22CB230C2",
"2 	c #082008200820",
"3 	c #B6DABAEAB6DA",
"4 	c #71C682078617",
"5 	c #C71BCB2BC71B",
"6 	c #E79DEBADE79D",
"7 	c #E79DEFBEE79D",
"8 	c #EFBEEBADE79D",
"9 	c #EFBEFBEEF7DE",
"0 	c #B6DAB6DAB6DA",
"q 	c #8E388E388E38",
"w 	c #69A6659569A6",
"e 	c #410341034103",
"r 	c #20811C712081",
"t 	c #CF3CD75CCF3C",
"y 	c #CF3CD34CCF3C",
"u 	c #C71BCB2BCF3C",
"i 	c #A699A289A699",
"p 	c #A699AAAAA699",
"a 	c #965896589658",
"s 	c #AEBAB2CAAEBA",
"d 	c #CF3CCB2BCF3C",
"f 	c #DF7DE38DDF7D",
"g 	c #EFBEF7DEEFBE",
"h 	c #F7DEFBEEF7DE",
"j 	c #F7DEF7DEEFBE",
"k 	c #CF3CCF3CCF3C",
"l 	c #AEBAAAAAA699",
"z 	c #861782078617",
"x 	c #59655D755965",
"c 	c #30C230C230C2",
"v 	c #A699A699A699",
"b 	c #B6DABEFBBEFB",
"n 	c #965892488E38",
"m 	c #9E799A699E79",
"M 	c #EFBEEFBEE79D",
"N 	c #E79DE38DDF7D",
"B 	c #BEFBC30BC71B",
"V 	c #492449244924",
"C 	c #28A2249228A2",
"Z 	c #082004100820",
"A 	c #B6DAB2CAB6DA",
"S 	c #BEFBBEFBBEFB",
"D 	c #9E79A699A699",
"F 	c #AEBAB2CAB6DA",
"G 	c #96589A699658",
"H 	c #E79DE79DE79D",
"J 	c #C71BCF3CCF3C",
"K 	c #A699A2899E79",
"L 	c #9E79A2899E79",
"P 	c #BEFBBAEABEFB",
"I 	c #BEFBC30BBEFB",
"U 	c #F7DEF7DEF7DE",
"Y 	c #FFFFFBEEF7DE",
"T 	c #EFBEEFBEEFBE",
"R 	c #38E334D338E3",
"E 	c #C71BC30BBEFB",
"W 	c #96589A699E79",
"Q 	c #E79DE79DDF7D",
"! 	c #BEFBBEFBB6DA",
"~ 	c #B6DAB2CAAEBA",
"^ 	c #B6DAAEBAAEBA",
"/ 	c #DF7DDB6CD75C",
"( 	c #BEFBBAEAB6DA",
") 	c #9E79A289AEBA",
"_ 	c #D75CD34CCF3C",
"` 	c #C71BC71BBEFB",
"' 	c #E79DDF7DDF7D",
"] 	c #410345144103",
"[ 	c #CF3CCB2BC71B",
"{ 	c #AEBAA699A699",
"} 	c #F7DEF3CEEFBE",
"| 	c #10400C301040",
" .	c #B6DABAEAAEBA",
"..	c #D75CCF3CC71B",
"X.	c #FFFFFFFFFFFF",
"o.	c #AEBAA2899E79",
"O.	c #DF7DDB6CDF7D",
"+.	c #8E3896589658",
"@.	c #B6DAAEBAA699",
"#.	c #C71BC30BC71B",
"$.	c #9E7996589658",
"%.	c #96589A698E38",
"&.	c #9E799E799658",
"*.	c #B6DABAEABEFB",
"=.	c #DF7DE38DE79D",
"-.	c #9E799A699658",
";.	c #DF7DD34CCF3C",
":.	c #D75CD75CCF3C",
">.	c #C71BBEFBBEFB",
",.	c #D75CDB6CDF7D",
"<.	c #BEFBB6DAB6DA",
"1.	c #28A228A228A2",
"2.	c #DF7DE79DE79D",
"3.	c #8E388E388617",
"4.	c #F7DEFBEEFFFF",
"5.	c #96588E388E38",
"6.	c #EFBEE79DE79D",
"7.	c #A699AEBAB6DA",
"8.	c #BEFBCB2BC71B",
"9.	c #A6999E799E79",
"0.	c #208120812081",
"q.	c #71C675D671C6",
"w.	c #965896589E79",
"e.	c #A699AEBAAEBA",
"r.	c #CF3CD34CD75C",
"t.	c #DF7DD75CD75C",
"y.	c #186118611861",
"u.	c #71C679E779E7",
"i.	c #69A66DB669A6",
"p.	c #8E3892489658",
"a.	c #514455555144",
"s.	c #B6DAB6DABEFB",
"                                                                                                ",
"                                                                                                ",
"                                                                                                ",
"                                                                                                ",
"                                                                                                ",
"                                                                                                ",
"                                                                                                ",
"                                                                                                ",
"                                                                                                ",
"                                                                                                ",
"                                                                                                ",
"            . X o O + @ # $ %                                                                   ",
"          & * * = - ; = = = ; : > , < 1 2                                                       ",
"          , 3 > 4 ; 5 5 5 ; = 6 7 8 6 6 9 - 0 q w e r %                                         ",
"        2 t y u ; 5 i p a s p p 3 o d f g 6 h h h 9 9 j k l z x c & %                           ",
"        w : l p v d b = f k y 5 3 i l n : m 5 0 M k X X h h 9 9 9 X N B m . V C Z               ",
"      Z : B t A S O D v F G O y 3 8 f 6 H k J 0 0 > K d L M P I - X U Y j X T 6 j o A q R %     ",
"      x 5 : : > l S p E 5 I = O 0 O O W y v = 6 Q h f f : 5 v 0 n d + k E = 6 8 T 8 Q Q 0 C % % ",
"    % B ! 3 3 s p y ~ 5 ! l ! s ^ = s Q 5 3 E A v : K o X / 6 g f 8 5 E ( ) P F _ ` _ ' A ] Z % ",
"    V J ( ( k A d S s ~ ! l [ E E 6 l E I p - p _ / ( Q = { 3 A ( O 8 o N } X } N _ k ' ^ c | % ",
"  % : S k A d v ( 0 O S 3 E = ~ E  .3  .= s Y s ..E _ X.M o.O.~ T L _ K ~ o.E K Q ( j 8 v R & Z ",
"  | - : i q +.q 0 3 f X 8 = _ E 0 [ @.X S o ` ! ( _ _ X #.o.#.K S $.[ o./ ~ Q %._ &.[ { z c & % ",
"  r *.: d o =.f 5 s D q q v : f X X.} ~ 5 { _ { / X.O N ^ #.X.X.X.8 / ` / -.;.&.3 :.:.>.@ 1 | % ",
"% i = = - - t y = ,.= f X f : O L n -.n ' l Y ~ Q 0 ( _ K 6 8 8 o X X.k ..~ <._ S Y 0 >.# 1.2 % ",
"% 9 = o = - - f 2.6 7 7 f f f f Q T X = k O ^ 3.( a - S ( X.E _ ^ k T ` ~ N { o K :.{ 0 1 C Z % ",
"% 4.* = = = = - f 2.H 6 M X T X X M f H f f H X T _ : ( v l 5.l E [ ` ;._ ;.$.>.^ 6.( > 1.& Z % ",
"% + 7.8.= - - - f 2.6 H H 6 8 6 T X g h h g g 8 f f f O.N 8 N ..P 0 9.l S <.A E T k ^ w 0.| % % ",
"% | R q.w.e.: r.- f f f f f f Q H 6 6 6 M 6 T T X X X T 6 - - - O.- - 6.t.S 0 > O v P # r 2 Z % ",
"% Z y.C 1 c V u.> 7.I t f f f f f f f f 6 H 6 6 H H 6.H 6 H H M 8 8 - / O.- - - 8 6.( 1 $ Z % % ",
"% % 2 & y.r C 1.1 c e i.p.p e.3 5 = f f H H H =.=.- - - - - =.f - - - N N Q 8 H - _ w 1.& Z % % ",
"  % % % Z 2 | & y.r C 1.1 c c # a.. + w.v F B r.J J d = - - O.- O.= = - - - - Q 6 - R 0.2 % % % ",
"      % % % % Z Z 2 | & $ y.0.C 1.1.1 1 c c R R R < q.q > F 0 s.P o o = - - - - f 0 1 $ Z Z % % ",
"              % % % % Z Z 2 2 | & & $ y.r 0.0.C 1.1.1.1 1 c R # a., m p F S y o d x C & % % % % ",
"                      % % % % % % Z Z 2 2 2 2 | | & & $ r r 0.C 1.1.1 c # x z z < c r 2 % % Z % ",
"                                  % % % % % % % % % Z Z Z 2 | | & $ y.r 0.1.1 1 1 0.& Z % % % % ",
"                                                    % % % % % % % Z Z 2 | | $ $ $ & Z % % % % % ",
"                                                                  % % % % % Z Z Z % % %   % % % ",
"                                                                            % % % %             ",
"                                                                                                ",
"                                                                                                ",
"                                                                                                ",
"                                                                                                ",
"                                                                                                ",
"                                                                                                ",
"                                                                                                ",
"                                                                                                ",
"                                                                                                ",
"                                                                                                "};
