/* XPM */
static char * image_name[] = {
"48 48 20 1",
" 	c #000000000000",
".	c #FFFFFFFFFFFF",
"X	c #842084208420",
"o	c #CE72CE72CE72",
"O	c #739C739C739C",
"+	c #DEF6DEF6DEF6",
"@	c #9CE69CE69CE6",
"#	c #AD6AAD6AAD6A",
"$	c #B5ACB5ACB5AC",
"%	c #7BDE7BDE7BDE",
"&	c #6B5A6B5A6B5A",
"*	c #631863186318",
"=	c #BDEEBDEEBDEE",
"-	c #5AD65AD65AD6",
";	c #529452945294",
":	c #94A494A494A4",
">	c #C630C630C630",
",	c #D6B4D6B4D6B4",
"<	c #A528A528A528",
"1	c #8C628C628C62",
"                                               .",
" XoO+O@#X+++o$%&*&=o$o+++++-;;;-;+++++o$%&*&=o$.",
" *@:+=O:@+++o$%&*&>o$o+++++;#+++++++++o$%&*&>o$.",
" *O#++;O#+++o=%&*&>o$o+++++;#+++++++++o=%&*&>o$.",
" X;o++O;o+++o=%&*&>o$o+++++;#+++++++++o=%&*&>o$.",
" @O+++@O++++o$X&*O>o=o+++++;;;-;-#++++o$X&*O>o=.",
" ++++++++++o>$%&*O>o>>,++++++++++++++o>$%&*O>o>.",
" +++++++++,o=$%**O>o>>>,++++++++++++,o=$%**O>o>.",
" ++++++,,oo>$$O**O>oo$>oo,,++++++,,oo>$$O**O>oo.",
" oo,,,oo>>>=>@&**O>o>>=>>>ooo,,,oo>>>=>@&**O>o>.",
" ooooooo>>>>$%&**O>o$$oooooooooooo>>>>$%&**O>o$.",
" #########@:%&***O>><1<#############@:%&***O>><.",
" @@@@@@@@@:X%&*&*O>>@:@@@@@@@@@@@@@@:X%&*&*O>>@.",
" @@@@@@@@@@1XO&**O>$@:@@@@@@@@@@@@@@@1XO&**O>$@.",
" OO%%%%%%%OO&*-;;*>$@:@@@@%%%%%%%%%%OO&*-;;*>$@.",
" #$$==$$====>$$$$<@@@:@@@:@#$$==$$====>$$$$<@@:.",
" $>ooooooo,,ooo>>=@@X:@@:@#$>ooooooo,,ooo>>=@@X.",
" >,+++++++++++,oo>@@:1:1$@=>,+++++++++++,oo>@@:.",
" ,+++++++++++++,o>$11X1:=#>,+++++++++++++,o>$11.",
" +++++$O--:+++++,o$1%O-@>$o+++++----O>++++,o$1%.",
" ++++o&$+oX&+++++o$1&&*#>$o+++++-$++X-o++++o$1&.",
" ++++$X+++o$+++++o$%&*&$o$o+++++-$+++-$++++o$%&.",
" ++++=-X#++++++++o$%&*&=o$o+++++-#+++#X++++o$%&.",
" +++++=:O;X=+++++o$%&*&>o$o+++++;#+++$X++++o$%&.",
" ++++++++o@;=++++o=%&*&>o$o+++++;#+++:X++++o=%&.",
" ++++::+++o;#++++o=%&*&>o$o+++++;#++o;#++++o=%&.",
" ++++=*@++:-o++++o$X&*O>o=o+++++;#++X*o++++o$X&.",
" ,++++@O;;:=++++o>$%&*O>o>>,++++-;;;O=++++o>$%&.",
" >,++++++++++++,o=$%**O>o>=o,++++++++++++,o=$%*.",
" >oo,,++++++,,oo>$$O**O>oo$>oo,,++++++,,oo>$$O*.",
" =>>>ooo,,,oo>>>=>@&&*O>o>>=>>>ooo,,,oo>>>=>@&&.",
" >oooooooooooo>>>$%&**O>o$$>oooooooooooo>>>$%&*.",
" ##############@:%&*&*O>><1##############@:%&*&.",
" @@@@@@@@@@@@@@:X%&&**O>>@:@@@@@@@@@@@@@@:X%&&*.",
" @@@@@@@@@@@@@@@1XO*&*O>$@:@@@@@@@@@@@@@@@1XO*&.",
" %%%%%%:@@@@@@@:O**--;;1XOO%%%%%%:@@@@@@@:O**--.",
" =>$$$$#::@@<@@:@#$$==$$$===>$$$$#::@@<@@:@#$$=.",
" ooooo>=@@1@@@:@#$>ooooooo,ooooo>=@@1@@@:@#$>oo.",
" +++,oo>@@:1@1$@=>,+++++++++++,oo>@@:1@1$@=>,++.",
" ++++,o>#11X1:>#>,+++++++++++++,o>#11X1:>#>,+++.",
" --+++,o$1%O-@>$o++++$-@++$-$+++,o$1%O-@>$o++++.",
" -@++++o$1&&*#>$o+++++:&o+&:+++++o$1&&*#>$o++++.",
" @+++++o$%&*&$o$o+++++oO::O++++++o$%&*&$o$o++++.",
" o+++++o$%&*&=o$o++++++=*&=++++++o$%&*&=o$o+++#.",
" ++++++o$%&*&>o$o+++++++OO+++++++o$%&*&>o$o+++$.",
" ++++++o=%&*&>o$o++++++#OO#++++++o=%&*&>o$o+++#.",
" ++++++o=%&*&>o$o+++++#*==*=+++++o=%&*&>o$o+++o.",
"................................................"};
