/* XPM */
static char * image_name[] = {
"48 48 37 1",
" 	c #000000000000",
".	c #FFFFFFFFFFFF",
"X	c #861786178617",
"o	c #CF3CCF3CCF3C",
"O	c #71C675D671C6",
"+	c #DF7DDB6CDF7D",
"@	c #9E79A2899E79",
"#	c #AEBAAEBAAEBA",
"$	c #861782078617",
"%	c #CF3CD34CCF3C",
"&	c #B6DAB6DAB6DA",
"*	c #79E779E779E7",
"=	c #69A669A669A6",
"-	c #618565956185",
";	c #BEFBBEFBBEFB",
":	c #B6DAB2CAB6DA",
">	c #596559655965",
",	c #514455555144",
"<	c #965892489658",
"1	c #B6DABAEAB6DA",
"2	c #79E77DF779E7",
"3	c #C71BC71BC71B",
"4	c #69A66DB669A6",
"5	c #71C671C671C6",
"6	c #618561856185",
"7	c #C71BC30BC71B",
"8	c #D75CD75CD75C",
"9	c #C71BCB2BC71B",
"0	c #9E799E799E79",
"q	c #AEBAAAAAAEBA",
"w	c #A699A699A699",
"e	c #8E388E388E38",
"r	c #965896589658",
"t	c #9E799A699E79",
"y	c #61855D756185",
"u	c #514451445144",
"i	c #8E388A288E38",
"                                               .",
" XoO+O@#$+++%&*=-=;o:o+++++>,,,>,+++++%&*=-=;o:.",
" -@<+;O<@+++%12=-=3o:%+++++,#+++++++++%12=-=3o:.",
" -O#++,O#+++%;2=-43o1o+++++,#+++++++++%;2=-43o1.",
" $,o++O,o+++o;2=-43o1%+++++,#+++++++++o;2=-43o1.",
" @O+++@O++++o1$=-53o;o+++++,,,>,>#++++o1$=-53o;.",
" ++++++++++%3&2=657o738++++++++++++++%3&2=657o7.",
" +++++++++8o;12-657%3798++++++++++++8o;12-657%3.",
" ++++++88%o7&:O--53%o&7o%88++++++88%o7&:O--53%o.",
" %%888%%937;30=--53%93;739%%%888%%937;30=--53%9.",
" %%%%ooo993312=-659%:&oooo%%%%%ooo993312=-659o:.",
" qqqq#q##q0<24--6599wew#qqqqqqq#q##q0<24--6599w.",
" @@@@@@@@0rX*4-=6597@<@@@@@@@@@@@@@0rX*4-=6597@.",
" @@@@@@@@@te$5=-y5910<@@@@@@@@@@@@@@te$5=-y5910.",
" OO*******O5=y>,u67:t<@@@t**********O5=y>,u67:t.",
" #:1;;11;;;;711:&wtttr@@tr@#:1;;11;;;;711:&wttr.",
" 13o%%%%%%88%%o93;@t$r@0rt#13o%%%%%%88%%o93;@t$.",
" 98+++++++++++8%o3@t<ere1@;98+++++++++++8%o3@t<.",
" 8+++++++++++++8%9:ee$ir;#38+++++++++++++8%9:ee.",
" +++++:O>>r+++++8o&i*O>07&o+++++>>>>O7++++8o&i*.",
" ++++o=:+oX=+++++%&i446#3&o+++++>:++X>o++++%&i4.",
" ++++:X+++o:+++++%&2=-=1o:o+++++>:+++>:++++%&2=.",
" ++++;>$#++++++++%&*=-=;o:o+++++>#+++#$++++%&*=.",
" +++++;<O,$;+++++%12=-43o:%+++++,#+++:$++++%12=.",
" ++++++++o@,;++++%;2=-43o1%+++++,#+++<$++++%;2=.",
" ++++<<+++o,#++++o;2=-47o1o+++++,#++o,#++++o;2=.",
" ++++;-@++<>o++++o1$=-53o;o+++++,#++$-o++++o1$=.",
" 8++++@O,,<;++++%3&2=653o738++++>,,,O;++++%3&2=.",
" 98++++++++++++8o;12-657%3;o8++++++++++++8o;12-.",
" 7o%88++++++88%o7&:O--53%o&7o%88++++++88%o7&:O-.",
" ;739%%%888%%937;30==-59%93;739%%%888%%937;30==.",
" 9ooo%%%%%oooo93312=-659o:&9ooo%%%%%oooo93312=-.",
" q#qqqqqq#q###q0<24-=6599weq#qqqqqq#q###q0<24-=.",
" @@@@@@@@@@@@@0rX*4=-6597@<@@@@@@@@@@@@@0rX*4=-.",
" @@@@@@@@@@@@@@te$5-=y5910<@@@@@@@@@@@@@@te$5-=.",
" ******<@@@@@@@r5-y>>u,i$O5******<@@@@@@@r5-y>>.",
" ;711:&q<<@@w@tr@#:1;;111;;;711:&q<<@@w@tr@#:1;.",
" %%ooo3;0ti0@0<t#13o%%%%%%8%%ooo3;0ti0@0<t#13o%.",
" +++8%o3@0<ete1@;98+++++++++++8%o3@0<ete1@;98++.",
" ++++8%9#ee$i<7#98+++++++++++++8%9#ee$i<7#98+++.",
" >>+++8%&i*O>07&o++++:>@++:>:+++8%&i*O>07&o++++.",
" >@++++%&i446#3&o+++++r=o+=<+++++%&i446#3&o++++.",
" @+++++%&2=-=1o:%+++++oOr<O++++++%&2=-=1o:%++++.",
" o+++++%&*=-=;o:o++++++;-=;++++++%&*=-=;o:o+++#.",
" ++++++%12=-=9o:%+++++++OO+++++++%12=-=9o:%+++:.",
" ++++++%;2=-43o1o++++++#5O#++++++%;2=-43o1o+++#.",
" ++++++o;2=-47o1%+++++#-;;-;+++++o;2=-47o1%+++o.",
"................................................"};
