/* XPM */
static char * image_name[] = {
"48 48 129 2",
"  	c #38E338E338E3",
". 	c #96589A699658",
"X 	c #CF3CCF3CCF3C",
"o 	c #DF7DDF7DDF7D",
"O 	c #D75CD75CD75C",
"+ 	c #EFBEF3CEEFBE",
"@ 	c #CF3CD34CCF3C",
"# 	c #D75CDB6CD75C",
"$ 	c #E79DE79DE79D",
"% 	c #E79DEBADE79D",
"& 	c #DF7DE79DDF7D",
"* 	c #DF7DE38DDF7D",
"= 	c #BEFBBEFBBEFB",
"- 	c #B6DABAEAB6DA",
"; 	c #A699A2899E79",
": 	c #8E3892489658",
"> 	c #8617820779E7",
", 	c #A699A699A699",
"< 	c #79E77DF779E7",
"1 	c #618569A66185",
"2 	c #AEBAAEBAAEBA",
"3 	c #BEFBBAEAB6DA",
"4 	c #9E79A2899E79",
"5 	c #965896589658",
"6 	c #AEBAAAAAAEBA",
"7 	c #49244D344924",
"8 	c #79E7820779E7",
"9 	c #F7DEF3CEF7DE",
"0 	c #AEBAB2CAAEBA",
"q 	c #EFBEEFBEEFBE",
"w 	c #DF7DDB6CD75C",
"e 	c #F7DEF7DEEFBE",
"r 	c #FFFFFFFFFFFF",
"t 	c #F7DEF7DEF7DE",
"y 	c #861786178617",
"u 	c #86178A288E38",
"i 	c #965892488E38",
"p 	c #B6DAB6DAB6DA",
"a 	c #BEFBC30BBEFB",
"s 	c #CF3CCB2BC71B",
"d 	c #AEBAB6DAAEBA",
"f 	c #410341034103",
"g 	c #A699AEBAA699",
"h 	c #C71BC71BBEFB",
"j 	c #D75CD34CCF3C",
"k 	c #F7DEFBEEF7DE",
"l 	c #F7DEFFFFF7DE",
"z 	c #9E799E799E79",
"x 	c #D75CD75CCF3C",
"c 	c #B6DAB2CAAEBA",
"v 	c #C71BC71BC71B",
"b 	c #E79DE79DDF7D",
"n 	c #A699AAAAA699",
"m 	c #BEFBBEFBB6DA",
"M 	c #86178A288617",
"N 	c #EFBEEFBEE79D",
"B 	c #EFBEF3CEE79D",
"V 	c #9E799A699658",
"C 	c #59655D755965",
"Z 	c #8E388E388E38",
"A 	c #FFFFFFFFF7DE",
"S 	c #A699A6999E79",
"D 	c #69A671C669A6",
"F 	c #71C679E771C6",
"G 	c #E79DEFBEE79D",
"H 	c #EFBEF7DEEFBE",
"J 	c #C71BCB2BC71B",
"K 	c #71C675D671C6",
"L 	c #618565956185",
"P 	c #B6DABEFBB6DA",
"I 	c #618561855965",
"U 	c #8E3892488E38",
"Y 	c #596561856185",
"T 	c #CF3CCF3CC71B",
"R 	c #514459655144",
"E 	c #AEBAAAAAA699",
"W 	c #514451445144",
"Q 	c #9E799E799658",
"! 	c #EFBEEBADE79D",
"~ 	c #AEBAA699A699",
"^ 	c #FFFFFBEEF7DE",
"/ 	c #F7DEF3CEEFBE",
"( 	c #B6DAB6DAAEBA",
") 	c #BEFBB6DAB6DA",
"_ 	c #A6999E799E79",
"` 	c #B6DAAEBAAEBA",
"' 	c #F7DEEFBEE79D",
"] 	c #C71BBEFBBEFB",
"[ 	c #E79DF3CEE79D",
"{ 	c #F7DEFBEEEFBE",
"} 	c #DF7DDF7DD75C",
"| 	c #B6DAAEBAA699",
" .	c #C71BBEFBB6DA",
"..	c #E79DE38DDF7D",
"X.	c #71C671C669A6",
"o.	c #AEBAAEBAA699",
"O.	c #8E388A288617",
"+.	c #8E388E388617",
"@.	c #A699AAAA9E79",
"#.	c #C71BCB2BBEFB",
"$.	c #79E779E771C6",
"%.	c #D75CD34CC71B",
"&.	c #AEBAAAAA9E79",
"*.	c #8617861779E7",
"=.	c #69A66DB669A6",
"-.	c #69A665955965",
";.	c #B6DAAAAAA699",
":.	c #514451444924",
">.	c #492449244103",
",.	c #69A669A66185",
"<.	c #E79DDF7DDF7D",
"1.	c #D75CCF3CCF3C",
"2.	c #DF7DD75CD75C",
"3.	c #965896588E38",
"4.	c #CF3CC71BC71B",
"5.	c #79E771C669A6",
"6.	c #9E7996589658",
"7.	c #69A671C66185",
"8.	c #BEFBC30BB6DA",
"9.	c #8E388A2879E7",
"0.	c #FFFFF7DEF7DE",
"q.	c #C71BC30BBEFB",
"w.	c #DF7DE38DD75C",
"e.	c #79E7820771C6",
"r.	c #79E775D671C6",
"t.	c #596555555144",
"y.	c #69A665956185",
"u.	c #86177DF779E7",
"i.	c #96588E388E38",
"                                                                                                ",
"  . . X o O + @ # o # $ % # & * + = o - ; : . > : : , < 1 2 3 2 = , 4 5 6 : 7 8 3 5 , : . 5 . % ",
"  2 = o 9 % o 0 q q w O @ $ e o r * r 9 + t r * * @ 3 . y u i . p 2 a s X d f , a g s a h = = 9 ",
"  q 9 & % q j 3 j % + 5 y q $ 9 k w & q k q * t r r 9 9 r l 9 a a , z . z , 7 x s 2 - 0 c 0 - 9 ",
"  2 q * % 9 @ 2 i , % v 2 q b 9 $ v s + r # ; o $ q + 9 l 9 % r r r r k o w : = n z 2 0 p - = 9 ",
"  , % l k o 2 6 < n O % 9 o % k * a 2 @ & m M $ N 9 r + * k 9 r X + + 9 + r 9 r 9 9 B # a 2 6 9 ",
"  o % % & @ = V C @ m y # & % + o = Z , # % % + + + r x 0 % A + z X * 9 k k * 9 & r r r r r r 9 ",
"  O O w * c S y D # c + o q q q s 6 F , G z 9 % $ 9 9 @ - 3 - * - O % A H 9 J * 9 + # @ q r N 9 ",
"  . M 5 z n . K y o @ 9 9 k k + - z K 2 Z L % & t + * a V < n % * + q q 9 l # j k r * Z @ 9 r 9 ",
"  p 5 , 4 h . K 5 2 n , 0 = h a , M C * m P r % r q # a S D # < = % l k r * = 4 Z a # 3 % 9 + 9 ",
"  z 2 p , 3 8 7 M . 4 z z z 5 2 m 8 7 q w o o + k & s 4 M C O K h * 9 q r @ 3 5 8 o X k % t k 9 ",
"  , o a J o J Z - 0 , 0 2 d ; ; 0 I C a i 5 2 4 V 2 p Z y U 9 J t k r k k = S F , h < X % 9 + 9 ",
"  M X : c w k + 9 s 4 , p p s 2 3 1 < P i 5 2 p 4 - a M Y M 0 m T x & & o 0 M R p z . o r + r 9 ",
"  6 x 4 h & k % q J m c o c o j t h 3 x p p E 0 , p p . W z , , . z . , p p U D % o A l 9 % r 9 ",
"  p q o 9 + # + % 0 S F = < s = + r + * , p a o # v 6 z   Q S 2 , v p c 0 2 1 K J , ; = v $ = 9 ",
"  a # * o N $ % # S 5 4 & u M ! + * + a p 0 Q # n b r r r r ~ 0 d J 2 p d 0 K L n , 5 2 n S 6 9 ",
"  J % * o q + w h E F a o G e 9 ^ e N @ , < Q P c ! 9 + N / ( J 4 @ + # & o E z = ; V ) _ ` , 9 ",
"  v # b 9 r q O c Z F @ @ + % & b N T @ Q F @ J j ^ e / / ' m @ 1 @ 0 2 . r l r N 3 n ] 6 m c 9 ",
"  8 . 2 p 3 c a 6 L p & % % [ A { + P ` K Z o o % e N { / } | 4 Y % p a Q r r r # 3 2 - o X s 9 ",
"  - g 2 U . _ P 2 C # a a J [ N N w  .5 L a O O o ..+ { N  .; F z # $ w A + H 9 v p Z D p L X.9 ",
"  a 0 v , S z J S C p g : . 4 Q o.o.J O.K q X @ o N r e ..| V X.J O # o A 9 l B a 2 y +.+ - * 9 ",
"  & 4 o * % # } 2 X.o.a a p S Q @.E #.$.K J 2 v j O % j %.&.*.< # N % r b A k $ 3 O.L 4 * # r 9 ",
"  J L z a N t A * V 3 o.* @ h 3 o.@.3 =.< 2 p n , V , z  .; -.c B @ r A l r A s 2 < =.* # + 9 9 ",
"  T T , * A N H 3 a Z Z % % a H ^ e r < U T n a n , S ~ h ;.:.= 0 ; S m T s X h z 1 4 x # [ e 9 ",
"  @ * * k % k $ v - O.0 s g +.e N { r E v E w B * # #.p m _ >.S c 3 v V 2 4 3 p +.L @ o % + r 9 ",
"  o b B e o e s m i *.@ w T @ A % k N p m :.@ > E $ r r { h X.s 2 p c 4 p z , h F 7 s 4 0 z ( 9 ",
"  @ B b e A G v ( $.z x o w l 9 % N @ m S ,.G 8 o.} k r A <.;.E Q + O + w o # w F R s 0 a ( 0 9 ",
"  a @ j # ..1.p z *.w # G b k ^ ^ % h 2 K p G O b / e N N 2.m y $.a p + e r r r E S #.h m 3 ; 9 ",
"  V V p S _ 3 ` *.3.! T % G H e A b c Z L w O o B r r r ' 4.E y . M g o r r 9 r a J S @ O r ^ 9 ",
"  p Q = n n 3 3 5.Q ( E 0 p a #.#.T E < 2 N B N e k + N j ;.3.D * o r r l B 9 9 a ` C ` p 2.! 9 ",
"  p a j s 1._ ~ I S 3.c , , c o.Q  .. I @ 3 ..% l r ^ / T Q $.Z k # # 9 % A r @ p z I w N % k 9 ",
"  E > w , X + * p j #.E j ~ a &.c ( 4 -.#.E o.6.#.c ( %.c Q 7.$ o $ e + r ..A m E < V p T 9 % 9 ",
"  . O.V ,.3.O N / + @ p 6 = w x 8.8.V ,.c E m c ;.Q o.m m 9.I 0.` ..! / A r } = V 7 X p w B r 9 ",
"  z O } T #./ % r b q.3 < o.; w.T e + w } m ( m ) ( a |  .X.*.p Q p Q 3 ` p s 4 z F r @ 9 + N 9 ",
"  y # $ 9 b + % 9 j v 2 *.3 Q $.e.# { r / T ` m N w w h h X.4 c h ` ` 3 ` S j z X.Q @ a @ 9 9 9 ",
"  X ..$ % + e e ..j a r.S b % b # r ^ { w 4._ t.m V h H r & r j ) p s s a ] c #.:.n E ` +.Q - 9 ",
"  o } / + A ^ A s 3 , ,.] $ ! N b A N b %.T ; O.N  .# B l [ A $ s ] ` N 3 } w ] ,.= P s v ( = 9 ",
"  = 3.o.- h s $ v 2 5 _ # * O 9 / r A ..m ~ 5.#.} + l % + k H ] m V =.w z s 9 r r r s c c a ( 9 ",
"  2 S E E . , , 3 , $.p v ..+ r e { k j ` ; r.$ ; $ A b r r @ # p O., b w k e e k r # @ +.w * 9 ",
"  m = - c 2 o.E 2 z 7 3 E p , #.3 4.T c E 5.] $ # b H r + l J 3 z F v e $ k N N r $ = v y.c * 9 ",
"  + k 9 % w @ X h o.I E V S V Q Q ; p 3 6.-.<. .w N A + ^ G a n y V a ..% / A / r v s c r.b o 9 ",
"  G H k l 9 [ 9 q & h & @ X a 8.a c 3 ] < >.j z ; ] m ( J h c 3.D o w N k N A r e p m u.i.w ] 9 ",
"  o G + H H + H G H k A k H % % & @ s v O.C ) m 6.` Q E E 3 m > C # a X & A r { s m S y.1.] 1.9 ",
"  + + N q % q k $ & N & q k l r l r ^ A / $ / N s s 3 3 a ] ` D L a o.n z 3 S h 3 c O.u.e s e 9 ",
"  & k + q % q 9 q % + % q k k % % k b H r r ! / e s 4.~ s j c C 1 S n 2 z 3 5 ~ s _ r.3.1.a j 9 ",
"  k l e + B N * * + + k + + + k l k % A N e ! A 0.1.p ~ 3.' <.+ & # a c E - c c X E -.6.` ~ _ 9 ",
"  V - s o N 9 k k k % k q 9 k + k [ & r o ! r A 2.} ~ m   <.N G $ k A A r $ N m c s C 6.3 ~ ~ 9 ",
"  9 9 9 9 9 9 9 9 9 9 9 9 9 9 9 9 9 9 9 9 9 9 9 9 9 9 9 9 9 9 9 9 9 9 9 9 9 9 9 9 9 9 9 9 9 9 9 "};
