/* XPM */
static char * menus_xpm[] = {
"48 48 26 1",
" 	c None",
".	c #2C2C2C",
"+	c #FEFEFE",
"@	c #505075",
"#	c #5F5F5F",
"$	c #A2A2A2",
"%	c #282828",
"&	c #000000",
"*	c #727272",
"=	c #151515",
"-	c #2D2D2D",
";	c #1E1E1E",
">	c #040404",
",	c #6D6D6D",
"'	c #0E0E0E",
")	c #FFFFFF",
"!	c #6C6C6C",
"~	c #070707",
"{	c #AEAAAE",
"]	c #6A6A6A",
"^	c #0B0B0B",
"/	c #181818",
"(	c #686868",
"_	c #3E3E3E",
":	c #DADADA",
"<	c #9D9D9D",
"...............................................+",
".@@@@@@@@@@@@@@@@@@@@@@@@@@@@@@@@@@@@@@@@@@@@@@+",
".@@@@@@@@@@@@@@@@@@@@@@@@@@@@@@@@@@@@@@@@@@@@@@+",
".@@@@@@@@@@@@@@@@@@@@@@@@@@@@@@@@@@@@@@@@@@@@@@+",
".@@@@@@@@@@@@@@@@@@@@@@@@@@@@@@@@@@@@@@@@@@@@@@+",
".@@@@@@@@@@@@@@@@@@@@@@@@@@@@@@@@@@@@@@@@@@@@@@+",
".@@@@@@@#########################$######%@@@@@@+",
".@@@@@@@#&&&&&&&&&&&&&&&&&&&&&&&&*==-&;>%@@@@@@+",
".@@@@@@@#&&&&&&&&&&&&&&&&&&&&&&&&,')&&)&%@@@@@@+",
".@@@@@@@#&&&&&&&&&&&&&&&&&&&&&&&&!~~{{&&%@@@@@@+",
".@@@@@@@#&&&&&&&&&&&&&&&&&&&&&&&&!~~{{&&%@@@@@@+",
".@@@@@@@#&&&&&&&&&&&&&&&&&&&&&&&&]^)&/)&%@@@@@@+",
".@@@@@@@#&&&&&&&&&&&&&&&&&&&&&&&&(&&&&&&%@@@@@@+",
".@@@@@@@#%%%%%%%%%%%%%%%%%%%%%%%%_%%%%%%%@@@@@@+",
".@@@@@@@:::::::::::::::::::::::::::::::::@@@@@@+",
".@@@@@@@:<<<<<<<<<<<<<<<<<<<<<<<<<<<<<<<_@@@@@@+",
".@@@@@@@:<&&&<&&<<&&<<<&<<<<<<<<<<<<<&<<_@@@@@@+",
".@@@@@@@:<&<&<&<&<&<&<<&<<<<<<<<<<<<<&:<_@@@@@@+",
".@@@@@@@:<&&&<&&<<&&<<<&<<<<<<<<<<<<<:<<_@@@@@@+",
".@@@@@@@:<<<<<<<<<<<<<<<<<<<<<<<<<<<<<<<_@@@@@@+",
".@@@@@@@:________________________________@@@@@@+",
".@@@@@@@:::::::::::::::::::::::::::::::::@@@@@@+",
".@@@@@@@:<<<<<<<<<<<<<<<<<<<<<<<<<<<<<<<_@@@@@@+",
".@@@@@@@:<&&&<&&<<&&<<<&<&<<<<<<<<<<<&<<_@@@@@@+",
".@@@@@@@:<&<&<&<&<&<&<<&<&<<<<<<<<<<<&:<_@@@@@@+",
".@@@@@@@:<&&&<&&<<&&<<<&<&<<<<<<<<<<<:<<_@@@@@@+",
".@@@@@@@:<<<<<<<<<<<<<<<<<<<<<<<<<<<<<<<_@@@@@@+",
".@@@@@@@:________________________________@@@@@@+",
".@@@@@@@:::::::::::::::::::::::::::::::::@@@@@@+",
".@@@@@@@:<<<<<<<<<<<<<<<<<<<<<<<<<<<<<<<_@@@@@@+",
".@@@@@@@:<&&&<&&<<&&<<<&<&<&<<<<<<<<<<<<_@@@@@@+",
".@@@@@@@:<&<&<&<&<&<&<<&<&<&<<<<<<<<<<<<_@@@@@@+",
".@@@@@@@:<&&&<&&<<&&<<<&<&<&<<<<<<<<<<<<_@@@@@@+",
".@@@@@@@:<<<<<<<<<<<<<<<<<<<<<<<<<<<<<<<_@@@@@@+",
".@@@@@@@:________________________________@@@@@@+",
".@@@@@@@:::::::::::::::::::::::::::::::::@@@@@@+",
".@@@@@@@:<<<<<<<<<<<<<<<<<<<<<<<<<<<<<<<_@@@@@@+",
".@@@@@@@:<<<<<<<<<<<<<<<<<<<<<<<<<<<<<<<_@@@@@@+",
".@@@@@@@:<<<<<<<<<<<<<<<<<<<<<<<<<<<<<<<_@@@@@@+",
".@@@@@@@:<&&&&<<<<<<<<<<<<<<<<<<<<<<<<<<_@@@@@@+",
".@@@@@@@:<<<<<<<<<<<<<<<<<<<<<<<<<<<<<<<_@@@@@@+",
".@@@@@@@:________________________________@@@@@@+",
".@@@@@@@@@@@@@@@@@@@@@@@@@@@@@@@@@@@@@@@@@@@@@@+",
".@@@@@@@@@@@@@@@@@@@@@@@@@@@@@@@@@@@@@@@@@@@@@@+",
".@@@@@@@@@@@@@@@@@@@@@@@@@@@@@@@@@@@@@@@@@@@@@@+",
".@@@@@@@@@@@@@@@@@@@@@@@@@@@@@@@@@@@@@@@@@@@@@@+",
".@@@@@@@@@@@@@@@@@@@@@@@@@@@@@@@@@@@@@@@@@@@@@@+",
"++++++++++++++++++++++++++++++++++++++++++++++++"};
