/* XPM */
static char * image_name[] = {
"48 48 124 2",
"  	c None",
". 	c #51445D759E79",
"X 	c #000000000000",
"o 	c #0000104079E7",
"O 	c #28A228A230C2",
"+ 	c #082008200820",
"@ 	c #FFFFFFFFFFFF",
"# 	c #18611C711861",
"$ 	c #104014511040",
"% 	c #28A228A228A2",
"& 	c #DF7DDB6CDF7D",
"* 	c #9E799E799E79",
"= 	c #618561856185",
"- 	c #492459656185",
"; 	c #5144618569A6",
": 	c #596569A671C6",
"> 	c #618569A671C6",
", 	c #618569A669A6",
"< 	c #618565956185",
"1 	c #59655D756185",
"2 	c #71C671C671C6",
"3 	c #410341034103",
"4 	c #0820451469A6",
"5 	c #28A259658617",
"6 	c #38E37DF7B6DA",
"7 	c #51449E79D75C",
"8 	c #69A6AEBADF7D",
"9 	c #79E7BEFBE79D",
"0 	c #9E79CF3CF7DE",
"q 	c #8E38C30BEFBE",
"w 	c #2081514479E7",
"e 	c #000010402081",
"r 	c #082038E35965",
"t 	c #38E369A68617",
"y 	c #49249248BEFB",
"u 	c #6185AAAACF3C",
"i 	c #79E7B6DACF3C",
"p 	c #8E38BEFBCF3C",
"a 	c #79E7AEBAB6DA",
"s 	c #51448207A699",
"d 	c #59659248AEBA",
"f 	c #71C6A699C71B",
"g 	c #0000186130C2",
"h 	c #000028A24924",
"j 	c #0820410369A6",
"k 	c #2081555579E7",
"l 	c #30C261858E38",
"z 	c #38E375D6A699",
"x 	c #6185A699DF7D",
"c 	c #71C6B2CAE79D",
"v 	c #41039248C71B",
"b 	c #49249248CF3C",
"n 	c #49249658CF3C",
"m 	c #38E38E38C71B",
"M 	c #38E36DB69E79",
"N 	c #38E38A28C71B",
"B 	c #000008201861",
"V 	c #0000145128A2",
"C 	c #00001C7130C2",
"Z 	c #000034D35965",
"A 	c #38E37DF7AEBA",
"S 	c #28A25D758617",
"D 	c #000038E36185",
"F 	c #000024924103",
"G 	c #38E375D69E79",
"H 	c #5965A699D75C",
"J 	c #000030C25965",
"K 	c #00002CB25144",
"L 	c #00003CF36185",
"P 	c #28A261858617",
"I 	c #30C265958E38",
"U 	c #1040451469A6",
"Y 	c #79E7BAEAE79D",
"T 	c #6185A289D75C",
"R 	c #000008201040",
"E 	c #0000208138E3",
"W 	c #41038E38C71B",
"Q 	c #00000C302081",
"! 	c #38E38617BEFB",
"~ 	c #38E371C69E79",
"^ 	c #6185AAAADF7D",
"/ 	c #71C6B6DAE79D",
"( 	c #8617BEFBEFBE",
") 	c #9658CB2BEFBE",
"_ 	c #38E379E7AEBA",
"` 	c #49249A69CF3C",
"' 	c #8617C30BEFBE",
"] 	c #18614D3471C6",
"[ 	c #000038E35965",
"{ 	c #8617BAEAE79D",
"} 	c #A699CF3CF7DE",
"| 	c #30C269A68E38",
" .	c #1040492471C6",
"..	c #38E369A69658",
"X.	c #69A6B2CADF7D",
"o.	c #8617BEFBE79D",
"O.	c #30C261858617",
"+.	c #38E38207B6DA",
"@.	c #9658CB2BF7DE",
"#.	c #1040492469A6",
"$.	c #5965A289D75C",
"%.	c #38E371C69658",
"&.	c #38E36DB69658",
"*.	c #8E38C71BEFBE",
"=.	c #A699D34CF7DE",
"-.	c #0000104028A2",
";.	c #51449658CF3C",
":.	c #41038A28BEFB",
">.	c #000030C25144",
",.	c #10404D3469A6",
"<.	c #10404D346185",
"1.	c #00002CB24924",
"2.	c #1861492469A6",
"3.	c #18614D3469A6",
"4.	c #410379E79658",
"5.	c #492482079658",
"6.	c #79E7B2CABEFB",
"7.	c #79E7B6DAC71B",
"8.	c #9658BEFBC71B",
"9.	c #9E79C71BCF3C",
"0.	c #71C6A699BEFB",
"q.	c #8E38BAEACF3C",
"w.	c #59659248B6DA",
"e.	c #6185A289AEBA",
"                                                                                                ",
"                                                                                                ",
"                                                                                                ",
"                                                                                                ",
"                                                                                                ",
"            . . . . . . . . . . . . . . . . . . . . . . . . . . . . . . . . . X X X             ",
"            . o o o o o o o o o o o o o o o o o o o o o o o o O . o o o o o O + + X X           ",
"            . o o o o o o o o o o o o o o o o o o o o o o o o O . o @ o @ o O # $ + X           ",
"            . o o o o o o o o o o o o o o o o o o o o o o o o O . o o @ o o O % # + X           ",
"            . o o o o o o o o o o o o o o o o o o o o o o o o O . o @ o @ o O % # + X           ",
"            . o o o o o o o o o o o o o o o o o o o o o o o o O . o o o o o O % # + X           ",
"            . O O O O O O O O O O O O O O O O O O O O O O O O O . O O O O O O % # + X           ",
"            & & & & & & & & & & & & & & & & & & & & & & & & & & & & & & & & & % # + X           ",
"            & * * * * * * * * * = - ; : > > , , < 1 = = = = = = = = = = 2 @ 3 % # + X           ",
"            & * * * * * * * * * = 4 5 6 7 8 9 0 q w e r t y u i p a s d f @ 3 % % + X           ",
"            & * * * * * * * * * = g h j k l z x q c v b 7 n m b 8 7 M N N @ 3 % # + X           ",
"            & * * * * * * * * * = B V h h C Z A c c b S D F j G H z J Z D @ 3 % # + X           ",
"            & * * * * * * * * * = K L P I U Z z 8 Y T U V R E k W l V Q Q @ 3 % # + X           ",
"            & 3 3 3 3 3 3 3 3 3 = W v H T ! ~ ^ Y / 0 8 5 E V j z 5 V R R @ 3 % # + X           ",
"            & & & & & & & & & & = 9 ( ) ) 8 _ ! ` b ' 0 c z ] S N 6 4 [ [ @ & % # + X           ",
"            & * * * * * * * * * = 7 x { 0 } Y z |  ...X.Y ^ 7 x c X.b ! ! @ 3 % % + X           ",
"            & * * * * * * * * * = ] w z H q 0 o.x N ] x Y ^ 7 ^ ( ) / W W @ 3 % # + X           ",
"            & * * * * * * * * * = h V Z O.n 9 ( c ~ j n x n +.6 7 / 8 l l @ 3 % # + X           ",
"            & * * * * * * * * * = F e C  .! Y @.o.5 V ] l k #.w ! T $.%.&.@ 3 % # + X           ",
"            & * * * * * * * * * = ] L  .~ n X.*.=.b g -.e F j 5 W H 7 ;.b @ 3 % # + X           ",
"            & 3 3 3 3 3 3 3 3 3 = $.W v b W W x 0 / z  .E F j l W x ` :.+.@ 3 % # + X           ",
"            & & & & & & & & & & = Y x ! l ] ] A { Y H 6  .>.D ] I 6 l ,.<.@ & % % + X           ",
"            & * * * * * * * * * = Y $.| Z V 1...Y 8 A ] Z h 1.Z U I &.2.3.@ 3 % # + X           ",
"            & * * * * * * * * * = { ' c !  .j ~ c ` J g F F V -.F ] ! 4.5.@ 3 % # + X           ",
"            & * * * * * * * * * = n x q =.@.c T Y ` F L M _ k >.L &.8 6.7.@ 3 % # + X           ",
"            & * * * * * * * * * = j ] _ ^ q @.q ' / ! k ! T 7 ! ! 7 Y 8.9.@ 3 % # + X           ",
"            & * * * * * * * * * = E C L l ` Y Y X.8 H z ! $.^ x x 7 x 0.q.@ 3 % # + X           ",
"            & 3 3 3 3 3 3 3 3 3 = g -.K S n Y / b l S b x ^ $.+.5  .O.w.e.@ 3 % % + X           ",
"            & & & & & & & & & & @ @ @ @ @ @ @ @ @ @ @ @ @ @ @ @ @ @ @ @ @ @ & % # + X           ",
"            & * * * * * * * * * * * * * * * * * * * * * * * * * * * * * * * 3 % # + X           ",
"            & * * * * * * * * * * * * * * * * * * * * * * * * * * * * * * * 3 % # + X           ",
"            & * * * * * * * * * * * * * * * * * * * * * * * * * * * * * * * 3 % # + X           ",
"            & * * * * * * * * * * * * * * * * * * * * * * * * * * * * * * * 3 % # + X           ",
"            & * * * * * * * * * * * * * * * * * * * * * * * * * * * * * * * 3 % % + X           ",
"            & 3 3 3 3 3 3 3 3 3 3 3 3 3 3 3 3 3 3 3 3 3 3 3 3 3 3 3 3 3 3 3 3 % # + X           ",
"            X + # % % % % % % % % % % % % % % % % % % % % % % % % % % % % % % % # + X           ",
"            X + $ # # # # # # # # # # # # # # # # # # # # # # # # # # # # # # # $ + X           ",
"            X X + + + + + + + + + + + + + + + + + + + + + + + + + + + + + + + + + X X           ",
"              X X X X X X X X X X X X X X X X X X X X X X X X X X X X X X X X X X X             ",
"                                                                                                ",
"                                                                                                ",
"                                                                                                ",
"                                                                                                "};
