/* XPM */
static char * image_name[] = {
"32 32 5 1",
" 	c None",
".	c #000000000000",
"X	c #AEBAAAAAAEBA",
"o	c #514455555144",
"O	c #FFFFFFFFFFFF",
"                                ",
" ................               ",
" .XXXXXXXXXXXXXX.               ",
" .X............o.               ",
" .X............o.               ",
" .oooooooooooooo.               ",
" ................               ",
" .OOOOOOOOOOOOOO.               ",
" .OXXXXXXXXXXXXo.               ",
" .OXXXXXXXXXXXXo.               ",
" .oooooooooooooo.               ",
" .............................. ",
" .OOOOOOOOOOOOOO..XXXXXXXXXXXX. ",
" .OXXXXXXXXXXXXo..X..........o. ",
" .OXXXXXXXXXXXXo..X..........o. ",
" .oooooooooooooo..oooooooooooo. ",
" .............................. ",
" .OOOOOOOOOOOOOO..OOOOOOOOOOOO. ",
" .OOOOOOOOOOOOOo..OXXXXXXXXXXo. ",
" .OOOOOOOOOOOOOo..OXXXXXXXXXXo. ",
" .oooooooooooooo..oooooooooooo. ",
" .............................. ",
" .OOOOOOOOOOOOOO..OOOOOOOOOOOO. ",
" .OXXXXXXXXXXXXo..OXXXXXXXXXXo. ",
" .OXXXXXXXXXXXXo..OXXXXXXXXXXo. ",
" .oooooooooooooo..oooooooooooo. ",
" .............................. ",
"                 .OOOOOOOOOOOO. ",
"                 .OXXXXXXXXXXo. ",
"                 .OXXXXXXXXXXo. ",
"                 .oooooooooooo. ",
"                 .............. "};
