/* XPM */
static char * menuprefs_xpm[] = {
"48 48 80 1",
" 	c None",
".	c #2C2C2C",
"+	c #FEFEFE",
"@	c #8F8B8F",
"#	c #908C90",
"$	c #908D90",
"%	c #918D91",
"&	c #928E92",
"*	c #938F93",
"=	c #949094",
"-	c #949194",
";	c #959195",
">	c #969296",
",	c #979397",
"'	c #989498",
")	c #999599",
"!	c #9A969A",
"~	c #9B979B",
"{	c #9C989C",
"]	c #9D999D",
"^	c #9E9A9E",
"/	c #8F8C8F",
"(	c #908E90",
"_	c #918E91",
":	c #928F92",
"<	c #939093",
"[	c #949294",
"}	c #959295",
"|	c #969396",
"1	c #979497",
"2	c #989598",
"3	c #999699",
"4	c #9A979A",
"5	c #9B989B",
"6	c #9C999C",
"7	c #9D9A9D",
"8	c #9E9B9E",
"9	c #5F5F5F",
"0	c #A2A2A2",
"a	c #282828",
"b	c #000000",
"c	c #727272",
"d	c #151515",
"e	c #2D2D2D",
"f	c #1E1E1E",
"g	c #040404",
"h	c #6D6D6D",
"i	c #0E0E0E",
"j	c #FFFFFF",
"k	c #9F9B9F",
"l	c #918F91",
"m	c #6C6C6C",
"n	c #070707",
"o	c #1F1F1F",
"p	c #9F9C9F",
"q	c #999799",
"r	c #959395",
"s	c #6A6A6A",
"t	c #0B0B0B",
"u	c #181818",
"v	c #A09CA0",
"w	c #111111",
"x	c #090909",
"y	c #686868",
"z	c #A19DA1",
"A	c #3E3E3E",
"B	c #A29EA2",
"C	c #A09DA0",
"D	c #DADADA",
"E	c #9D9D9D",
"F	c #A39FA3",
"G	c #A19EA1",
"H	c #A4A0A4",
"I	c #A5A1A5",
"J	c #A6A2A6",
"K	c #A7A3A7",
"L	c #A29FA2",
"M	c #989698",
"N	c #8E8A8E",
"O	c #A8A4A8",
"...............................................+",
".@@#$%&**=-;>,,'))!~~{]^^]]{~~!))',,>;-=**&%$#@+",
".//$(_:<<-[}|11233455677877655433211|}[-<<:_($/+",
"./#99999999999999999099999a]{{~!!)'1,>};=<*&_%#+",
".$%9bbbbbbbbbbbbbbbbcdebfga^]]{~~!)2',|>;-=*:&%+",
"._&9bbbbbbbbbbbbbbbbhijbjbak^^]{{~!3)'1,>};=<*&+",
".l:9bbbbbbbbbbbbbbbbmnojbbap8876654q3211|r}-<<:+",
".:*9bbbbbbbbbbbbbbbbstjujbavk8^]6{~4!)'',|>;=<*+",
".*=9bbbbwwwwwwwwwwwxybbbbbazvpk^7]{~~!))',|>;-=+",
".=;9aaaaaaaaaaaaaaaaAaaaaaaBzCvk8^]{{~!!)'1,>};+",
".=;DDDDDDDDDDDDDDDDDDDDDDDDBzCvk8^]{{~!!)'1,>};+",
".;>DEEEEEEEEEEEEEEEEEEEEEEAFBGzvpk^]6{~4!)2',|>+",
".>|DEEEEEEEEEEEEEEEEEEEEEEAHFBBzvvk^7]{5~!32',|+",
".,1DEEEEEEEEEEEEEEEEEEEEEEAIHFFBzzvk8^]6{~!3)'1+",
".,1DEEEEEEEEEEEEEEEEEEEEEEAIHFFBzzvk8^]6{~!3)'1+",
".'2DEEEEEEEEEEEEEEEEEEEEEEAJIHHFBBzvpk^7]{~4!)2+",
".23DAAAAAAAAAAAAAAAAAAAAAAAKJIIHFLBzvvk^7]{5~!3+",
".M3DDDDDDDDDDDDDDDDDDDDDDDD99999999999999999a43+",
".3!DEEEEEEEEEEEEEEEEEEEEEEA9bbbbbbbbbbbbbbbba~!+",
".4~DEEEEEEEEEEEEEEEEEEEEEEA9bbbbbbbbbbbbbbbba{~+",
".5{DEEEEEEEEEEEEEEEEEEEEEEA9bbbbbbbbbbbbbbbba]{+",
".56DEEEEEEEEEEEEEEEEEEEEEEA9bbbbbbbbbbbbbbbba76+",
".{]DEEEEEEEEEEEEEEEEEEEEEEA9bbbbbbbbbbbbbbbba^]+",
".N^DAAAAAAAAAAAAAAAAAAAAAAAaaaaaaaaaaaaaaaaaa8^+",
".N]DDDDDDDDDDDDDDDDDDDDDDDDDDDDDDDDDDDDDDDDDD^]+",
".N6DEEEEEEEEEEEEEEEEEEEEEEADEEEEEEEEEEEEEEEEA76+",
".N{DEEEEEEEEEEEEEEEEEEEEEEADEEEEEEEEEEEEEEEEA]{+",
".N~DEEEEEEEEEEEEEEEEEEEEEEADEEEEEEEEEEEEEEEEA{~+",
".N!DEEEEEEEEEEEEEEEEEEEEEEADEEEEEEEEEEEEEEEEA~!+",
".N3DEEEEEEEEEEEEEEEEEEEEEEADEEEEEEEEEEEEEEEEA43+",
".N3DAAAAAAAAAAAAAAAAAAAAAAADAAAAAAAAAAAAAAAAA!3+",
".N2)!4~{]7^kpvzBBFHHIJKKOKKDDDDDDDDDDDDDDDDDD)2+",
".N1')3!~{6]^8kvzzBFFHIJJKJJDEEEEEEEEEEEEEEEEA'1+",
".N1')3!~{6]^8kvzzBFFHIJJKJJDEEEEEEEEEEEEEEEEA'1+",
".N|,'23!~5{]7^kvvzBBFHIIJIIDEEEEEEEEEEEEEEEEA,|+",
".N>|,'2)!4~{6]^kpvzGBFHHIHHDEEEEEEEEEEEEEEEEA|>+",
".N;}>,1')!!~{{]^8kvCzBFFHFFDEEEEEEEEEEEEEEEEA};+",
".N;}>,1')!!~{{]^8kvCzBFFHFFDAAAAAAAAAAAAAAAAA};+",
".N=-;>|,'))!~~{]7^kpvzBBFBBDDDDDDDDDDDDDDDDDD-=+",
".N*<=;>|,'')!4~{6]^8kvzzBzzDEEEEEEEEEEEEEEEEA<*+",
".N:<<-}r|1123q4566788pCCGCCDEEEEEEEEEEEEEEEEA<:+",
".N&*<=;}>,1')3!~{{]^^kvvzvvDEEEEEEEEEEEEEEEEA*&+",
".N%&:*=-;>|,'2)!~~{]]^kkvkkDEEEEEEEEEEEEEEEEA&%+",
".N#%_&*<=;}>,1')!!~{{]^^k^^DEEEEEEEEEEEEEEEEA%#+",
".N/$(_:<<-[}|11233455677877DAAAAAAAAAAAAAAAAA$/+",
".N@#$%&**=-;>,,'))!~~{]]^]]{~~!))',,>;-=**&%$#@+",
".NNNNNNNNNNNNNNNNNNNNNNNNNNNNNNNNNNNNNNNNNNNNNN+",
"++++++++++++++++++++++++++++++++++++++++++++++++"};
