/* XPM */
static char * image_name[] = {
"32 32 5 1",
" 	c None",
".	c #000000000000",
"X	c #AEBAAAAAAEBA",
"o	c #514455555144",
"O	c #FFFFFFFFFFFF",
"                                ",
"                                ",
"                                ",
" .............................. ",
" .XXXXXXXXXXXXXX..XXXXXXXXXXXX. ",
" .X............o..X..........o. ",
" .X............o..X..........o. ",
" .oooooooooooooo..oooooooooooo. ",
" .............................. ",
" .OOOOOOOOOOOOOO..OOOOOOOOOOOO. ",
" .OXXXXXXXXXXXXo..OXXXXXXXXXXo. ",
" .OXXXXXXXXXXXXo..OXXXXXXXXXXo. ",
" .oooooooooooooo..oooooooooooo. ",
" .............................. ",
" .OOOOOOOOOOOOOO..OOOOOOOOOOOO. ",
" .OXXXXXXXXXXXXo..OXXXXXXXXXXo. ",
" .OXXXXXXXXXXXXo..OXXXXXXXXXXo. ",
" .oooooooooooooo..oooooooooooo. ",
" .............................. ",
" .OOOOOOOOOOOOOO..OOOOOOOOOOOO. ",
" .OOOOOOOOOOOOOo..OXXXXXXXXXXo. ",
" .OOOOOOOOOOOOOo..OXXXXXXXXXXo. ",
" .oooooooooooooo..oooooooooooo. ",
" .............................. ",
" .OOOOOOOOOOOOOO.               ",
" .OXXXXXXXXXXXXo.               ",
" .OXXXXXXXXXXXXo.               ",
" .oooooooooooooo.               ",
" ................               ",
"                                ",
"                                ",
"                                "};
