/* XPM */
static char * menus_xpm[] = {
"48 48 71 1",
" 	c None",
".	c #2C2C2C",
"+	c #FEFEFE",
"@	c #8E8B8E",
"#	c #8F8B8F",
"$	c #8F8C8F",
"%	c #908C90",
"&	c #918D91",
"*	c #928E92",
"=	c #928F92",
"-	c #938F93",
";	c #949094",
">	c #959195",
",	c #969296",
"'	c #969396",
")	c #979497",
"!	c #989598",
"~	c #999699",
"{	c #9A969A",
"]	c #9B979B",
"^	c #9C989C",
"/	c #9C999C",
"(	c #9E9A9E",
"_	c #9D999D",
":	c #908D90",
"<	c #939093",
"[	c #949194",
"}	c #959295",
"|	c #979397",
"1	c #989498",
"2	c #999599",
"3	c #9A979A",
"4	c #9D9A9D",
"5	c #9E9B9E",
"6	c #908E90",
"7	c #918E91",
"8	c #9B989B",
"9	c #9D9B9D",
"0	c #9F9B9F",
"a	c #A09CA0",
"b	c #9F9C9F",
"c	c #A19DA1",
"d	c #5F5F5F",
"e	c #A2A2A2",
"f	c #282828",
"g	c #959395",
"h	c #000000",
"i	c #727272",
"j	c #151515",
"k	c #2D2D2D",
"l	c #1E1E1E",
"m	c #040404",
"n	c #6D6D6D",
"o	c #0E0E0E",
"p	c #FFFFFF",
"q	c #949294",
"r	c #6C6C6C",
"s	c #070707",
"t	c #AEAAAE",
"u	c #6A6A6A",
"v	c #0B0B0B",
"w	c #181818",
"x	c #686868",
"y	c #999799",
"z	c #3E3E3E",
"A	c #DADADA",
"B	c #9D9D9D",
"C	c #A09DA0",
"D	c #8E8A8E",
"E	c #A29EA2",
"F	c #A19EA1",
"...............................................+",
".@#$%&*=-;>>,'))!~~{]^/((_/^]{~~!))',>>;-=*&%$#+",
".#%:&*-<<[}}'|112{3]^_4(5(4_^]3{211|'}}[<<-*&:%+",
".%:67=<<;>,,|122{]88/4950594/88]{221|,,>;<<=76:+",
".:&7*-;[>,||1!~~388^_(50a05(_^883~~!1||,>[;-*7&+",
".&*=-;>},'))!~{{]^/_(0bacab0(_/^]{{~!))',}>;-=*+",
".*-<<[}dddddddddddddddddddddddddeddddddf'g}[<<-+",
".=-<;>,dhhhhhhhhhhhhhhhhhhhhhhhhijjkhlmf|',>;<-+",
".-;[>,|dhhhhhhhhhhhhhhhhhhhhhhhhnophhphf1)|,>[;+",
".;[q}')dhhhhhhhhhhhhhhhhhhhhhhhhrsstthhf1))'}q[+",
".;>},|1dhhhhhhhhhhhhhhhhhhhhhhhhrsstthhf2!1|,}>+",
".>,'|12dhhhhhhhhhhhhhhhhhhhhhhhhuvphwphf{~21|',+",
".,|))!~dhhhhhhhhhhhhhhhhhhhhhhhhxhhhhhhf3y~!))|+",
".,|)12{dffffffffffffffffffffffffzfffffff]3{21)|+",
".|1!2{]AAAAAAAAAAAAAAAAAAAAAAAAAAAAAAAAA^8]{2!1+",
".12~{]^ABBBBBBBBBBBBBBBBBBBBBBBBBBBBBBBz//^]{~2+",
".12~{]^ABhhhBhhBBhhBBBhBBBBBBBBBBBBBhBBz_/^]{~2+",
".2{3]^_ABhBhBhBhBhBhBBhBBBBBBBBBBBBBhABz(4_^]3{+",
".{]8^_(ABhhhBhhBBhhBBBhBBBBBBBBBBBBBABBz55(_^8]+",
".{]8^_(ABBBBBBBBBBBBBBBBBBBBBBBBBBBBBBBz05(_^8]+",
".]^/_(0Azzzzzzzzzzzzzzzzzzzzzzzzzzzzzzzzab0(_/^+",
".^_4(0aAAAAAAAAAAAAAAAAAAAAAAAAAAAAAAAAAcCa0(4_+",
".^_4(0aABBBBBBBBBBBBBBBBBBBBBBBBBBBBBBBzcCa0(4_+",
".D(50acABhhhBhhBBhhBBBhBhBBBBBBBBBBBhBBzEFca05(+",
".D_4(0aABhBhBhBhBhBhBBhBhBBBBBBBBBBBhABzcCa0(4_+",
".D_4(0aABhhhBhhBBhhBBBhBhBBBBBBBBBBBABBzcCa0(4_+",
".D^/_(0ABBBBBBBBBBBBBBBBBBBBBBBBBBBBBBBzab0(_/^+",
".D]8^_(Azzzzzzzzzzzzzzzzzzzzzzzzzzzzzzzz05(_^8]+",
".D]8^_(AAAAAAAAAAAAAAAAAAAAAAAAAAAAAAAAA55(_^8]+",
".D{3]^_ABBBBBBBBBBBBBBBBBBBBBBBBBBBBBBBz(4_^]3{+",
".D2~{]^ABhhhBhhBBhhBBBhBhBhBBBBBBBBBBBBz_/^]{~2+",
".D2~{]^ABhBhBhBhBhBhBBhBhBhBBBBBBBBBBBBz//^]{~2+",
".D1!2{]ABhhhBhhBBhhBBBhBhBhBBBBBBBBBBBBz^8]{2!1+",
".D|)12{ABBBBBBBBBBBBBBBBBBBBBBBBBBBBBBBz]3{21)|+",
".D|))!~Azzzzzzzzzzzzzzzzzzzzzzzzzzzzzzzz3y~!))|+",
".D,'|12AAAAAAAAAAAAAAAAAAAAAAAAAAAAAAAAA{~21|',+",
".D>},|1ABBBBBBBBBBBBBBBBBBBBBBBBBBBBBBBz2!1|,}>+",
".D[q}')ABBBBBBBBBBBBBBBBBBBBBBBBBBBBBBBz1))'}q[+",
".D;[>,|ABBBBBBBBBBBBBBBBBBBBBBBBBBBBBBBz1)|,>[;+",
".D-<;>,ABhhhhBBBBBBBBBBBBBBBBBBBBBBBBBBz|',>;<-+",
".D-<<[}ABBBBBBBBBBBBBBBBBBBBBBBBBBBBBBBz'g}[<<-+",
".D*=-;>Azzzzzzzzzzzzzzzzzzzzzzzzzzzzzzzz,}>;-=*+",
".D&7*-;[>,||1!~~388^_(50a05(_^883~~!1||,>[;-*7&+",
".D:67=<<;>,,|122{]88/4950594/88]{221|,,>;<<=76:+",
".D%:&*-<<[}}'|112{3]^_4(5(4_^]3{211|'}}[<<-*&:%+",
".D#$%&*=-;>>,'))!~~{]^/_(_/^]{~~!))',>>;-=*&%$#+",
".DDDDDDDDDDDDDDDDDDDDDDDDDDDDDDDDDDDDDDDDDDDDDD+",
"++++++++++++++++++++++++++++++++++++++++++++++++"};
