/* XPM */
static char * image_name[] = {
"48 48 147 2",
"  	c None",
". 	c #000000000000",
"X 	c #082008200820",
"o 	c #FFFFFFFF0000",
"O 	c #BEFBBEFB0000",
"+ 	c #104010401040",
"@ 	c #186114511040",
"# 	c #410341031040",
"$ 	c #208120811040",
"% 	c #410341030000",
"& 	c #49244D340820",
"* 	c #514455551040",
"= 	c #28A224922081",
"- 	c #30C230C228A2",
"; 	c #BEFBBAEA1040",
": 	c #514451442081",
"> 	c #208120812081",
", 	c #9E79A2890000",
"< 	c #79E77DF70000",
"1 	c #D75CD75C0820",
"2 	c #4103410338E3",
"3 	c #49244D344103",
"4 	c #DF7DDB6C0820",
"5 	c #410345144103",
"6 	c #38E338E330C2",
"7 	c #71C675D61040",
"8 	c #CF3CCB2B0000",
"9 	c #08200C300820",
"0 	c #618561856185",
"q 	c #618565956185",
"w 	c #71C671C669A6",
"e 	c #8617820779E7",
"r 	c #BEFBBAEA4924",
"t 	c #E79DE79D2081",
"y 	c #AEBAAEBA71C6",
"u 	c #9E79A2899658",
"i 	c #9E799A699658",
"p 	c #A699A28969A6",
"a 	c #DF7DDB6C2081",
"s 	c #861786176185",
"d 	c #69A669A669A6",
"f 	c #186118611861",
"g 	c #20811C712081",
"h 	c #596559655144",
"j 	c #69A66DB66185",
"k 	c #965896585965",
"l 	c #CF3CCB2B38E3",
"z 	c #965896588617",
"x 	c #965892488617",
"c 	c #8617861779E7",
"v 	c #8617861769A6",
"b 	c #A699A69969A6",
"n 	c #492449244103",
"m 	c #5144514428A2",
"M 	c #38E33CF31861",
"N 	c #28A228A228A2",
"B 	c #71C675D630C2",
"V 	c #8E388A284924",
"C 	c #79E77DF771C6",
"Z 	c #9E799E798E38",
"A 	c #FFFFFFFFFFFF",
"S 	c #F7DEFBEEF7DE",
"D 	c #8E388E388617",
"F 	c #8617820771C6",
"G 	c #A699A69971C6",
"H 	c #D75CD75C1040",
"J 	c #FFFFFFFF4924",
"K 	c #DF7DDB6C0000",
"L 	c #FFFFFFFFBEFB",
"P 	c #C71BC30B0820",
"I 	c #59655D752081",
"U 	c #38E33CF338E3",
"Y 	c #D75CD34C1040",
"T 	c #D75CDB6C1861",
"R 	c #EFBEEBADEFBE",
"E 	c #CF3CCB2BCF3C",
"W 	c #AEBAAEBAAEBA",
"Q 	c #79E779E74103",
"! 	c #28A2249228A2",
"~ 	c #514455555144",
"^ 	c #71C675D669A6",
"/ 	c #8E388A2879E7",
"( 	c #EFBEF3CEEFBE",
") 	c #CF3CCF3CCF3C",
"_ 	c #AEBAAAAAA699",
"` 	c #AEBAAAAA71C6",
"' 	c #69A669A65144",
"] 	c #86178A2879E7",
"[ 	c #B6DAB6DAB6DA",
"{ 	c #D75CD34C4103",
"} 	c #BEFBBEFB2081",
"| 	c #30C230C230C2",
" .	c #71C671C671C6",
"..	c #8E388E388E38",
"X.	c #AEBAAAAA5144",
"o.	c #9E799A6971C6",
"O.	c #965896588E38",
"+.	c #C71BC30B2081",
"@.	c #79E779E738E3",
"#.	c #38E338E338E3",
"$.	c #28A22CB228A2",
"%.	c #DF7DDB6CDF7D",
"&.	c #79E77DF779E7",
"*.	c #410341034103",
"=.	c #10400C301040",
"-.	c #30C234D330C2",
";.	c #C71BC71BB6DA",
":.	c #E79DEBAD4924",
">.	c #CF3CD34C8E38",
",.	c #BEFBBEFBB6DA",
"<.	c #EFBEEFBE4103",
"1.	c #DF7DDF7DAEBA",
"2.	c #9E799E799E79",
"3.	c #A699A289A699",
"4.	c #861786178617",
"5.	c #A699A6999E79",
"6.	c #B6DAB2CAA699",
"7.	c #DF7DDB6C38E3",
"8.	c #AEBAAAAA69A6",
"9.	c #AEBAAAAA79E7",
"0.	c #C71BC30B6185",
"q.	c #082004100820",
"w.	c #79E779E771C6",
"e.	c #A699A2899E79",
"r.	c #B6DAB6DA5144",
"t.	c #8E388E3869A6",
"y.	c #71C675D671C6",
"u.	c #79E779E779E7",
"i.	c #A699A6998617",
"p.	c #69A671C669A6",
"a.	c #965896589658",
"s.	c #492449244924",
"d.	c #9E799A699E79",
"f.	c #8E388E385144",
"g.	c #965892489658",
"h.	c #596559655965",
"j.	c #59655D755965",
"k.	c #B6DAB2CAB6DA",
"l.	c #861782078617",
"z.	c #69A66DB669A6",
"x.	c #8E388A288E38",
"c.	c #514451445144",
"v.	c #492445144924",
"b.	c #BEFBBAEABEFB",
"n.	c #A699A699A699",
"m.	c #C71BC30BC71B",
"M.	c #D75CD75CD75C",
"                                                        .                                       ",
"                                                  . . . X o . .       O                         ",
"                                              o . X + + @ # $ X . .   %                         ",
"                                            . X & * = - - ; : > @ , <                           ",
"                                          . X + * 1 2 3 3 4 5 6 7 8 9 .                         ",
"            0 0 0 0 0 0 0 0 0 0 0 0 0 0 0 0 q w e r t y u t i p a s d 0 0 0 0 . . .             ",
"            0 f f f f f f f f f f f f f f g - 5 h j k l z x c v b n m M f f N X X . .           ",
"            0 f f f f f f f f f f f f f f > - B V C x Z A S D F G H J K L P I f f X .           ",
"            0 f f f f f f f f f f f f f f o U Y T o Z A S R E W z Q 5 A f f N ! g X .           ",
"            0 f f f f f f f f f f f f f f ! U ~ ^ / u A ( ) _ e ` ' S - A f N ! g X .           ",
"            0 f f f f f f f f f f f f f f g U h j ] S ( ) [ D ] { } 5 N g f N N g X .           ",
"            0 N N N N N N N N N N N N N N | 5 h w  ...) [ i X.o.O.+.@.#.$.N N N g X .           ",
"            %.%.%.%.%.%.%.%.%.%.%.%.%.%.%.%.%.%.&.*.=.-._ ;.:.>.,.>.<.1.%.%.%.N g X .           ",
"            %.2.2.2.2.2.2.2.2.2.2.2.2.2.2.2.3.4.~ f . g 5.6.7.8.4.4.G 9.0.2.*.N g X .           ",
"            %.2.2.2.2.2.2.2.2.2.2.2.2.2.2.2.2.d N . q.w._ e.r.t.y.u...i.0.2.*.N g X .           ",
"            %.2.2.2.2.2.2.2.2.2.2.2.2.2.2.2. .#.=.. 0 2.i 4. .p. .4.a.2.2.2.*.N g X .           ",
"            %.2.2.2.2.2.2.2.2.2.2.2.2.2.2.&.n @ . s.d...y.d T f.&.g.d.2.2.2.*.N g X .           ",
"            %.2.2.2.2.2.2.2.2.2.2.2.2.2...h.g . | d.4. .0 j.q u...d.2.2.2.2.*.N g X .           ",
"            %.*.*.*.*.*.*.*.*.*.*.*.*.*.d N q.X #.#.$.! ! ! $.#.*.*.*.5 *.*.*.N g X .           ",
"            %.%.%.%.%.%.%.%.%.%.%.%.%.d $.q.. 3.) k...&.l.a.[ ) %.%.%.%.%.%.%.N g X .           ",
"            %.2.2.2.2.2.2.2.2.2.2.2.u.#.X . h.a.4.z.j.h.d &.g.2.2.2.2.2.2.2.*.N g X .           ",
"            %.2.2.2.2.2.2.2.2.2.2.4.s.=.. *.a.4.z.j.h.q u...d.2.2.2.2.2.2.2.*.N g X .           ",
"            %.2.2.2.2.2.2.2.2.2...j.f . > 2...y.0 h.0 y...d.2.2.2.2.2.2.2.2.*.N g X .           ",
"            %.2.2.2.2.2.2.2.2.2.z.N . X l.a.l.q h.j.z.x.a.2.2.2.2.2.2.2.2.2.*.N g X .           ",
"            %.2.2.2.2.2.2.2.2.z.-.q.. d a.4.z.j.j.d l.a.2.2.2.2.2.2.2.2.2.2.*.N g X .           ",
"            %.*.*.*.*.*.*.*.u.*.=.. g *.-.$.! ! N | #.*.*.*.*.*.*.*.*.*.*.*.*.N g X .           ",
"            %.%.%.%.%.%.%.4.c.+ . v.) b.d.l.&.x.n.m.M.%.%.%.%.%.%.%.%.%.%.%.%.N g X .           ",
"            %.2.2.2.2.2.2.0 > . f g...y.j.h.0  .x.d.2.2.2.2.2.2.2.2.2.2.2.2.*.N g X .           ",
"            %.2.2.2.2.2.d | q.. y.a.l.q h.j.z.4.a.2.2.2.2.2.2.2.2.2.2.2.2.2.*.N g X .           ",
"            %.2.2.2.2.u.*.=.. j.a.4.z.j.h.d &.g.2.2.2.2.2.2.2.2.2.2.2.2.2.2.*.N g X .           ",
"            %.2.2.2.4.c.+ . *.a.4.z.j.h.q u.g.d.2.2.2.2.2.2.2.2.2.2.2.2.2.2.*.N g X .           ",
"            %.2.2.l.j.> . ! d...y.j.h.0 y...d.2.2.2.2.2.2.2.2.2.2.2.2.2.2.2.*.N g X .           ",
"            %.*.*.q N q.q.-.#.-.N ! ! $.-.*.*.*.*.*.*.*.*.*.*.*.*.*.*.*.*.*.*.N g X .           ",
"            %.%.y.-.X . g.) b.d.l.l.g.[ ) %.%.%.%.%.%.%.%.%.%.%.%.%.%.%.%.%.%.N g X .           ",
"            %.&.*.=.. c.a.4.z.j.j.q &.g.d.2.2.2.2.2.2.2.2.2.2.2.2.2.2.2.2.2.*.N g X .           ",
"            4.c.+ . -.d.4.z.j.j.0 u...d.2.2.2.2.2.2.2.2.2.2.2.2.2.2.2.2.2.2.*.N g X .           ",
"          4.0 g . f a... .j.h.0 y.x.d.2.2.2.2.2.2.2.2.2.2.2.2.2.2.2.2.2.2.2.*.N g X .           ",
"          z.N q.. u.a.l.q h.j.z.4.a.2.2.2.2.2.2.2.2.2.2.2.2.2.2.2.2.2.2.2.2.*.N g X .           ",
"        u.*.X . j.a.4.z.j.h.d &.g.2.2.2.2.2.2.2.2.2.2.2.2.2.2.2.2.2.2.2.2.2.*.N g X .           ",
"      u.c.+ . f *.-.$.! ! N | #.*.*.*.*.*.*.*.*.*.*.*.*.*.*.*.*.*.*.*.*.*.*.*.! g X .           ",
"    v.v.g . . X f f f f f g > ! N N N N N N N N N N N N N N N N N N N N N N ! ! g X .           ",
"    X f . . . q.=.+ =.+ + f f g g g g g g g g g g g g g g g g g g g g g g g g f f X .           ",
"        . . . . q.q.q.q.X X X X X X X X X X X X X X X X X X X X X X X X X X X X X . .           ",
"        . . . . . . . . . . . . . . . . . . . . . . . . . . . . . . . . . . . . . .             ",
"        . . . . . . . . .                                                                       ",
"      . . . . . . . . .                                                                         ",
"        . . . . . . . .                                                                         ",
"        . . . . . . .                                                                           "};
