/* XPM */
static char * image_name[] = {
"48 48 113 2",
"  	c None",
". 	c #000000000000",
"X 	c #084208420842",
"o 	c #FFFFFFFF0000",
"O 	c #BDEEBDEE0000",
"+ 	c #108410841084",
"@ 	c #18C618C61084",
"# 	c #421042101084",
"$ 	c #210821081084",
"% 	c #421042100000",
"& 	c #4A524A520842",
"* 	c #529452941084",
"= 	c #294A294A2108",
"- 	c #318C318C294A",
"; 	c #BDEEBDEE1084",
": 	c #529452942108",
"> 	c #210821082108",
", 	c #9CE69CE60000",
"< 	c #7BDE7BDE0000",
"1 	c #D6B4D6B40842",
"2 	c #4210421039CE",
"3 	c #4A524A524210",
"4 	c #DEF6DEF60842",
"5 	c #421042104210",
"6 	c #39CE39CE318C",
"7 	c #739C739C1084",
"8 	c #CE72CE720000",
"9 	c #631863186318",
"0 	c #739C739C6B5A",
"q 	c #842084207BDE",
"w 	c #BDEEBDEE4A52",
"e 	c #E738E7382108",
"r 	c #AD6AAD6A739C",
"t 	c #9CE69CE694A4",
"y 	c #A528A5286B5A",
"u 	c #DEF6DEF62108",
"i 	c #842084206318",
"p 	c #6B5A6B5A6B5A",
"a 	c #18C618C618C6",
"s 	c #5AD65AD65294",
"d 	c #6B5A6B5A6318",
"f 	c #94A494A45AD6",
"g 	c #CE72CE7239CE",
"h 	c #94A494A48420",
"j 	c #842084206B5A",
"k 	c #52945294294A",
"l 	c #39CE39CE18C6",
"z 	c #294A294A294A",
"x 	c #739C739C318C",
"c 	c #8C628C624A52",
"v 	c #7BDE7BDE739C",
"b 	c #9CE69CE68C62",
"n 	c #FFFFFFFFFFFF",
"m 	c #F7BCF7BCF7BC",
"M 	c #8C628C628420",
"N 	c #84208420739C",
"B 	c #A528A528739C",
"V 	c #D6B4D6B41084",
"C 	c #FFFFFFFF4A52",
"Z 	c #DEF6DEF60000",
"A 	c #FFFFFFFFBDEE",
"S 	c #C630C6300842",
"D 	c #5AD65AD62108",
"F 	c #39CE39CE39CE",
"G 	c #D6B4D6B418C6",
"H 	c #EF7AEF7AEF7A",
"J 	c #CE72CE72CE72",
"K 	c #AD6AAD6AAD6A",
"L 	c #7BDE7BDE4210",
"P 	c #529452945294",
"I 	c #8C628C627BDE",
"U 	c #AD6AAD6AA528",
"Y 	c #6B5A6B5A5294",
"T 	c #84208C627BDE",
"R 	c #B5ACB5ACB5AC",
"E 	c #D6B4D6B44210",
"W 	c #BDEEBDEE2108",
"Q 	c #318C318C318C",
"! 	c #739C739C739C",
"~ 	c #8C628C628C62",
"^ 	c #AD6AAD6A5294",
"/ 	c #9CE69CE6739C",
"( 	c #94A494A48C62",
") 	c #C630C6302108",
"_ 	c #7BDE7BDE39CE",
"` 	c #DEF6DEF6DEF6",
"' 	c #7BDE7BDE7BDE",
"] 	c #C630C630B5AC",
"[ 	c #E738E7384A52",
"{ 	c #CE72D6B48C62",
"} 	c #BDEEBDEEB5AC",
"| 	c #EF7AEF7A4210",
" .	c #DEF6DEF6AD6A",
"..	c #9CE69CE69CE6",
"X.	c #A528A528A528",
"o.	c #842084208420",
"O.	c #A528A5289CE6",
"+.	c #B5ACB5ACA528",
"@.	c #DEF6DEF639CE",
"#.	c #AD6AAD6A6B5A",
"$.	c #AD6AAD6A7BDE",
"%.	c #C630C6306318",
"&.	c #B5ACB5AC5294",
"*.	c #8C628C626B5A",
"=.	c #A528A5288420",
"-.	c #6B5A739C6B5A",
";.	c #94A494A494A4",
":.	c #4A524A524A52",
">.	c #8C628C625294",
",.	c #5AD65AD65AD6",
"<.	c #BDEEBDEEBDEE",
"1.	c #C630C630C630",
"2.	c #D6B4D6B4D6B4",
"                                                        .                                       ",
"                                                  . . . X o . .       O                         ",
"                                              o . X + + @ # $ X . .   %                         ",
"                                            . X & * = - - ; : > @ , <                           ",
"                                          . X + * 1 2 3 3 4 5 6 7 8 X .                         ",
"            9 9 9 9 9 9 9 9 9 9 9 9 9 9 9 9 9 0 q w e r t e t y u i p 9 9 9 9 . . .             ",
"            9 a a a a a a a a a a a a a a > - 5 s d f g h h q j y 3 k l a a z X X . .           ",
"            9 a a a a a a a a a a a a a a > - x c v h b n m M N B V C Z A S D a a X .           ",
"            9 a a a a a a a a a a a a a a o F V G o b n m H J K h L 5 n a a z z > X .           ",
"            9 a a a a a a a a a a a a a a z F P 0 I t n H J U q r Y m - n a z z > X .           ",
"            9 a a a a a a a a a a a a a a > F s d T m H J R M T E W 5 z > a z z > X .           ",
"            9 z z z z z z z z z z z z z z Q 5 s 0 ! ~ J R t ^ / ( ) _ F z z z z > X .           ",
"            ` ` ` ` ` ` ` ` ` ` ` ` ` ` ` ` ` ` ' 5 + Q U ] [ { } { |  .` ` ` z > X .           ",
"            ` ..............................X.o.P a . > O.+.@.#.o.o.B $.%...5 z > X .           ",
"            ` ................................p z . X v U O.&.*.! ' ~ =.%...5 z > X .           ",
"            ` ..............................! F + . 9 ..t o.! -.! o.;.......5 z > X .           ",
"            ` ............................' 3 @ . :...~ ! p G >.' ;.........5 z > X .           ",
"            ` ..........................~ ,.> . Q ..o.! 9 ,.9 ' ~ ..........5 z > X .           ",
"            ` 5 5 5 5 5 5 5 5 5 5 5 5 5 p z X X F F z z z z z F 5 5 5 5 5 5 5 z > X .           ",
"            ` ` ` ` ` ` ` ` ` ` ` ` ` p z X . X.J R ~ ' o.;.R J ` ` ` ` ` ` ` z > X .           ",
"            ` ......................' F X . ,.;.o.p ,.,.p ' ;...............5 z > X .           ",
"            ` ....................o.:.+ . 5 ;.o.p ,.,.9 ' ~ ................5 z > X .           ",
"            ` ..................~ ,.a . > ..~ ! 9 ,.9 ! ~ ..................5 z > X .           ",
"            ` ..................p z . X o.;.o.9 ,.,.p ~ ;...................5 z > X .           ",
"            ` ................p Q X . p ;.o.p ,.,.p o.;.....................5 z > X .           ",
"            ` 5 5 5 5 5 5 5 ' 5 + . > 5 Q z z z z Q F 5 5 5 5 5 5 5 5 5 5 5 5 z > X .           ",
"            ` ` ` ` ` ` ` o.P + . :.J <...o.' ~ X.1.2.` ` ` ` ` ` ` ` ` ` ` ` z > X .           ",
"            ` ............9 > . a ;.~ ! ,.,.9 ! ~ ..........................5 z > X .           ",
"            ` ..........p Q X . ! ;.o.9 ,.,.p o.;...........................5 z > X .           ",
"            ` ........' 5 + . ,.;.o.p ,.,.p ' ;.............................5 z > X .           ",
"            ` ......o.P + . 5 ;.o.p ,.,.9 ' ;...............................5 z > X .           ",
"            ` ....o.,.> . z ..~ ! ,.,.9 ! ~ ................................5 z > X .           ",
"            ` 5 5 9 z X X Q F Q z z z z Q 5 5 5 5 5 5 5 5 5 5 5 5 5 5 5 5 5 5 z > X .           ",
"            ` ` ! Q X . ;.J <...o.o.;.R J ` ` ` ` ` ` ` ` ` ` ` ` ` ` ` ` ` ` z > X .           ",
"            ` ' 5 + . P ;.o.p ,.,.9 ' ;.....................................5 z > X .           ",
"            o.P + . Q ..o.p ,.,.9 ' ~ ......................................5 z > X .           ",
"          o.9 > . a ;.~ ! ,.,.9 ! ~ ........................................5 z > X .           ",
"          p z X . ' ;.o.9 ,.,.p o.;.........................................5 z > X .           ",
"        ' 5 X . ,.;.o.p ,.,.p ' ;...........................................5 z > X .           ",
"      ' P + . a 5 Q z z z z Q F 5 5 5 5 5 5 5 5 5 5 5 5 5 5 5 5 5 5 5 5 5 5 5 z > X .           ",
"    :.:.> . . X a a a a a > > z z z z z z z z z z z z z z z z z z z z z z z z z > X .           ",
"    X a . . . X + + + + + a a > > > > > > > > > > > > > > > > > > > > > > > > a a X .           ",
"        . . . . X X X X X X X X X X X X X X X X X X X X X X X X X X X X X X X X X . .           ",
"        . . . . . . . . . . . . . . . . . . . . . . . . . . . . . . . . . . . . . .             ",
"        . . . . . . . . .                                                                       ",
"      . . . . . . . . .                                                                         ",
"        . . . . . . . .                                                                         ",
"        . . . . . . .                                                                           "};
