/* XPM */
static char * image_name[] = {
"16 21 42 1",
" 	c None",
".	c #000000000000",
"X	c #084208420842",
"o	c #18C618C618C6",
"O	c #BDEEBDEEBDEE",
"+	c #DEF6DEF6DEF6",
"@	c #8C628C628C62",
"#	c #39CE39CE39CE",
"$	c #9CE69CE69CE6",
"%	c #D6B4D6B4D6B4",
"&	c #6B5A6B5A6B5A",
"*	c #CE72CE72CE72",
"=	c #C630C630C630",
"-	c #631863186318",
";	c #EF7ACE72CE72",
":	c #F7BC9CE69CE6",
">	c #108410841084",
",	c #EF7ABDEEBDEE",
"<	c #FFFF739C739C",
"1	c #FFFF6B5A6B5A",
"2	c #D6B4AD6AAD6A",
"3	c #94A494A494A4",
"4	c #FFFF63186318",
"5	c #E7386B5A6B5A",
"6	c #294A294A294A",
"7	c #FFFF5AD65AD6",
"8	c #FFFF52945294",
"9	c #B5ACB5ACB5AC",
"0	c #AD6AAD6AAD6A",
"q	c #5AD65AD65AD6",
"w	c #E738B5ACB5AC",
"e	c #E73852945294",
"r	c #E7384A524A52",
"t	c #842084208420",
"y	c #A528A528A528",
"u	c #421042104210",
"i	c #7BDE7BDE7BDE",
"p	c #739C739C739C",
"a	c #318C318C318C",
"s	c #529452945294",
"d	c #4A524A524A52",
"f	c #210821082108",
" .XoO++++O@o    ",
".#$%&%**=-;:&>  ",
"o%%%&%*==-,<12..",
"3%**&%==O-,1456>",
"+***&*OOO-,4786>",
"%OO9&=000qweer6>",
"=tttyytttt=ttt->",
"+====OOO999900u>",
"%O999000yy$$$36>",
"%99000yyyy$$336>",
"%900yyy$$$33@@6>",
"%00yyy$$333@@@6>",
"%yyy$$$333@@@t6>",
"%y$$$333@@@tti6>",
"*$$$33@@@ttiii6>",
"%$33@@@tttiiip6>",
"*33@@tttiiippp6>",
"*@@tttiipppppp6>",
"asttiiipppp&-d6>",
".>66666a6a666f>.",
"..X>>>>>>>>>>X.."};
