/* XPM */
static char * image_name[] = {
"16 21 69 1",
" 	c None",
".	c #000000000000",
"X	c #082004100820",
"o	c #186118611861",
"O	c #BEFBBEFBBEFB",
"+	c #EFBED75CD75C",
"@	c #EFBECF3CCF3C",
"#	c #EFBECB2BCF3C",
"$	c #BEFBB2CAB6DA",
"%	c #8E388E388E38",
"&	c #38E33CF338E3",
"*	c #9E799A699E79",
"=	c #D75CDB6CD75C",
"-	c #69A66DB669A6",
";	c #F7DEB6DAB6DA",
":	c #FFFF9A699E79",
">	c #FFFF96589658",
",	c #FFFF8E388E38",
"<	c #71C651445144",
"1	c #DF7DDF7DDF7D",
"2	c #CF3CCB2BCF3C",
"3	c #10400C301040",
"4	c #D75CD34CD75C",
"5	c #F7DEB2CAB6DA",
"6	c #FFFF92489658",
"7	c #FFFF86178617",
"8	c #71C64D344924",
"9	c #D75CD75CD75C",
"0	c #B6DABAEAB6DA",
"q	c #B6DAB6DAB6DA",
"w	c #BEFBC30BBEFB",
"e	c #965896589658",
"r	c #F7DEAAAAAEBA",
"t	c #FFFF8A288E38",
"y	c #FFFF7DF779E7",
"u	c #B6DAB2CAB6DA",
"i	c #AEBAAAAAAEBA",
"p	c #28A2249228A2",
"a	c #71C671C671C6",
"s	c #F7DEA699A699",
"d	c #FFFF79E779E7",
"f	c #FFFF75D671C6",
"g	c #71C649244924",
"h	c #AEBAAEBAAEBA",
"j	c #28A22CB228A2",
"k	c #104010401040",
"l	c #E79D9A699E79",
"z	c #E79D71C671C6",
"x	c #E79D69A669A6",
"c	c #E79D65956185",
"v	c #71C645144103",
"b	c #A699A289A699",
"n	c #C71BC71BC71B",
"m	c #861782078617",
"M	c #A699A699A699",
"N	c #861786178617",
"B	c #596559655965",
"V	c #410345144103",
"C	c #965892489658",
"Z	c #8E388A288E38",
"A	c #79E77DF779E7",
"S	c #79E779E779E7",
"D	c #71C675D671C6",
"F	c #30C230C230C2",
"G	c #514455555144",
"H	c #618561856185",
"J	c #492449244924",
"K	c #20811C712081",
"L	c #082008200820",
" .XoO+@@#$%o    ",
".&*=-;:>,<12-3  ",
"o=44-56,7890qw..",
"e922-rt7y89quip3",
"1222asydfg9uhijk",
"=O0q-lzxcv4b**jk",
"nmmmMMmmmmnmmNBk",
"1nnwwOO0qquuhhVk",
"=0qquhiiMb***ejk",
"9quhhiMMbb**eCjk",
"9uhiMMb***eeC%jk",
"4iiMbb**eeC%ZZjk",
"4MMb***eCC%ZZNjk",
"4b***eeC%ZZNmAjk",
"2***eC%ZZNmAASjk",
"4*eC%%ZNNmASSDjk",
"2CC%ZNNmASSDaajk",
"2%ZNmmASDDaaa-jk",
"FGNmAASDaaa-HJp3",
".kjjjjjjFjjjjKk.",
"..LkkkkkkkkkkL.."};
