/* XPM */
static char * image_name[] = {
"16 21 63 1",
" 	c None",
".	c #000000000000",
"X	c #082004100820",
"o	c #186118611861",
"O	c #BEFBBEFBBEFB",
"+	c #DF7DE38DDF7D",
"@	c #DF7DDF7DDF7D",
"#	c #BEFBBAEABEFB",
"$	c #8E388E388E38",
"%	c #38E33CF338E3",
"&	c #9E799A699E79",
"*	c #D75CDB6CD75C",
"=	c #69A66DB669A6",
"-	c #D75CD75CD75C",
";	c #CF3CCB2BCF3C",
":	c #C71BC71BC71B",
">	c #618561856185",
",	c #EFBECF3CCF3C",
"<	c #F7DE9E799E79",
"1	c #69A669A669A6",
"2	c #10400C301040",
"3	c #D75CD34CD75C",
"4	c #C71BC30BC71B",
"5	c #EFBEC30BBEFB",
"6	c #FFFF75D671C6",
"7	c #FFFF6DB669A6",
"8	c #D75CAAAAAEBA",
"9	c #965896589658",
"0	c #EFBEBEFBBEFB",
"q	c #FFFF65956185",
"w	c #E79D69A669A6",
"e	c #28A2249228A2",
"r	c #61855D756185",
"t	c #FFFF61856185",
"y	c #FFFF5D755965",
"u	c #FFFF55555144",
"i	c #28A22CB228A2",
"p	c #104010401040",
"a	c #B6DAB6DAB6DA",
"s	c #AEBAAEBAAEBA",
"d	c #AEBAAAAAAEBA",
"f	c #596559655965",
"g	c #E79DB6DAB6DA",
"h	c #E79D55555144",
"j	c #E79D51445144",
"k	c #E79D4D344924",
"l	c #861782078617",
"z	c #A699A289A699",
"x	c #A699A699A699",
"c	c #B6DAB2CAB6DA",
"v	c #410345144103",
"b	c #965892489658",
"n	c #8E388A288E38",
"m	c #861786178617",
"M	c #79E77DF779E7",
"N	c #79E779E779E7",
"B	c #71C675D671C6",
"V	c #71C671C671C6",
"C	c #30C230C230C2",
"Z	c #514455555144",
"A	c #492449244924",
"S	c #20811C712081",
"D	c #082008200820",
" .XoO+@@@#$o    ",
".%&*=-;;:>,<12  ",
"o*33=3;:4>5678..",
"9-;;=344O>07qwe2",
"@;;;=;OO#r0tyuip",
"*O#a=:sddfghjkip",
":lllzxllll:lllrp",
"@::44OO#aaccssvp",
"*#aacsddxz&&&9ip",
"-acssdxxzz&&99ip",
"-csdxxz&&&99$$ip",
"3ddxzz&&99b$nnip",
"3xxz&&&9bb$nnmip",
"3z&&&99b$nnmlMip",
";&&&9b$nnmlMMNip",
"3&9b$$nmmlMNNBip",
";bb$nmmlMNNBVVip",
";$nmllMNBBVVVVip",
"CZmlMMNBVVV=>Ae2",
".piiiiiCiCiiiSp.",
"..DppppppppppD.."};
