/* XPM */
static char * image_name[] = {
"16 21 40 1",
" 	c None",
".	c #000000000000",
"X	c #084208420842",
"o	c #18C618C618C6",
"O	c #BDEEBDEEBDEE",
"+	c #DEF6DEF6DEF6",
"@	c #B5ACB5ACB5AC",
"#	c #8C628C628C62",
"$	c #421039CE39CE",
"%	c #A52894A494A4",
"&	c #F7BCBDEEBDEE",
"*	c #6B5A6B5A6B5A",
"=	c #D6B4D6B4D6B4",
"-	c #CE72CE72CE72",
";	c #C630C630C630",
":	c #631863186318",
">	c #108410841084",
",	c #FFFFA528A528",
"<	c #9CE68C628C62",
"1	c #FFFFAD6AAD6A",
"2	c #FFFF9CE69CE6",
"3	c #AD6AAD6AAD6A",
"4	c #294A294A294A",
"5	c #EF7ACE72CE72",
"6	c #FFFF94A494A4",
"7	c #E738C630C630",
"8	c #E7388C628C62",
"9	c #E73884208420",
"0	c #5AD65AD65AD6",
"q	c #A528A528A528",
"w	c #9CE69CE69CE6",
"e	c #842084208420",
"r	c #421042104210",
"t	c #94A494A494A4",
"y	c #7BDE7BDE7BDE",
"u	c #739C739C739C",
"i	c #318C318C318C",
"p	c #529452945294",
"a	c #4A524A524A52",
"s	c #210821082108",
" .XoO++++@#o    ",
".$%&*=--;:+-*>  ",
"o&,,*=-;;:=@@;..",
"<122*=;;O:=@@34>",
"5266*-OO@:=@334>",
"7899*;3330=qww4>",
";eeeqqeeee;eee:>",
"+;;;;OO@@@@@33r>",
"=@@@@333qqwwwt4>",
"=@@333qqqqwwtt4>",
"=@33qqqwwwtt##4>",
"=33qqqwwttt###4>",
"=qqqwwwttt###e4>",
"=qwwwttt###eey4>",
"-wwwtt###eeyyy4>",
"=wtt###eeeyyyu4>",
"-tt##eeeyyyuuu4>",
"-##eeeyyuuuuuu4>",
"ipeeyyyuuuu*:a4>",
".>44444i4i444s>.",
"..X>>>>>>>>>>X.."};
