/* XPM */
static char * image_name[] = {
"16 21 60 1",
" 	c None",
".	c #000000000000",
"X	c #082004100820",
"o	c #186118611861",
"O	c #BEFBBEFBBEFB",
"+	c #DF7DE38DDF7D",
"@	c #DF7DDF7DDF7D",
"#	c #B6DABAEAB6DA",
"$	c #8E388E388E38",
"%	c #41033CF338E3",
"&	c #A69996589658",
"*	c #F7DEBEFBBEFB",
"=	c #69A66DB669A6",
"-	c #D75CD75CD75C",
";	c #CF3CCB2BCF3C",
":	c #C71BC71BC71B",
">	c #618561856185",
",	c #10400C301040",
"<	c #FFFFA699A699",
"1	c #FFFFA289A699",
"2	c #D75CD34CD75C",
"3	c #C71BC30BC71B",
"4	c #B6DAB6DAB6DA",
"5	c #9E798E388E38",
"6	c #FFFFAAAAAEBA",
"7	c #FFFF9E799E79",
"8	c #FFFF9A699E79",
"9	c #B6DAB2CAB6DA",
"0	c #AEBAAAAAAEBA",
"q	c #28A2249228A2",
"w	c #EFBECF3CCF3C",
"e	c #FFFF96589658",
"r	c #FFFF92489658",
"t	c #61855D756185",
"y	c #AEBAAEBAAEBA",
"u	c #28A22CB228A2",
"i	c #104010401040",
"p	c #E79DCB2BC71B",
"a	c #E79D8A288E38",
"s	c #E79D86178617",
"d	c #E79D82078617",
"f	c #596559655965",
"g	c #A699A289A699",
"h	c #9E799A699E79",
"j	c #861782078617",
"k	c #A699A699A699",
"l	c #861786178617",
"z	c #410345144103",
"x	c #965896589658",
"c	c #965892489658",
"v	c #8E388A288E38",
"b	c #79E77DF779E7",
"n	c #79E779E779E7",
"m	c #71C675D671C6",
"M	c #71C671C671C6",
"N	c #30C230C230C2",
"B	c #514455555144",
"V	c #492449244924",
"C	c #20811C712081",
"Z	c #082008200820",
" .XoO+@@@#$o    ",
".%&*=-;;:>@;=,  ",
"o*<1=2;:3>-#43..",
"5678=233O>-490q,",
"w7er=;OO#t-9y0ui",
"pasd=:y00f2ghhui",
":jjjgkjjjj:jljti",
"@::33OO#4499yyzi",
"-#449y00kghhhxui",
"-49yy0kkgghhxxui",
"-9y0kkghhhxx$$ui",
"200kgghhxxc$vvui",
"2kkghhhxcc$vvlui",
"2ghhhxxc$vvljbui",
";hhhxc$vvljbbnui",
"2hxc$$vlljbnnmui",
";cc$vlljbnnmMMui",
";$vljjbnmmMMMMui",
"NBljbbnmMMM=>Vq,",
".iuuuuuNuNuuuCi.",
"..ZiiiiiiiiiiZ.."};
