/* XPM */
static char * image_name[] = {
"16 21 48 1",
" 	c None",
".	c #000000000000",
"X	c #084208420842",
"o	c #18C618C618C6",
"O	c #BDEEBDEEBDEE",
"+	c #EF7AD6B4D6B4",
"@	c #EF7ACE72CE72",
"#	c #BDEEB5ACB5AC",
"$	c #8C628C628C62",
"%	c #39CE39CE39CE",
"&	c #9CE69CE69CE6",
"*	c #D6B4D6B4D6B4",
"=	c #6B5A6B5A6B5A",
"-	c #F7BCB5ACB5AC",
";	c #FFFF9CE69CE6",
":	c #FFFF94A494A4",
">	c #FFFF8C628C62",
",	c #739C52945294",
"<	c #DEF6DEF6DEF6",
"1	c #CE72CE72CE72",
"2	c #108410841084",
"3	c #FFFF84208420",
"4	c #739C4A524A52",
"5	c #B5ACB5ACB5AC",
"6	c #94A494A494A4",
"7	c #F7BCAD6AAD6A",
"8	c #FFFF7BDE7BDE",
"9	c #AD6AAD6AAD6A",
"0	c #294A294A294A",
"q	c #739C739C739C",
"w	c #F7BCA528A528",
"e	c #FFFF739C739C",
"r	c #E7389CE69CE6",
"t	c #E738739C739C",
"y	c #E7386B5A6B5A",
"u	c #E73863186318",
"i	c #739C42104210",
"p	c #A528A528A528",
"a	c #C630C630C630",
"s	c #842084208420",
"d	c #5AD65AD65AD6",
"f	c #421042104210",
"g	c #7BDE7BDE7BDE",
"h	c #318C318C318C",
"j	c #529452945294",
"k	c #631863186318",
"l	c #4A524A524A52",
"z	c #210821082108",
" .XoO+@@@#$o    ",
".%&*=-;:>,<1=2  ",
"o***=-:>34*55O..",
"6*11=7>384*55902",
"<111qw88e4*59902",
"*O55=rtyui*p&&02",
"asssppssssasssd2",
"<aaOOOO5555599f2",
"*5555999pp&&&602",
"*55999pppp&&6602",
"*599ppp&&&666$02",
"*99ppp&&666$$$02",
"*ppp&&&666$$$s02",
"*p&&&666$$$ssg02",
"1&&&66$$$ssggg02",
"*&66$$$sssgggq02",
"166$$sssgggqqq02",
"1$$sssggqqqqq=02",
"hjssgggqqqq=kl02",
".2000000h0000z2.",
"..X2222222222X.."};
