/* XPM */
static char * image_name[] = {
"48 48 144 2",
"  	c None",
". 	c #38E338E338E3",
"X 	c #E79DE79DE79D",
"o 	c #71C67DF769A6",
"O 	c #492451444103",
"+ 	c #618575D65144",
"@ 	c #000000000000",
"# 	c #28A2FBEE28A2",
"$ 	c #30C2FBEE28A2",
"% 	c #514451445144",
"& 	c #4103F7DE28A2",
"* 	c #4924F7DE28A2",
"= 	c #6185F3CE28A2",
"- 	c #71C6EFBE28A2",
"; 	c #8E38E79D28A2",
": 	c #9E79E38D28A2",
"> 	c #B6DADB6C2081",
", 	c #BEFBD75C2081",
"< 	c #CF3CCB2B2081",
"1 	c #D75CC30B2081",
"2 	c #E79DB2CA2081",
"3 	c #E79DAEBA2081",
"4 	c #EFBE9A692081",
"5 	c #F7DE8E382081",
"6 	c #F7DE79E72081",
"7 	c #F7DE6DB62081",
"8 	c #861751442081",
"9 	c #8E384D341861",
"0 	c #8E3845141861",
"q 	c #965841031861",
"w 	c #965838E31861",
"e 	c #965830C21861",
"r 	c #9E7920811861",
"t 	c #9E7914511861",
"y 	c #FFFFFFFFFFFF",
"u 	c #10400C301040",
"i 	c #59655D755965",
"p 	c #BEFBBAEABEFB",
"a 	c #EFBEEBADE79D",
"s 	c #F7DEFBEEF7DE",
"d 	c #EFBEEBADEFBE",
"f 	c #BEFBBEFBBEFB",
"g 	c #69A669A669A6",
"h 	c #28A228A228A2",
"j 	c #596559655965",
"k 	c #E79DE38DDF7D",
"l 	c #AEBAA699A699",
"z 	c #79E779E771C6",
"x 	c #618561856185",
"c 	c #71C669A669A6",
"v 	c #96588A288617",
"b 	c #C71BC71BC71B",
"n 	c #F7DEF7DEEFBE",
"m 	c #965896589658",
"M 	c #F7DEF7DEF7DE",
"N 	c #A6999A699658",
"B 	c #492445144103",
"V 	c #618555555144",
"C 	c #9658820779E7",
"Z 	c #9E7996589658",
"A 	c #96588E388617",
"S 	c #79E775D671C6",
"D 	c #514449244103",
"F 	c #618561855965",
"G 	c #D75CD34CD75C",
"H 	c #A699A699A699",
"J 	c #861786178617",
"K 	c #EFBEF3CEEFBE",
"L 	c #A69996589658",
"P 	c #AEBA9E799658",
"I 	c #8617820779E7",
"U 	c #71C66DB669A6",
"Y 	c #79E771C669A6",
"T 	c #8E3886178617",
"R 	c #71C671C669A6",
"E 	c #410345144103",
"W 	c #C71BBEFBBEFB",
"Q 	c #9E799E799E79",
"! 	c #8E388E388E38",
"~ 	c #30C230C230C2",
"^ 	c #41033CF338E3",
"/ 	c #AEBA9E799E79",
"( 	c #69A665956185",
") 	c #492449244103",
"_ 	c #D75CD75CD75C",
"` 	c #596555555144",
"' 	c #71C675D671C6",
"] 	c #5144FFFF0000",
"[ 	c #38E371C62081",
"{ 	c #DF7DDB6CD75C",
"} 	c #CF3CC71BC71B",
"| 	c #38E334D330C2",
" .	c #9E7992488E38",
"..	c #596559655144",
"X.	c #61855D756185",
"o.	c #30C22CB230C2",
"O.	c #618559655144",
"+.	c #49244D344924",
"@.	c #492451444924",
"#.	c #514451444924",
"$.	c #514455555144",
"%.	c #492449244924",
"&.	c #71C671C671C6",
"*.	c #38E338E330C2",
"=.	c #514455554924",
"-.	c #A699A2899E79",
";.	c #BEFBB6DAB6DA",
":.	c #410341034103",
">.	c #DF7DDF7DDF7D",
",.	c #4103410338E3",
"<.	c #E79DDF7DDF7D",
"1.	c #30C234D330C2",
"2.	c #38E33CF338E3",
"3.	c #DF7DCF3CC71B",
"4.	c #B6DAAAAAAEBA",
"5.	c #AEBAAAAAA699",
"6.	c #28A22CB228A2",
"7.	c #CF3CBEFBB6DA",
"8.	c #30C22CB228A2",
"9.	c #28A224922081",
"0.	c #4924410338E3",
"q.	c #30C230C228A2",
"w.	c #8E38820779E7",
"e.	c #492441034103",
"r.	c #B6DAA2899E79",
"t.	c #8E387DF771C6",
"y.	c #28A228A22081",
"u.	c #DF7D18611861",
"i.	c #618528A228A2",
"p.	c #49243CF338E3",
"a.	c #9E798A288617",
"s.	c #79E76DB669A6",
"d.	c #410338E330C2",
"f.	c #71C669A66185",
"g.	c #A69992488617",
"h.	c #79E769A66185",
"j.	c #410334D330C2",
"k.	c #8E3879E771C6",
"l.	c #514445144103",
"z.	c #082008200820",
"x.	c #861775D669A6",
"c.	c #9E79861779E7",
"v.	c #9658820771C6",
"b.	c #861771C669A6",
"                                                                                                ",
"                                                                                                ",
"                                                                                                ",
"        . . . . . . . . . . . . . . . . . . . . . . . . . . . . . . . . . . . . . . . X         ",
"        . o o o o o o o o o o o o o o o o o o o o o o o o o o o o o o o o o o o o o o X         ",
"        . o O O O o + + O o O O O o O O O o o o o o o o o o o o o o o o o o o o o o o X         ",
"        . o + o O o + o O o + o O o + o O o o o o o o o o o o o o o o o o o o o o o o X         ",
"        . o + o O o + o O o + o O o + o O o o o o o o o o o o o o o o o o o o o o o o X         ",
"        . o + O + o + + O o + O + o + O + o o o o o o o o o o o o o o o o o o o o o o X         ",
"        . o + o O o + o O o O o + o O o + o o o o o o o o o o o o o o o o o o o o o o X         ",
"        . o + o O o + o O o O o + o O o + o o o o o o o o o o o o o o o o o o o o o o X         ",
"        . o O O O o + + O o O + + o O O O o o o o o o o o o o o o o o o o o o o o o o X         ",
"        . o o o o o o o o o o o o o o o o o o o o o o o o o o o o o o o o o o o o o o X         ",
"        X X X X X X X X X X X X X X X X X X X X X X X X X X X X X X X X X X X X X X X X         ",
"                                                                                                ",
"        @ @ @ @ @ @ @ @ @ @ @ @ @ @ @ @ @ @ @ @ @ @ @ @ @ @ @ @ @ @ @ @ @ @ @ @ @ @ @ @         ",
"        @ # $ % & * % = - % ; : % > , % < 1 % 2 3 % 4 5 % 6 7 % 8 9 % 0 q % w e % r t y         ",
"        @ # $ % & * % = - % ; : % > , % < 1 % 2 3 % 4 5 % 6 7 % 8 9 % 0 q % w e % r t y         ",
"        @ # $ % & * % = - % ; : % > , % < 1 % 2 3 % 4 5 % 6 7 % 8 9 % 0 q % w e % r t y         ",
"        @ # $ % & * % = - % ; : % > , % < 1 % 2 3 % 4 5 % 6 7 % 8 9 % 0 q % w e % r t y         ",
"        @ # $ % & * % = - % ; : % > , % < 1 % 2 3 % 4 5 % 6 7 % 8 9 % 0 q % w e % r t y         ",
"        y y y y y y y y y y y y y y y y y y y y y y y y y y y y y y y y y y y y y y y y         ",
"                                                                                                ",
"                                                                                                ",
"                                                                                                ",
"                                                            u i p a s d f g u                   ",
"        h h h h h h h h h h h h h h h h h h               j s k l z x c v b n g                 ",
"        h f f f f f f f f f f f f f f f f h             m M N B V C Z A S D F G H               ",
"        h H H H H H H H H H H H H H H H H h           J K S B L P I U c Y T R E W Q             ",
"        h ! ! ! ! ! ~ ~ ~ ~ ~ ~ ! ! ! ! ! h         ^ s T B / Y F F F F F x ( R ) _ `           ",
"        h ' ' ' ' ' ~ ] ] ] ] [ ' ' ' ' ' h       @ { } |  .F ............i i F F F k @         ",
"        h x i X.x i ~ [ [ [ [ [ x i X.x i h       o.s U O.c +.+.@.#.#.#.% $.$.$.i ) f +.        ",
"        h %.%.%.%.%.%.%.%.%.%.%.%.%.%.%.%.h       &.X *.U ) ) ) ) +.+.+.#.#.+.#.=.=.S -.        ",
"        h ~ ~ ~ ~ ~ ~ ~ ~ ~ ~ ~ ~ ~ ~ ~ ~ h       ;.f ~ ..^ ^ :.:.E E E E ) E E ) +.#.G         ",
"        h h h h h h h h h h h h h h h h h h       >.l | ^ *.*.^ ^ ,.,.,.^ ,.,.^ ,.E :.<.        ",
"                                                  { -.1.| | | | *.^ 2.^ 2.2.*.*.*.^ ^ 3.        ",
"        h h h h h h h h h h h h h h h h h h       4.5.6.| ~ | | | | | *.*.*.| | | *.^ b         ",
"        h f f f f f f f f f f f f f f f f h       ( 7.8.8.~ | | | | ~ | | | ~ | | *.O.Z         ",
"        h H H H H H H H H H H H H H H H H h       9.3.0.8.q.~ ~ | ~ ~ ~ ~ ~ ~ ~ | ^ w.e.        ",
"        h ! ! ! ! ! ~ ~ ~ ~ ~ ~ ! ! ! ! ! h       @ r.t.y.8.8.~ ~ ~ ~ ~ ~ ~ q.| ~ B r.@         ",
"        h ' ' ' ' ' ~ u.u.u.u.i.' ' ' ' ' h         h r.p.q.8.8.q.~ ~ ~ q.q.~ q.,.Y B           ",
"        h X.X.X.X.X.~ i.i.i.i.i.X.X.X.X.X.h           ` a.~ *.~ 8.q.~ ~ 8.q.8.^ V s.            ",
"        h %.%.%.%.%.%.%.%.%.%.%.%.%.%.%.%.h             O.a.d.*.^ 1.8.8.8.*.^ O.f.              ",
"        h ~ ~ ~ ~ ~ ~ ~ ~ ~ ~ ~ ~ ~ ~ ~ ~ h               *.g.h.j.*.,.,.^ D k.l.                ",
"        h h h h h h h h h h h h h h h h h h                 z.d.x.c.c.v.b.B z.                  ",
"                                                                                                ",
"                                                                                                ",
"                                                                                                "};
