/* XPM */
static char * image_name[] = {
"48 48 120 2",
"  	c None",
". 	c #39CE39CE39CE",
"X 	c #E738E738E738",
"o 	c #739C7BDE6B5A",
"O 	c #4A5252944210",
"+ 	c #6318739C5294",
"@ 	c #000000000000",
"# 	c #294AFFFF294A",
"$ 	c #318CF7BC294A",
"% 	c #529452945294",
"& 	c #4210F7BC294A",
"* 	c #4A52F7BC294A",
"= 	c #6318EF7A294A",
"- 	c #739CEF7A294A",
"; 	c #8C62E738294A",
": 	c #9CE6E738294A",
"> 	c #B5ACDEF62108",
", 	c #BDEED6B42108",
"< 	c #CE72C6302108",
"1 	c #D6B4C6302108",
"2 	c #E738B5AC2108",
"3 	c #E738AD6A2108",
"4 	c #EF7A9CE62108",
"5 	c #F7BC8C622108",
"6 	c #F7BC7BDE2108",
"7 	c #F7BC6B5A2108",
"8 	c #842052942108",
"9 	c #8C624A5218C6",
"0 	c #94A4421018C6",
"q 	c #94A439CE18C6",
"w 	c #94A4318C18C6",
"e 	c #9CE6210818C6",
"r 	c #9CE618C618C6",
"t 	c #FFFFFFFFFFFF",
"y 	c #108410841084",
"u 	c #5AD65AD65AD6",
"i 	c #BDEEBDEEBDEE",
"p 	c #EF7AEF7AE738",
"a 	c #F7BCF7BCF7BC",
"s 	c #EF7AEF7AEF7A",
"d 	c #6B5A6B5A6B5A",
"f 	c #294A294A294A",
"g 	c #E738E738DEF6",
"h 	c #AD6AA528A528",
"j 	c #7BDE7BDE739C",
"k 	c #631863186318",
"l 	c #739C6B5A6B5A",
"z 	c #94A48C628420",
"x 	c #C630C630C630",
"c 	c #F7BCF7BCEF7A",
"v 	c #94A494A494A4",
"b 	c #A5289CE694A4",
"n 	c #4A524A524210",
"m 	c #63185AD65294",
"M 	c #94A484207BDE",
"N 	c #9CE694A494A4",
"B 	c #7BDE739C739C",
"V 	c #52944A524210",
"C 	c #631863185AD6",
"Z 	c #D6B4D6B4D6B4",
"A 	c #A528A528A528",
"S 	c #842084208420",
"D 	c #A52894A494A4",
"F 	c #AD6A9CE694A4",
"G 	c #842084207BDE",
"H 	c #7BDE739C6B5A",
"J 	c #8C6284208420",
"K 	c #739C739C6B5A",
"L 	c #421042104210",
"P 	c #C630BDEEBDEE",
"I 	c #9CE69CE69CE6",
"U 	c #8C628C628C62",
"Y 	c #318C318C318C",
"T 	c #421039CE39CE",
"R 	c #AD6A9CE69CE6",
"E 	c #6B5A63186318",
"W 	c #5AD652945294",
"Q 	c #739C739C739C",
"! 	c #5294FFFF0000",
"~ 	c #39CE739C2108",
"^ 	c #DEF6DEF6D6B4",
"/ 	c #CE72C630C630",
"( 	c #39CE39CE318C",
") 	c #9CE694A48C62",
"_ 	c #5AD65AD65294",
"` 	c #4A524A524A52",
"' 	c #4A5252944A52",
"] 	c #529452944A52",
"[ 	c #A528A5289CE6",
"{ 	c #BDEEB5ACB5AC",
"} 	c #DEF6DEF6DEF6",
"| 	c #4210421039CE",
" .	c #E738DEF6DEF6",
"..	c #A5289CE69CE6",
"X.	c #39CE318C318C",
"o.	c #DEF6CE72C630",
"O.	c #B5ACA528AD6A",
"+.	c #CE72BDEEB5AC",
"@.	c #318C294A294A",
"#.	c #318C318C294A",
"$.	c #294A294A2108",
"%.	c #4A52421039CE",
"&.	c #8C6284207BDE",
"*.	c #4A5242104210",
"=.	c #B5ACA5289CE6",
"-.	c #8C627BDE739C",
";.	c #DEF618C618C6",
":.	c #6318294A294A",
">.	c #4A5239CE39CE",
",.	c #9CE68C628420",
"<.	c #7BDE6B5A6B5A",
"1.	c #421039CE318C",
"2.	c #739C6B5A6318",
"3.	c #A52894A48420",
"4.	c #7BDE6B5A6318",
"5.	c #4210318C318C",
"6.	c #084208420842",
"7.	c #8420739C6B5A",
"8.	c #9CE684207BDE",
"9.	c #94A48420739C",
"                                                                                                ",
"                                                                                                ",
"                                                                                                ",
"        . . . . . . . . . . . . . . . . . . . . . . . . . . . . . . . . . . . . . . . X         ",
"        . o o o o o o o o o o o o o o o o o o o o o o o o o o o o o o o o o o o o o o X         ",
"        . o O O O o + + O o O O O o O O O o o o o o o o o o o o o o o o o o o o o o o X         ",
"        . o + o O o + o O o + o O o + o O o o o o o o o o o o o o o o o o o o o o o o X         ",
"        . o + o O o + o O o + o O o + o O o o o o o o o o o o o o o o o o o o o o o o X         ",
"        . o + O + o + + O o + O + o + O + o o o o o o o o o o o o o o o o o o o o o o X         ",
"        . o + o O o + o O o O o + o O o + o o o o o o o o o o o o o o o o o o o o o o X         ",
"        . o + o O o + o O o O o + o O o + o o o o o o o o o o o o o o o o o o o o o o X         ",
"        . o O O O o + + O o O + + o O O O o o o o o o o o o o o o o o o o o o o o o o X         ",
"        . o o o o o o o o o o o o o o o o o o o o o o o o o o o o o o o o o o o o o o X         ",
"        X X X X X X X X X X X X X X X X X X X X X X X X X X X X X X X X X X X X X X X X         ",
"                                                                                                ",
"        @ @ @ @ @ @ @ @ @ @ @ @ @ @ @ @ @ @ @ @ @ @ @ @ @ @ @ @ @ @ @ @ @ @ @ @ @ @ @ @         ",
"        @ # $ % & * % = - % ; : % > , % < 1 % 2 3 % 4 5 % 6 7 % 8 9 % 9 0 % q w % e r t         ",
"        @ # $ % & * % = - % ; : % > , % < 1 % 2 3 % 4 5 % 6 7 % 8 9 % 9 0 % q w % e r t         ",
"        @ # $ % & * % = - % ; : % > , % < 1 % 2 3 % 4 5 % 6 7 % 8 9 % 9 0 % q w % e r t         ",
"        @ # $ % & * % = - % ; : % > , % < 1 % 2 3 % 4 5 % 6 7 % 8 9 % 9 0 % q w % e r t         ",
"        @ # $ % & * % = - % ; : % > , % < 1 % 2 3 % 4 5 % 6 7 % 8 9 % 9 0 % q w % e r t         ",
"        t t t t t t t t t t t t t t t t t t t t t t t t t t t t t t t t t t t t t t t t         ",
"                                                                                                ",
"                                                                                                ",
"                                                                                                ",
"                                                            y u i p a s i d y                   ",
"        f f f f f f f f f f f f f f f f f f               u a g h j k l z x c d                 ",
"        f i i i i i i i i i i i i i i i i f             v a b n m M N z B V C Z A               ",
"        f A A A A A A A A A A A A A A A A f           S s B n D F G l l H J K L P I             ",
"        f U U U U U Y Y Y Y Y Y U U U U U f         T a J n R H C C C C C k E K n Z W           ",
"        f Q Q Q Q Q Y ! ! ! ! ~ Q Q Q Q Q f       @ ^ / ( ) C _ _ _ _ _ _ u u C C C g @         ",
"        f k u k k u Y ~ ~ ~ ~ ~ k u k k u f       Y a l m l ` ` ' ] ] ] % % % % u n i `         ",
"        f ` ` ` ` ` ` ` ` ` ` ` ` ` ` ` ` f       Q X ( l n n n n ` ` ` ] ] ` ] ] ] B [         ",
"        f Y Y Y Y Y Y Y Y Y Y Y Y Y Y Y Y f       { i Y _ T T L L L L L L n L L n ` ] Z         ",
"        f f f f f f f f f f f f f f f f f f       } h ( | ( ( T T | | | T | | T | L L  .        ",
"                                                  ^ ..Y ( X.X.( ( T . T . . ( ( ( T T o.        ",
"        f f f f f f f f f f f f f f f f f f       O.h f X.Y X.( ( ( X.( ( ( X.( ( ( T x         ",
"        f i i i i i i i i i i i i i i i i f       E +.@.#.Y X.( X.X.Y ( ( X.Y ( ( ( m N         ",
"        f A A A A A A A A A A A A A A A A f       $.o.%.#.#.Y Y X.Y Y Y Y Y Y Y ( T &.*.        ",
"        f U U U U U Y Y Y Y Y Y U U U U U f       @ =.-.$.#.#.Y Y Y Y Y Y Y #.X.Y *.=.@         ",
"        f Q Q Q Q Q Y ;.;.;.;.:.Q Q Q Q Q f         f =.>.#.#.#.#.Y Y Y #.#.Y #.| H n           ",
"        f k k k k k Y :.:.:.:.:.k k k k k f           W ,.Y ( Y #.#.Y Y #.#.#.T m <.            ",
"        f ` ` ` ` ` ` ` ` ` ` ` ` ` ` ` ` f             m ,.1.( T Y #.#.#.( | m 2.              ",
"        f Y Y Y Y Y Y Y Y Y Y Y Y Y Y Y Y f               ( 3.4.5.( | | T V -.V                 ",
"        f f f f f f f f f f f f f f f f f f                 6.1.7.8.8.9.7.n 6.                  ",
"                                                                                                ",
"                                                                                                ",
"                                                                                                "};
