/* XPM */
static char * image_name[] = {
"48 48 62 1",
" 	c None",
".	c #FFFFFFFFFFFF",
"X	c #AEBAAAAAAEBA",
"o	c #000000000000",
"O	c #410345144103",
"+	c #D75CD34CD75C",
"@	c #CF3CCF3CCF3C",
"#	c #CF3CCB2BCF3C",
"$	c #861782078617",
"%	c #DF7DE38DDF7D",
"&	c #DF7DDF7DDF7D",
"*	c #D75CDB6CD75C",
"=	c #B6DAB2CAB6DA",
"-	c #AEBAAEBAAEBA",
";	c #208120812081",
":	c #082004100820",
">	c #D75CD75CD75C",
",	c #8E388E388E38",
"<	c #30C230C230C2",
"1	c #C71BC71BC71B",
"2	c #BEFBC30BBEFB",
"3	c #BEFBBEFBBEFB",
"4	c #B6DABAEAB6DA",
"5	c #B6DAB6DAB6DA",
"6	c #A699A699A699",
"7	c #514455555965",
"8	c #28A228A228A2",
"9	c #082008200820",
"0	c #10400C301040",
"q	c #8E388A288E38",
"w	c #186114511861",
"e	c #9E799A699E79",
"r	c #F7DEF3CEF7DE",
"t	c #38E33CF338E3",
"y	c #492449244924",
"u	c #E79DE79DE79D",
"i	c #A699A289A699",
"p	c #9E799E799E79",
"a	c #71C671C671C6",
"s	c #EFBEEFBEEFBE",
"d	c #186118611861",
"f	c #596559655965",
"g	c #965896589658",
"h	c #30C22CB230C2",
"j	c #104010401040",
"k	c #38E334D338E3",
"l	c #38E338E338E3",
"z	c #965892489658",
"x	c #F7DEFBEEF7DE",
"c	c #514455555144",
"v	c #861786178617",
"b	c #61855D756185",
"n	c #79E77DF779E7",
"m	c #69A66DB669A6",
"M	c #28A2249228A2",
"N	c #E79DEBADE79D",
"B	c #71C675D671C6",
"V	c #69A669A669A6",
"C	c #618565956185",
"Z	c #514451445144",
"A	c #08200C300820",
"S	c #79E779E779E7",
"                                                ",
"                     ......Xoo                  ",
" ..ooo ......ooo     O+@@#$oooo       ....ooo   ",
" .%%oooo%&&**oooo    o@@##oooooo      o=-;oooo  ",
" .%%oooo&&***oo..ooo ooooo:ooo....Xoooo=-;oooo  ",
" oo:oooo&**>+:o>>,ooo ooo<1ooo223445ooo-X;:ooo  ",
" ooooooooo*@Oo:>++ooooooo112ooo24455ooooooo:oo  ",
" oooooooooooo:o6789ooo:::0<qooo5455=ooooo:oooo  ",
"  ooooo ooo:oo;wooooooooooo::oooooX6:ooooooooo  ",
"         oooo$9ooooooooooooo:ooooo:oooooooooo   ",
"    .%%ooo oo9ooooo:oooooo0e:ooooooo:ooo        ",
"    .%&&ooo *oooooo:oooooo;r:teXoooooooo        ",
"    .&&**+oooooo::o:oooooo;o:o8yooooXX;ooo      ",
"    .&*>+,ooooooooooooooo:o:o#2;:oyy66;oooo     ",
"    .**>2ooooowoooooooooooo:o..uoooo6i;oooo     ",
"    oooo:::ooooooooooooooooor...::9oip;:ooo     ",
"    ooo:.*>>aooooooooo:o:oo;r...soaopp;:ooo     ",
"    oooo.>++doooooo::o:oooo;oo:of9oopg;o:oo     ",
"     ooooo+@:oooooooo:ooooooooo:o:o:gh:ojoo     ",
"        ook@ooo:ooooooooooooooooooooooo:oooo    ",
" .>ooo  ooo#oooooooooooooooooooo9oooo:ooooh;ooo ",
" .+qooo  #oooo:o:ooo9ltttOo:or...-oooooo0gz;oooo",
" .@@oooo ooooo:oooooOxx.xxo:;r....joooookz,;oooo",
" .@#:ooo ooo:o:oooooc..#:o:op.....oooo  0,q;oooo",
" .#oo:oo #1ooooooooo:.:o:o:o......;oooo oqv;:ooo",
" .o:oooo#11dooooo:ooooo:oooo......09ooo oov;o:oo",
" ooo:oo.112bodooooooooooooooo....roqooo  ono:ooo",
" oooooo.122-owod8:ofoooooo  oo...mo::ooo ooooooo",
" ooooo .223Moooo:ooc.oooo   ooo.N::o$owooooo:ooo",
"  ooo  .234o::ooo:oc.:ooo    ooo;ooo$n;oooooooo ",
"       o344o:oooook3.ooof..ooooooooonB;ooooooo  ",
"       o445:o:ooMN...::.....ooooooooBB;oooo     ",
"       oo5Vo:oooo0p..oo......oooooooBa;:ooo     ",
"        ooo:ooooooo:o::.......ooooooaodo:oo     ",
"        ooooooooooMf:oo.......xooooa:::o:oo     ",
"         oooooooooooooo.....+6oooooooo:oooo     ",
"          ooooooooooooo....:o::o:oooooooooo     ",
"          l=-X66Cooooooo6C:o:oo9ooooooooom:oo   ",
"   .ooo    -X66ipooooo oo,o:ooVZdoooooo mVdooo  ",
"   .oooo  ;;;;;;;:ooo  oooo0o.eAooooo amVV;oooo ",
"   .4ooo  oooo:o:o:o;Coooooo9:oooooooo;;;;;oooo ",
"   .5==oooooo:oo:ooheggooooo,q$$nSSooooooo:o:oo ",
"   .;;oooooooooooooegz,,ooooq$$nSBo:ooooo:o:ooo ",
"   oo:o:ooooooooooo;;;;;;oooo9;;;;:oooooooooooo ",
"   oooooooo        oooo:o:oooooo:o:ooooooooooo  ",
"   ooooooo         ooo:o:ooooooooo:ooo          ",
"    ooooo          ooooooooooooooooooo          ",
"                    oooooooo   oooooo           "};
