/* XPM */
static char * image_name[] = {
"48 49 61 1",
" 	c None",
".	c #000000000000",
"X	c #20811C712081",
"o	c #514455555144",
"O	c #104010401040",
"+	c #082004100820",
"@	c #8E388A288E38",
"#	c #71C671C671C6",
"$	c #B6DABAEAB6DA",
"%	c #79E77DF779E7",
"&	c #410341034103",
"*	c #B6DAB2CAB6DA",
"=	c #79E779E779E7",
"-	c #28A22CB228A2",
";	c #186118611861",
":	c #28A228A228A2",
">	c #596559655965",
",	c #861786178617",
"<	c #A699A289A699",
"1	c #AEBAAEBAAEBA",
"2	c #9E799E799E79",
"3	c #41033CF34103",
"4	c #8E388E388E38",
"5	c #B6DAB6DAB6DA",
"6	c #965896589658",
"7	c #CF3CCF3CCF3C",
"8	c #C71BC30BC71B",
"9	c #CF3CCB2BCF3C",
"0	c #186114511861",
"q	c #082008200820",
"w	c #DF7DDB6CDF7D",
"e	c #CF3CD34CCF3C",
"r	c #C71BC71BC71B",
"t	c #69A66DB669A6",
"y	c #49244D344924",
"u	c #BEFBBEFBBEFB",
"i	c #DF7DDF7DDF7D",
"p	c #DF7DE38DDF7D",
"a	c #FFFFFFFFFFFF",
"s	c #38E338E338E3",
"d	c #E79DEBADE79D",
"f	c #EFBEEFBEEFBE",
"g	c #EFBEF3CEEFBE",
"h	c #F7DEF7DEF7DE",
"j	c #D75CD75CD75C",
"k	c #AEBAAAAAAEBA",
"l	c #30C230C230C2",
"z	c #F7DEFBEEF7DE",
"x	c #9E799A699E79",
"c	c #965892489658",
"v	c #28A2249228A2",
"b	c #492449244924",
"n	c #71C675D671C6",
"m	c #10400C301040",
"M	c #69A669A669A6",
"N	c #618561856185",
"B	c #861782078617",
"V	c #69A6659569A6",
"C	c #59655D755965",
"Z	c #38E334D338E3",
"A	c #208124922081",
"          .XoO..                                ",
"           +@#O.                                ",
"           .o$%X...                             ",
"            +@#O.... ..+++....                  ",
"             &*=-+;:->,<123....                 ",
"             O45<617<89977<0....                ",
"           .q3*wwwwee9r9979t+....               ",
"          qyuippiwww$<rrr7e$&.....              ",
"        .0@7$appiiiiu<u8rr776O....              ",
"       .s5ddepiiwiiiie$u8r97ut.....             ",
"       :9ddfg$gpwiiii$1u88r9r1&....             ",
"       oidfgh7ppwiipp1jku8rrr5=+....            ",
"       yidfghg$diiippiu<888r85@-....            ",
"       ljffghh6dpwiipp188u88u1,>.....           ",
"       ;rdfhhzi7giiippwe*88$1@6@q....           ",
"       +2fghhhhxfiwipiik588u4c<xv....           ",
"       .tfhhhhh$jfiiiiw9*<8441<2o.....          ",
"        :whhhhhp<hppiiwe$1cckkk2#+....          ",
"        Ouhhhhhz<wfpiwj7<,<51k<<c0....          ",
"        .%hzhzzhrugppj81<$u*1kk<2l.....         ",
"        .bpgfgggf=je8$u8r8$*1k<kkn.....         ",
"         m7pw7w778r7eee78u$*11<k<cm....         ",
"         .6zazzhgdpwwe8k1k$51kk<1ko.....        ",
"          &paazhgdiwj<=tk555*1<kk1%+....        ",
"          qraaahgdiwr%Mtke$5*1<k<1<X....        ",
"          .tzaazgdiw7%nk7jk5*1k<11ks.....       ",
"           lfzazgdiwjx=ui8@15k<kk11#+....       ",
"           m1zazhfpww$,*7$*5*1<<k11,m....       ",
"           .ngzzhgdiwe$r9ru$*k<<k112;....       ",
"            0jhhhgfpiwje7r8$*k<<<k1<:.....      ",
"            +<hhhggdpiwj7r8$*k<2<11k&.....      ",
"             sihhhgfppwj7r8u*k<2<k11N.....      ",
"             +Bghhhgdpwwe7ru5k222<k1n.....      ",
"              v7hhhgddiwj7985k2x2<<kB+....      ",
"              .Vfhggddpije985kxxx2kk,m....      ",
"               +<hgfddpiwe985kx6xx<k@O....      ",
"                bwgffdppwe985<xccxx<,m....      ",
"                q4ggddpiwj78$<xc4c6<,q....      ",
"                 07ffdppwj98*<x4@462B+....      ",
"                 .Cpfddpwj78$<64,@cx=+....      ",
"                  q2dddpij78$<c@BB46n.....      ",
"                   :uddpij78$<c@=%4<o.....      ",
"                   .Z7ppij785<4,n=,=0.....      ",
"                    .b$pij78524%n%CO......      ",
"                      0%wj78*2cB%,q......       ",
"                      ..3<ru16,,MA......        ",
"                        .+sMVvX0.......         ",
"                         .............          ",
"                           ..........           "};
