/* XPM */
static char * image_name[] = {
"48 48 176 2",
"  	c None",
". 	c #186114511861",
"X 	c #618559655965",
"o 	c #000000000000",
"O 	c #596559655965",
"+ 	c #9E799A699658",
"@ 	c #082004100820",
"# 	c #51444D344924",
"$ 	c #082008200820",
"% 	c #61855D755965",
"& 	c #A699A289A699",
"* 	c #104010401040",
"= 	c #79E771C671C6",
"- 	c #20811C712081",
"; 	c #9E798E388617",
": 	c #71C66DB669A6",
"> 	c #186118611861",
", 	c #410345144103",
"< 	c #C71BB6DAB6DA",
"1 	c #CF3CC30BBEFB",
"2 	c #79E779E771C6",
"3 	c #28A22CB228A2",
"4 	c #B6DAAAAAA699",
"5 	c #38E33CF338E3",
"6 	c #38E338E338E3",
"7 	c #C71BBEFBB6DA",
"8 	c #D75CCF3CCF3C",
"9 	c #DF7DD75CCF3C",
"0 	c #E79DD75CCF3C",
"q 	c #DF7DD34CCF3C",
"w 	c #B6DAB2CAB6DA",
"e 	c #71C671C671C6",
"r 	c #B6DAAAAA9E79",
"t 	c #A69996589658",
"y 	c #E79DD75CD75C",
"u 	c #CF3CC71BC71B",
"i 	c #AEBAA699A699",
"p 	c #9E798E388E38",
"a 	c #8E38820779E7",
"s 	c #CF3CC71BBEFB",
"d 	c #DF7DCF3CC71B",
"f 	c #DF7DD34CD75C",
"g 	c #DF7DD75CD75C",
"h 	c #D75CCB2BC71B",
"j 	c #B6DAAAAAAEBA",
"k 	c #208120812081",
"l 	c #28A228A228A2",
"z 	c #B6DAA6999E79",
"x 	c #96588E389658",
"c 	c #861782078617",
"v 	c #DF7DDB6CDF7D",
"b 	c #8E387DF779E7",
"n 	c #D75CC71BBEFB",
"m 	c #71C669A669A6",
"M 	c #C71BBEFBBEFB",
"N 	c #49244D344924",
"B 	c #492449244924",
"V 	c #AEBA9A699658",
"C 	c #8E388A288E38",
"Z 	c #86177DF779E7",
"A 	c #DF7DCF3CCF3C",
"S 	c #D75CCB2BBEFB",
"D 	c #C71BBAEAB6DA",
"F 	c #9E7992488E38",
"G 	c #69A665956185",
"H 	c #30C234D330C2",
"J 	c #C71BB6DAAEBA",
"K 	c #8E388A288617",
"L 	c #DF7DDF7DDF7D",
"P 	c #BEFBB6DAAEBA",
"I 	c #AEBAAAAAAEBA",
"U 	c #DF7DDB6CD75C",
"Y 	c #E79DE38DDF7D",
"T 	c #CF3CBEFBBEFB",
"R 	c #965896589658",
"E 	c #28A2249228A2",
"W 	c #9E7996589658",
"Q 	c #96588E388E38",
"! 	c #D75CCB2BCF3C",
"~ 	c #E79DE79DE79D",
"^ 	c #DF7DD75CDF7D",
"/ 	c #CF3CC30BC71B",
"( 	c #C71BC30BC71B",
") 	c #BEFBB6DAB6DA",
"_ 	c #618561856185",
"` 	c #CF3CC71BCF3C",
"' 	c #C71BBEFBC71B",
"] 	c #BEFBBEFBBEFB",
"[ 	c #AEBAAAAAA699",
"{ 	c #30C230C230C2",
"} 	c #CF3CCB2BD75C",
"| 	c #79E779E779E7",
" .	c #A6999E799E79",
"..	c #514455555144",
"X.	c #A699A2899E79",
"o.	c #D75CCF3CD75C",
"O.	c #E79DEBADE79D",
"+.	c #96588A288E38",
"@.	c #D75CD75CDF7D",
"#.	c #BEFBBAEABEFB",
"$.	c #9E799A699E79",
"%.	c #514451445144",
"&.	c #79E775D679E7",
"*.	c #BEFBB6DABEFB",
"=.	c #C71BC30BCF3C",
"-.	c #D75CDB6CDF7D",
";.	c #DF7DDF7DE79D",
":.	c #AEBAAAAAB6DA",
">.	c #AEBAAEBAB6DA",
",.	c #D75CD34CD75C",
"<.	c #DF7DE38DE79D",
"1.	c #9E7996589E79",
"2.	c #B6DABAEAC71B",
"3.	c #C71BC71BD75C",
"4.	c #CF3CCF3CD75C",
"5.	c #86177DF78617",
"6.	c #B6DAB2CABEFB",
"7.	c #965892489658",
"8.	c #C71BC71BCF3C",
"9.	c #965896589E79",
"0.	c #BEFBBEFBC71B",
"q.	c #69A6659569A6",
"w.	c #9E799658A699",
"e.	c #AEBAA699AEBA",
"r.	c #9E799E79A699",
"t.	c #CF3CD34CDF7D",
"y.	c #8E388E389E79",
"u.	c #69A671C679E7",
"i.	c #96589658A699",
"p.	c #965892489E79",
"a.	c #861782078E38",
"s.	c #69A66DB679E7",
"d.	c #A699A699B6DA",
"f.	c #B6DAB6DAC71B",
"g.	c #BEFBBEFBCF3C",
"h.	c #8E388E389658",
"j.	c #28A22CB230C2",
"k.	c #6185659569A6",
"l.	c #8E388A289E79",
"z.	c #9E799E79AEBA",
"x.	c #AEBAAEBABEFB",
"c.	c #CF3CD75CDF7D",
"v.	c #596559656185",
"b.	c #71C675D69658",
"n.	c #96589248A699",
"m.	c #492451445144",
"M.	c #69A66DB68617",
"N.	c #861786179658",
"B.	c #38E33CF34103",
"V.	c #618569A671C6",
"C.	c #71C675D68E38",
"Z.	c #514451445965",
"A.	c #618569A68617",
"S.	c #79E779E79658",
"D.	c #A699A699AEBA",
"F.	c #59655D755965",
"G.	c #59655D7569A6",
"H.	c #8E388A289658",
"J.	c #410345144924",
"K.	c #492445144924",
"L.	c #79E77DF78E38",
"P.	c #861786179E79",
"I.	c #9E799A69A699",
"U.	c #410341034103",
"Y.	c #514455556185",
"T.	c #5965618571C6",
"R.	c #69A66DB68E38",
"E.	c #71C671C68E38",
"W.	c #71C671C679E7",
"Q.	c #492449245144",
"!.	c #51445D7569A6",
"~.	c #59655D7571C6",
"^.	c #5965596569A6",
"/.	c #59655D756185",
"(.	c #410341034924",
").	c #10400C301040",
"                                                                . X o o                         ",
"                                                                O + o @ o o                     ",
"                                                                # + $ $ @ o                     ",
"                                                                % & * . $ o                     ",
"                                                                = + . - $ o                     ",
"                                                              o ; : > - $ o                     ",
"                                        o , < 1 2 3 $ o       > 4 5 - > $ o                     ",
"                                        6 7 8 9 0 q w e 5 . o 6 r * - > $ o                     ",
"                                      $ t 8 8 q y 0 0 0 8 u i p a * - * @ o                     ",
"                                    @ % s d f f y y y y g 0 h j h e k * o o                     ",
"                                    l z 8 d g g q y g q y g x c v q & l o o                     ",
"                                  @ b n 8 f g y g y g g 0 u m h g g g M N @ o o                 ",
"                                  B V h f q g g g g g g g C Z g g y f A S c $ o o               ",
"                                - ; D : F j g g g v v v f G u g y 9 q 8 A s H $ o o             ",
"                              o : J 8 4 + c e t u v v v K Z L v g f 8 h h P 6 - $ o             ",
"                              , z h A f g g v I X e M U X Y L L g f h u T R H E $ o o           ",
"                            - W s A q g v v v L L I Q F t Y L v f ! u 1 j : 6 E * o             ",
"                          @ K < ! f g g g L L L L Y ~ M e K i ^ 8 / ( ) 4 , H k $ o             ",
"                        o _ j ` 8 f g v L v L Y Y Y Y Y Y I e : ' 1 ] [ Q 6 { > @ o             ",
"                        , 4 / } A g ^ v L Y Y Y ~ ~ ~ ~ ~ L v w : | &  ...6 l * @ o             ",
"                      - X.' ` o.f ^ v L Y ~ ~ O.~ O.~ ~ ~ Y v 8 / R O c 6 { - $ o               ",
"                    * +.M ` o.@.^ v v Y ~ ~ ~ O.O.O.O.~ ~ L v o./ #.$.%.6 3 . @ o               ",
"                  o &.*.=.} o.-.v v ;.~ ~ O.O.O.O.O.O.~ ~ L @.` ( :.c 6 { k $ o                 ",
"                o _ >.=.} ,.@.^ v ;.<.~ O.O.O.O.O.O.O.O.~ L ,.` ] 1...6 l . @ o                 ",
"                # & 2.3.,.@.@.v ;.<.~ ~ O.O.O.O.O.O.O.~ Y v 4.( >.5.5 { k $ o                   ",
"            o # 1.6.=.4.@.^ v ;.;.<.~ O.O.O.O.O.O.O.O.~ Y -.3.M R %.6 3 . @ o                   ",
"            k 7.I 2.8.,.@.v ;.;.Y O.O.O.O.O.O.O.O.O.O.<.v ,.=.I 5.6 { k $ o                     ",
"            _ 9.>.0.3.@.-.v ;.<.~ O.O.O.O.O.O.O.O.O.~ ;.-.} ' 9...6 l . @ o                     ",
"            q.w.>.0.3.@.-.v ;.~ O.O.O.O.O.O.O.O.~ ~ <.v ,.=.e.c 5 H k $ o                       ",
"            q.r.>.0.3.t.@.v <.~ O.O.O.O.O.O.O.O.~ <.v ,.3.*.y...6 l . @ o                       ",
"          @ u.i.:.2.=.4.@.v ~ O.O.O.O.O.O.O.O.~ <.v @.3.0.p.a.5 H k $ @                         ",
"          - s.p.d.f.g.4.@.v <.O.O.O.O.O.O.O.~ <.v @.4.' :.h.O 6 3 . @ o                         ",
"          j.k.l.z.x.2.3.c.v ~ O.O.O.O.O.O.~ <.;.^ @.8.x.y.C 5 H k $ o                           ",
"          - v.b.n.:.2.=.t.v <.~ O.O.O.O.O.<.v @.@.3.0.z.h.%.6 l . @ o                           ",
"          @ m.M.N.z.6.0.} @.v <.~ ~ O.~ <.v @.c.} =.6.9.| 5 { k $ @                             ",
"          o B.V.C.n.:.2.8.t.-.v <.<.<.;.v @.4.3.=.2.z.h., 6 l . @ o                             ",
"          o 3 Z.A.S.z.>.2.=.o.,.@.@.@.,.4.3.=.0.2.D.h.F.6 { - $ o                               ",
"            > H G.M.l.d.>.2.0.=.=.8.=.=.2.2.f.6.d.H.| 5 H E * o o                               ",
"            o . J.G.M.N.z.d.>.x.f.x.x.>.:.:.d.z.N.c K.6 l . @ o                                 ",
"            o @ E J.G.M.L.P.p.I.z.z.i.n.y.y.H.L.L.O 6 { - $ @                                   ",
"              o $ k U.Y.T.A.R.E.C.C.C.C.C.u.u.W._ 6 H E * o o                                   ",
"              o o $ k H Q.Z.Y.!.G.~.!.Y.^.G./.F.6 H l . $ o                                     ",
"                o @ $ - l { 6 B.(.(.(.(.J.B , 6 H 3 > $ o                                       ",
"                  o o $ . E 3 H H 6 6 5 6 6 H { E > $ o o                                       ",
"                    o o @ ).> k E l 3 3 3 l k > * $ o o                                         ",
"                        o o @ $ $ * * . . $ $ @ o o o                                           ",
"                          o o o @ @ @ @ o @ o o o                                               ",
"                                    o o o                                                       "};
