/* XPM */
static char * image_name[] = {
"40 44 63 1",
" 	c None",
".	c #082004100820",
"X	c #10400C301040",
"o	c #000000000000",
"O	c #410341034103",
"+	c #69A66DB669A6",
"@	c #618561856185",
"#	c #71C671C671C6",
"$	c #082008200820",
"%	c #79E77DF779E7",
"&	c #104010401040",
"*	c #965892489658",
"=	c #71C675D671C6",
"-	c #28A2249228A2",
";	c #20811C712081",
":	c #9E799E799E79",
">	c #49244D344924",
",	c #186114511861",
"<	c #BEFBBAEABEFB",
"1	c #C71BC71BC71B",
"2	c #B6DAB6DAB6DA",
"3	c #208120812081",
"4	c #514455555144",
"5	c #A699A289A699",
"6	c #38E334D338E3",
"7	c #186118611861",
"8	c #AEBAAAAAAEBA",
"9	c #BEFBBEFBBEFB",
"0	c #BEFBC30BBEFB",
"q	c #B6DAB2CAB6DA",
"w	c #28A228A228A2",
"e	c #965896589658",
"r	c #8E388A288E38",
"t	c #861786178617",
"y	c #59655D755965",
"u	c #9E799A699E79",
"i	c #28A22CB228A2",
"p	c #C71BCB2BC71B",
"a	c #A699A699A699",
"s	c #30C230C230C2",
"d	c #861782078617",
"f	c #CF3CCF3CCF3C",
"g	c #596559655965",
"h	c #618565956185",
"j	c #DF7DE38DDF7D",
"k	c #EFBEF3CEEFBE",
"l	c #CF3CD34CCF3C",
"z	c #E79DE79DE79D",
"x	c #EFBEEFBEEFBE",
"c	c #FFFFFFFFFFFF",
"v	c #D75CD75CD75C",
"b	c #D75CDB6CD75C",
"n	c #E79DEBADE79D",
"m	c #79E779E779E7",
"M	c #514451445144",
"N	c #38E33CF338E3",
"B	c #69A669A669A6",
"V	c #F7DEF7DEF7DE",
"C	c #38E338E338E3",
"Z	c #8E388E388E38",
"A	c #F7DEFBEEF7DE",
"S	c #DF7DDF7DDF7D",
"D	c #492449244924",
"                                        ",
"                                        ",
"                            .X          ",
"                           oO+          ",
"                           o@#ooo       ",
"                   o.oo    $%#$Xo       ",
"                  &@*=-$o o;:>,&o       ",
"                 o@<112%O3;4567,o       ",
"                o-89011102q85w;&o       ",
"                7e910111110r9t6&o       ",
"               .y<011111118%00uio       ",
"               ;:000111110%8p11q@&      ",
"              $y%e8011pp1at111009Ooo    ",
"             os82:dd5ppp1d8p11099>$oo   ",
"             ,e9001<r=u28d1fp09<8O;Xo   ",
"            .g29011pp08rhapp19<2u6-&.   ",
"           owaf011jpffkfqt*<0<28#i-Xo   ",
"           &r<fl1pjzffkxlpc=e88u>i;$o   ",
"          $y29f*vpzhzvkskfccu+*d6w7oo   ",
"         o48<0le*bz+hnkOskcoc8mMi-&.    ",
"        .Na<91veu:x+B+VNsCc&ocrOi;$o    ",
"       oCu2901veu:l++BbCNscXoXcsw,oo    ",
"      .su2901pvuu:pM+Bl;C6coXo,c3$o     ",
"      7Z8<011pvu::f>M+l7;6V.o$Xoc.o     ",
"     oN8q911pfb:5:f>>>v777Ao$o.ooc      ",
"     X=8291pffS::5f++BbC66co.oo.oXA     ",
"     -e8201pflj:5jf+Bnv6sxc.oo.ccVxc    ",
"    .g58290pfvS5jjp>xzf7VncoocoAo       ",
"    oh:8290plvjjbbxlbfVvvaV.ccooc       ",
"    .@ua8<01lbbbbbj:evjgMpcc.0c&k       ",
"    .@e58201fvbbbbvbel0b>2r1$9cooc      ",
"    $@Zu8q<1flvbvvfv*ZpvD3e1.o9coc      ",
"    o>t*58<0pflllfp0fp2:qew;9< c.oc     ",
"     imruaq<01pp10992qa%Oi-&oo  cc      ",
"     $g%Z:a822<<<2q888ZDiw7$o           ",
"     o-=dZua88888aaa:*4sw3Xo            ",
"      .O#dr*u:::ueeeZ=6i-,oo            ",
"      oXCBm%ttrrrttd#Oi-7.o             ",
"       o&i4B#====#+4Csi3$o              ",
"       o.,-6O>M>>>Csiw-&.o              ",
"        ooX7-wiiiiiw-;&oo               ",
"         oo$&7333333,$.o                ",
"                                        ",
"                                        "};
