/* XPM */
static char * image_name[] = {
"48 49 33 1",
" 	c None",
".	c #000000000000",
"X	c #210821082108",
"o	c #529452945294",
"O	c #108410841084",
"+	c #084208420842",
"@	c #8C628C628C62",
"#	c #739C739C739C",
"$	c #B5ACB5ACB5AC",
"%	c #7BDE7BDE7BDE",
"&	c #421042104210",
"*	c #294A294A294A",
"=	c #18C618C618C6",
"-	c #5AD65AD65AD6",
";	c #842084208420",
":	c #A528A528A528",
">	c #AD6AAD6AAD6A",
",	c #9CE69CE69CE6",
"<	c #94A494A494A4",
"1	c #CE72CE72CE72",
"2	c #C630C630C630",
"3	c #DEF6DEF6DEF6",
"4	c #6B5A6B5A6B5A",
"5	c #4A524A524A52",
"6	c #BDEEBDEEBDEE",
"7	c #FFFFFFFFFFFF",
"8	c #39CE39CE39CE",
"9	c #E738E738E738",
"0	c #EF7AEF7AEF7A",
"q	c #F7BCF7BCF7BC",
"w	c #D6B4D6B4D6B4",
"e	c #318C318C318C",
"r	c #631863186318",
"          .XoO..                                ",
"           +@#O.                                ",
"           .o$%X...                             ",
"            +@#O.... ..+++....                  ",
"             &$%*+=**-;:>,&....                 ",
"             O@$:<>1:21111:=....                ",
"           .+&$3333111211114+....               ",
"          +563333333$:22211$&.....              ",
"        .=@1$73333336:622211<O....              ",
"       .8$991333333331$6221164.....             ",
"       *19900$0333333$>622212>&....             ",
"       o3900q13333333>w>62222$%+....            ",
"       53900q0$93333336:22222$@*....            ",
"       ew000qq<9333333>226226>;-.....           ",
"       =290qqq3103333331$22$>@<@+....           ",
"       +,00qqqq,0333333>$226@<:,*....           ",
"       .40qqqqq$w0333331$:2@@>:,o.....          ",
"        *3qqqqq3:q333331$><<>>>,#+....          ",
"        O6qqqqqq:30333w1:;:$>>::<=....          ",
"        .%qqqqqq26033w2>:$6$>>>:,e.....         ",
"        .53000000%w12$6222$$>>:>>#.....         ",
"         O1331311221111126$$>>:>:<O....         ",
"         .<q7qqq0933312>>>$$>>>:>>o.....        ",
"          &377qq0933w:%4>$$$$>:>>>%+....        ",
"          +2777q09332%44>1$$$>:>:>:X....        ",
"          .4q77q09331%#>1w>$$>>:>>>8.....       ",
"           e0q7q0933w,%632@>$>:>>>>#+....       ",
"           O>q7qq0333$;$1$$$$>::>>>;O....       ",
"           .#0qqq09331$2126$$>::>>>,=....       ",
"            =wqqq00333w1122$$>:::>>:*.....      ",
"            +:qqq009333w122$$>:,:>>>&.....      ",
"             83qqq00333w1226$>:,:>>>r.....      ",
"             +;0qqq093331126$>,,,:>>#.....      ",
"              *1qqq09933w112$>,,,::>;+....      ",
"              .40q009933w112$>,,,,>>;O....      ",
"               +:q0099333112$>,<,,:>@O....      ",
"                530009333112$:,<<,,:;O....      ",
"                +@0099333w12$:,<@<<:;+....      ",
"                 =1009333w12$:,@@@<,;+....      ",
"                 .-309933w12$:<@;@<,%+....      ",
"                  +,99933w12$:<@;;@<#.....      ",
"                   *69933w12$:<@%%@:o.....      ",
"                   .81333w12$:@;#%;%=.....      ",
"                    .5$33w12$,@%#%-O......      ",
"                      =%3w12$,<;%;+......       ",
"                      ..&:26><;;4X......        ",
"                        .+844*X=.......         ",
"                         .............          ",
"                           ..........           "};
