/* XPM */
static char * image_name[] = {
"60 45 24 1",
" 	c None",
".	c #596559655965",
"X	c #49244D344924",
"o	c #514455555144",
"O	c #C71BC71BC71B",
"+	c #861782078617",
"@	c #8E388A288E38",
"#	c #618561856185",
"$	c #965892489658",
"%	c #410345144103",
"&	c #38E33CF338E3",
"*	c #69A66DB6B6DA",
"=	c #410345148E38",
"-	c #000000000000",
";	c #69A66DB6BEFB",
":	c #20811C7169A6",
">	c #000000004103",
",	c #2081208169A6",
"<	c #28A228A228A2",
"1	c #000000004924",
"2	c #FFFFFFFFFFFF",
"3	c #000000001861",
"4	c #000000002081",
"5	c #AEBAAAAAAEBA",
"                                      ..........XX.         ",
"                                   o.XOOOOOOOOOOO+@oX       ",
"                                 .oOOOOOOOOOOOOOOOOOO.      ",
"                                .OOOOOOOOOOOOOOOOOOOOO#     ",
"                               .OOOOOOOOOOO@OOOOOOOOOOO..   ",
"                              #OOOOOOO@+$+@+$+@+$%X+OOOOOo# ",
"                             .OOOOOO&X&X&X&X&X&X&@+OOOOOOOO.",
"                            .OOOO%X%OOOOOOOOOOOOOOOOOOOOOOOO",
"                           .+OOX&OOOOOOOOOOOOOOOOOOOOOOOOOOO",
"                          #+OOXOOOOOOOOOOOOOOOOOOOOOOOOOOOOO",
"                         .+OOO&OOOOOOOOOOOOOOOOOOOOOOOOOOOOO",
"                        .+OOO+XOOOOOOOOOOOOOOOOOOOOOOOOOOOOO",
"***************=-**********;*;%X+@+X+X-X&X%X+@OOOOOOOOOOOOOO",
":::::::::::::::>-*:::::::,:,:,,<X-----------X%@OOOOOOOOOOOOO",
":::::::::::::::>-*::::::,:,:,,,,<<<<<<---------@OOOOOOOOOOOO",
":::::::::::::::>-*::::::,::,:,,,,,,,<<----------OOOOOOOOOOOO",
":::::::::::::::>-*::::::,:,:,,,,,,,,,,1----------OOOOOOOOOOO",
":::::::::::::::>-*:::::,:,:,:,,,,,,,,,1-----------@OOOOOOOOO",
":::::::::::::::>-*:::::22:,:,,,22,,,,,1-------------OOOOOOOO",
":::::::::::::::>-*:::::222:,:,222,,,,,1--------------+OOOOOO",
":::::::::::::::>-*::::::222:,222,,,,,,1---------------%@+OOO",
":::::::::::::::>-*:::::::222222,,,,,,,1-----------------X+OO",
":::::::::::::::>-*::::::,:2222,,,,,,,,1---------------&X&@+O",
":::::::::::::::>-*::::::,:2222,,,,,,,,1-----XX-----%X%X+@+O+",
":::::::::::::::>-*::::::,222222,,,,,,,1----X  %X----&X+X+@+O",
":::::::::::::::>-*::::::222,:222,,,,,,1-----     %X%X-X%X+X+",
":::::::::::::::>-*:::::222:,:,222,,,,,1X----          &X&X&X",
":::::::::::::::>-*:::::22::,:,,22,,,,,1%X---             %X%",
":::::::::::::::>-*:::::::,,:,,,,,,,,,,1 &X-                 ",
":::::::::::::::>-*::::::,::,:,,,,,,,,,1                     ",
":::::::::::::::>-*::::::,:,:,,,,,,,,,,1                     ",
":::::::::::::::>-*:::::,:,:,:,,,,,,,,,1                     ",
">>>>>>>>>>>>>>>3-*>>>>>>>>>>>>>>1111114                     ",
"---------------------------------------                     ",
"55555555555555555555555555555555555555-                     ",
"55555555555555555555555555555555555555-                     ",
"55555555555555555555555555555555555555-                     ",
"55555555555555555555555555555555555555-                     ",
"ooooooooooooooooooooooooooooooooooo255-                     ",
"----------------------------------5255-                     ",
"22222222222222222222222222222222225255-                     ",
"22222222222222222222222222222222225255-                     ",
"22222222222222222222222222222222225255-                     ",
"22222222222222222222222222222222225255-                     ",
"22222222222222222222222222222222225255-                     "};
