/* XPM */
static char * image_name[] = {
"60 45 18 1",
" 	c None",
".	c #596559655965",
"X	c #49244D344924",
"o	c #514455555144",
"O	c #C71BC71BC71B",
"+	c #861782078617",
"@	c #8E388A288E38",
"#	c #618561856185",
"$	c #965892489658",
"%	c #410345144103",
"&	c #38E338E338E3",
"*	c #71C675D671C6",
"=	c #000000000000",
"-	c #28A2249228A2",
";	c #082008200820",
":	c #28A228A228A2",
">	c #FFFFFFFFFFFF",
",	c #AEBAAAAAAEBA",
"                                      ..........XX.         ",
"                                   o.XOOOOOOOOOOO+@oX       ",
"                                 .oOOOOOOOOOOOOOOOOOO.      ",
"                                .OOOOOOOOOOOOOOOOOOOOO#     ",
"                               .OOOOOOOOOOO@OOOOOOOOOOO..   ",
"                              #OOOOOOO@+$+@+$+@+$%X+OOOOOo# ",
"                             .OOOOOO&X&X&X&X&X&X&@+OOOOOOOO.",
"                            .OOOO%X%OOOOOOOOOOOOOOOOOOOOOOOO",
"                           .+OOX&OOOOOOOOOOOOOOOOOOOOOOOOOOO",
"                          #+OOXOOOOOOOOOOOOOOOOOOOOOOOOOOOOO",
"                         .+OOO&OOOOOOOOOOOOOOOOOOOOOOOOOOOOO",
"                        .+OOO+XOOOOOOOOOOOOOOOOOOOOOOOOOOOOO",
"***************X=*************%X+@+X+X=X&X%X+@OOOOOOOOOOOOOO",
"---------------;=*-------:-:-:::X===========X%@OOOOOOOOOOOOO",
"---------------;=*------:-:-::::::::::=========@OOOOOOOOOOOO",
"---------------;=*------:--:-:::::::::==========OOOOOOOOOOOO",
"---------------;=*------:-:-::::::::::;==========OOOOOOOOOOO",
"---------------;=*-----:-:-:-:::::::::;===========@OOOOOOOOO",
"---------------;=*----->>-:-:::>>:::::;=============OOOOOOOO",
"---------------;=*----->>>-:-:>>>:::::;==============+OOOOOO",
"---------------;=*------>>>-:>>>::::::;===============%@+OOO",
"---------------;=*------->>>>>>:::::::;=================X+OO",
"---------------;=*------:->>>>::::::::;===============&X&@+O",
"---------------;=*------:->>>>::::::::;=====XX=====%X%X+@+O+",
"---------------;=*------:>>>>>>:::::::;====X  %X====&X+X+@+O",
"---------------;=*------>>>:->>>::::::;=====     %X%X=X%X+X+",
"---------------;=*----->>>-:-:>>>:::::;X====          &X&X&X",
"---------------;=*----->>--:-::>>:::::;%X===             %X%",
"---------------;=*-------::-::::::::::; &X=                 ",
"---------------;=*------:--:-:::::::::;                     ",
"---------------;=*------:-:-::::::::::;                     ",
"---------------;=*-----:-:-:-:::::::::;                     ",
";;;;;;;;;;;;;;;==*;;;;;;;;;;;;;;;;;;;;=                     ",
"=======================================                     ",
",,,,,,,,,,,,,,,,,,,,,,,,,,,,,,,,,,,,,,=                     ",
",,,,,,,,,,,,,,,,,,,,,,,,,,,,,,,,,,,,,,=                     ",
",,,,,,,,,,,,,,,,,,,,,,,,,,,,,,,,,,,,,,=                     ",
",,,,,,,,,,,,,,,,,,,,,,,,,,,,,,,,,,,,,,=                     ",
"ooooooooooooooooooooooooooooooooooo>,,=                     ",
"==================================,>,,=                     ",
">>>>>>>>>>>>>>>>>>>>>>>>>>>>>>>>>>,>,,=                     ",
">>>>>>>>>>>>>>>>>>>>>>>>>>>>>>>>>>,>,,=                     ",
">>>>>>>>>>>>>>>>>>>>>>>>>>>>>>>>>>,>,,=                     ",
">>>>>>>>>>>>>>>>>>>>>>>>>>>>>>>>>>,>,,=                     ",
">>>>>>>>>>>>>>>>>>>>>>>>>>>>>>>>>>,>,,=                     "};
