/* XPM */
static char * image_name[] = {
"48 48 110 2",
"  	c None",
". 	c #000000000000",
"X 	c #9E799A699E79",
"o 	c #B6DAB6DAB6DA",
"O 	c #FFFFFFFFFFFF",
"+ 	c #596559655965",
"@ 	c #104000000000",
"# 	c #38E300000000",
"$ 	c #B6DA49244924",
"% 	c #BEFB49244924",
"& 	c #A699A699A699",
"* 	c #618549244924",
"= 	c #FFFF49244924",
"- 	c #79E761856185",
"; 	c #D75CD75CD75C",
": 	c #965849244924",
"> 	c #618561856185",
", 	c #79E749244924",
"< 	c #965896589658",
"1 	c #CF3CCF3CCF3C",
"2 	c #F7DEF7DEF7DE",
"3 	c #CF3C49244924",
"4 	c #514455555144",
"5 	c #A699A289A699",
"6 	c #514451445144",
"7 	c #E79DE38DE79D",
"8 	c #208100000000",
"9 	c #B6DA00000000",
"0 	c #186118611861",
"q 	c #104010401040",
"w 	c #C71B49244924",
"e 	c #861786178617",
"r 	c #492449244924",
"t 	c #E79D49244924",
"y 	c #D75C49244924",
"u 	c #AEBA96589658",
"i 	c #71C649244924",
"p 	c #71C671C671C6",
"a 	c #EFBE49244924",
"s 	c #C71BC71BC71B",
"d 	c #28A200000000",
"f 	c #8E3849244924",
"g 	c #DF7DE38DDF7D",
"h 	c #CF3CCB2BCF3C",
"j 	c #F7DEFBEEF7DE",
"k 	c #082000000000",
"l 	c #596549244924",
"z 	c #DF7DDB6CDF7D",
"x 	c #71C675D671C6",
"c 	c #965892489658",
"v 	c #AEBA49244924",
"b 	c #69A649244924",
"n 	c #79E779E779E7",
"m 	c #69A651445144",
"M 	c #514400000000",
"N 	c #DF7D2CB228A2",
"B 	c #208120812081",
"V 	c #082008200820",
"C 	c #69A600000000",
"Z 	c #71C600000000",
"A 	c #30C200000000",
"S 	c #618500000000",
"D 	c #10400C301040",
"F 	c #20811C712081",
"G 	c #186100000000",
"H 	c #410300000000",
"J 	c #AEBA00000000",
"K 	c #B6DAB2CAB6DA",
"L 	c #596500000000",
"P 	c #8E3800000000",
"I 	c #8E388E388E38",
"U 	c #8E382CB228A2",
"Y 	c #30C204100820",
"T 	c #30C208200820",
"R 	c #38E32CB228A2",
"E 	c #38E334D330C2",
"W 	c #CF3C34D330C2",
"Q 	c #E79D34D330C2",
"! 	c #965834D330C2",
"~ 	c #514434D330C2",
"^ 	c #9E7934D330C2",
"/ 	c #410345144103",
"( 	c #410334D330C2",
") 	c #B6DA34D330C2",
"_ 	c #596555555965",
"` 	c #208118611861",
"' 	c #30C234D330C2",
"] 	c #79E77DF779E7",
"[ 	c #AEBA4D344924",
"{ 	c #C71BC30BC71B",
"} 	c #861782078617",
"| 	c #965886178617",
" .	c #514449244924",
"..	c #EFBEF3CEEFBE",
"X.	c #E79DEBADE79D",
"o.	c #AEBAAAAAAEBA",
"O.	c #8E388A288E38",
"+.	c #EFBEEFBEEFBE",
"@.	c #8E3886178617",
"#.	c #69A66DB669A6",
"$.	c #DF7D49244924",
"%.	c #A69949244924",
"&.	c #CF3CD34CCF3C",
"*.	c #9E799E799E79",
"=.	c #8E384D344924",
"-.	c #F7DE49244924",
";.	c #71C65D755965",
":.	c #79E74D344924",
">.	c #9E7961856185",
",.	c #DF7DDF7DDF7D",
"                                                                                                ",
"                                                                                                ",
"        . . . . . X . . . . . . . . . . . . . . . . . . . X . . . . .                           ",
"        . o o o . X . . . . . . . . . . . . . . . . . . . X . O . O .                           ",
"        . o . o . X . . . . . . . . . . . . . . . . . . . X . . O . .                           ",
"        . o o o . X . . . . . . . . . . . . . . . . . . . X . O . O .                           ",
"        . . . . . X . . . . . . . . . . . . . . . . . . . X . . . . .                           ",
"        o o o . . o . . o . . + . . o . . o . . o . . o . . o . . . .   . .                     ",
"        . . . . . . . . . . @ # . . . . . . . . . . . . . . . . . . .     .                     ",
"        . O O O O O O O O O $ % & O O O O O O O O O O O O O O O O O .                           ",
"        . O O . O O O O O * = = - ; O O O O O O O O O O O O O O O O .     .                     ",
"        . O O . O O O O O $ = = : > O O O O O O O O O O O O O O O O .     .                     ",
"        . O O O O O O O * = = = , < 1 2 O O O O O O O O O O O O O O .                           ",
"        . O O . O O O O $ = = 3 4 5 6 7 O O O O O O O O O O O O O O .     .                     ",
"        . O O . O O . 8 = 9 9 , 0 q * . . O . . O . . O . . O . . O . . . .   . .               ",
"        . O O O O O . $ = = w 4 e r t y u O O O O O O O O O O O O O .           .               ",
"        . O O . O O * = = = i p > : = a i p s O O O O O O O O O O O .                           ",
"        . O O . O O d a = w 4 e r t = = = f e g h O O O O O O O O j .           .               ",
"        . O O O O O k a = i p > : = = = = l z e l x h O O O O O O c .           .               ",
"        . O O . O O h : w 4 e r t = = = v + c l = % b n h O O O 7 r . .                         ",
"        . O O . O O . m * 0 q M 9 9 N 9 @ B V C 9 9 9 Z 8 . . . . M A . . . X . . . . .         ",
"        . O O O O O . e 4 B r t = 9 N S D F G 9 9 9 9 9 9 H . . k J M V . . X . . . O .         ",
"        . O O . O O O K n q : 9 = 9 N @ F V C 9 9 9 9 9 9 8 . . L 9 P V . . X . . O . .         ",
"        . O O . O O . O I . a = = 9 U D F G 9 9 9 9 9 9 C V 0 @ J 9 9 Y . . X . . . O .         ",
"        . O O O O O . O s T J 9 9 9 R F V C 9 9 9 9 9 9 G 0 D L 9 9 9 S V . X . . . . .         ",
"        . O O . O O O O g > E W Q ! r + ~ Q Q Q Q Q Q ^ / > ( Q Q Q Q ) _ o o o o o o o         ",
"        . . . . . . . . . V ` C J @ B V C 9 9 9 9 9 9 G F D S 9 9 9 9 9 @ . . . . . . .         ",
"        o o o o ' o . o o . X + l > n * = = = = = = $ + ] l = = = = = = [ { O O O O O .         ",
"        o ' ' . ' o ' ' ' . { e r } + $ = = = = = = * n + v = = = = = = y | O O O O O .         ",
"              .     .     . O ; ] n  .3 = = = = = $ + ] l = = = = = = = a m ..O O O O .         ",
"                    .     . O X.o.O.I > , 3 = = = l ] + v = = = = = = = = : K O O O O .         ",
"              .           . O O j c +.o.p 6 , 3 $ + n l = = = = = = = = = a @.O O O O .         ",
"              .     .     . O O O 7 7 O.O.O.#.6 r ] + $ = = = = = = = = $.%.> O O O O .         ",
"              . .   .     . O O O O O &.*.O.O.O.n n l = = = = = = $.w =.4 x e z O O O .         ",
"                          . O O O O O O O &.*.O.O.+ $ = = -.t % b ;.x ] O.O.O.{ O O O .         ",
"                    .     . O O O O O O O O O &.O.l = = v :.- #.} O.O.O.O.O.O.o O O O .         ",
"                    .     . O O O O O O O O O O } l >.> #.O.O.O.O.O.O.I < 5 z ..O O O .         ",
"                          . O O O O O O O O O +.n 1 o.@.O.O.O.O.O.O.K z X.O O O O O O .         ",
"                    .     . O O O O O O O O O O O g O.O.O.O.< o &.+.O O O O O O O O O .         ",
"                    .     . O O O O O O O O O O O K O.*.K &.O O O O O O O O O O O O O .         ",
"                    . .   . O O O O O O O O O O ..o.,.j j O O O O O O O O O O O O O O .         ",
"                          . O O O O O O O O O O O O O O O O O O O O O O O O O O O O O .         ",
"                          . O O O O O O O O O O O O O O O O O O O O O O O O O O O O O .         ",
"                          . O O O O O O O O O O O O O O O O O O O O O O O O O O O O O .         ",
"                          . . . . . . . . . . . . . . . . . . . . . . . . . . . . . . .         ",
"                          o o o o ' o o o o o o o o o o o o o o o o o o o o ' o o o o '         ",
"                          o ' ' ' ' o ' ' ' ' ' ' ' ' ' ' ' ' ' ' ' ' ' ' ' ' o ' ' ' '         ",
"                                                                                                "};
