/* XPM */
static char * image_name[] = {
"60 45 25 1",
" 	c None",
".	c #596559655965",
"X	c #49244D344924",
"o	c #514455555144",
"O	c #C71BC71BC71B",
"+	c #861782078617",
"@	c #8E388A288E38",
"#	c #618561856185",
"$	c #965892489658",
"%	c #410345144103",
"&	c #38E33CF338E3",
"*	c #69A66DB6B6DA",
"=	c #69A66DB6BEFB",
"-	c #000000000000",
";	c #18611C716185",
":	c #20811C7169A6",
">	c #2081208169A6",
",	c #28A228A228A2",
"<	c #FFFFFFFFFFFF",
"1	c #000000004924",
"2	c #A699A699A699",
"3	c #0000000038E3",
"4	c #000000004103",
"5	c #000000002081",
"6	c #AEBAAAAAAEBA",
"                                     ..........XX.          ",
"                                  o.XOOOOOOOOOOO+@oX        ",
"                                .oOOOOOOOOOOOOOOOOOO.       ",
"                               .OOOOOOOOOOOOOOOOOOOOO#      ",
"                              .OOOOOOOOOOO@OOOOOOOOOOO..    ",
"                             #OOOOOOO@+$+@+$+@+$%X+OOOOOo#  ",
"                            .OOOOOO&X&X&X&X&X&X&@+OOOOOOOO..",
"                           .OOOO%X%OOOOOOOOOOOOOOOOOOOOOOOOO",
"                          .+OOX&OOOOOOOOOOOOOOOOOOOOOOOOOOOO",
"                         #+OOXOOOOOOOOOOOOOOOOOOOOOOOOOOOOOO",
"                        .+OOO&OOOOOOOOOOOOOOOOOOOOOOOOOOOOOO",
"                       .+OOO+XOOOOOOOOOOOOOOOOOOOOOOOOOOOOOO",
"*******************==========%X+@+X+X-X&X%X+@OOOOOOOOOOOOOOO",
";;;;;;;;;;;;;;;;;;;:::::::>:>>,X-----------X%@OOOOOOOOOOOOOO",
";;;;;;;;;;;;;;;;;;;::::::::>>>>,,,,,,---------@OOOOOOOOOOOOO",
";;;;;;;;;;;;;;;;;;;:::::::>:>>>>>>>,,----------OOOOOOOOOOOOO",
";;;;;;;;;;;;;;;;;;;:<<<<<<<<<<<<<<>>>1----------OOOOOOOOOOOO",
";;;;;;;;;;;;;;;;;;;:<222222222222o>>>1-----------@OOOOOOOOOO",
";;;;;;;;;;;;;;;;;;;:<2-o222222o-2o>>>1-------------OOOOOOOOO",
";;;;;;;;;;;;;;;;;;;:<2o-o2222o-o2o>>>1--------------+OOOOOOO",
";;;;;;;;;;;;;;;;;;;:<22o-o22o-o22o>>>1---------------%@+OOOO",
";;;;;;;;;;;;;;;;;;;:<222o-oo-o222o>>>1-----------------X+OOO",
";;;;;;;;;;;;;;;;;;;:<2222o--o2222o>>>1---------------&X&@+O+",
";;;;;;;;;;;;;;;;;;;:<2222o--o2222o>>>1-----XX-----%X%X+@+O+O",
";;;;;;;;;;;;;;;;;;;:<222o-oo-o222o>>>1----X  %X----&X+X+@+O+",
";;;;;;;;;;;;;;;;;;;:<22o-o22o-o22o>>>1-----     %X%X-X%X+X+$",
";;;;;;;;;;;;;;;;;;;:<2o-o2222o-o2o>>>1X----          &X&X&X&",
";;;;;;;;;;;;;;;;;;;:<2-o222222o-2o>>>1%X---             %X%X",
";;;;;;;;;;;;;;;;;;;:<222222222222o>>>1 &X-                  ",
";;;;;;;;;;;;;;;;;;;:<ooooooooooooo>>>1                      ",
";;;;;;;;;;;;;;;;;;;:::::::::>>>>>>>>>1                      ",
";;;;;;;;;;;;;;;;;;;:::::::>:>>>>>>>>>1                      ",
"33333333333333333334444444444444111115                      ",
"--------------------------------------                      ",
"6666666666666666666666666666666666666-                      ",
"6666666666666666666666666666666666666-                      ",
"6666666666666666666666666666666666666-                      ",
"6666666666666666666666666666666666666-                      ",
"oooooooooooooooooooooooooooooooooo<66-                      ",
"---------------------------------6<66-                      ",
"<<<<<<<<<<<<<<<<<<<<<<<<<<<<<<<<<6<66-                      ",
"<<<<<<<<<<<<<<<<<<<<<<<<<<<<<<<<<6<66-                      ",
"<<<<<<<<<<<<<<<<<<<<<<<<<<<<<<<<<6<66-                      ",
"<<<<<<<<<<<<<<<<<<<<<<<<<<<<<<<<<6<66-                      ",
"<<<<<<<<<<<<<<<<<<<<<<<<<<<<<<<<<6<66-                      "};
