/* XPM */
static char * image_name[] = {
"38 33 9 1",
" 	c #739C739C739C",
".	c #000000000000",
"X	c #210821082108",
"o	c #294A294A294A",
"O	c #FFFFFFFFFFFF",
"+	c #084208420842",
"@	c #A528A528A528",
"#	c #529452945294",
"$	c #AD6AAD6AAD6A",
"                                     .",
"XXXXXXXXXXXXXXXXXXXoooooooooooooooooo.",
"XXXXXXXXXXXXXXXXXXXoooooooooooooooooo.",
"XXXXXXXXXXXXXXXXXXXoooooooooooooooooo.",
"XXXXXXXXXXXXXXXXXXXoOOOOOOOOOOOOOOooo+",
"XXXXXXXXXXXXXXXXXXXoO@@@@@@@@@@@@#ooo+",
"XXXXXXXXXXXXXXXXXXXoO@.#@@@@@@#.@#ooo+",
"XXXXXXXXXXXXXXXXXXXoO@#.#@@@@#.#@#ooo+",
"XXXXXXXXXXXXXXXXXXXoO@@#.#@@#.#@@#ooo+",
"XXXXXXXXXXXXXXXXXXXoO@@@#.##.#@@@#ooo+",
"XXXXXXXXXXXXXXXXXXXoO@@@@#..#@@@@#ooo+",
"XXXXXXXXXXXXXXXXXXXoO@@@@#..#@@@@#ooo+",
"XXXXXXXXXXXXXXXXXXXoO@@@#.##.#@@@#ooo+",
"XXXXXXXXXXXXXXXXXXXoO@@#.#@@#.#@@#ooo+",
"XXXXXXXXXXXXXXXXXXXoO@#.#@@@@#.#@#ooo+",
"XXXXXXXXXXXXXXXXXXXoO@.#@@@@@@#.@#ooo+",
"XXXXXXXXXXXXXXXXXXXoO@@@@@@@@@@@@#ooo+",
"XXXXXXXXXXXXXXXXXXXoO#############ooo+",
"XXXXXXXXXXXXXXXXXXXoooooooooooooooooo+",
"XXXXXXXXXXXXXXXXXXXoooooooooooooooooo+",
"+++++++++++++++++++++++++++++++++++++.",
"......................................",
"$$$$$$$$$$$$$$$$$$$$$$$$$$$$$$$$$$$$$.",
"$$$$$$$$$$$$$$$$$$$$$$$$$$$$$$$$$$$$$.",
"$$$$$$$$$$$$$$$$$$$$$$$$$$$$$$$$$$$$$.",
"$$$$$$$$$$$$$$$$$$$$$$$$$$$$$$$$$$$$$.",
"##################################O$$.",
".................................$O$$.",
"OOOOOOOOOOOOOOOOOOOOOOOOOOOOOOOOO$O$$.",
"OOOOOOOOOOOOOOOOOOOOOOOOOOOOOOOOO$O$$.",
"OOOOOOOOOOOOOOOOOOOOOOOOOOOOOOOOO$O$$.",
"OOOOOOOOOOOOOOOOOOOOOOOOOOOOOOOOO$O$$.",
"OOOOOOOOOOOOOOOOOOOOOOOOOOOOOOOOO$O$$."};
