/* XPM */
static char * image_name[] = {
"60 45 21 1",
" 	c None",
".	c #596559655965",
"X	c #49244D344924",
"o	c #514455555144",
"O	c #C71BC71BC71B",
"+	c #861782078617",
"@	c #8E388A288E38",
"#	c #618561856185",
"$	c #965892489658",
"%	c #410345144103",
"&	c #38E338E338E3",
"*	c #71C675D671C6",
"=	c #000000000000",
"-	c #208120812081",
";	c #28A2249228A2",
":	c #28A228A228A2",
">	c #FFFFFFFFFFFF",
",	c #082008200820",
"<	c #A699A699A699",
"1	c #082004100820",
"2	c #AEBAAAAAAEBA",
"                                     ..........XX.          ",
"                                  o.XOOOOOOOOOOO+@oX        ",
"                                .oOOOOOOOOOOOOOOOOOO.       ",
"                               .OOOOOOOOOOOOOOOOOOOOO#      ",
"                              .OOOOOOOOOOO@OOOOOOOOOOO..    ",
"                             #OOOOOOO@+$+@+$+@+$%X+OOOOOo#  ",
"                            .OOOOOO&X&X&X&X&X&X&@+OOOOOOOO..",
"                           .OOOO%X%OOOOOOOOOOOOOOOOOOOOOOOOO",
"                          .+OOX&OOOOOOOOOOOOOOOOOOOOOOOOOOOO",
"                         #+OOXOOOOOOOOOOOOOOOOOOOOOOOOOOOOOO",
"                        .+OOO&OOOOOOOOOOOOOOOOOOOOOOOOOOOOOO",
"                       .+OOO+XOOOOOOOOOOOOOOOOOOOOOOOOOOOOOO",
"*****************************%X+@+X+X=X&X%X+@OOOOOOOOOOOOOOO",
"-------------------;;;;;;;:;:::X===========X%@OOOOOOOOOOOOOO",
"-------------------;;;;;;;;::::::::::=========@OOOOOOOOOOOOO",
"-------------------;;;;;;;:;:::::::::==========OOOOOOOOOOOOO",
"-------------------;>>>>>>>>>>>>>>:::,==========OOOOOOOOOOOO",
"-------------------;><<<<<<<<<<<<o:::,===========@OOOOOOOOOO",
"-------------------;><=o<<<<<<o=<o:::,=============OOOOOOOOO",
"-------------------;><o=o<<<<o=o<o:::,==============+OOOOOOO",
"-------------------;><<o=o<<o=o<<o:::,===============%@+OOOO",
"-------------------;><<<o=oo=o<<<o:::,=================X+OOO",
"-------------------;><<<<o==o<<<<o:::,===============&X&@+O+",
"-------------------;><<<<o==o<<<<o:::,=====XX=====%X%X+@+O+O",
"-------------------;><<<o=oo=o<<<o:::,====X  %X====&X+X+@+O+",
"-------------------;><<o=o<<o=o<<o:::,=====     %X%X=X%X+X+$",
"-------------------;><o=o<<<<o=o<o:::,X====          &X&X&X&",
"-------------------;><=o<<<<<<o=<o:::,%X===             %X%X",
"-------------------;><<<<<<<<<<<<o:::, &X=                  ",
"-------------------;>ooooooooooooo:::,                      ",
"-------------------;;;;;;;;;:::::::::,                      ",
"-------------------;;;;;;;:;:::::::::,                      ",
"11111111111111111111111111111111,,,,,=                      ",
"======================================                      ",
"2222222222222222222222222222222222222=                      ",
"2222222222222222222222222222222222222=                      ",
"2222222222222222222222222222222222222=                      ",
"2222222222222222222222222222222222222=                      ",
"oooooooooooooooooooooooooooooooooo>22=                      ",
"=================================2>22=                      ",
">>>>>>>>>>>>>>>>>>>>>>>>>>>>>>>>>2>22=                      ",
">>>>>>>>>>>>>>>>>>>>>>>>>>>>>>>>>2>22=                      ",
">>>>>>>>>>>>>>>>>>>>>>>>>>>>>>>>>2>22=                      ",
">>>>>>>>>>>>>>>>>>>>>>>>>>>>>>>>>2>22=                      ",
">>>>>>>>>>>>>>>>>>>>>>>>>>>>>>>>>2>22=                      "};
