/* XPM */
static char * image_name[] = {
"48 48 120 2",
"  	c None",
". 	c #000000000000",
"X 	c #9E799A699E79",
"o 	c #B6DAB6DAB6DA",
"O 	c #FFFFFFFFFFFF",
"+ 	c #596559655965",
"@ 	c #104000000000",
"# 	c #38E300000000",
"$ 	c #69A600000000",
"% 	c #71C600000000",
"& 	c #186100000000",
"* 	c #B6DA00000000",
"= 	c #186104100820",
"- 	c #492400000000",
"; 	c #49242CB228A2",
": 	c #30C200000000",
"> 	c #082008200820",
", 	c #9E7934D330C2",
"< 	c #E79D34D330C2",
"1 	c #B6DA34D330C2",
"2 	c #41033CF34103",
"3 	c #79E779E779E7",
"4 	c #38E338E338E3",
"5 	c #A699A289A699",
"6 	c #208100000000",
"7 	c #59652CB228A2",
"8 	c #186118611861",
"9 	c #104010401040",
"0 	c #B6DA49244924",
"q 	c #FFFF49244924",
"w 	c #861700000000",
"e 	c #30C234D330C2",
"r 	c #208120812081",
"t 	c #9E7900000000",
"y 	c #8E3800000000",
"u 	c #49244D344924",
"i 	c #AEBA00000000",
"p 	c #28A200000000",
"a 	c #EFBE49244924",
"s 	c #C71B49244924",
"d 	c #410300000000",
"f 	c #082000000000",
"g 	c #A69900000000",
"h 	c #410345144103",
"j 	c #8E388E388E38",
"k 	c #861734D330C2",
"l 	c #69A669A669A6",
"z 	c #D75C34D330C2",
"x 	c #965834D330C2",
"c 	c #69A66DB669A6",
"v 	c #492434D330C2",
"b 	c #A69934D330C2",
"n 	c #514434D330C2",
"m 	c #514455555144",
"M 	c #965892489658",
"N 	c #69A6659569A6",
"B 	c #B6DAB2CAB6DA",
"V 	c #DF7D2CB228A2",
"C 	c #20811C712081",
"Z 	c #10400C301040",
"A 	c #514400000000",
"S 	c #861786178617",
"D 	c #492449244924",
"F 	c #E79D49244924",
"G 	c #618500000000",
"H 	c #9E7949244924",
"J 	c #596500000000",
"K 	c #8E382CB228A2",
"L 	c #30C204100820",
"P 	c #C71BC30BC71B",
"I 	c #30C208200820",
"U 	c #38E32CB228A2",
"Y 	c #DF7DDF7DDF7D",
"T 	c #38E334D330C2",
"R 	c #CF3C34D330C2",
"E 	c #618561856185",
"W 	c #410334D330C2",
"Q 	c #596555555965",
"! 	c #208118611861",
"~ 	c #596549244924",
"^ 	c #618549244924",
"/ 	c #79E77DF779E7",
"( 	c #AEBA4D344924",
") 	c #AEBA49244924",
"_ 	c #D75C49244924",
"` 	c #965886178617",
"' 	c #D75CD75CD75C",
"] 	c #514449244924",
"[ 	c #CF3C49244924",
"{ 	c #69A651445144",
"} 	c #EFBEF3CEEFBE",
"| 	c #E79DEBADE79D",
" .	c #AEBAAEBAAEBA",
"..	c #8E388A288E38",
"X.	c #79E749244924",
"o.	c #F7DEFBEEF7DE",
"O.	c #EFBEEFBEEFBE",
"+.	c #AEBAAAAAAEBA",
"@.	c #71C671C671C6",
"#.	c #514451445144",
"$.	c #8E3886178617",
"%.	c #E79DE79DE79D",
"&.	c #DF7D49244924",
"*.	c #A69949244924",
"=.	c #CF3CD34CCF3C",
"-.	c #9E799E799E79",
";.	c #8E384D344924",
":.	c #71C675D671C6",
">.	c #861782078617",
",.	c #DF7DDB6CDF7D",
"<.	c #F7DE49244924",
"1.	c #BEFB49244924",
"2.	c #69A649244924",
"3.	c #71C65D755965",
"4.	c #79E74D344924",
"5.	c #79E761856185",
"6.	c #9E7961856185",
"7.	c #965896589658",
"8.	c #CF3CCB2BCF3C",
"9.	c #E79DE38DE79D",
"                                                                                                ",
"                                                                                                ",
"        . . . . . X . . . . . . . . . . . . . . . . . . . X . . . . .                           ",
"        . o o o . X . . . . . . . . . . . . . . . . . . . X . O . O .                           ",
"        . o . o . X . . . . . . . . . . . . . . . . . . . X . . O . .                           ",
"        . o o o . X . . . . . . . . . . . . . . . . . . . X . O . O .                           ",
"        . . . . . X . . . . . . . . . . . . . . . . . . . X . . . . .                           ",
"        o o o o o o o o o o o + o o o o o o o o o o o o o o o o o o o                           ",
"        . . . . . . . . X . @ # . . . . . . . . . . . . . . . . X . . . . .                     ",
"        . O O . o o o . X . $ % . . . . . . . . . . . . . . . . X . O . O .                     ",
"        . O O . o . o . X & * * = . . . . . . . . . . . . . . . X . . O . .                     ",
"        . O O . o o o . X $ * * - . . . . . . . . . . . . . . . X . O . O .                     ",
"        . O O . . . . . ; * * * : > . . . . . . . . . . . . . . X . . . . .                     ",
"        . O O o o o o o , < < 1 2 3 4 5 o o o o o o o o o o o o o o o o o o                     ",
"        . O O . . . . 6 * * * 7 8 9 & . . . . . . . . . . . . . . . . X . . . . .               ",
"        . O O . O O . 0 q q w e r . t y @ . . . . . . . . . . . . . . X . O . O .               ",
"        . O O . O O 6 q * q : u 9 - * i p . . . . . . . . . . . . . . X . . O . .               ",
"        . O O . O O p a q s > + . t * * * d . . . . . . . . . . . . . X . O . O .               ",
"        . O O . O O f g * : 8 h - * * * * @ . . @ . . . . . . . . . . X . . . . .               ",
"        . O O . O O j k 1 2 l e z < < < x h c v < b n m M o o o 5 e N B o o o o o               ",
"        . O O . O O . & & 8 9 - * * V * @ C Z $ * * * % 6 . . . . A : . . . X . . . . .         ",
"        . O O . O O . S m r D F q * V G Z C & * * * * * * d . . f i A > . . X . O . O .         ",
"        . O O . O O . B 3 9 H * q * V @ C Z $ * * * * * * 6 . . J * y > . . X . . O . .         ",
"        . O O . O O . O j . a q q * K Z C & * * * * * * $ > 8 @ i * * L . . X . O . O .         ",
"        . O O . O O . O P I i * * * U C > $ * * * * * * & C Z J * * * G > . X . . . . .         ",
"        . O O . O O . O Y N T R < x D + n < < < < < < , h E W < < < < 1 Q o o o o o o o         ",
"        . . . . O O . O O . ! $ i @ r > $ * * * * * * & C Z G * * * * * @ . . . . . . .         ",
"        o o o . O O . O O . X + ~ E 3 ^ q q q q q q 0 + / ~ q q q q q q ( P O O O O O .         ",
"        o e e . O O . O O . P S u / + 0 q q q q q q ^ 3 + ) q q q q q q _ ` O O O O O .         ",
"              . O O . O O . O ' 3 3 ] [ q q q q q 0 + / ~ q q q q q q q a { } O O O O .         ",
"              . O O . O O . O |  ...j E X.[ q q q ~ / + ) q q q q q q q q H B O O O O .         ",
"              . O O . O O . O O o.M O.+.@.#.X.[ 0 + 3 ~ q q q q q q q q q a $.O O O O .         ",
"              . . . . O O . O O O %.%.......c #.D / + 0 q q q q q q q q &.*.N O O O O .         ",
"              o o o . O O . O O O O O =.-.......3 3 ~ q q q q q q &.s ;.m :.>.,.O O O .         ",
"              o e e . O O . O O O O O O O =.-.....+ 0 q q <.F 1.2.3.:./ ......P O O O .         ",
"                    . O O . O O O O O O O O O =...~ q q ) 4.5.c >.............o O O O .         ",
"                    . O O . O O O O O O O O O O >.~ 6.E @.............j 7.5 ,.} O O O .         ",
"                    . O O . O O O O O O O O O O.3 8.+.$.............B ,.| O O O O O O .         ",
"                    . . . . O O O O O O O O O O O 9.........7.o =.O.O O O O O O O O O .         ",
"                    o o o . O O O O O O O O O O O B ..-.B =.O O O O O O O O O O O O O .         ",
"                    o e e . O O O O O O O O O O } +.Y o.o.O O O O O O O O O O O O O O .         ",
"                          . O O O O O O O O O O O O O O O O O O O O O O O O O O O O O .         ",
"                          . O O O O O O O O O O O O O O O O O O O O O O O O O O O O O .         ",
"                          . O O O O O O O O O O O O O O O O O O O O O O O O O O O O O .         ",
"                          . . . . . . . . . . . . . . . . . . . . . . . . . . . . . . .         ",
"                          o o o o e o o o o o o o o o o o o o o o o o o o o e o o o o e         ",
"                          o e e e e o e e e e e e e e e e e e e e e e e e e e o e e e e         ",
"                                                                                                "};
