/* XPM */
static char * image_name[] = {
"48 48 174 2",
"  	c None",
". 	c #000000000000",
"X 	c #28A2249228A2",
"o 	c #104010401040",
"O 	c #71C675D671C6",
"+ 	c #79E77DF779E7",
"@ 	c #30C230C230C2",
"# 	c #410341034103",
"$ 	c #186114511861",
"% 	c #B6DAB2CAB6DA",
"& 	c #CF3CCB2BCF3C",
"* 	c #38E334D338E3",
"= 	c #41033CF34103",
"- 	c #AEBAAEBAAEBA",
"; 	c #AEBAAAAAAEBA",
": 	c #C71BC30BC71B",
"> 	c #861782078617",
", 	c #186118611861",
"< 	c #A699A289A699",
"1 	c #9E799A699E79",
"2 	c #B6DABAEAB6DA",
"3 	c #38E338E338E3",
"4 	c #20811C712081",
"5 	c #79E779E779E7",
"6 	c #965896589658",
"7 	c #965892489658",
"8 	c #8E388E388E38",
"9 	c #8E388A288E38",
"0 	c #28A22CB228A2",
"q 	c #082004100820",
"w 	c #71C671C671C6",
"e 	c #69A669A669A6",
"r 	c #28A228A228A2",
"t 	c #208120812081",
"y 	c #618565956185",
"u 	c #618561856185",
"i 	c #10400C301040",
"p 	c #59655D755965",
"a 	c #596559655965",
"s 	c #514455555144",
"d 	c #514451445144",
"f 	c #49244D344924",
"g 	c #492449244924",
"h 	c #492445144924",
"j 	c #082008200820",
"k 	c #96588207EFBE",
"l 	c #8E3879E7EFBE",
"z 	c #79E7A699EFBE",
"x 	c #8617A289EFBE",
"c 	c #96587DF7EFBE",
"v 	c #79E7AAAAEFBE",
"b 	c #8E388207EFBE",
"n 	c #86178207EFBE",
"m 	c #28A22081DF7D",
"M 	c #20815D75DF7D",
"N 	c #30C26185E79D",
"B 	c #28A22492DF7D",
"V 	c #38E32CB2E79D",
"C 	c #38E32CB2DF7D",
"Z 	c #30C228A2DF7D",
"A 	c #30C22492DF7D",
"S 	c #20815D75E79D",
"D 	c #104014518E38",
"F 	c #86178E38EFBE",
"G 	c #208134D3E79D",
"H 	c #20815144E79D",
"J 	c #30C25144E79D",
"K 	c #208130C2E79D",
"L 	c #28A24103E79D",
"P 	c #28A24924E79D",
"I 	c #28A24103DF7D",
"U 	c #20816DB6E79D",
"Y 	c #104028A28E38",
"T 	c #79E79658EFBE",
"R 	c #20814D34E79D",
"E 	c #20815555E79D",
"W 	c #BEFB965871C6",
"Q 	c #CF3C9E798617",
"! 	c #D75CA2898617",
"~ 	c #C71B965879E7",
"^ 	c #BEFB8E3871C6",
"/ 	c #B6DA8A2871C6",
"( 	c #D75C9E798617",
") 	c #D75CA6998617",
"_ 	c #D75CAEBA9658",
"` 	c #D75CB2CA8E38",
"' 	c #208171C6E79D",
"] 	c #41032081E79D",
"[ 	c #BEFB6DB630C2",
"{ 	c #B6DA5D752081",
"} 	c #A6995D7530C2",
"| 	c #8E3845141861",
" .	c #9E7951442081",
"..	c #B6DA596528A2",
"X.	c #B6DA65952081",
"o.	c #CF3C71C630C2",
"O.	c #BEFB7DF738E3",
"+.	c #71C6514430C2",
"@.	c #20815965E79D",
"#.	c #208128A2E79D",
"$.	c #DF7DAEBA8E38",
"%.	c #BEFB71C630C2",
"&.	c #BEFB71C64103",
"*.	c #BEFB79E74103",
"=.	c #9E795D7538E3",
"-.	c #AEBA659530C2",
";.	c #B6DA5D7530C2",
":.	c #BEFB79E730C2",
">.	c #C71B86174103",
",.	c #79E7555530C2",
"<.	c #D75CBAEA9E79",
"1.	c #CF3C96585965",
"2.	c #D75CA28969A6",
"3.	c #9E79F3CE9E79",
"4.	c #A699F7DEA699",
"5.	c #AEBAF7DEAEBA",
"6.	c #A699F3CEA699",
"7.	c #8E38EBAD8E38",
"8.	c #8617EBAD8617",
"9.	c #79E7EBAD79E7",
"0.	c #38E32081E79D",
"q.	c #CF3CAAAA8E38",
"w.	c #AEBA75D64924",
"e.	c #CF3C92485965",
"r.	c #5144CF3C5144",
"t.	c #79E7E79D79E7",
"y.	c #69A6E38D69A6",
"u.	c #4103C71B4103",
"i.	c #4924CF3C4924",
"p.	c #5965D75C5965",
"a.	c #5144D34C5144",
"s.	c #30C2659530C2",
"d.	c #8E387DF7EFBE",
"f.	c #28A22081E79D",
"g.	c #BEFB9A6979E7",
"h.	c #9E79596528A2",
"j.	c #C71B82074924",
"k.	c #6185DF7D6185",
"l.	c #86177DF7EFBE",
"z.	c #20812492E79D",
"x.	c #20816595E79D",
"c.	c #A699596528A2",
"v.	c #38E3AAAA38E3",
"b.	c #79E78A28EFBE",
"n.	c #20814103E79D",
"m.	c #B6DA659538E3",
"M.	c #BEFB6DB638E3",
"N.	c #69A6DF7D69A6",
"B.	c #5965DB6C5965",
"V.	c #38E3861738E3",
"C.	c #79E79E79EFBE",
"Z.	c #104034D38E38",
"A.	c #28A214518E38",
"S.	c #BEFB659538E3",
"D.	c #B6DA6DB630C2",
"F.	c #9658EFBE9658",
"G.	c #38E375D638E3",
"H.	c #C71BF7DEC71B",
"J.	c #71C6E38D71C6",
"K.	c #71C6E79D71C6",
"L.	c #C71B82074103",
"P.	c #38E379E738E3",
"I.	c #71C6555530C2",
"U.	c #71C65D7538E3",
"Y.	c #8E38EFBE8E38",
"T.	c #38E3924838E3",
"R.	c #6185DB6C6185",
"E.	c #38E3A28938E3",
"W.	c #38E3B6DA38E3",
"Q.	c #38E39A6938E3",
"!.	c #38E39E7938E3",
"~.	c #38E37DF738E3",
"^.	c #30C269A630C2",
"/.	c #4103C30B4103",
"  . X o . .         .                                                                           ",
"  O + @ # $ . . .   . . . . .                                                                   ",
"  O % & + * = $ . . . . . . .                                                                   ",
"  O - ; ; : > * = , . . . . . .                                                                 ",
"  O ; ; < < 1 2 > 3 = , . . , 4 . . .                                                           ",
"  5 < < < 1 1 6 7 - > = = # # # # , . . .                                                       ",
"  O < < 1 6 6 8 8 9 > < 9 3 0 3 3 # . . . .                                                     ",
"  5 1 1 6 7 8 8 > > > + 5 1 9 = 0 3 q . . .                                                     ",
"  O 1 6 7 7 9 > > > 5 O O w e 7 9 r t . . . .                                                   ",
"  O 6 7 8 9 > > > 5 O O e e y y u + i . . . .                                                   ",
"  O 7 8 9 > > > 5 O w e e e y p a @ q . . . . .                                                 ",
"  O 8 > > > + 5 O w e e y u p a a @ q . . . . .                                                 ",
"  r u > > 5 O O e e e e u p a s d 0 q . . . . .                                                 ",
"  . . 4 a 5 w w e e y u p a s d f 0 q . . . . .                                                 ",
"  . . . . , g e y u p a s d f g h r q . . . . .                                                 ",
"  . . . . . . $ # u a s d d f g h r q . . . . .                                                 ",
"    . . . . . . . o 3 s f g h h = X q . . . . . . X o . . .                                     ",
"      . . . . . . . . i @ h # = = t q . . . . . O + @ # $ . . .                                 ",
"          . . . . . . . . i r 3 * t q . . . . . O % & + * = $ . . .                             ",
"              . . . . . . . . j t 4 q . . . . . O - ; ; : > * = , . . .   . .                   ",
"                  . . . . . . . . j . . . . . . O ; ; < < 1 2 > 3 = , . . 4 4 . . .             ",
"                    . . . . . . . . . . . . . . 5 < < < 1 1 6 7 - > = = # # # # , . . .         ",
"                    . . . . . . . . . . . . . . O < < 1 6 6 8 8 9 > < 9 3 0 3 3 # . . . .       ",
"                    . . . . . . . . . . . . . . 5 1 1 6 7 8 8 > > > + 5 1 9 = 0 3 q . . .       ",
"                    . . . . . . . . . . . . . . O 1 6 7 7 9 > > > 5 O O w e 7 9 r t . . . .     ",
"  . r $ . . .       . . . . . . . . . . . . . . O 6 7 8 9 > > > 5 O O e e y y u + i . . . .     ",
"  O + @ # $ . . .   . . . . . . . . . . . . k l z x c k k k l v b l e e e y p a @ q . . . . .   ",
"  O % & + * = $ . . . . . . . . . . . . . . n m M N B V C Z A S C D e y u p a a @ q . . . . .   ",
"  O - ; ; : > 3 = , . . . . . . . . . . . . F G H J K L P I B U L Y y u p a s d 0 q . . . . .   ",
"  O ; ; < < 1 2 > 3 = , . . , 4 . . .       T R E W Q ! ~ ^ / ~ ( ! ) _ ` s d f 0 q . . . . .   ",
"  O < < < 1 1 6 7 ; 9 = = # # # # , . . .   v ' ] Q [ [ { } |  ...X.o.O.+.f g h r q . . . . .   ",
"  O < < 1 1 7 8 8 9 > < > 3 0 3 3 h . . . . x @.#.$.o.%.&.*.=.-.;.X.:.>.,.f g h r q . . . . .   ",
"  O 1 1 6 7 7 9 9 > > + 5 1 9 = 0 3 q . . . z U S <.1.2.3.4.4.5.3.6.7.7.3.8.9.8.X q . . . . .   ",
"  O 1 6 7 8 8 > > + + O O w e 7 9 r t . . . c 0.U q.w.e.7.r.t.y.9.u.i.p.p.a.u.s.t q . . . . .   ",
"  O 6 7 8 9 > > > 5 O O e e e y u + i . . . d.f.S g.h.j.7.r.a.k.k.u.a.p.p.p.u.s.t q . . . . .   ",
"  O 7 8 9 > > + 5 O O e e e u p p @ q . . . l.z.x.~ c.*.8.i.a.a.a.u.y.3.3.4.6.v.4 q . . . . .   ",
"  O 9 > > > + 5 O w e e e u p a s @ q . . . b.n.@.Q m.M.8.i.a.a.i.u.y.6.6.N.B.V.q q . . . . . . ",
"  r y > > + O O w e e y u p a s d 0 q . . . C.Z.A.! S.D.F.a.k.y.a.9.6.4.6.F.a.G.. . . . . . . . ",
"  . . t a O O e e e y u p a s d f 0 q . . . . . . ) D.%.H.8.8.J.a.B.K.6.4.t.a.G.. . . . . . .   ",
"  . . . . , f e y u p a s d f g h r q . . . . . . ) %.L.4.8.8.9.N.k.p.9.8.p.9.P.. . . . . .     ",
"  . . . . . . $ h p a s d d f g h r q . . . . . . _ I.U.3.8.8.t.t.K.k.Y.K.a.p.T.. . . . .       ",
"    . . . . . . . o 3 d d g h # # X q . . . . . . . . . 4.y.8.8.t.p.i.3.3.K.a.G.. . . .         ",
"      . . . . . . . . i @ h h = 3 t q . . . . .   . . . H.p.6.5.Y.R.i.B.H.5.B.P.. . . .         ",
"          . . . . . . . . j r 3 3 t q . . . . .   . . . 6.E.W.Q.Q.!.~.^.T./.W.E.. . . .         ",
"              . . . . . . . . j t 4 q . . . . .     . . . . . . . . . . . . . . . . . .         ",
"                  . . . . . . . . q q . . . . . .       . . . . . . . . . . . . . . . .         ",
"                    . . . . . . . . . . . . . . .       . . . . . . . . . . . . . . . .         ",
"                    . . . . . . . . . . . . . .           . . . . . . . . . . . . . .           "};
