/* XPM */
static char * image_name[] = {
"48 48 229 2",
"  	c None",
". 	c #20811C711861",
"X 	c #618555555144",
"o 	c #8E3886178617",
"O 	c #596559655965",
"+ 	c #186114511040",
"@ 	c #38E338E328A2",
"# 	c #86177DF779E7",
"$ 	c #9E799A699658",
"% 	c #A699A699A699",
"& 	c #A6999E799E79",
"* 	c #965892488E38",
"= 	c #28A228A228A2",
"- 	c #082008200820",
"; 	c #38E338E338E3",
": 	c #000000000000",
"> 	c #30C22CB22081",
", 	c #69A661855965",
"< 	c #96588E388E38",
"1 	c #9E799A699E79",
"2 	c #8E38820779E7",
"3 	c #71C661855144",
"4 	c #69A655554103",
"5 	c #28A224921861",
"6 	c #186114511861",
"7 	c #514451445965",
"8 	c #8E388A288E38",
"9 	c #20811C712081",
"0 	c #618559655144",
"q 	c #79E775D671C6",
"w 	c #9E7996589658",
"e 	c #861775D669A6",
"r 	c #71C65D754924",
"t 	c #69A651444103",
"y 	c #30C234D330C2",
"u 	c #71C671C671C6",
"i 	c #AEBAAAAAAEBA",
"p 	c #618555554924",
"a 	c #51443CF330C2",
"s 	c #186110401040",
"d 	c #492445144924",
"f 	c #71C669A66185",
"g 	c #5965492438E3",
"h 	c #965896589658",
"j 	c #79E77DF78617",
"k 	c #861779E771C6",
"l 	c #5144410330C2",
"z 	c #5965451438E3",
"x 	c #30C224922081",
"c 	c #10400C300820",
"v 	c #61854D3438E3",
"b 	c #618551444103",
"n 	c #EFBEF3CEE79D",
"m 	c #B6DAC30BBEFB",
"M 	c #C71BCB2BB6DA",
"N 	c #C71BC71BAEBA",
"B 	c #DF7DDB6CB6DA",
"V 	c #AEBAC71BBEFB",
"C 	c #E79DE38DBEFB",
"Z 	c #B6DAB6DAB6DA",
"A 	c #5144451430C2",
"S 	c #9658965830C2",
"D 	c #8E388E3830C2",
"F 	c #69A669A628A2",
"G 	c #79E775D628A2",
"H 	c #69A675D630C2",
"J 	c #596586174924",
"K 	c #A699AEBA4103",
"L 	c #AEBAB6DA4924",
"P 	c #618575D630C2",
"I 	c #51444D341861",
"U 	c #FFFFFBEEF7DE",
"Y 	c #E79DE38DFFFF",
"T 	c #D75CD75CFFFF",
"R 	c #EFBEEBADBEFB",
"E 	c #C71BBEFB38E3",
"W 	c #61858E384924",
"Q 	c #79E78A2838E3",
"! 	c #51447DF74103",
"~ 	c #69A6861738E3",
"^ 	c #28A26DB65144",
"/ 	c #8E389E794103",
"( 	c #DF7DD34C4103",
") 	c #8617A2894924",
"_ 	c #208159655144",
"` 	c #38E3555528A2",
"' 	c #28A249244103",
"] 	c #79E771C669A6",
"[ 	c #C71BCB2BEFBE",
"{ 	c #AEBAAAAAF7DE",
"} 	c #8E388617FFFF",
"| 	c #C71BDB6CD75C",
" .	c #9658A6994103",
"..	c #492486175144",
"X.	c #AEBAAAAA38E3",
"o.	c #CF3CC71B4103",
"O.	c #69A661852081",
"+.	c #49243CF330C2",
"@.	c #69A659654924",
"#.	c #E79DEBADE79D",
"$.	c #A699BEFBBEFB",
"%.	c #B6DABAEACF3C",
"&.	c #69A675D6C71B",
"*.	c #96588A28FFFF",
"=.	c #51446DB630C2",
"-.	c #86177DF728A2",
";.	c #79E7820728A2",
":.	c #86179A694103",
">.	c #79E792484103",
",.	c #71C66DB62081",
"<.	c #514451441861",
"1.	c #38E345141861",
"2.	c #8617820779E7",
"3.	c #082059654924",
"4.	c #082061855144",
"5.	c #618569A6BEFB",
"6.	c #8E38861728A2",
"7.	c #38E33CF31040",
"8.	c #208124921040",
"9.	c #410369A64103",
"0.	c #492438E328A2",
"q.	c #28A2249228A2",
"w.	c #10406DB65965",
"e.	c #86178A28DF7D",
"r.	c #9E79965828A2",
"t.	c #41036DB64103",
"y.	c #28A234D31861",
"u.	c #208138E32081",
"i.	c #28A22CB21040",
"p.	c #38E3492438E3",
"a.	c #410334D328A2",
"s.	c #59654D344103",
"d.	c #71C671C669A6",
"f.	c #618551444924",
"g.	c #AEBACF3CCF3C",
"h.	c #082069A65965",
"j.	c #861775D6F7DE",
"k.	c #AEBACB2BC71B",
"l.	c #38E382075965",
"z.	c #38E386176185",
"x.	c #4924659538E3",
"c.	c #71C67DF730C2",
"v.	c #4924492430C2",
"b.	c #A699A2899E79",
"n.	c #000045144924",
"m.	c #B6DACF3CBEFB",
"M.	c #A6999A6930C2",
"N.	c #41033CF31040",
"B.	c #96588A2828A2",
"V.	c #51444D3430C2",
"C.	c #A699C30BBEFB",
"Z.	c #A6999A69FFFF",
"A.	c #71C696584924",
"S.	c #38E349244924",
"D.	c #5144451438E3",
"F.	c #5965555530C2",
"G.	c #38E330C228A2",
"H.	c #69A65D755144",
"J.	c #104075D66185",
"K.	c #9E799248FFFF",
"L.	c #AEBACF3CC71B",
"P.	c #492455552081",
"I.	c #B6DAB6DA4103",
"U.	c #5144514430C2",
"Y.	c #10405D755144",
"T.	c #4924555538E3",
"R.	c #61855D7530C2",
"E.	c #69A6659538E3",
"W.	c #4924410338E3",
"Q.	c #38E32CB22081",
"!.	c #51444D3479E7",
"~.	c #C71BC30BCF3C",
"^.	c #5965555579E7",
"/.	c #5144492471C6",
"(.	c #41033CF34924",
").	c #28A245144103",
"_.	c #28A2451438E3",
"`.	c #28A238E338E3",
"'.	c #30C228A22081",
"].	c #D75CD34CD75C",
"[.	c #AEBAAEBAB6DA",
"{.	c #A699A699AEBA",
"}.	c #FFFFF7DEF7DE",
"|.	c #861786178617",
" X	c #49244D346185",
".X	c #492449245965",
"XX	c #30C22CB238E3",
"oX	c #000008200820",
"OX	c #1861186128A2",
"+X	c #51444D345144",
"@X	c #F7DEF3CEF7DE",
"#X	c #082004100820",
"$X	c #00000C301861",
"%X	c #000018611861",
"&X	c #C71BC71BC71B",
"*X	c #186128A228A2",
"=X	c #0000249228A2",
"-X	c #00001C712081",
";X	c #69A669A671C6",
":X	c #69A669A669A6",
">X	c #00002CB230C2",
",X	c #186130C238E3",
"<X	c #71C682078617",
"1X	c #9658A289A699",
"2X	c #79E77DF779E7",
"3X	c #000034D338E3",
"4X	c #59657DF779E7",
"5X	c #CF3CCB2BCF3C",
"6X	c #9E799E79A699",
"7X	c #CF3CC30BC71B",
"8X	c #28A251445144",
"9X	c #082038E34103",
"0X	c #104045145144",
"qX	c #514486178E38",
"wX	c #C71BC30BC71B",
"eX	c #38E355555965",
"rX	c #10404D345965",
"tX	c #08204D345965",
"yX	c #082055555965",
"uX	c #69A69A699E79",
"iX	c #30C25D7569A6",
"pX	c #6185A2899E79",
"aX	c #186169A66185",
"sX	c #082059656185",
"dX	c #104055555965",
"fX	c #8E38AAAAAEBA",
"gX	c #000004100820",
"hX	c #30C22CB230C2",
"jX	c #104038E34103",
"                                                                      . X o O                   ",
"                                                              + @ # $ % & * =                   ",
"                                - ; - :               - > , < 1 & & 2 3 4 4 5                   ",
"                          6 7 8 % $ 9 :         + 0 q w & % < e r 4 4 4 4 t . : - y u ;         ",
"                      O $ i 1 o p a . : s d f * % & 1 o 3 t t 4 4 4 4 4 4 g @ h 1 1 j :         ",
"                    < * k l z z z z x c $ w & w # r v v v b t n m M N N m B B V C B N Z         ",
"                    1 l l l A A z z A . w e 3 g v v v v v v v C S D F G H J K K L P I @         ",
"                    < l l l l l A A z . g g g g g v v p U Y T R E W Q ! ~ ^ / ( ) _ ` '         ",
"                ; ] i l l l l l l A A + z g g g p ] < 1 [ { } |  . .....J ..X.o.X.O.I @         ",
"          9 d * 1 * h +.l l l l l l A c z @.f w 1 #.$.V %.&.*.M =. .~ G -.;.P :.>.,.<.1.        ",
"        1 o 2.w ] 0 l +.+.+.+.+.l g g - h 1 o f g V 3.4.%.5.} M D 6.! F 7.9 8.O.~ ! 9.0.        ",
"      q.$ , ] p 0.0.0.+.+.+.+.0 h i 1 : , l g z z V 3.w.[ e.} M D 6.r.t.y.u.i.O.D ~ F p.        ",
"      q.% a.a.0.0.0.0.s.d.1 i 1 ] f.g : v g g z z g.h.h.Y { j.k.l.:.z._ y.1.x.c.J =.H v.        ",
"      q.b.a.a.a.a.a.0.i 1 2.p b v v v : g g z z z k.n.h.Y { j.m.:.M.=.1.N.I F B.6.;.~ V.        ",
"      q.& a.a.a.a.0.a.% t t t v v v v : : : : : : C.3.4.Y Z.j.| l.M.! 9.^ ` P A.D ! D S.        ",
"        % a.a.a.a.a.D.% t t v v v v g : g z z A l C.3.4.T Z.} C  .B.;.;.x.F ! A.K ~ B.F.        ",
"        % G.a.a.a.a.H.1 t b v v v v g : g z z A l k.J.h.T K.*.L.A.P.P ^ ;.c...:.L I./ U.        ",
"        % G.G.G.a.a.q $ b v v v v g g : z z A A l V Y.4.T K.K.m F.; 9.' T.U.F.R.E.E.F.W.        ",
"        % Q.G.a.G.a.2.8 t v v v g g g : z z A l l g.w.4.T Z.*.*.} j.j.j.j.j.j.j.!.:             ",
"        % Q.Q.Q.G.G.* # v v v v g g g : z z l l l k.h.4.~.^.^.^.^./././.!.!.!.!.(.:             ",
"        % Q.Q.Q.Q.G.h ] v v v v g g z : z A l l l g.Y.Y.4.J.4.4.J.4.3.Y.w.).> x c :             ",
"        % Q.Q.Q.Q.Q.1 H.v v v g g g z : A l l l l m _.' ' ' _._.)._._._.).`.'.x : :             ",
"        % > > Q.Q.Q.% v v g g g g z z : A l l l l +.+.0.0.0.0.a.a.a.a.G.G.G.x x : :             ",
"        % '.> > Q.Q.b.v v v g g g z z : l l l l +.+.0.0.0.0.a.a.a.a.G.G.G.G.x 5 :               ",
"        % '.'.> Q.W.1 v g g g g z z A : l l l +.+.# o o o 2.2.# # # # # 2.> 5 + :               ",
"        % x '.'.Q.s.h v v g g z z z A : l l l +.+.U ].Z Z Z Z [.i {.% Z }.= 5 s : : :           ",
"        % x x x '.|.b.v g g g z z A A : l l +.+.+.}.|. X.XXXoX6 XXOXOX+X@Xq.x - : : : :         ",
"        % x x x x 8 2 g g g g z z A A : l l +.+.0.}.8  X.X: : O ~.q.OX7 @Xx + : #X: : : :       ",
"        % 5 5 x x 8 2.g g z z z A l l : l +.+.0.0.}.|..X.X: i U ].OXOX+X@X9 $X$X$X%X$X$X$X:     ",
"        % 5 5 5 x 1 H.g g g z A A l l : l +.+.0.0.U |..X(.6 &X].q.OX6 +X#.*X%X=X%X-X%X%X%X:     ",
"        % 5 5 5 5 % H.g z z z A l l l : +.+.0.0.0.@X|. X.X;X:X7 7 .Xd d @X*X>X,X<X1X,X=X%X:     ",
"        % 5 5 5 +.i l g z z A l A l l : +.+.0.0.0.@X2X.Xj ;X:X;X:X7 d d #._.>X3X,X4X>X>X=X:     ",
"        % . 5 5 +.{.l g z z A l l l l : +.0.0.0.a.@X5X[.[.{.{.6X1 h h % 7X|.8X9X0XqX3X3X3X      ",
"        % + . 5 :X1 g z z A l A l l +.: : : : : : :X2X].&X&XwXwXm.wX&X|.e eX[ _ rXqXn.n.9X      ",
"        % : + 5 8 1 z z A l l l l l +.: 0.0.0.a.G.Q.. h % 1 6X1 6Xb.1XeXtXyXuXg.iXpXtXtXn.      ",
"        % : + . 2Xw z z A A l l l +.+.: 0.a.a.> 5 + - 6 u u u u u u S.qXaXsXdXfXg.pXsXsXyX      ",
"        % 6 . . 8 2.z A l l l l +.+.+.- a.Q.x . - : : gXhX= = hXS.S.hXfXXXoXoX- OX6 *XjX8X      ",
"        % - . . h e A A A l l l +.+.a.c '.+ #X: : : : : : : : : gX: 9 y y - gX: : gX: : gX      ",
"        % 9 + + % 0 A l l l l +.0.Q.> - #X: : : : : : - hX= hXhXy hX6 : : : : : : : : gX:       ",
"        % 6 - 6 1 @.l l l l 0.a.> . c : : : : : : : : : : : : : : : : : : : : : : : : : :       ",
"        % y : 9 i l l l +.a.> . c : : : : : : : : : : : : : : : : : : : : : : : : : : : gX      ",
"        h 2X- = h @.+.a.Q.5 - : : : : : : : : : : : : : : : : : : : : : : : : :                 ",
"        6 |.:X2X:Xa.G.. c : : : : : : : : : : : : : : : : : : : : : : : : :                     ",
"          ; 8 h 0.x + : : : : : : : : : : : : : : : : : : : : : : : : :                         ",
"            : 9 - : : : : : : : : : : : : : : : : : : : : : : : :                               ",
"                : #X: : : : : : : : : : : : : : : : : : : : : :                                 ",
"                  : : : : : : : : : : : : : : : : : : : :                                       ",
"                    : : : : : : : : : : : : : : : : :                                           "};
