/* XPM */
static char * image_name[] = {
"48 48 213 2",
"  	c None",
". 	c #2108210818C6",
"X 	c #631852945294",
"o 	c #8C6284208420",
"O 	c #5AD65AD65AD6",
"+ 	c #18C610841084",
"@ 	c #39CE39CE294A",
"# 	c #84207BDE7BDE",
"$ 	c #9CE69CE694A4",
"% 	c #A528A528A528",
"& 	c #A5289CE69CE6",
"* 	c #94A494A48C62",
"= 	c #294A294A294A",
"- 	c #084208420842",
"; 	c #39CE39CE39CE",
": 	c #000000000000",
"> 	c #318C294A2108",
", 	c #6B5A63185AD6",
"< 	c #94A48C628C62",
"1 	c #9CE69CE69CE6",
"2 	c #8C6284207BDE",
"3 	c #739C63185294",
"4 	c #6B5A52944210",
"5 	c #294A210818C6",
"6 	c #18C618C618C6",
"7 	c #529452945AD6",
"8 	c #8C628C628C62",
"9 	c #210821082108",
"0 	c #18C618C61084",
"q 	c #63185AD65294",
"w 	c #7BDE739C739C",
"e 	c #9CE694A494A4",
"r 	c #8420739C6B5A",
"t 	c #739C5AD64A52",
"y 	c #318C318C318C",
"u 	c #739C739C739C",
"i 	c #AD6AAD6AAD6A",
"p 	c #631852944A52",
"a 	c #52944210318C",
"s 	c #4A5242104A52",
"d 	c #739C6B5A6318",
"f 	c #5AD64A5239CE",
"g 	c #94A494A494A4",
"h 	c #7BDE7BDE8420",
"j 	c #84207BDE739C",
"k 	c #108410840842",
"l 	c #63184A5239CE",
"z 	c #631852944210",
"x 	c #EF7AEF7AE738",
"c 	c #B5ACC630BDEE",
"v 	c #C630CE72B5AC",
"b 	c #C630C630AD6A",
"n 	c #DEF6DEF6B5AC",
"m 	c #AD6AC630BDEE",
"M 	c #E738E738BDEE",
"N 	c #B5ACB5ACB5AC",
"B 	c #94A494A4318C",
"V 	c #8C628C62318C",
"C 	c #6B5A6B5A294A",
"Z 	c #7BDE739C294A",
"A 	c #6B5A739C318C",
"S 	c #5AD684204A52",
"D 	c #A528AD6A4210",
"F 	c #AD6AB5AC4A52",
"G 	c #6318739C318C",
"H 	c #52944A5218C6",
"J 	c #FFFFF7BCF7BC",
"K 	c #E738E738FFFF",
"L 	c #D6B4D6B4FFFF",
"P 	c #EF7AEF7ABDEE",
"I 	c #C630BDEE39CE",
"U 	c #63188C624A52",
"Y 	c #7BDE8C6239CE",
"T 	c #52947BDE4210",
"R 	c #6B5A842039CE",
"E 	c #294A6B5A5294",
"W 	c #8C629CE64210",
"Q 	c #DEF6D6B44210",
"! 	c #8420A5284A52",
"~ 	c #21085AD65294",
"^ 	c #39CE5294294A",
"/ 	c #294A4A524210",
"( 	c #7BDE739C6B5A",
") 	c #C630CE72EF7A",
"_ 	c #AD6AA528F7BC",
"` 	c #8C628420FFFF",
"' 	c #C630D6B4D6B4",
"] 	c #94A4A5284210",
"[ 	c #4A5284205294",
"{ 	c #AD6AAD6A39CE",
"} 	c #CE72C6304210",
"| 	c #6B5A63182108",
" .	c #4A5239CE318C",
"..	c #6B5A5AD64A52",
"X.	c #E738E738E738",
"o.	c #A528BDEEBDEE",
"O.	c #B5ACB5ACCE72",
"+.	c #6B5A739CC630",
"@.	c #94A48C62FFFF",
"#.	c #52946B5A318C",
"$.	c #84207BDE294A",
"%.	c #7BDE8420294A",
"&.	c #84209CE64210",
"*.	c #7BDE94A44210",
"=.	c #739C6B5A2108",
"-.	c #5294529418C6",
";.	c #39CE421018C6",
":.	c #842084207BDE",
">.	c #08425AD64A52",
",.	c #084263185294",
"<.	c #63186B5ABDEE",
"1.	c #8C628420294A",
"2.	c #39CE39CE1084",
"3.	c #210821081084",
"4.	c #42106B5A4210",
"5.	c #4A5239CE294A",
"6.	c #10846B5A5AD6",
"7.	c #84208C62DEF6",
"8.	c #9CE694A4294A",
"9.	c #294A318C18C6",
"0.	c #210839CE2108",
"q.	c #294A294A1084",
"w.	c #39CE4A5239CE",
"e.	c #4210318C294A",
"r.	c #421039CE294A",
"t.	c #5AD64A524210",
"y.	c #739C739C6B5A",
"u.	c #AD6ACE72CE72",
"i.	c #08426B5A5AD6",
"p.	c #8420739CF7BC",
"a.	c #AD6ACE72C630",
"s.	c #39CE84205AD6",
"d.	c #39CE84206318",
"f.	c #4A52631839CE",
"g.	c #739C7BDE318C",
"h.	c #4A524A52318C",
"j.	c #000042104A52",
"k.	c #B5ACCE72BDEE",
"l.	c #A52894A4318C",
"z.	c #421039CE1084",
"x.	c #94A48C62294A",
"c.	c #52944A52318C",
"v.	c #A528C630BDEE",
"b.	c #A5289CE6FFFF",
"n.	c #739C94A44A52",
"m.	c #39CE4A524A52",
"M.	c #52944A5239CE",
"N.	c #5AD65AD6318C",
"B.	c #39CE318C294A",
"V.	c #6B5A5AD65294",
"C.	c #1084739C6318",
"Z.	c #9CE694A4FFFF",
"A.	c #4A5252942108",
"S.	c #B5ACB5AC4210",
"D.	c #52945294318C",
"F.	c #10845AD65294",
"G.	c #4A52529439CE",
"H.	c #63185AD6318C",
"J.	c #6B5A6B5A39CE",
"K.	c #4A52421039CE",
"L.	c #39CE318C2108",
"P.	c #52944A527BDE",
"I.	c #C630C630CE72",
"U.	c #5AD652947BDE",
"Y.	c #52944A52739C",
"T.	c #421039CE4A52",
"R.	c #294A421039CE",
"E.	c #294A39CE39CE",
"W.	c #D6B4D6B4D6B4",
"Q.	c #AD6AAD6AB5AC",
"!.	c #A528A528AD6A",
"~.	c #842084208420",
"^.	c #4A524A526318",
"/.	c #4A524A525AD6",
"(.	c #318C294A39CE",
").	c #000008420842",
"_.	c #18C618C6294A",
"`.	c #52944A525294",
"'.	c #F7BCF7BCF7BC",
"].	c #0000108418C6",
"[.	c #000018C618C6",
"{.	c #C630C630C630",
"}.	c #18C6294A294A",
"|.	c #00002108294A",
" X	c #000018C62108",
".X	c #6B5A6B5A739C",
"XX	c #6B5A6B5A6B5A",
"oX	c #0000294A318C",
"OX	c #18C6318C39CE",
"+X	c #739C84208420",
"@X	c #94A4A528A528",
"#X	c #7BDE7BDE7BDE",
"$X	c #0000318C39CE",
"%X	c #5AD67BDE7BDE",
"&X	c #CE72CE72CE72",
"*X	c #9CE69CE6A528",
"=X	c #CE72C630C630",
"-X	c #294A52945294",
";X	c #084239CE4210",
":X	c #108442105294",
">X	c #529484208C62",
",X	c #39CE5AD65AD6",
"<X	c #10844A525AD6",
"1X	c #08424A525AD6",
"2X	c #084252945AD6",
"3X	c #6B5A9CE69CE6",
"4X	c #318C5AD66B5A",
"5X	c #63189CE69CE6",
"6X	c #18C66B5A6318",
"7X	c #08425AD66318",
"8X	c #108452945AD6",
"9X	c #8C62AD6AAD6A",
"0X	c #108439CE4210",
"                                                                      . X o O                   ",
"                                                              + @ # $ % & * =                   ",
"                                - ; - :               - > , < 1 & & 2 3 4 4 5                   ",
"                          6 7 8 % $ 9 :         0 q w e & % < r t 4 4 4 4 4 . : - y u ;         ",
"                      O $ i 1 o p a . : + s d * % & 1 o 3 4 4 4 4 4 4 4 4 f @ g 1 1 h :         ",
"                    < * j a f f f f > k $ e & e # t l l l z 4 x c v b b c n n m M n b N         ",
"                    1 a a a a a f f a . e r 3 f l l l l l l l M B V C Z A S D D F G H @         ",
"                    < a a a a a a a f . f f f f f l l p J K L P I U Y T R E W Q ! ~ ^ /         ",
"                ; ( i a a a a a a a a 0 f f f f p ( < 1 ) _ ` ' ] ] [ [ S [ { } { | H @         ",
"          9 s * 1 * g  .a a a a a a a k f ..d e 1 X.o.m O.+.@.v #.] R Z $.%.G &.*.=.-.;.        ",
"        1 o :.e ( q a  . . . . .a f f - g 1 o d f m >.,.O.<.` v V 1.T C 2.9 3.| R T 4.5.        ",
"      = $ , ( p 5.5.5. . . . .q g i 1 : , a f f f m >.6.) 7.` v V 1.8.4.9.0.q.| V R C w.        ",
"      = % e.r.5.5.5.5.t.y.1 i 1 ( p f : l f f f f u.i.i.K _ p.a.s.&.d.~ 9.;.f.g.S #.A h.        ",
"      = & r.r.r.r.r.5.i 1 :.p z l l l : f f f f f a.j.i.K _ p.k.&.l.#.;.z.H C x.1.%.R c.        ",
"      = & e.e.r.r.5.r.% 4 4 4 l l l l : : : : : : v.>.,.K b.p.' s.l.T 4.E ^ G n.V T V m.        ",
"        % e.e.e.r.r.M.% 4 4 l l l l f : f f f a a v.>.,.L b.` M ] x.%.%.f.C T n.D R x.N.        ",
"        % B.e.e.e.e.V.1 4 z l l l l f : f f f a a a.C.i.L Z.@.a.n.A.G E %.g.[ &.F S.W D.        ",
"        % B.B.B.e.e.w $ z l l l l f f : f f a a a m F.,.L Z.Z.c N.; 4./ G.D.N.H.J.J.N.K.        ",
"        % L.B.e.B.e.:.8 4 l l l f f f : f f a a a u.6.,.L b.@.@.` p.p.p.p.p.p.p.P.:             ",
"        % L.L.L.B.B.* # l l l l f f f : f f a a a a.i.,.I.U.U.U.U.Y.Y.Y.P.P.P.P.T.:             ",
"        % L.L.L.L.B.g ( l l l l f f f : f a a a a u.F.F.,.C.,.,.C.,.>.F.6./ > > k :             ",
"        % L.L.L.L.L.1 V.l l l f f f f : a a a a a c R./ / / R.R./ R.R.R./ E.> > : :             ",
"        % > > L.L.L.% l l f f f f f f : a a a a a  . .5.5.5.5.r.e.e.e.B.B.B.> > : :             ",
"        % > > > L.L.& l l l f f f f f : a a a a  . .5.5.5.5.r.e.e.e.B.B.B.B.> 5 :               ",
"        % > > > L.K.1 l f f f f f f a : a a a  . .# o o o :.:.# # # # # :.> 5 0 :               ",
"        % > > > L.t.g l l f f f f f a : a a a  . .J W.N N N N Q.i !.% N J = 5 + : : :           ",
"        % > > > > ~.& l f f f f f a a : a a  . . .J ~.^./.(.).6 (._._.`.'.= > - : : : :         ",
"        % > > > > 8 2 f f f f f f a a : a a  . .5.J 8 ^./.: : O I.= _.7 '.> 0 : - : : : :       ",
"        % 5 5 > > 8 :.f f f f f a a a : a  . .5.5.J ~././.: i J W._._.`.'.9 ].].].[.].].].:     ",
"        % 5 5 5 > 1 V.f f f f a a a a : a  . .5.5.J ~./.T.6 {.W.= _.6 `.X.}.[.|.[. X[.[.[.:     ",
"        % 5 5 5 5 % V.f f f f a a a a :  . .5.5.5.'.~.^./..XXX7 7 /.s s '.}.oXOX+X@XOX|.[.:     ",
"        % 5 5 5  .i a f f f a a a a a :  . .5.5.5.'.#X/.h .XXX.XXX7 s s X.R.oX$XOX%XoXoX|.:     ",
"        % . 5 5  .!.a f f f a a a a a :  .5.5.5.r.'.&XQ.Q.!.!.*X1 g g % =X~.-X;X:X>X$X$X$X      ",
"        % 0 . 5 XX1 f f f a a a a a  .: : : : : : XX#XW.{.{.{.{.k.{.{.~.r ,X) ~ <X>Xj.j.;X      ",
"        % : 0 5 8 1 f f a a a a a a  .: 5.5.5.r.B.L.. g % 1 *X1 *X& @X,X1X2X3Xu.4X5X1X1Xj.      ",
"        % : 0 . #Xe f f a a a a a  . .: 5.r.e.> 5 + - 6 u u u u u u m.>X6X7X8X9Xu.5X7X7X2X      ",
"        % 6 . . 8 :.f a a a a a  . . .- r.L.> . - : : ).y = = y m.m.y 9X(.).).- _.6 }.0X-X      ",
"        % - . . g r a a a a a a  . .e.k > + - : : : : : : : : : ).: 9 y y - ).: : ).: : ).      ",
"        % 9 + 0 % q a a a a a  .5.L.> - - : : : : : : - y = y y y y 6 : : : : : : : : ).:       ",
"        % 6 - 6 1 ..a a a a 5.e.> . k : : : : : : : : : : : : : : : : : : : : : : : : : :       ",
"        % y : 9 i a a a  .e.> . k : : : : : : : : : : : : : : : : : : : : : : : : : : : ).      ",
"        g #X- = g .. .r.L.5 - : : : : : : : : : : : : : : : : : : : : : : : : :                 ",
"        6 ~.XX#XXXe.B.. k : : : : : : : : : : : : : : : : : : : : : : : : :                     ",
"          ; 8 g 5.> + : : : : : : : : : : : : : : : : : : : : : : : : :                         ",
"            : 9 - : : : : : : : : : : : : : : : : : : : : : : : :                               ",
"                : - : : : : : : : : : : : : : : : : : : : : : :                                 ",
"                  : : : : : : : : : : : : : : : : : : : :                                       ",
"                    : : : : : : : : : : : : : : : : :                                           "};
