/* XPM */
static char * image_name[] = {
"48 48 181 2",
"  	c None",
". 	c #28A22CB228A2",
"X 	c #410341034103",
"o 	c #514451445144",
"O 	c #492449244924",
"+ 	c #618561856185",
"@ 	c #69A669A669A6",
"# 	c #38E33CF338E3",
"$ 	c #30C234D338E3",
"% 	c #38E338E338E3",
"& 	c #30C230C230C2",
"* 	c #38E330C238E3",
"= 	c #30C22CB230C2",
"- 	c #38E334D338E3",
"; 	c #49244D345144",
": 	c #51444D345144",
"> 	c #514449244924",
", 	c #492445144924",
"< 	c #28A2249228A2",
"1 	c #208120812081",
"2 	c #28A228A228A2",
"3 	c #71C671C671C6",
"4 	c #28A21C7128A2",
"5 	c #38E33CF34103",
"6 	c #410338E338E3",
"7 	c #38E3410338E3",
"8 	c #38E334D34103",
"9 	c #41033CF34103",
"0 	c #20811C712081",
"q 	c #28A2208128A2",
"w 	c #30C234D330C2",
"e 	c #30C228A230C2",
"r 	c #38E32CB228A2",
"t 	c #492449245144",
"y 	c #30C228A228A2",
"u 	c #28A228A22081",
"i 	c #208124922081",
"p 	c #38E330C230C2",
"a 	c #28A220812081",
"s 	c #20811C7128A2",
"d 	c #18610C301040",
"f 	c #69A6659569A6",
"g 	c #71C66DB671C6",
"h 	c #59655D756185",
"j 	c #79E779E78617",
"k 	c #514455555965",
"l 	c #410345144103",
"z 	c #186114511861",
"x 	c #38E334D330C2",
"c 	c #596559655965",
"v 	c #20811C711861",
"b 	c #79E775D68617",
"n 	c #104008200820",
"m 	c #208118612081",
"M 	c #41033CF338E3",
"N 	c #10400C301040",
"B 	c #61855D756185",
"V 	c #492441034103",
"C 	c #492441034924",
"Z 	c #69A661856185",
"A 	c #71C66DB669A6",
"S 	c #2081208128A2",
"D 	c #186110401861",
"F 	c #186114511040",
"G 	c #69A669A671C6",
"H 	c #41033CF330C2",
"J 	c #492445141861",
"K 	c #71C671C679E7",
"L 	c #596559652081",
"P 	c #FFFFF3CE0000",
"I 	c #861786179658",
"U 	c #492445144103",
"Y 	c #082004100820",
"T 	c #492445140000",
"R 	c #28A21C712081",
"E 	c #082008200820",
"W 	c #69A6659528A2",
"Q 	c #8E3882070000",
"! 	c #DF7DD75C0000",
"~ 	c #596555551861",
"^ 	c #618559650000",
"/ 	c #104010401040",
"( 	c #86177DF74103",
") 	c #9E7996586185",
"_ 	c #30C230C228A2",
"` 	c #F7DEE79D0000",
"' 	c #514449241861",
"] 	c #186118611861",
"[ 	c #D75CCB2B0000",
"{ 	c #596551441861",
"} 	c #000000000000",
"| 	c #BEFBB6DA0000",
" .	c #BEFBB2CA0820",
"..	c #B6DAAEBA2081",
"X.	c #6185659569A6",
"o.	c #41033CF30000",
"O.	c #E79DDF7D0000",
"+.	c #61855D752081",
"@.	c #9E7996580000",
"#.	c #CF3CC71B0000",
"$.	c #B6DAAAAA0000",
"%.	c #C71BBAEA0000",
"&.	c #B6DAAAAA0820",
"*.	c #71C671C638E3",
"=.	c #E79DDB6C0000",
"-.	c #CF3CC71B0820",
";.	c #9E7992481861",
":.	c #AEBAA6990000",
">.	c #96588E380820",
",.	c #8E388A281040",
"<.	c #EFBEE38D0000",
"1.	c #10400C300000",
"2.	c #A6999E790000",
"3.	c #208120810820",
"4.	c #AEBA9E790000",
"5.	c #965892480820",
"6.	c #861779E70000",
"7.	c #B6DAB2CA0820",
"8.	c #965892481861",
"9.	c #86177DF70820",
"0.	c #38E338E30000",
"q.	c #CF3CBEFB0000",
"w.	c #96588E381040",
"e.	c #8E3882070820",
"r.	c #514451440000",
"t.	c #A6999A690000",
"y.	c #AEBAA2890820",
"u.	c #79E779E70000",
"i.	c #D75CCF3C0820",
"p.	c #514445142081",
"a.	c #C71BBAEA0820",
"s.	c #30C228A20820",
"d.	c #A6999E790820",
"f.	c #28A228A20820",
"g.	c #492445140820",
"h.	c #C71BBEFB0820",
"j.	c #CF3CC30B0000",
"k.	c #30C22CB20000",
"l.	c #AEBAA2890000",
"z.	c #492449240000",
"x.	c #D75CCB2B0820",
"c.	c #69A661850820",
"v.	c #CF3CC30B0820",
"b.	c #A6999E791040",
"n.	c #410341030000",
"m.	c #96588E380000",
"M.	c #71C66DB60000",
"N.	c #20811C710000",
"B.	c #C71BBEFB0000",
"V.	c #30C230C20820",
"C.	c #69A661850000",
"Z.	c #61855D750820",
"A.	c #9E7992480000",
"S.	c #79E775D60000",
"D.	c #DF7DD34C1040",
"F.	c #514451441040",
"G.	c #8E3886170000",
"H.	c #79E775D60820",
"J.	c #861779E71861",
"K.	c #596551441040",
"L.	c #186118610820",
"P.	c #71C66DB62081",
"I.	c #30C234D31861",
"U.	c #AEBAA6991040",
"Y.	c #5144451430C2",
"T.	c #861782070820",
"R.	c #8E38861728A2",
"E.	c #514459655965",
"W.	c #9E799A690000",
"Q.	c #A6999A692081",
"!.	c #79E771C60820",
"~.	c #38E32CB238E3",
"^.	c #514449242081",
"/.	c #30C2249230C2",
"(.	c #DF7DD34C0000",
").	c #EFBEDF7D0000",
"_.	c #104008201040",
"`.	c #71C66DB630C2",
"'.	c #104010400000",
"].	c #596555556185",
"[.	c #6185659571C6",
"                                                                                                ",
"                                                                                                ",
"                                                                                                ",
"                                . X o O O O o + @ @ @ + X X # $ $ $ % &                         ",
"                          O O * = - ; : : : : ; > ; O O O ; , , O < 1 2                         ",
"                          3 < . 4 2 = = $ - # 5 6 7 # % # 8 # 9 < 0 2 .                         ",
"                          o 2 q w = e 2 & $ - % r - 9 t 9 X 5 $ y 0 u .                         ",
"                          X 0 2 < i < 5 $ w $ $ p , & . # # , = e 4 a =                         ",
"                          X < s < d & = f g h f j k $ 6 s 9 - l 2 4 a &                         ",
"                          2 < 0 z x ; c v v i v v 9 b - , 1 5 5 = 4 a &                         ",
"                          2 2 n < . : m 2 2 < < y & = j x X 1 M e v q &                         ",
"                          . < N $ B = w 2 2 v z 2 e % o @ V z % & 0 q &                         ",
"                          . 0 z & B - w = 1 & C v < - % j # & y w v < &                         ",
"                          2 z < # B - * > z Z Z A 0 5 x 3 - X S $ v a .                         ",
"                          . D . V B x x c F O - F 9 - # G 5 , v H J q .                         ",
"                          . z 0 5 @ 9 % o 2 2 9 > < M V K 8 X 0 L P q .                         ",
"                          . 0 N . I x U H O 0 Y a 9 M U 3 x w F T P q .                         ",
"                          . R E Z l o l l 7 X O # 9 V o f W 0 q Q ! ~ .                         ",
"                    ^ ^   . 4 / N ( ) , M O O # , U , j _ ` ' ] Q [ { < E                       ",
"                  } Q |   . 0 z N  ...@ X.M - H O h 3 w o.O.+.F @.#.~ . ] P                     ",
"                  } $.|   . ] 0 Y %.&.5 9 X.K K G *.=.= T -.;.D :.>.,.= o.<.1.                  ",
"              o.o.} 2.[   . F 0 3.| 4.0 W <.& = 2 5.=.z 6.7.8.N %.9.,.< o.=.0.                  ",
"            } @.$.} q.#.  w.e.0 r.t.y.E u.i.p.y N 2.a.s.4.d.;.f.$.g.h.S 6.j.T   |               ",
"            } | :.k.l.l.k.#.-.F t.z.-.N 6.-.L x.y.l.:.0.l.c.v.g.b.n.a.F | m.M.} O.k.            ",
"            N.$.B.0.t.t.0.| P V.v.Y x.1 | b.C.P -.q.Q ^ q.o.a.Z.w.n.a.E a.m.M.k.#.C.  k.0.1.    ",
"j.B.t.t.t.t.A.^ l.6.S.t.0.P j.M.9.Y D./ P F.@.P | $.M.G.2.} P H.J.Y P E P C.S.C.l.%.u.G.t.m.u.  ",
"} 1.0.0.0.0.k.} S.l.M.S.C.P @.7.K.} $.0.#.L.P | 5.| r.4.@.} P 5.P.} P } P 0.t.@.T P :.} } }     ",
"} } } } } }   } G.#.T M.m.| C.=.a Y 4.C.y.} P e.f.I.o.B.H.} y.7.W } P o.v.k.l.B.1.G.:.          ",
"              } o.<.1.T $.%.k.&.m Y 4.H.U.} F 1 . & f.i.J.D 4.a.Y.} h.M.v.} j.j.} }             ",
"              } } P } 0.j.w.} m z Y T.$.R.E.c B h 2 Y =.J N W.i.p Y %.t.Q.} [ #.                ",
"                }   } 1.<.L Y m E 0 !.x.L D z v 0 O E w.5 N 9.i.~.Y | t.Q.} #.@.                ",
"                    } } <.L Y F v F H.-.^.R < < /.S / G & 0 M.U.$ Y 9.(.*.} G.k.                ",
"                      } o.2 } N O 0 z.).a S N E D 1 2 - h 0 _.2 * _.6.! `.} }                   ",
"                      }   . E N 2 X 0.).< / 0 < a d 2 0 X.y M s * _.6.P l                       ",
"                          . N 0 X # '.p.- N 2 2 = D 2 2 l , V z * _.o.P ,                       ",
"                          . N z 9 ; y 2 V N 2 2 y D 2 e p c V N - N } m l                       ",
"                          . E D $ X.x * M q m 0 m D w p - k O N - D 1 z l                       ",
"                          2 E N o ].= x & % 0 E N = = = h M X D $ z < z l                       ",
"                          2 E D - $ h e & & y = = w - y G = & v - z m z X                       ",
"                          . _.0 n ].O ; < ~.& y w x . f 5 X d 2 - z 1 z X                       ",
"                          2 _.S z F B ; [.* i 0 1 p G , X & 1 e - ] 0 1 =                       ",
"                          . N y a z S , 9 k X.G G E.- , q < = e - 0 0 c                         ",
"                          . z < s a 0 q = C 9 = X X M . < y & . 8 v % N                         ",
"                          . z 2 < < . y < 2 . p e 2 < 2 & M $ - M ] X                           ",
"                          2 = 2 1 2 & & . 1 ] ] . = * - 8 # # 5 - l /                           ",
"                                      2 o l X # # % O c - . ] s & 0                             ",
"                                                                                                ",
"                                                                                                "};
