/* XPM */
static char * image_name[] = {
"24 24 2 1",
" 	c None",
".	c #20813CF379E7",
"                        ",
"                        ",
"                        ",
"                        ",
"                        ",
"                        ",
"                        ",
"                        ",
"                        ",
"      . .. ... .        ",
"      . .. ... ..       ",
"      . .. ... ...      ",
"      . .. ... ....     ",
"      . .. ... ...      ",
"      . .. ... ..       ",
"      . .. ... .        ",
"                        ",
"                        ",
"                        ",
"                        ",
"                        ",
"                        ",
"                        ",
"                        "};
