/* XPM */
static char * image_name[] = {
"48 48 149 2",
"  	c None",
". 	c #104004100820",
"X 	c #000000000000",
"o 	c #082000000000",
"O 	c #514404100820",
"+ 	c #71C614511040",
"@ 	c #410310401040",
"# 	c #618561856185",
"$ 	c #71C604100820",
"% 	c #B6DA14511861",
"& 	c #A69920812081",
"* 	c #69A614511861",
"= 	c #514428A228A2",
"- 	c #186118611861",
"; 	c #28A228A228A2",
": 	c #618559655965",
"> 	c #861704100820",
", 	c #A69908200820",
"< 	c #861714511040",
"1 	c #96584D344924",
"2 	c #AEBA34D330C2",
"3 	c #596524922081",
"4 	c #492414511040",
"5 	c #082008200820",
"6 	c #AEBA08200820",
"7 	c #DF7D6DB669A6",
"8 	c #AEBA69A669A6",
"9 	c #BEFB45144103",
"0 	c #71C634D330C2",
"q 	c #596528A228A2",
"w 	c #69A618611861",
"e 	c #082004100820",
"r 	c #86171C711861",
"t 	c #AEBA5D755965",
"y 	c #BEFB41034103",
"u 	c #79E734D330C2",
"i 	c #59652CB228A2",
"p 	c #41031C712081",
"a 	c #492420812081",
"s 	c #208118611861",
"d 	c #B6DA08200820",
"f 	c #A69934D330C2",
"g 	c #BEFB49244924",
"h 	c #86174D344924",
"j 	c #208114511861",
"k 	c #104010401040",
"l 	c #618504100820",
"z 	c #8E3820812081",
"x 	c #BEFB79E779E7",
"c 	c #AEBA34D338E3",
"v 	c #618530C230C2",
"b 	c #10400C301040",
"n 	c #30C228A228A2",
"m 	c #AEBA0C300820",
"M 	c #965820812081",
"N 	c #9E7955555144",
"B 	c #BEFB38E338E3",
"V 	c #596530C230C2",
"C 	c #DF7DDB6CDF7D",
"Z 	c #C71B28A228A2",
"A 	c #CF3C61856185",
"S 	c #D75C96589658",
"D 	c #79E738E338E3",
"F 	c #79E751445144",
"G 	c #51442CB230C2",
"H 	c #59654D344924",
"J 	c #59655D755965",
"K 	c #514455555144",
"L 	c #9E799E799E79",
"P 	c #BEFB1C712081",
"I 	c #BEFB55555144",
"U 	c #BEFB82078617",
"Y 	c #B6DA3CF338E3",
"T 	c #79E73CF338E3",
"R 	c #79E74D344924",
"E 	c #492441034103",
"W 	c #410341034103",
"Q 	c #41033CF34103",
"! 	c #BEFB14511861",
"~ 	c #BEFB7DF779E7",
"^ 	c #B6DA41034103",
"/ 	c #79E749244924",
"( 	c #492428A228A2",
") 	c #49243CF338E3",
"_ 	c #38E338E338E3",
"` 	c #492404100820",
"' 	c #BEFB59655965",
"] 	c #CF3C71C671C6",
"[ 	c #B6DA3CF34103",
"{ 	c #71C651445144",
"} 	c #514430C230C2",
"| 	c #38E334D338E3",
" .	c #9E7996589658",
"..	c #79E704100820",
"X.	c #BEFB1C711861",
"o.	c #BEFB55555965",
"O.	c #71C638E338E3",
"+.	c #492438E338E3",
"@.	c #492445144924",
"#.	c #A69982078617",
"$.	c #71C60C300820",
"%.	c #9E7949244924",
"&.	c #C71B86178617",
"*.	c #71C645144924",
"=.	c #4924249228A2",
"-.	c #20811C712081",
";.	c #A6999E799E79",
":.	c #965830C230C2",
">.	c #618534D338E3",
",.	c #20811C711861",
"<.	c #30C22CB230C2",
"1.	c #208120812081",
"2.	c #CF3CCF3CCF3C",
"3.	c #618549244924",
"4.	c #69A645144924",
"5.	c #596551445144",
"6.	c #514451445144",
"7.	c #49244D344924",
"8.	c #69A66DB669A6",
"9.	c #9E799A699E79",
"0.	c #C71BC30BC71B",
"q.	c #28A2249228A2",
"w.	c #596559655965",
"e.	c #514438E338E3",
"r.	c #410318611861",
"t.	c #8E388A288E38",
"y.	c #492449244924",
"u.	c #79E779E779E7",
"i.	c #A699A699A699",
"p.	c #CF3CD34CCF3C",
"a.	c #861786178617",
"s.	c #8E388E388E38",
"d.	c #A699A289A699",
"f.	c #965892489658",
"g.	c #71C671C671C6",
"h.	c #30C230C230C2",
"j.	c #C71BCB2BC71B",
"k.	c #861782078617",
"l.	c #618565956185",
"z.	c #D75CD75CD75C",
"x.	c #965896589658",
"c.	c #B6DAB2CAB6DA",
"v.	c #71C675D671C6",
"b.	c #C71BC71BC71B",
"n.	c #69A669A669A6",
"m.	c #79E77DF779E7",
"M.	c #B6DAB6DAB6DA",
"N.	c #AEBAAEBAAEBA",
"B.	c #B6DABAEAB6DA",
"                                                                                                ",
"                                                                                                ",
"                                                                                                ",
"                                                                        . X                     ",
"                                                                    o O + @                     ",
"            # # # # # # # # # # # # # # # # # # # # # # # # # # # # $ % & * = X X X             ",
"            # - - - - - - - - - - - - - - - - - - - - - - - - ; : > , < 1 2 3 4 5 X X           ",
"            # - - - - - - - - - - - - - - - - - - - - - - - - ; $ 6 7 8 9 0 q w - e X           ",
"            # - - - - - - - - - - - - - - - - - - - - - - - - $ % r t y u i p a - 5 X           ",
"            # - - - - - - - - - - - - - - - - - - - - - - s $ d f 1 g 0 h p p j k 5 X X         ",
"            # - - - - - - - - - - - - - - - - - - - - - - l , z x c 0 v p a j k b e X X X       ",
"            # ; ; ; ; ; ; ; ; ; ; ; ; ; ; ; ; ; ; ; ; n l m M N B 0 V p p j k b 5 e X X X       ",
"            C C C C C C C C C C C C C C C C C C C C C $ Z A S y D F G p H J K b 5 X X X X       ",
"            C L L L L L L L L L L L L L L L L L L L $ P I U Y T R = a E W Q - b 5 e X X X       ",
"            C L L L L L L L L L L L L L L L L L L O ! g ~ ^ 0 / ( p ) W W _ - 5 5 e X X X       ",
"            C L L L L L L L L L L L L L L L L L ` ! ' ] [ D { } a ) W Q _ | - b b e X X         ",
"            C L L L L L L L L L L L L L L L  ...X.o.x y O.R G p +.@.) _ | _ - k - 5 X X         ",
"            C L L L L L L L L L L L L L L L #.$.%.&.^ O.*.=.p +.W Q _ | | Q -.-.- 5 X           ",
"            C Q Q Q Q Q Q Q Q Q Q Q Q Q Q Q Q ;.a :.0 >.a a ,.- - - - - - -.<.1.-.5 X           ",
"            C C C C C C C C C C C C C C C C 2.C 3.p 4.= p 5.K K 6.7.7.K 8.9.0.q.-.5 X           ",
"            C L L L L L L L L L L L L L L 2.9.w.K e.r.r.) Q | | | Q W 7.8.t.Q ; -.5 X           ",
"            C L L L L L L L L L L L L L 2.L J y.<.u.5.W Q Q | | _ Q 6.8.t.9.Q ; -.5 X           ",
"            C L L L L L L L L L L L i.p.L K @._ a.u.7._ _ _ | | Q 7.8.t.9.L Q ; -.5 X           ",
"            C L L L L L L L L L L L 2.a.w.@._ t.s.8.@.| | | | Q 6.8.t.9.L L W ; -.5 X           ",
"            C L L L L L L L L L d.2.u.J | Q L f.u.K Q | | | Q 6.g.s.9.L L L Q ; -.5 X           ",
"            C W Q W Q W Q W Q W 2.g.6.<.h.Q _ h.1.- - - -.-.1.<._ Q Q Q Q W Q ; -.5 X           ",
"            C C C C C C C C C j.k.# | l.z.j.i.u.J K w.g.x.i.c.j.z.C C C C C C ; -.5 X           ",
"            C L L L L L L L p.v.7.<.# L f.v.w.W _ W K g.s.x.9.L L L L L L L Q ; -.5 X           ",
"            C L L L L L L b.u.6._ n.L f.v.K Q _ W K v.s.9.L L L L L L L L L W ; -.5 X           ",
"            C L L L L d.2.g.7.<.m.L f.v.K Q _ W w.u.f.9.L L L L L L L L L L Q ; -.5 X           ",
"            C L L L L p.n.@.h.t.9.f.v.K Q _ W w.u.f.L L L L L L L L L L L L W ; -.5 X           ",
"            C L L d.p.v.W h.a.L f.v.K Q _ @.# m.f.L L L L L L L L L L L L L Q ; -.5 X           ",
"            C w.| 7.k.| <.Q Q _ <.1.- - -.q.| _ Q Q Q Q Q Q Q Q Q W Q W Q W Q ; -.5 X           ",
"            z.2.b.; Q y.b.C j.i.v.K 6.n.s.M.p.C C C C C C C C C C C C C C C C ; -.5 X           ",
"            2.0.j.8.Q a.L s.v.6.Q _ 7.8.a.9.L L L L L L L L L L L L L L L L Q ; -.5 X           ",
"        h.0.p.N.w.h.8.9.f.v.K Q _ 7.g.t.9.L L L L L L L L L L L L L L L L L Q ; -.5 X           ",
"        i.i.b.s.h.u.f.a.g.K Q Q 6.g.s.9.L L L L L L L L L L L L L L L L L L W ; -.5 X           ",
"          B.B.@.s.s.u.l.7.W W K v.s.9.L L L L L L L L L L L L L L L L L L L Q ; -.5 X           ",
"          k v.9.s.v.# K @.W K v.f.9.L L L L L L L L L L L L L L L L L L L L Q ; -.5 X           ",
"          e z._ <.q.1.-.-.q.<._ Q W Q W Q Q Q Q Q W Q W Q W Q W Q W Q Q Q W Q ; -.5 X           ",
"          X X e k k k - - -.1.q.; ; ; ; ; ; ; ; ; ; ; ; ; ; ; ; ; ; ; ; ; ; ; q.-.5 X           ",
"          X X e 5 5 b k - - -.-.-.-.-.-.-.-.-.-.-.-.-.-.-.-.-.-.-.-.-.-.-.-.-.-.- 5 X           ",
"            X X X e e e 5 5 5 5 5 5 5 5 5 5 5 5 5 5 5 5 5 5 5 5 5 5 5 5 5 5 5 5 e X X           ",
"            X X X X X X X X X X X X X X X X X X X X X X X X X X X X X X X X X X X X             ",
"              X X X X X                                                                         ",
"              X X X X                                                                           ",
"                                                                                                ",
"                                                                                                "};
