/* XPM */
static char * image_name[] = {
"50 54 223 2",
"  	c None",
". 	c #FFFFFFFFFFFF",
"X 	c #28A234D35965",
"o 	c #28A23CF36185",
"O 	c #28A2410369A6",
"+ 	c #28A2451471C6",
"@ 	c #28A2492471C6",
"# 	c #28A24D3479E7",
"$ 	c #30C2514479E7",
"% 	c #38E359658617",
"& 	c #28A24D3471C6",
"* 	c #30C2451469A6",
"= 	c #618565956185",
"- 	c #000000000000",
"; 	c #208134D35144",
": 	c #30C24D3471C6",
"> 	c #38E3555579E7",
", 	c #A699AEBADF7D",
"< 	c #AEBAB2CADF7D",
"1 	c #B6DABEFBDF7D",
"2 	c #BEFBC30BE79D",
"3 	c #C71BCB2BE79D",
"4 	c #CF3CCF3CE79D",
"5 	c #D75CD75CE79D",
"6 	c #DF7DDF7DEFBE",
"7 	c #E79DE79DF7DE",
"8 	c #E79DEBADF7DE",
"9 	c #EFBEEFBEF7DE",
"0 	c #F7DEF7DEF7DE",
"q 	c #F7DEFBEEFFFF",
"w 	c #514469A68E38",
"e 	c #492465958617",
"r 	c #492471C69658",
"t 	c #61857DF79E79",
"y 	c #DF7DE79DEFBE",
"u 	c #B6DAC71BD75C",
"i 	c #79E79248AEBA",
"p 	c #B6DAB6DADF7D",
"a 	c #C71BD75CDF7D",
"s 	c #596575D69658",
"d 	c #20812CB24924",
"f 	c #208130C24924",
"g 	c #8E389658AEBA",
"h 	c #E79DE38DE79D",
"j 	c #30C2492469A6",
"k 	c #69A679E78E38",
"l 	c #AEBAAEBAC71B",
"z 	c #30C23CF36185",
"x 	c #B6DABEFBCF3C",
"c 	c #5965618571C6",
"v 	c #79E782079658",
"b 	c #9E79B2CAC71B",
"n 	c #28A238E35965",
"m 	c #71C67DF79E79",
"M 	c #86178A28A699",
"N 	c #49244D346185",
"B 	c #6185618569A6",
"V 	c #BEFBC30BC71B",
"C 	c #CF3CCF3CCF3C",
"Z 	c #9E79AAAAB6DA",
"A 	c #41035D758617",
"S 	c #28A230C24924",
"D 	c #28A234D35144",
"F 	c #A699A289AEBA",
"G 	c #D75CD34CD75C",
"H 	c #B6DAC30BCF3C",
"J 	c #B6DABAEAC71B",
"K 	c #AEBAB6DABEFB",
"L 	c #B6DAB6DABEFB",
"P 	c #C71BCB2BD75C",
"I 	c #DF7DE38DEFBE",
"U 	c #B6DAB2CABEFB",
"Y 	c #CF3CCB2BCF3C",
"T 	c #A699A699A699",
"R 	c #A699A289A699",
"E 	c #2081249238E3",
"W 	c #4924451430C2",
"Q 	c #8E38861779E7",
"! 	c #49243CF330C2",
"~ 	c #41033CF330C2",
"^ 	c #38E334D328A2",
"/ 	c #38E33CF34103",
"( 	c #30C22CB228A2",
") 	c #28A228A228A2",
"_ 	c #69A6659579E7",
"` 	c #79E775D679E7",
"' 	c #86177DF78617",
"] 	c #861779E779E7",
"[ 	c #79E775D68617",
"{ 	c #69A669A671C6",
"} 	c #96588A288E38",
"| 	c #A6998E388E38",
" .	c #8E388A288E38",
"..	c #96588E389658",
"X.	c #965896589E79",
"o.	c #A6999E79A699",
"O.	c #79E775D671C6",
"+.	c #8E3886178617",
"@.	c #9E7992488E38",
"#.	c #A69996589658",
"$.	c #C71BB2CAAEBA",
"%.	c #A6999A699E79",
"&.	c #8E3879E771C6",
"*.	c #410341034103",
"=.	c #2081208130C2",
"-.	c #38E349245965",
";.	c #69A659655965",
":.	c #618559655965",
">.	c #69A661856185",
",.	c #71C665956185",
"<.	c #71C665955965",
"1.	c #AEBA96589658",
"2.	c #DF7DBAEAA699",
"3.	c #5144596571C6",
"4.	c #5965596571C6",
"5.	c #8E3886178E38",
"6.	c #9E7996589658",
"7.	c #CF3CC30BB6DA",
"8.	c #B6DAAAAAB6DA",
"9.	c #B6DAAAAAA699",
"0.	c #96587DF779E7",
"q.	c #861771C669A6",
"w.	c #28A228A230C2",
"e.	c #AEBAB2CABEFB",
"r.	c #5144492438E3",
"t.	c #61854D344103",
"y.	c #69A659654924",
"u.	c #A6998E388617",
"i.	c #69A661854924",
"p.	c #86176DB66185",
"a.	c #861765955965",
"s.	c #B6DA9E799E79",
"d.	c #71C675D679E7",
"f.	c #79E779E78617",
"g.	c #BEFBAEBAA699",
"h.	c #AEBAA699A699",
"j.	c #96588A288617",
"k.	c #596551445144",
"l.	c #AEBA9A698E38",
"z.	c #9E7992488617",
"x.	c #9E798E388617",
"c.	c #96588A2879E7",
"v.	c #A69996588E38",
"b.	c #A6999A698E38",
"n.	c #AEBA9E799658",
"m.	c #A6999A699658",
"M.	c #AEBAA2899658",
"N.	c #B6DAAAAA9E79",
"B.	c #C71BBAEAB6DA",
"V.	c #79E76DB669A6",
"C.	c #71C669A669A6",
"Z.	c #2081208128A2",
"A.	c #8E388A2879E7",
"S.	c #BEFBB6DABEFB",
"D.	c #9E79A699AEBA",
"F.	c #8617820779E7",
"G.	c #79E77DF779E7",
"H.	c #18611C7128A2",
"J.	c #AEBAAEBAB6DA",
"K.	c #79E76DB66185",
"L.	c #08200C301861",
"P.	c #08200C301040",
"I.	c #104014511861",
"U.	c #18611C712081",
"Y.	c #186118612081",
"T.	c #38E33CF34924",
"R.	c #30C230C230C2",
"E.	c #8E3892489658",
"W.	c #71C66DB671C6",
"Q.	c #61855D756185",
"!.	c #AEBAA2899E79",
"~.	c #861782078617",
"^.	c #861782079658",
"/.	c #69A669A669A6",
"(.	c #596555555965",
").	c #596559655965",
"_.	c #79E771C669A6",
"`.	c #B6DAA6999E79",
"'.	c #AEBAAEBABEFB",
"].	c #618561856185",
"[.	c #596555556185",
"{.	c #69A665955965",
"}.	c #082008200820",
"|.	c #71C669A66185",
" X	c #A699A2899E79",
".X	c #AEBAAAAAAEBA",
"XX	c #BEFBB6DAAEBA",
"oX	c #CF3CC71BBEFB",
"OX	c #514451445144",
"+X	c #51444D345144",
"@X	c #51444D344924",
"#X	c #104014511040",
"$X	c #186118611861",
"%X	c #514449245144",
"&X	c #49244D345144",
"*X	c #492449244924",
"=X	c #71C671C671C6",
"-X	c #A6999E79AEBA",
";X	c #4924451438E3",
":X	c #4924410330C2",
">X	c #410338E328A2",
",X	c #61855D7569A6",
"<X	c #104010401040",
"1X	c #492449244103",
"2X	c #69A66DB68E38",
"3X	c #861782079E79",
"4X	c #4924410328A2",
"5X	c #5144451428A2",
"6X	c #20811C711861",
"7X	c #AEBAAAAAC71B",
"8X	c #596555554924",
"9X	c #71C675D69E79",
"0X	c #38E330C228A2",
"qX	c #30C230C228A2",
"wX	c #596551444103",
"eX	c #28A22CB230C2",
"rX	c #38E33CF330C2",
"tX	c #10400C300820",
"yX	c #186114511040",
"uX	c #186110401040",
"iX	c #51444D344103",
"pX	c #28A224922081",
"aX	c #208118611040",
"                                                                                                    ",
"  . . . . . . . . . . . . . . . . . . . . . . . . . . . . . . . . . . . . . . . .                   ",
"  . X o o O O + + + @ @ @ @ @ @ @ @ @ @ @ @ @ # # # # $ % % $ $ $ $ $ & & * & $ = - - - -           ",
"  . ; X o o o O O O + + + + @ @ @ @ @ @ @ @ @ # @ # # $ # % # # $ $ : : : * : > = - - - -           ",
"  . ; ; , < 1 1 2 3 3 4 5 5 6 7 7 8 9 0 q . # @ @ @ # $ $ # # # & # : * w e r t = - - - -           ",
"  . ; ; , - 1 1 2 3 3 4 5 5 6 7 7 8 9 0 - . @ # @ # # # # # & & & $ $ $ y u i > = - - - -           ",
"  . ; ; , < p 1 2 3 3 4 4 5 6 7 7 8 9 0 q . # + @ # # # # & # & & % r u a s & * = - - - -           ",
"  . d f , ; X o o o O O g h g j k & @ @ & , & @ # # & # # & * & % l y u w * z * = - - - -           ",
"  . f f , ; - X - - - O g x l c j v e & & , @ @ @ & & $ $ & : : e a b > * n n n = - - - -           ",
"  . f f , ; ; X X o o O m l M N B V C Z A , # # # & & # $ $ $ j w s * n S D n S = - - - -           ",
"  . S g , X - - - - - o - e - - - F C G s , # # # # & & $ % e n * n n n S D S S = - - - -           ",
"  . d v , H J J J J J J K L P J u P h h P I x H H x x u u u L L L L L L L L U U Y T R R R - -       ",
"  . E D , 5 W Q ! ! ~ ^ / ( ) _ ` ' ] [ ` { ' } | | } ' }  ...X.o.O.] +.+.} @.#.$.%.@.&.*.- - -     ",
"  . =.-., U ;.:.>.:.;.,.,.<.<.1.2.| { 3.3.3.4.c _ _ 5...6.o.R 7.8.+.5.5. .} } 6.9.} 0.q.*.- - - -   ",
"  . =.w., e.r.;.t.,.y.u.i.p.a.s.s.1.' [ d.d.d.[ f.#.g.$.$.h.8.8.U  . .+.5.+.j.} 1.q.q.q.*.- - - -   ",
"  . =.=., e.k.k.k.,.&.| q.,.<.s.l.l.z.x.j.c.Q Q Q j.v.b.n.m.M.N.B.+. . .+.+.+.' | V.V.C.*.- - - -   ",
"  . Z.Z., I } } } ..6.6.#.#.%.o.v.b.b.b.b.@.x.j.A.A.b.M.N.N.N.N.S...D.D.X.F.G.[ } >.>.>.*.- - - -   ",
"  . H.H.=.J.K.q.q.L.P.P.I.U.Y.T.R.R.- - R.- - - R.- R.<.K.N.9.9.J  .E.E.+.O.{ W.' :.Q.:.*.- - - -   ",
"  . U.H.H.J.q.q.V.P.J.P.P.L.L.T.R.R.R.R.R.R.R.R.R.G R.M.!.!.h.h.U ~.^.v O./.B B ] (.(.).*.- - - -   ",
"  . Y.Y.H.J.K.V._.P.P.P.P.P.P.T.R.R.R.R.R.R.R.R.R.R.R.`.N.!.!.T '.G.] O./.].[.Q.O.(.(.(.*.- - - -   ",
"  . Y.Y.I.J.,.{.<.}.,.|.q.V.,.o.x.&.{.{._.9.M.v.@.@.R.n.M.!. X X'.] G.C.= :.>.= ] :.).(.*.- - - -   ",
"  . I.U.U..X|.|.K.}.|.}.V.}.}.T.x.x.{.|.K.@.B.B.B.XXR.7.7.oXoX!.8.O._.,.>.>.>.>.O.k.OX+X*.- - - -   ",
"  . I.I.I.J.:.;.:.}.<.<.<.|.<.o.@.j.{.{.@.6.7.j.Q Q R.oXj.j.j.n.8._.>.:.:.:.).).O.@X@X@X*.- - - -   ",
"  . #XI.$X.X>.>.>.}.:.}.}.}.}.T.x.R.{.R.R.R.6.m.m.%.R.n.n.m.m.m.F {.OX%X&X&XOXOX{ *X*X%X*.- - - -   ",
"  . #XI.$X.X).>.C.}.C.|.C.|.,.' =X=X=X=XG.X.-X-XF F T.F -X-X-X-X-X).OXOX&X&X&XOXW.*X*X%X*.- - - -   ",
"  . #X#X#X.XQ.Q.[.}.;X}.:X}.}.}.}.>X}.}.}.}.}.}.}.}.}.}.}.}.}.}.}.}.}.}.}.}.k.OXC.@X@X*X*.- - - -   ",
"  . #X#X#X.X,XB >.}.;X~ >X>X>X>X>X>X>X>X}..X}.}.}.}.}.}.}.}.}.}.}.}.}.}..X}.(.(.` k.(.(.*.- - - -   ",
"  . <X<X#X.XB B 1X}.>X}.>X}.>X}.>X}.>X>X}.}.}.}.}.}.}.}.}.}.}.}.}.}.}.}.}.}.B B ' [.[.[.*.- - - -   ",
"  . <X<X<X.X{ { ~ }.>X>X>X>X>X>X>X>X>X:X}.].].].].].].].].].].].].].].].].}.4._ v ,X,X4.;X- - - -   ",
"  . <X#X<X.X[ [ { }.}.}.}.}.}.}.}.}.}.}.}.].].].].].].].].].].].].].].].].}.2X2XM _ 2X_ *.- - - -   ",
"  . #X#X#XJ.v 3X{ ;X>X>X>X>X>X~ ! 4X5X! }.].].}.}.].}.}.}.].}.].}.}.].].].}.6X^ M 2X2X2X*.- - - -   ",
"  . = = = Y 7X7X=X8X8X8X8X8X8Xy.y.i.y.i.w.] v G.] v G.G.F.v G.] v G.G.F.G.w.R./ ' 9X9X9X*.- - - -   ",
"    - - - R d._ ^ 0X^ 0X0X0X^ >X>X4X4Xr.- ).).).).).).).).).).).).).).).).- }.I.N 4.4.4.*.- - - -   ",
"    - - - R @X;X0X0X0X0XqXqX0X>X^ >XwXy.- ).).).).).).).).).).).).).).).).- }.#Xw.eXw.eX*.- - - -   ",
"    - - - R ! ^ 0X0XqXqXqXrX>X^ >X>XW W - ).).).).).).T T T T ).T T T T ).- }.P.#X$XU.6X*.- - - -   ",
"    - - - R ^ 0X0X0X0X0X0X/ rX0XqX^ 0X^ - ).).).).).).T R.R.rX).T R.rXR.).- }.}.}.}.tX$X*.- - - -   ",
"          T ^ ^ ^ ^ ^ 0X0X0XR.0X0XqX0X0X- ).).).).).).).).).).).).).).).).- #X#X#X#XyXyX*.- - - -   ",
"          T >X^ ^ ^ ^ ^ 0X0X0X0X0X0X0X~ - - - - - - - - - - - - - - - - - - yXuX#XyXyX#X*.- - - -   ",
"          T ^ ^ ^ 0X^ ^ 0X0X0X0X0X0X^ ^ r.~ W >X6X}.}.}.}.tX}.uX}.uX#XyXuX#XtXyXuXuXyXyX*.- - - -   ",
"          T 0X^ 0X^ ^ ^ :X^ ^ >X! >X^ >X:X>X~ qX#XyX}.}.}.tXtXuXuXuXtXuXtXtXtXtXtXtXtXtX*.- - - -   ",
"          T :XiXW ;XW W r.^ ^ ~ ~ r.^ ^ ~ ~ ^ pXaX6X6X6XyXtXtXuXuXuXuXuXtXuXtXuXtXtXaX6X*.- - - -   ",
"          T *.*.*.*.*.*.*.*.*.*.*.*.*.*.*.*.*.*.*.*.*.*.*.*.*.*.*.*.*.*.*.*.*.*.*.*.*.*.*.- - - -   ",
"          - - - - - - - - - - - - - - - - - - - - - - - - - - - - - - - - - - - - - - - - - - - -   ",
"          - - - - - - - - - - }.- - - - - - - - - - - - - - - - - - - - - - - - - - - - - - - - -   ",
"            - - - - - - - - - - - - - - - - - - - - - - - - - - - - - - - - - - - - - - - - - -     ",
"              - - - - - - - - - - - - - - - - - - - - - - - - - - - - - - - - - - - - - - - -       ",
"                                                                                                    ",
"                                                                                                    ",
"                                                                                                    ",
"                                                                                                    ",
"                                                                                                    ",
"                                                                                                    ",
"                                                                                                    ",
"                                                                                                    "};
