/* XPM */
static char * image_name[] = {
"48 48 106 2",
"  	c None",
". 	c #000000000000",
"X 	c #30C230C230C2",
"o 	c #208120812081",
"O 	c #30C22CB230C2",
"+ 	c #104010401040",
"@ 	c #71C671C671C6",
"# 	c #186118611861",
"$ 	c #20811C712081",
"% 	c #082004100820",
"& 	c #FFFFFFFFFFFF",
"* 	c #DF7DE38DDF7D",
"= 	c #69A66DB669A6",
"- 	c #10400C301040",
"; 	c #AEBAAEBAAEBA",
": 	c #A699A289A699",
"> 	c #BEFBBEFBBEFB",
", 	c #082008200820",
"< 	c #69A669A669A6",
"1 	c #EFBEEFBEEFBE",
"2 	c #DF7DDF7DDF7D",
"3 	c #28A22CB228A2",
"4 	c #71C675D671C6",
"5 	c #CF3CCF3CCF3C",
"6 	c #C71BCB2BC71B",
"7 	c #D75CD34CD75C",
"8 	c #C71BC71BC71B",
"9 	c #BEFBC30BBEFB",
"0 	c #F7DEF3CEF7DE",
"q 	c #EFBEF3CEEFBE",
"w 	c #E79DEBADE79D",
"e 	c #E79DE79DE79D",
"r 	c #D75CD75CD75C",
"t 	c #AEBAAAAAAEBA",
"y 	c #861782078617",
"u 	c #861786178617",
"i 	c #8E388A288E38",
"p 	c #79E77DF779E7",
"a 	c #BEFBCB2BCF3C",
"s 	c #CF3CDF7DE79D",
"d 	c #C71BDB6CDF7D",
"f 	c #CF3CDB6CDF7D",
"g 	c #104014511861",
"h 	c #28A241034924",
"j 	c #30C251445965",
"k 	c #30C255555965",
"l 	c #38E355556185",
"z 	c #1861208128A2",
"x 	c #082014511861",
"c 	c #082010401040",
"v 	c #514449244103",
"b 	c #5144492438E3",
"n 	c #000004100000",
"m 	c #4924410338E3",
"M 	c #5144451438E3",
"N 	c #28A224922081",
"B 	c #410338E330C2",
"V 	c #186114511040",
"C 	c #4924451438E3",
"Z 	c #79E771C66185",
"A 	c #10400C300820",
"S 	c #71C665955965",
"D 	c #28A220812081",
"F 	c #79E76DB66185",
"G 	c #69A661855144",
"H 	c #B6DAA2898E38",
"J 	c #69A65D755144",
"K 	c #9658861771C6",
"L 	c #AEBA9A698617",
"P 	c #41033CF330C2",
"I 	c #618555554924",
"U 	c #861771C66185",
"Y 	c #A6998E3879E7",
"T 	c #DF7DBEFBA699",
"R 	c #596555554924",
"E 	c #38E334D328A2",
"W 	c #B6DA9E798E38",
"Q 	c #CF3CB2CA9E79",
"! 	c #8E3879E769A6",
"~ 	c #9658820771C6",
"^ 	c #9E798A2879E7",
"/ 	c #C71BAEBA9658",
"( 	c #DF7DC71BAEBA",
") 	c #E79DC71BAEBA",
"_ 	c #BEFBAAAA9658",
"` 	c #AEBA96588617",
"' 	c #CF3CB6DA9E79",
"] 	c #BEFBA6999658",
"[ 	c #9E798A2871C6",
"{ 	c #861775D66185",
"} 	c #71C661855144",
"| 	c #B6DA9E798617",
" .	c #71C669A65965",
"..	c #20811C711861",
"X.	c #79E769A65965",
"o.	c #D75CBAEAA699",
"O.	c #30C230C228A2",
"+.	c #79E771C669A6",
"@.	c #8E38820771C6",
"#.	c #69A665956185",
"$.	c #410341034103",
"%.	c #30C234D330C2",
"&.	c #492449244924",
"*.	c #596559655965",
"=.	c #8E388E388E38",
"-.	c #965892489658",
"                                                                                                ",
"                . X o O + @ . . . . . . . . . . . . . . . . . . . . @ # O . $ %                 ",
"                O & * & . = . . . . . . . . . . . . . . . . . . . . = - ; @ : $                 ",
"                o > . & . = . . . . . . . . . . . . . . . . . . . . = , $ & < .                 ",
"                O & 1 & . = . . . . . . . . . . . . . . . . . . . . < - 2 # ; 3                 ",
"                + . . . # < , + + + + + + + + + + + + + + + + + + , < $ % . , #                 ",
"                4 2 5 5 6 5 6 7 5 5 5 5 5 5 5 6 5 6 6 6 6 6 6 8 8 9 9 9 8 8 7 4                 ",
"                # 0 0 0 0 0 q q q q q 1 1 1 1 1 1 1 w w w w w e e e e e e e * #                 ",
"                # 0 0 0 0 q q q q q 1 q 1 1 1 1 w 1 w w w w w e e e e e * * * #                 ",
"                # 0 0 0 0 q q q q q q 1 1 1 1 1 1 w w w w w e e e e e e e * * #                 ",
"                # 0 0 0 q q q q q 1 1 1 1 1 1 w 1 w w w w e w e e e e * * * * #                 ",
"                $ 0 0 q 0 q q q 1 q q 1 1 1 1 1 w w w w w e e e e * e e * * * #                 ",
"                $ q 0 q q q q q q 1 1 1 1 1 w w w w w w e w e e e e * * * * * #                 ",
"                $ 0 q 0 q q q 1 q 1 1 1 1 w 1 w w w w e e e e e * e * * * * * #                 ",
"                $ q 0 q q q 1 q 1 1 1 1 1 w w 1 w w w e e e e e e * * * * * * #                 ",
"                $ q q q q q q 1 1 1 1 1 w 1 w w w w e e e e e e * e * * * 2 * #                 ",
"                $ q q q q 1 q 1 1 1 1 w 1 w w w w w e e e e e * * * * * * * 2 #                 ",
"                $ q q q q q 1 1 1 1 1 1 w w w w w e e e e e e e * * * * * 2 2 #                 ",
"                $ q q q 1 1 1 1 1 1 w 1 w w w w e w e e e e * * * * * * 2 2 2 #                 ",
"                # q q 1 q q 1 1 1 w 1 w w w w w e e e e * e * * * * * * 2 * 2 #                 ",
"                $ q q 1 1 1 1 1 1 1 w w w w w e w e e e e * * * * * * 2 2 2 2 #                 ",
"                # q 1 q q 1 1 1 1 w 1 w w w w e e e e * e e * * * 2 * 2 2 2 2 #                 ",
"                $ 1 q 1 1 1 1 1 w w w w w w e e e e e e * * * * * * 2 2 2 2 2 #                 ",
"                # q 1 1 1 1 1 1 w 1 w w w e e e e e e * * * * * 2 * * 2 2 2 2 #                 ",
"                $ q 1 1 1 1 w 1 w w w w w e e e e e * * * * * * * 2 2 2 2 2 2 #                 ",
"                # 1 1 1 1 1 1 w w w w w e e e e e e * e * * * * 2 2 2 2 2 r 2 #                 ",
"                # w 7 r r t t 7 r r r r r r r r r r r r r r r r r t t 7 r 2 t %                 ",
"                3 1 y u i 4 7 : u u u u u u u u u u u u u u u u i 4 7 : u i p -                 ",
"      a s s s d d d d d d d d d d d d d d d d d d d d d f f d f d d d d d d d d d d d d ;       ",
"      . g h j j j k j j k j k j j k j k k j k l l l l l l l l l k k k k k k k k l l l z $       ",
"        . . x x x x x x x x x x x x x x x x x x x x x x x x c x x x x x x x x x x x x . .       ",
"        . . .         . . . . . v b n . . . . . . . . n . . . . . . . . . .         . . .       ",
"                              . m M % .           . + m n N N B V . .                           ",
"                              . C Z A .         . + S m D Z m F + . .                           ",
"                              . G H B . .   . . A J K N S L P I . .                             ",
"                              . J H P . . . . + U Y D P T U , . . .                             ",
"                              . R H Y R . n E W Q R P ! ~ M . . .                               ",
"                              . m S ^ / ~ H ( ) _ ` ~ S m , .                                   ",
"                              . B G ! _ / ' Q ] [ { v N , . .                                   ",
"                              . B } { | Y  .J b m N , . . .                                     ",
"                              . M L W W H J ... . . . .                                         ",
"                              . v W W L X.D . . . .                                             ",
"                              . P Y H o.J A .                                                   ",
"                            . % O. .+.@.#.$.3                                                   ",
"                            . + o %.&.*.= p =.X                                                 ",
"                            . + o %.&.*.= p -.$.                                                ",
"                            . + o %.&.*.= p -.$.                                                ",
"                                                                                                "};
