/* XPM */
static char * image_name[] = {
"48 48 85 1",
" 	c None",
".	c #000000000000",
"X	c #318C318C318C",
"o	c #210821082108",
"O	c #108410841084",
"+	c #739C739C739C",
"@	c #18C618C618C6",
"#	c #084208420842",
"$	c #FFFFFFFFFFFF",
"%	c #DEF6DEF6DEF6",
"&	c #6B5A6B5A6B5A",
"*	c #AD6AAD6AAD6A",
"=	c #A528A528A528",
"-	c #BDEEBDEEBDEE",
";	c #EF7AEF7AEF7A",
":	c #294A294A294A",
">	c #CE72CE72CE72",
",	c #C630C630C630",
"<	c #D6B4D6B4D6B4",
"1	c #F7BCF7BCF7BC",
"2	c #E738E738E738",
"3	c #842084208420",
"4	c #8C628C628C62",
"5	c #7BDE7BDE7BDE",
"6	c #BDEEC630CE72",
"7	c #CE72DEF6E738",
"8	c #C630DEF6DEF6",
"9	c #C630D6B4DEF6",
"0	c #CE72DEF6DEF6",
"q	c #1084108418C6",
"w	c #294A42104A52",
"e	c #318C52945AD6",
"r	c #39CE5AD66318",
"t	c #18C62108294A",
"y	c #0842108418C6",
"u	c #084210841084",
"i	c #52944A524210",
"p	c #52944A5239CE",
"a	c #4A52421039CE",
"s	c #5294421039CE",
"d	c #294A21082108",
"f	c #294A294A2108",
"g	c #421039CE318C",
"h	c #18C618C61084",
"j	c #7BDE739C6318",
"k	c #108408420842",
"l	c #739C6B5A5AD6",
"z	c #7BDE6B5A6318",
"x	c #6B5A63185294",
"c	c #B5ACA5288C62",
"v	c #94A48420739C",
"b	c #739C63185AD6",
"n	c #AD6A9CE68420",
"m	c #631852944A52",
"M	c #8420739C6318",
"N	c #A5288C627BDE",
"B	c #DEF6BDEEA528",
"V	c #5AD652944A52",
"C	c #39CE318C294A",
"Z	c #B5AC9CE68C62",
"A	c #CE72B5AC9CE6",
"S	c #8C627BDE6B5A",
"D	c #9CE68C627BDE",
"F	c #C630AD6A94A4",
"G	c #DEF6C630AD6A",
"H	c #E738C630AD6A",
"J	c #BDEEAD6A94A4",
"K	c #AD6A94A48420",
"L	c #BDEEA52894A4",
"P	c #9CE68C62739C",
"I	c #739C63185294",
"U	c #B5AC9CE68420",
"Y	c #6B5A5AD65294",
"T	c #210818C618C6",
"R	c #7BDE6B5A5AD6",
"E	c #D6B4BDEEA528",
"W	c #108410840842",
"Q	c #318C318C294A",
"!	c #7BDE739C6B5A",
"~	c #8C628420739C",
"^	c #6B5A63186318",
"/	c #421042104210",
"(	c #4A524A524A52",
")	c #5AD65AD65AD6",
"_	c #94A494A494A4",
"                                                ",
"        .XoXO+....................+@X.o#        ",
"        X$%$.&....................&O*+=o        ",
"        o-.$.&....................&#o$&.        ",
"        X$;$.&....................&O%@*:        ",
"        O...@&#OOOOOOOOOOOOOOOOOO#&o#.#@        ",
"        +%>>,>,<>>>>>>>,>,,,,,,,,---,,<+        ",
"        @11111;;;;;;;;;;;;222222222222%@        ",
"        @1111;;;;;;;;;;;2;2222222222%%%@        ",
"        @1111;;;;;;;;;;;;222222222222%%@        ",
"        @111;;;;;;;;;;;2;2222222222%%%%@        ",
"        o11;1;;;;;;;;;;;222222222%22%%%@        ",
"        o;1;;;;;;;;;;;222222222222%%%%%@        ",
"        o1;1;;;;;;;;;2;222222222%2%%%%%@        ",
"        o;1;;;;;;;;;;22;222222222%%%%%%@        ",
"        o;;;;;;;;;;;2;2222222222%2%%%%%@        ",
"        o;;;;;;;;;;2;2222222222%%%%%%%%@        ",
"        o;;;;;;;;;;;222222222222%%%%%%%@        ",
"        o;;;;;;;;;2;2222222222%%%%%%%%%@        ",
"        @;;;;;;;;2;222222222%2%%%%%%%%%@        ",
"        o;;;;;;;;;22222222222%%%%%%%%%%@        ",
"        @;;;;;;;;2;22222222%22%%%%%%%%%@        ",
"        o;;;;;;;222222222222%%%%%%%%%%%@        ",
"        @;;;;;;;2;222222222%%%%%%%%%%%%@        ",
"        o;;;;;2;2222222222%%%%%%%%%%%%%@        ",
"        @;;;;;;22222222222%2%%%%%%%%%<%@        ",
"        @2<<<**<<<<<<<<<<<<<<<<<<**<<%*#        ",
"        :;334+<=33333333333333334+<=345O        ",
"   67778889889899898988988880080898889889888*   ",
"   .qweeeeeeeeeeeeeeeeerrrrrrrrreeeeeeeerrrto   ",
"    ..yyyyyyyyyyyyyyyyyyyyyyyyuyyyyyyyyyyyy..   ",
"    ...    .....ip....................    ...   ",
"               .as#.     .Oa.dfgh..             ",
"               .ajk.    .OladjazO..             ",
"               .xcg.. ..kxvdbngm..              ",
"               .xcg....OMNdgBM#...              ",
"               .VcNV..CZAVgSvs...               ",
"               .alDFvcGHJKvba#.                 ",
"               .gxSJFAALPMid#..                 ",
"               .gIMUNlYpaf#...                  ",
"               .snZZcYT.....                    ",
"               .iZZnRd....                      ",
"               .gNcEYW.                         ",
"              .#Ql!~^/:                         ",
"              .OoX()&54X                        ",
"              .OoX()&5_/                        ",
"              .OoX()&5_/                        ",
"                                                "};
