/* XPM */
static char * image_name[] = {
"48 48 116 2",
"  	c None",
". 	c #000000000000",
"X 	c #8E388E388E38",
"o 	c #FFFFFFFFFFFF",
"O 	c #104010401040",
"+ 	c #082008200820",
"@ 	c #71C671C671C6",
"# 	c #28A22CB228A2",
"$ 	c #20811C712081",
"% 	c #38E338E338E3",
"& 	c #F7DEF7DEF7DE",
"* 	c #EFBEF3CEEFBE",
"= 	c #EFBEEFBEEFBE",
"- 	c #E79DEBADE79D",
"; 	c #E79DE79DE79D",
": 	c #DF7DE38DDF7D",
"> 	c #DF7DDF7DDF7D",
", 	c #618561856185",
"< 	c #492459656185",
"1 	c #5144618569A6",
"2 	c #596569A671C6",
"3 	c #618569A671C6",
"4 	c #618569A669A6",
"5 	c #618565956185",
"6 	c #0820451469A6",
"7 	c #28A259658617",
"8 	c #38E37DF7B6DA",
"9 	c #51449E79D75C",
"0 	c #69A6AEBADF7D",
"q 	c #79E7BEFBE79D",
"w 	c #9E79CF3CF7DE",
"e 	c #8E38C30BEFBE",
"r 	c #1861514479E7",
"t 	c #000010402081",
"y 	c #000030C25144",
"u 	c #28A2596579E7",
"i 	c #38E379E7AEBA",
"p 	c #49248A28BEFB",
"a 	c #59659658BEFB",
"s 	c #69A69A69BEFB",
"d 	c #61859248B6DA",
"f 	c #49248207A699",
"g 	c #492479E7A699",
"h 	c #0000186130C2",
"j 	c #000028A24924",
"k 	c #0820410369A6",
"l 	c #2081555579E7",
"z 	c #30C261858E38",
"x 	c #38E375D6A699",
"c 	c #6185A699DF7D",
"v 	c #71C6B2CAE79D",
"b 	c #41039248C71B",
"n 	c #49249248CF3C",
"m 	c #49249658CF3C",
"M 	c #38E38E38C71B",
"N 	c #38E36DB69E79",
"B 	c #38E38A28C71B",
"V 	c #000008201861",
"C 	c #0000145128A2",
"Z 	c #000038E35965",
"A 	c #38E37DF7AEBA",
"S 	c #28A25D758617",
"D 	c #000038E36185",
"F 	c #000024924103",
"G 	c #38E375D69E79",
"H 	c #5965A699D75C",
"J 	c #DF7DDB6CDF7D",
"K 	c #00002CB25144",
"L 	c #00003CF36185",
"P 	c #28A261858617",
"I 	c #30C265958E38",
"U 	c #1040451469A6",
"Y 	c #79E7BAEAE79D",
"T 	c #000004101040",
"R 	c #0000208138E3",
"E 	c #41038E38C71B",
"W 	c #00000C302081",
"Q 	c #6185A289D75C",
"! 	c #38E38617BEFB",
"~ 	c #38E371C69E79",
"^ 	c #6185AAAADF7D",
"/ 	c #71C6B6DAE79D",
"( 	c #8617BEFBEFBE",
") 	c #9658CB2BEFBE",
"_ 	c #49249A69CF3C",
"` 	c #8617C30BEFBE",
"' 	c #18614D3471C6",
"] 	c #8617BAEAE79D",
"[ 	c #A699CF3CF7DE",
"{ 	c #30C269A68E38",
"} 	c #1040492471C6",
"| 	c #38E369A69658",
" .	c #69A6B2CADF7D",
"..	c #2081514479E7",
"X.	c #8617BEFBE79D",
"o.	c #000034D35965",
"O.	c #38E38207B6DA",
"+.	c #00001C7138E3",
"@.	c #9658CB2BF7DE",
"#.	c #1040492469A6",
"$.	c #5965A289D75C",
"%.	c #38E36DB69658",
"&.	c #8E38C71BEFBE",
"*.	c #A699D34CF7DE",
"=.	c #0000104028A2",
"-.	c #10404D3471C6",
";.	c #08203CF35965",
":.	c #00002CB24924",
">.	c #082038E35965",
",.	c #D75CD75CD75C",
"<.	c #51448E38B6DA",
"1.	c #79E7B6DAE79D",
"2.	c #71C69E79BEFB",
"3.	c #61859248AEBA",
"4.	c #30C261858617",
"5.	c #9E799A699E79",
"                                                                                                ",
"                                                                                                ",
"                                                                                                ",
"                                                                                                ",
"                                                                                                ",
"      . . . . . . X . . . . . . . . . . . . . . . . . . . . . . . . . . X . . . . . . . . .     ",
"      . o o o o . X . . . . . . . . . . . . . . . . . . . . . . . . . . X . o . . o . O + . .   ",
"      . o @ @ o . X . . . . . . . . . . . . . . . . . . . . . . . . . . X . . o o . . # $ O .   ",
"      . o . . o . X . . . . . . . . . . . . . . . . . . . . . . . . . . X . . o o . . % # O .   ",
"      . o o o o . X . . . . . . . . . . . . . . . . . . . . . . . . . . X . o . . o . % # O .   ",
"      . . . . . . X . . . . . . . . . . . . . . . . . . . . . . . . . . X . . . . . . % # O .   ",
"      X X X X X X X X X X X X X X X X X X X X X X X X X X X X X X X X X X X X X X X X % # O .   ",
"      . & & & & & * * * * * * = = = = = - = - - - - ; ; ; ; ; ; : ; : : : : > : > > . % # O .   ",
"      . & & & & * & & * * * = = = = - = = - - - - - ; ; ; ; : ; ; : : : : : : > > > . % # O .   ",
"      . & & & & * * * * * , < 1 2 3 3 4 4 5 1 , , , , , , , , , , @ o : : > > > > > . % # O .   ",
"      . & & & * & * * * * , 6 7 8 9 0 q w e r t y u i p a s d f g g o : : : : > > > . % # O .   ",
"      . & & & * * * * * = , h j k l z x c e v b n 9 m M n 0 9 N B B o : > > > > > > . % # O .   ",
"      . & & & * & * * * = , V C j j h Z A v v n S D F k G H x y Z Z o > : > > > > J . % # O .   ",
"      . & * & * * * * = * , K L P I U Z x 0 Y c U C T R l E z C W W o : > > > > > J . % # O .   ",
"      . & & * * * * * = = , E b H Q ! ~ ^ Y / w 0 7 R C k x 7 C T T o : > > > > J J . % # O .   ",
"      . * * * * * * = * = , q ( ) ) 0 i ! _ n ` w v x ' S B 8 k Z Z o > > > > > J J . % # O .   ",
"      . & & * * * * = = = , 9 c ] w [ Y x { } |  .Y c 9 c v  .n ! ! o > > > > J > J . % # O .   ",
"      . * * * * * = * = = , ' ..x H e w X.c ! ' c Y ^ 9 ^ ( ) / E E o > > > > J J J . % # O .   ",
"      . & * * * * = = = = , j C o.S m q ` v ~ k m c m O.8 9 / 0 z z o > > > J J J J . % # O .   ",
"      . * * * * = * = = = , F t +.} ! Y @.X.7 C ' z l #...! Q $.%.%.o > > > J J J J . % # O .   ",
"      . * * * * = = = = = , ' L } N m  .&.*.n h =.t F k 7 E H 9 n n o > > J J J J J . % # O .   ",
"      . * * * = * = = = = , $.E b n E E c w / x } R F k z E c _ 8 8 o > > J J J J J . % # O .   ",
"      . * * * = = = = - = , Y c ! z -.' A ] Y H 8 } y D ' I 8 z ;.;.o > J J J J J J . % # O .   ",
"      . * * = * = = = = - , Y $.{ o.C :.| Y 0 A ' o.j :.o.U I %.>.>.o > J J J J J ,.. % # O .   ",
"      . * * = = = = = - = , ] ` v ! } k ~ v _ y h F F C =.F ' ! I I o J > J J ,.J ,.. % # O .   ",
"      . * = * = = = - = - , _ c e *.@.v Q Y _ F L ~ i l y L %.^ <.<.o J J J J J ,.,.. % # O .   ",
"      . * = = = = = = - - , k ' i ^ e @.e ` / ! l ! Q 9 ! ! 9 1.2.2.o J J J ,.J J ,.. % # O .   ",
"      . = = = = = - - - = , R +.L z _ Y Y  .0 H x ! $.^ c c 9 c 3.3.o J J J J ,.,.,.. % # O .   ",
"      . * = = = = - = - - , h =.K S m Y / n z S n c ^ 9 O.7 } 4.| | o J J ,.J ,.,.,.. % # O .   ",
"      . = = = = = - - - - o o o o o o o o o o o o o o o o o o o o o o J J J ,.,.,.,.. % # O .   ",
"      . = = = - = - = - - - ; ; ; ; ; ; ; : : : : : > > > > > > J J J J ,.J J ,.,.,.. % # O .   ",
"      . 5.5.5.5.5.5.5.5.5.5.5.5.5.5.5.5.5.5.5.5.5.5.5.5.5.5.5.5.5.5.5.5.5.5.5.5.5.5.. % # O .   ",
"      . - - - - - - , - - - - - - - - - - - - - - - - - - - - - - - - , - - - - - , . % # O .   ",
"      . - , , , , , , - , , , , , , , , , , , , , , , , , , , , , , , , - , , , , , . % # O .   ",
"      . O # % % % % % % % % % % % % % % % % % % % % % % % % % % % % % % % % % % % % % % # O .   ",
"      . + $ # # # # # # # # # # # # # # # # # # # # # # # # # # # # # # # # # # # # # # $ O .   ",
"      . . + O O O O O O O O O O O O O O O O O O O O O O O O O O O O O O O O O O O O O O + . .   ",
"        . . . . . . . . . . . . . . . . . . . . . . . . . . . . . . . . . . . . . . . . . .     ",
"                                                                                                ",
"                                                                                                ",
"                                                                                                ",
"                                                                                                ",
"                                                                                                "};
