/* XPM */
static char * whandling_xpm[] = {
"48 48 131 2",
"  	c None",
". 	c #2C2C2C",
"+ 	c #FEFEFE",
"@ 	c #8F8B8F",
"# 	c #908C90",
"$ 	c #908D90",
"% 	c #918D91",
"& 	c #928E92",
"* 	c #938F93",
"= 	c #949094",
"- 	c #949194",
"; 	c #959195",
"> 	c #969296",
", 	c #979397",
"' 	c #989498",
") 	c #999599",
"! 	c #9A969A",
"~ 	c #9B979B",
"{ 	c #9C989C",
"] 	c #9D999D",
"^ 	c #9E9A9E",
"/ 	c #8F8C8F",
"( 	c #908E90",
"_ 	c #918E91",
": 	c #928F92",
"< 	c #939093",
"[ 	c #949294",
"} 	c #959295",
"| 	c #969396",
"1 	c #979497",
"2 	c #989598",
"3 	c #999699",
"4 	c #9A979A",
"5 	c #9B989B",
"6 	c #9C999C",
"7 	c #9D9A9D",
"8 	c #9E9B9E",
"9 	c #FFFFFF",
"0 	c #9F9B9F",
"a 	c #918F91",
"b 	c #959395",
"c 	c #999799",
"d 	c #A09CA0",
"e 	c #000000",
"f 	c #9F9C9F",
"g 	c #A19DA1",
"h 	c #A29EA2",
"i 	c #A09DA0",
"j 	c #A39FA3",
"k 	c #A19EA1",
"l 	c #A4A0A4",
"m 	c #A5A1A5",
"n 	c #A6A2A6",
"o 	c #707070",
"p 	c #F8F8F8",
"q 	c #6C6C6C",
"r 	c #F3F3F3",
"s 	c #6A6A6A",
"t 	c #989698",
"u 	c #9D9B9D",
"v 	c #686868",
"w 	c #090909",
"x 	c #111111",
"y 	c #727272",
"z 	c #DADADA",
"A 	c #CCCCCC",
"B 	c #CDCDCD",
"C 	c #C8C8C8",
"D 	c #CACACA",
"E 	c #CECECE",
"F 	c #CBCBCB",
"G 	c #C7C7C7",
"H 	c #C1C1C1",
"I 	c #BFBFBF",
"J 	c #C0C0C0",
"K 	c #C5C5C5",
"L 	c #D0D0D0",
"M 	c #717171",
"N 	c #181818",
"O 	c #F4F4F4",
"P 	c #F2F2F2",
"Q 	c #F1F1F1",
"R 	c #F0F0F0",
"S 	c #EFEFEF",
"T 	c #EEEEEE",
"U 	c #EDEDED",
"V 	c #ECECEC",
"W 	c #EBEBEB",
"X 	c #EAEAEA",
"Y 	c #E9E9E9",
"Z 	c #E7E7E7",
"` 	c #E4E4E4",
" .	c #E3E3E3",
"..	c #E2E2E2",
"+.	c #E1E1E1",
"@.	c #191919",
"#.	c #E8E8E8",
"$.	c #E6E6E6",
"%.	c #E5E5E5",
"&.	c #A29FA2",
"*.	c #9F9D9F",
"=.	c #1A1A1A",
"-.	c #E0E0E0",
";.	c #171717",
">.	c #A2A0A2",
",.	c #1B1B1B",
"'.	c #A3A0A3",
").	c #8E8A8E",
"!.	c #DFDFDF",
"~.	c #161616",
"{.	c #FAFAFA",
"].	c #DEDEDE",
"^.	c #DDDDDD",
"/.	c #DCDCDC",
"(.	c #DBDBDB",
"_.	c #D8D8D8",
":.	c #141414",
"<.	c #D9D9D9",
"[.	c #D7D7D7",
"}.	c #D5D5D5",
"|.	c #131313",
"1.	c #9E9E9E",
"2.	c #9F9F9F",
"3.	c #A0A0A0",
"4.	c #060606",
"5.	c #282828",
"6.	c #C9C9C9",
"7.	c #696969",
"8.	c #2A2A2A",
"9.	c #D1D1D1",
"0.	c #0B0B0B",
". . . . . . . . . . . . . . . . . . . . . . . . . . . . . . . . . . . . . . . . . . . . . . . + ",
". @ @ # $ % & * * = - ; > , , ' ) ) ! ~ ~ { ] ^ ^ ] ] { ~ ~ ! ) ) ' , , > ; - = * * & % $ # @ + ",
". / / $ ( _ : < < - [ } | 1 1 2 3 3 4 5 5 6 7 7 8 7 7 6 5 5 4 3 3 2 1 1 | } [ - < < : _ ( $ / + ",
". / # % _ & * < = ; } > , 1 ' ) ! ! ~ { { ] ^ ^ 9 ^ ^ ] { { ~ ! ! ) ' 1 , > } ; = < * & _ % # + ",
". $ % & : * = - ; > | , ' 2 ) ! ~ ~ { ] ] ^ 0 9 9 9 0 ^ ] ] { ~ ~ ! ) 2 ' , | > ; - = * : & % + ",
". _ & * < = ; } > , 1 ' ) 3 ! ~ { { ] ^ ^ 0 9 9 9 9 9 0 ^ ^ ] { { ~ ! 3 ) ' 1 , > } ; = < * & + ",
". a : < < - } b | 1 1 2 3 c 4 5 6 6 7 8 8 9 9 9 9 9 9 9 8 8 7 6 6 5 4 c 3 2 1 1 | b } - < < : + ",
". : * < = ; > | , ' ' ) ! 4 ~ { 6 ] ^ 8 0 d e 9 9 9 e e e 8 ^ ] 6 { ~ 4 ! ) ' ' , | > ; = < * + ",
". * = - ; > | , ' ) ) ! ~ ~ { ] 7 ^ 0 f d g h 9 9 9 e g d f 0 ^ 7 ] { ~ ~ ! ) ) ' , | > ; - = + ",
". = ; } > , 1 ' ) ! ! ~ { { ] ^ 8 0 d i g h j 9 9 9 e h g i d 0 8 ^ ] { { ~ ! ! ) ' 1 , > } ; + ",
". = ; } > , 1 ' ) ! ! ~ { { ] ^ 8 0 d i g h j j e e e h g i d 0 8 ^ ] { { ~ ! ! ) ' 1 , > } ; + ",
". ; > | , ' 2 ) ! 4 ~ { 6 ] ^ 0 f d g k h j l l m l l j h k g d f 0 ^ ] 6 { ~ 4 ! ) 2 ' , | > + ",
". > | , ' 2 3 ! ~ 5 { ] 7 ^ 0 d d g h h j l m m n m m l j h h g d d 0 ^ 7 ] { 5 ~ ! 3 2 ' , | + ",
". , 1 ' ) 3 ! ~ { 6 ] e e e e e o e e e e e e e e e e e e e e o e e e e e ^ ] 6 { ~ ! 3 ) ' 1 + ",
". , 1 ' ) 3 ! ~ { 6 ] e + + p e q e e e e e e e e e e e e e e q e + e + e ^ ] 6 { ~ ! 3 ) ' 1 + ",
". ' 2 ) ! 4 ~ { ] 7 ^ e + e r e q e e e e e e e e e e e e e e q e e + e e 0 ^ 7 ] { ~ 4 ! ) 2 + ",
". 2 3 ! ~ 5 { ] 7 ^ 0 e + + + e s e e e e e e e e e e e e e e s e + e + e d 0 ^ 7 ] { 5 ~ ! 3 + ",
". t 3 4 5 5 6 7 u 8 f e e e e e v w x x x x x x x x x x x x w v e e e e e i f 8 u 7 6 5 5 4 3 + ",
". 3 ! ~ 5 { ] ^ 8 0 d y z A B C D D E E A A F F F D D C C G H I J K K L M i d 0 8 ^ ] { 5 ~ ! + ",
". 4 ~ { 6 ] ^ 0 f d g N O r P P Q R R S T U V V W X X Y Z ` `  .` ....+.N k g d f 0 ^ ] 6 { ~ + ",
". 5 { ] 7 9 0 f i g h @.r Q R S Q R S S U V X #.Z Z Z $.%.` `  . ...+.+.N &.h g i 9 0 ^ 7 ] { + ",
". 5 6 7 9 9 e *.i k &.=.r R R S R R S T U W Y #.#.#.#.Z $.%.`  .....+.-.;.>.&.k i 9 9 8 u 7 6 + ",
". { ] 9 9 9 9 9 9 h j ,.P R S S R S S T V W X Y Z Z Z $.%.%.`  . .+.-.-.;.'.9 9 9 9 9 9 8 ^ ] + ",
". ).9 9 9 9 9 9 9 e l @.P S S T S S T T V W W W X Y #.Z $.%.%.` ....-.!.~.l 9 9 9 9 9 9 9 8 ^ + ",
". ).] 9 9 9 + 9 9 e j ,.P S T T S T T U V V V W Y Z Z Z $.`  .....-.-.!.;.'.9 9 9 9 9 9 e e ] + ",
". ).6 7 9 9 e e e e &.,.Q S T U S T U U W X X X Y Z Z $.%. ...+.+.-.!.!.;.>.&.e e 9 {.e e 7 6 + ",
". ).{ ] 7 9 e f i g h ,.Q T T U T T U V W X Y Y #.$.%.`  . . ...-.!.!.].;.&.h g i 9 e e 7 ] { + ",
". ).~ { 6 ] e 0 f d g ,.R T U U T U U V W X Y Y Y #.$.%. . ...+.+.-.].].;.k g d f 0 e ] 6 { ~ + ",
". ).! ~ 5 { ] ^ 8 0 d =.S S T U U V W W Y Y #.#.#.$.%.`  .+.-.-.!.].^.^.~.i d 0 8 ^ ] { 5 ~ ! + ",
". ).3 4 5 5 6 7 u 8 f =.S T T U V V W X Y #.Z Z $.%.` `  .+.+.+.+.^.^./.~.i f 8 u 7 6 5 5 4 3 + ",
". ).3 ! ~ 5 { ] 7 ^ 0 =.U T U V V W W X Y #.$.%.%.` ` `  .-.-.!.].]./.(.~.d 0 ^ 7 ] { 5 ~ ! 3 + ",
". ).2 ) ! 4 ~ { ] 7 ^ @.W V U V W W X Y #.#.$.%.%.%.` ` ` +.-.!.].^.(._.~.0 ^ 7 ] { ~ 4 ! ) 2 + ",
". ).1 ' ) 3 ! ~ { 6 ] :.$.#.Y X W X Y Y Z Z $.%.%.` ` ` ` ..!.^.(.<.[.}.:.^ ] 6 { ~ ! 3 ) ' 1 + ",
". ).1 ' ) 3 ! ~ { 6 ] |.F 1.2.3.q q 2.2.2.2.2.2.2.2.2.2.2.2.q q 2.2.2.v 4.^ ] 6 { ~ ! 3 ) ' 1 + ",
". ).| , ' 2 3 ! ~ 5 { 5.6.v 7.s 8.9.2.q q q q q q q q q q q 8.L 2.7.v 5.0.] { 5 ~ ! 3 2 ' , | + ",
". ).> | , ' 2 ) ! 4 ~ { 6 ] ^ 0 f d g k h j l l m l l j h k g d f 0 ^ ] 6 { ~ 4 ! ) 2 ' , | > + ",
". ).; } > , 1 ' ) ! ! ~ { { ] ^ 8 0 d i g h j j l j j h g i d 0 8 ^ ] { { ~ ! ! ) ' 1 , > } ; + ",
". ).; } > , 1 ' ) ! ! ~ { { ] ^ 8 0 d i g h j 9 9 9 j h g i d 0 8 ^ ] { { ~ ! ! ) ' 1 , > } ; + ",
". ).= - ; > | , ' ) ) ! ~ ~ { ] 7 ^ 0 f d g h 9 9 9 e g d f 0 ^ 7 ] { ~ ~ ! ) ) ' , | > ; - = + ",
". ).* < = ; > | , ' ' ) ! 4 ~ { 6 ] ^ 8 0 d g 9 9 9 e d 0 8 ^ ] 6 { ~ 4 ! ) ' ' , | > ; = < * + ",
". ).: < < - } b | 1 1 2 3 c 4 5 6 6 7 8 8 9 9 9 9 9 9 9 8 8 7 6 6 5 4 c 3 2 1 1 | b } - < < : + ",
". ).& * < = ; } > , 1 ' ) 3 ! ~ { { ] ^ ^ 0 9 9 9 9 9 e e ^ ] { { ~ ! 3 ) ' 1 , > } ; = < * & + ",
". ).% & : * = - ; > | , ' 2 ) ! ~ ~ { ] ] ^ 0 9 9 9 e e ] ] { ~ ~ ! ) 2 ' , | > ; - = * : & % + ",
". ).# % _ & * < = ; } > , 1 ' ) ! ! ~ { { ] ^ ^ 9 e e ] { { ~ ! ! ) ' 1 , > } ; = < * & _ % # + ",
". )./ $ ( _ : < < - [ } | 1 1 2 3 3 4 5 5 6 7 7 8 e 7 6 5 5 4 3 3 2 1 1 | } [ - < < : _ ( $ / + ",
". ).@ # $ % & * * = - ; > , , ' ) ) ! ~ ~ { ] ] ^ ] ] { ~ ~ ! ) ) ' , , > ; - = * * & % $ # @ + ",
". ).).).).).).).).).).).).).).).).).).).).).).).).).).).).).).).).).).).).).).).).).).).).).).+ ",
"+ + + + + + + + + + + + + + + + + + + + + + + + + + + + + + + + + + + + + + + + + + + + + + + + "};
