/* XPM */
static char * image_name[] = {
"48 48 47 1",
" 	c None",
".	c #000000000000",
"X	c #B6DAB6DAB6DA",
"o	c #9E799A699E79",
"O	c #A699A289A699",
"+	c #AEBAAAAAAEBA",
"@	c #71C675D671C6",
"#	c #B6DAB2CAB6DA",
"$	c #082004100820",
"%	c #30C22CB230C2",
"&	c #79E779E779E7",
"*	c #514455555144",
"=	c #596559655965",
"-	c #9E799E799E79",
";	c #492449244924",
":	c #08200C300820",
">	c #20811C712081",
",	c #30C230C230C2",
"<	c #79E77DF779E7",
"1	c #DF7DDF7DDF7D",
"2	c #CF3CCF3CCF3C",
"3	c #D75CD34CD75C",
"4	c #C71BCB2BC71B",
"5	c #C71BC71BC71B",
"6	c #BEFBC30BBEFB",
"7	c #186118611861",
"8	c #F7DEF7DEF7DE",
"9	c #EFBEF3CEEFBE",
"0	c #EFBEEFBEEFBE",
"q	c #E79DEBADE79D",
"w	c #E79DE79DE79D",
"e	c #DF7DE38DDF7D",
"r	c #186114511861",
"t	c #69A66DB669A6",
"y	c #208124922081",
"u	c #104010401040",
"i	c #71C671C671C6",
"p	c #FFFFFFFFFFFF",
"a	c #BEFBBAEABEFB",
"s	c #F7DEFBEEF7DE",
"d	c #69A669A669A6",
"f	c #10400C301040",
"g	c #D75CD75CD75C",
"h	c #28A22CB228A2",
"j	c #861782078617",
"k	c #8E388A288E38",
"l	c #861786178617",
"     .XoOo+@XXXXXXXXXXXXXXXXXXXX@+oXO#...       ",
"     .o$%$X&XXXXXXXXXXXXXXXXXXXX&+*@=O...       ",
"    ..-;X:X@XXXXXXXXXXXXXXXXXXXX@#O$&X....      ",
"    ..o:>$X&XXXXXXXXXXXXXXXXXXXX&+,O*o....      ",
"    ..+XXXO<++++++++++++++++++++<OXX#O....      ",
"     .@123442322222222444444454666553@....      ",
"     .78888899999000000qqqqqqwqwwwwwer....      ",
"     .7888989999090000qqqqqwqqwwwwwee7....      ",
"     t7888989999909000q0qqqqqwwwwwwee7....      ",
"  .,y%ui....................ir,.>$eee7....      ",
"  %pep.t....................tu#iO>eeer....      ",
"  ya.s.t....................t$>pd.eee7....      ",
"  %p9p.t....................df17+%e1er....      ",
"  u...7d:uuuuuuuuuuuuuuuuuu:d>$.free17....      ",
"  @122444322222224244444455666553@1117.......   ",
"  78888899999900000qqqqqqwqwwwwwerXXXX@+oXO#... ",
"  7888989999000000q0qqqqqwwwwwwee7XXXX&+*@=O... ",
"  7889899999990000qqqqqwqwqwwwewe7XXXX&+O$&X....",
"  78.9.9999000000q0qqqqwqwwwwweee7XXXX&+,O*-....",
"  788.99990900000qqqqwqqwwwwweeee7++++<O#a#O....",
"  >98.9999009000qqqqqqwwwwwweweee7554566553@....",
"  789.999090000qqqqqwqwqwwwweeeee7wqwwwwwwer....",
"  >99.990909000qqqqqqwwwwwweweeee7wqwwwwwee7....",
"  >89.99900000qqqqqwqwqwwweeeee1e7wqwwwwewe7....",
"  >99.9090000q0qqqqqwwwwwweeeeee17wwwwwweee7....",
"  >99.9900000qqqqqwqwqwwweeeeee117wwwwweeee7....",
"  >9.9.00000q0qqqqwqwwwwweeeee1117wwwweweee7....",
"  799090000qqqqqwqqwwwwweeeeee1e17wwwweeeeer....",
"  >99000000qqqqqqwwwwwweweeee1111rwwweweeeer....",
"  79099000qqqqqwqwqwwwweeee1e1111rwwweeee1e7....",
"  >0900000qqqqqqwwwwwweweeee11111rwweeeeee17....",
"  7900000qqqqqwqwqwwweeeee1ee11117eeeeeee117....",
"  >90000q0qqqqqwwwwwweeeeee111111rweeeee1117....",
"  r00000qqqqwqwwqwwweeeeee11111g1reeeeee1e17....",
"  rw33gO+333ggggggggggggggg++3g1+$eeeee1111r....",
"  h0jkk@3Olkkllllllllkllllk@3Olk<feee1e1111r....",
"            .9090000qqqqqqwqwwwwweeeee11111r....",
"  ...........900000qqqqqqwqwwwweeeee1ee1111r....",
"  ..........>00000q0qqqqwqwwwwweeeeee1111117....",
"  ..........r09000qqqqwqqwwwwweeeeee11111g1r....",
"  ..........rw33gO+333g33g3g33g3g333g+O33g+$....",
"  ..........h0jkk@3Olklkkkklkkkklkkkk@3Okk<f....",
"          ......................................",
"          ......................................",
"           .................................... ",
"           .................................... ",
"             ................................   ",
"                                                "};
