/* XPM */
static char * image_name[] = {
"48 48 61 1",
" 	c None",
".	c #00001C71BEFB",
"X	c #9E799A699E79",
"o	c #00001861B6DA",
"O	c #00001861AEBA",
"+	c #00001861A699",
"@	c #000014519E79",
"#	c #000014519658",
"$	c #000014518E38",
"%	c #000010408617",
"&	c #0000104079E7",
"*	c #0000104071C6",
"=	c #00000C3069A6",
"-	c #00000C306185",
";	c #00000C305965",
":	c #000008205144",
">	c #000008204924",
",	c #000008204103",
"<	c #000004104103",
"1	c #FFFFFFFFFFFF",
"2	c #30C234D330C2",
"3	c #104014511040",
"4	c #000000000000",
"5	c #0000041038E3",
"6	c #B6DAB6DAB6DA",
"7	c #10400C301040",
"8	c #FFFFFBEE0000",
"9	c #28A2249228A2",
"0	c #FFFF00000000",
"q	c #F7DE00000000",
"w	c #E79D00000000",
"e	c #D75C00000000",
"r	c #CF3C00000000",
"t	c #C71B00000000",
"y	c #BEFB00000000",
"u	c #B6DA00000000",
"i	c #AEBA00000000",
"p	c #9E7900000000",
"a	c #965800000000",
"s	c #8E3800000000",
"d	c #861700000000",
"f	c #79E700000000",
"g	c #69A600000000",
"h	c #618500000000",
"j	c #596500000000",
"k	c #514400000000",
"l	c #492400000000",
"z	c #EFBE00000000",
"x	c #DF7D00000000",
"c	c #A69900000000",
"v	c #71C600000000",
"b	c #CF3CCF3CCF3C",
"n	c #492449244924",
"m	c #410341034103",
"M	c #38E338E338E3",
"N	c #20811C712081",
"B	c #41033CF34103",
"V	c #28A228A228A2",
"C	c #28A22CB228A2",
"Z	c #208124922081",
"A	c #082008200820",
".....XooO+@##$%&*==-;:>>,X<<<<<                 ",
".111.XooO+@#$$%&*=--;:>,<X<1<1<                 ",
".1.1.XoOO+@#$%%&*=--;:>,<X<<1<<234              ",
".111.XoOO@@#$%&&*=--::>,<X<1<1<234              ",
".....XoO++##$%&**=--::>,5X<<<<<234              ",
"6666666666666666666666666666666234              ",
"4444444444444444444444444444444234              ",
"4111111111111111111111111111114234              ",
"4111111111111111111111111111114234              ",
"411111111111111.....XooO+@##$%&*==-;:>>,X<<<<<44",
"411111111111111.111.XooO+@#$$%&*=--;:>,<X<1<1<74",
"411118818811881.881.88OO88#$88&*88-;88,<X<<1<<93",
"41111800000X0qwwertyuipasdfghjkXlllll8,<X<1<1<23",
"41111101110X0zwxertyicpasfvghjlXl1l1l>,5X<<<<<23",
"41111801010XqzwxettuicpadfvghklXll1ll86666666623",
"41111801110XqzweetyuicpsdfvgjklXl1l1l84444444423",
"41111100000XqzweetyuicasdfghjklXlllll11111111423",
"411111666666666666666666666666666666611111111423",
"41...8444444444444444444444444444444411111111423",
"41.118466666666666666666666666666666481111111423",
"41.1.X466666666666666666666666666666481111111423",
"41.11X466bbbbbbbbbbbbbbbbbbbbbbbb166411111111423",
"41...8466b11111111111111111111111166411111111423",
"416668466b14141111111111111111111166481111111423",
"444446466b11411111111111111111111166481111111423",
"664114466b11411111111111111111111166411111111423",
"624118466b11411111111111111111111166411111111423",
" n4118466b11411111111111111111111166481111111423",
" 24111466b14141111111111111111111166481111111423",
" 34111466b11111111111111111111111166411111111423",
" 44118466b11111111111111111111111166411111111423",
" 44118466b11111111111111111111111166481111111423",
" 44111466b11111111111111111111111166481111111423",
" 44111466111111111111111111111111166444444444423",
" 44118466666666666666666666666666666466626666223",
" 44118466666666666666666666666666666482226222223",
" 4411144444444444444444444444444444448nnnnnnnn23",
" 441116666266666666666666666666266662nmM22222297",
" 44118622226222222222222222222226222282N33333374",
" 4411881188118811881188118811881488n889744444444",
" 44111111111111111111111111111114nnmBMV74       ",
" 44111111111111111111111111111114nMC9VZ74       ",
" 44444444444444444444444444444444MZ3A7744       ",
" 466662666666666666666666662666622344444        ",
" 46222262222222222222222222262222234            ",
" 432nnnnnnnnnnnnnnnnnnnnnnnnnnnnn234            ",
" 47922222222222222222222222222222974            ",
" 44733333333333333333333333333333744            "};
