/* XPM */
static char * image_name[] = {
"48 48 29 1",
" 	c None",
".	c #000000000000",
"X	c #B5ACB5ACB5AC",
"o	c #9CE69CE69CE6",
"O	c #A528A528A528",
"+	c #AD6AAD6AAD6A",
"@	c #739C739C739C",
"#	c #084208420842",
"$	c #318C318C318C",
"%	c #7BDE7BDE7BDE",
"&	c #529452945294",
"*	c #5AD65AD65AD6",
"=	c #4A524A524A52",
"-	c #210821082108",
";	c #DEF6DEF6DEF6",
":	c #CE72CE72CE72",
">	c #D6B4D6B4D6B4",
",	c #C630C630C630",
"<	c #BDEEBDEEBDEE",
"1	c #18C618C618C6",
"2	c #F7BCF7BCF7BC",
"3	c #EF7AEF7AEF7A",
"4	c #E738E738E738",
"5	c #6B5A6B5A6B5A",
"6	c #108410841084",
"7	c #FFFFFFFFFFFF",
"8	c #294A294A294A",
"9	c #842084208420",
"0	c #8C628C628C62",
"     .XoOo+@XXXXXXXXXXXXXXXXXXXX@+oXOX...       ",
"     .o#$#X%XXXXXXXXXXXXXXXXXXXX%+&@*O...       ",
"    ..o=X#X@XXXXXXXXXXXXXXXXXXXX@XO#%X....      ",
"    ..o#-#X%XXXXXXXXXXXXXXXXXXXX%+$O&o....      ",
"    ..+XXXO%++++++++++++++++++++%OXXXO....      ",
"     .@;:>,,:>::::::::,,,,,,,,,<<<,,>@....      ",
"     .122222333333333334444444444444;1....      ",
"     .12223233333333334444444444444;;1....      ",
"     512223233333333334344444444444;;1....      ",
"  .$-$6@....................@1$.-#;;;1....      ",
"  $7;7.5....................56X@O-;;;1....      ",
"  -<.2.5....................5#-75.;;;1....      ",
"  $737.5....................56;1+$;;;1....      ",
"  6...15#666666666666666666#5-#.61;;;1....      ",
"  @;::,,,>:::::::,:,,,,,,,,<<<,,>@;;;1.......   ",
"  122222333333333334444444444444;1XXXX@+oXOX... ",
"  12223233333333334344444444444;;1XXXX%+&@*O... ",
"  1223233333333333444444444444;4;1XXXX%+O#%X....",
"  12.3.33333333334344444444444;;;1XXXX%+$O&o....",
"  122.33333333333444444444444;;;;1++++%OX<XO....",
"  -32.3333333333444444444444;4;;;1,,,,<<,,>@....",
"  123.3333333334444444444444;;;;;144444444;1....",
"  -33.333333333444444444444;4;;;;14444444;;1....",
"  -23.33333333444444444444;;;;;;;1444444;4;1....",
"  -33.33333334344444444444;;;;;;;1444444;;;1....",
"  -33.3333333444444444444;;;;;;;;144444;;;;1....",
"  -3.3.333334344444444444;;;;;;;;14444;4;;;1....",
"  1333333334444444444444;;;;;;;;;14444;;;;;1....",
"  -33333333444444444444;4;;;;;;;;1444;4;;;;1....",
"  133333334444444444444;;;;;;;;;;1444;;;;;;1....",
"  -3333333444444444444;4;;;;;;;;;144;;;;;;;1....",
"  1333333444444444444;;;;;;;;;;;;1;;;;;;;;;1....",
"  -333334344444444444;;;;;;;;;;;;14;;;;;;;;1....",
"  133333444444444444;;;;;;;;;;;>;1;;;;;;;;;1....",
"  14>>>O+>>>>>>>>>>>>>>>>>>++>>;+#;;;;;;;;;1....",
"  83900@>O90099999999099990@>O90%6;;;;;;;;;1....",
"            .33333334444444444444;;;;;;;;;;1....",
"  ...........333333444444444444;;;;;;;;;;;;1....",
"  ..........-333334344444444444;;;;;;;;;;;;1....",
"  ..........133333444444444444;;;;;;;;;;;>;1....",
"  ..........14>>>O+>>>>>>>>>>>>>>>>>>+O>>>+#....",
"  ..........83900@>O90900009000090000@>O00%6....",
"          ......................................",
"          ......................................",
"           .................................... ",
"           .................................... ",
"             ................................   ",
"                                                "};
