/* XPM */
static char * windowfocus_xpm[] = {
"48 48 150 2",
"  	c None",
". 	c #2C2C2C",
"+ 	c #FEFEFE",
"@ 	c #8E8B8E",
"# 	c #8F8B8F",
"$ 	c #8F8C8F",
"% 	c #908C90",
"& 	c #918D91",
"* 	c #928E92",
"= 	c #928F92",
"- 	c #938F93",
"; 	c #949094",
"> 	c #959195",
", 	c #969296",
"' 	c #969396",
") 	c #979497",
"! 	c #989598",
"~ 	c #999699",
"{ 	c #9A969A",
"] 	c #9B979B",
"^ 	c #9C989C",
"/ 	c #9C999C",
"( 	c #9E9A9E",
"_ 	c #9D999D",
": 	c #908D90",
"< 	c #939093",
"[ 	c #949194",
"} 	c #959295",
"| 	c #979397",
"1 	c #989498",
"2 	c #999599",
"3 	c #9A979A",
"4 	c #9D9A9D",
"5 	c #9E9B9E",
"6 	c #908E90",
"7 	c #918E91",
"8 	c #9B989B",
"9 	c #9D9B9D",
"0 	c #9F9B9F",
"a 	c #A09CA0",
"b 	c #9F9C9F",
"c 	c #A19DA1",
"d 	c #B5B5B5",
"e 	c #747474",
"f 	c #959395",
"g 	c #060606",
"h 	c #868686",
"i 	c #050505",
"j 	c #B3B3B3",
"k 	c #0B0B0B",
"l 	c #B4B4B4",
"m 	c #949294",
"n 	c #1E1E1E",
"o 	c #DCDCDC",
"p 	c #CCCCCC",
"q 	c #CDCDCD",
"r 	c #C8C8C8",
"s 	c #CACACA",
"t 	c #CECECE",
"u 	c #CBCBCB",
"v 	c #C7C7C7",
"w 	c #C5C5C5",
"x 	c #C1C1C1",
"y 	c #BFBFBF",
"z 	c #C0C0C0",
"A 	c #D2D2D2",
"B 	c #737373",
"C 	c #181818",
"D 	c #F5F5F5",
"E 	c #F4F4F4",
"F 	c #F3F3F3",
"G 	c #F2F2F2",
"H 	c #F1F1F1",
"I 	c #F0F0F0",
"J 	c #EFEFEF",
"K 	c #EEEEEE",
"L 	c #EDEDED",
"M 	c #ECECEC",
"N 	c #EBEBEB",
"O 	c #EAEAEA",
"P 	c #E9E9E9",
"Q 	c #E8E8E8",
"R 	c #E7E7E7",
"S 	c #E6E6E6",
"T 	c #E5E5E5",
"U 	c #E4E4E4",
"V 	c #E3E3E3",
"W 	c #E2E2E2",
"X 	c #151515",
"Y 	c #999799",
"Z 	c #E1E1E1",
"` 	c #000000",
" .	c #0F0F0F",
"..	c #727272",
"+.	c #2D2D2D",
"@.	c #040404",
"#.	c #6D6D6D",
"$.	c #0E0E0E",
"%.	c #FDFDFD",
"&.	c #1B1B1B",
"*.	c #181817",
"=.	c #F7F7F7",
"-.	c #6C6C6C",
";.	c #6A6A6A",
">.	c #101010",
",.	c #1A1A1A",
"'.	c #686868",
").	c #090909",
"!.	c #111111",
"~.	c #0A0A0A",
"{.	c #161616",
"].	c #8E8A8E",
"^.	c #191919",
"/.	c #E0E0E0",
"(.	c #171717",
"_.	c #383838",
":.	c #DFDFDF",
"<.	c #373737",
"[.	c #D4D4D4",
"}.	c #353535",
"|.	c #303030",
"1.	c #C9C9C9",
"2.	c #DEDEDE",
"3.	c #2A2A2A",
"4.	c #141414",
"5.	c #D1D1D1",
"6.	c #D5D4D5",
"7.	c #D6D5D6",
"8.	c #A6A6A6",
"9.	c #515151",
"0.	c #DDDDDD",
"a.	c #4D4D4D",
"b.	c #1C1C1C",
"c.	c #0D0D0D",
"d.	c #AAAAAA",
"e.	c #4F4F4F",
"f.	c #787878",
"g.	c #424242",
"h.	c #242424",
"i.	c #7F7F7F",
"j.	c #B1B1B1",
"k.	c #DBDBDB",
"l.	c #A5A5A5",
"m.	c #D6D6D6",
"n.	c #D7D7D7",
"o.	c #D8D8D8",
"p.	c #A8A8A8",
"q.	c #A7A7A7",
"r.	c #DADADA",
"s.	c #0C0C0C",
". . . . . . . . . . . . . . . . . . . . . . . . . . . . . . . . . . . . . . . . . . . . . . . + ",
". @ # $ % & * = - ; > > , ' ) ) ! ~ ~ { ] ^ / ( ( _ / ^ ] { ~ ~ ! ) ) ' , > > ; - = * & % $ # + ",
". # % : & * - < < [ } } ' | 1 1 2 { 3 ] ^ _ 4 ( 5 ( 4 _ ^ ] 3 { 2 1 1 | ' } } [ < < - * & : % + ",
". % : 6 7 = < < ; > , , | 1 2 2 { ] 8 8 / 4 9 5 0 5 9 4 / 8 8 ] { 2 2 1 | , , > ; < < = 7 6 : + ",
". : & 7 * - ; [ > , | | 1 ! ~ ~ 3 8 8 ^ _ ( 5 0 a 0 5 ( _ ^ 8 8 3 ~ ~ ! 1 | | , > [ ; - * 7 & + ",
". & * = - ; > } , ' ) ) ! ~ { { ] ^ / _ ( 0 b a c a b 0 ( _ / ^ ] { { ~ ! ) ) ' , } > ; - = * + ",
". * - < < d d d d d e d d d d d d d d d d d d d d d d d d d d e d d d d d 1 1 | ' f } [ < < - + ",
". = - < ; d g g g d h d d d d d d d d d d d d d d d d d d d d h d i d i d 2 2 1 | ' , > ; < - + ",
". - ; [ > d g j k d h j j j j j j j j j j j j j j j j j j j l h d d i d d { { 2 1 ) | , > [ ; + ",
". ; [ m } d g n g d h d d d d d d d d d d d d d d d d d d d d h d i d i d { { 2 1 ) ) ' } m [ + ",
". ; > } , h h h h h h h h h h h h h h h h h h h h h h h h h h h h h h h h ] ] { 2 ! 1 | , } > + ",
". > , ' | e o p q r s s t t p p p u u u s s r r r v v v w w x y z w w A B ^ ^ ] { ~ 2 1 | ' , + ",
". , | ) ) C D E F F G H H I J J K L L M M N O O P Q Q R S S T U U V V W X ^ ^ ] 3 Y ~ ! ) ) | + ",
". , | ) 1 C E F F G G H I I J K K L M M N O O P P Q R R S T T U V V W Z C _ _ ^ ] 3 { 2 1 ) | + ",
". | 1 ! 2 C D E F F G `  . . . ...` ` ` ` ` ` ` ` ` ` ` ` ` ` ` ` ` ` ` ` ..X +.` n @.{ 2 ! 1 + ",
". 1 2 ~ { C E F F G G  .+ + + ` #.` ` ` ` ` ` ` ` ` ` ` ` ` ` ` ` ` ` ` ` #.$.%.` %.&.] { ~ 2 + ",
". 1 2 ~ { *.D E F G G  .+ ` =.` -.` ` ` ` ` ` ` ` ` ` ` ` ` ` ` ` ` ` ` ` -.g n %.` ` ] { ~ 2 + ",
". 2 { 3 ] C D E F F G  .+ + + ` ;.` ` ` ` ` ` ` ` ` ` ` ` ` ` ` ` ` ` ` ` ;.k %.C %.` ^ ] 3 { + ",
". { ] 8 ^ C E F F G G >.` ` ` ,.'.).!.!.!.!.!.!.!.!.!.!.!.!.!.!.!.!.!.!.).'.n @.` ~.{._ ^ 8 ] + ",
". { ] 8 ^ C D E F F G e o p q r s s t t p p p u u u s s r r r v v v w w x y z w w A B _ ^ 8 ] + ",
". ] ^ / _ C E F F G G C D E F F G H H I J J K L L M M N O O P Q Q R S S T U U V V W {.( _ / ^ + ",
". ^ _ 4 ( *.D E F G G C E F F G G H I I J K K L M M N O O P P Q R R S T T U V V W Z C 0 ( 4 _ + ",
". ^ _ 4 ( C D E F F G C E F G G H I I J J K L L M N N O P P Q R R S S T U U V W W Z C 0 ( 4 _ + ",
". ].( 5 0 C E F F G G ^.F ` G ` H I J J K L L M M N O O P Q Q R S S T T U V V W Z Z C a 0 5 ( + ",
". ]._ 4 ( C D E F F G ,.F G ` H I I J K K L M M N N O P P Q R R S T T U V V W W Z /.(.0 ( 4 _ + ",
". ]._ 4 ( C E F F G G &.G G ` H I J J K L L M N N O P P Q Q R S S T U U V W W Z /./.(.0 ( 4 _ + ",
". ].^ / _ *.D E F G G ^.G H ` I J J K K L M M N O O P Q Q _.o S T T U V V W Z Z /.:.{.( _ / ^ + ",
". ].] 8 ^ C D E F F G &.G H ` I J K K L L M N N O P P Q R ` <.[.T U U V W W Z /./.:.(._ ^ 8 ] + ",
". ].] 8 ^ C E F F G G &.H H ` J J K L L M N N O O P Q Q R ` ` }.t U V W W Z Z /.:.:.(._ ^ 8 ] + ",
". ].{ 3 ] *.D E F G G &.H I ` J K K L M M N O O P Q Q R R ` ` ` |.1.V W Z Z /.:.:.2.(.^ ] 3 { + ",
". ].2 ~ { X L L M N N &.I I ` J K L L M N N O P P Q R R S ` ` ` ` 3.v W Z /./.:.2.2.(.] { ~ 2 + ",
". ].2 ~ { 4.U 5.6.7.8.&.I ` J ` L L M M N O O P Q Q R S S ` ` ` ).|.9.Z Z /.:.:.2.0.(.] { ~ 2 + ",
". ].1 ! 2 3.L h h h e ,.I J K K L M M N O O P P Q R R S T ` a.b.c.d.Z Z /./.:.2.2.0.(.{ 2 ! 1 + ",
". ].| ) 1 2 { 3 ] ^ _ ,.J J K L L M N N O P P Q Q R S S T e.0.f.` g.Z /./.:.:.2.0.0.{.2 1 ) | + ",
". ].| ) ) ! ~ Y 3 ] ^ ,.J K K L M M N O O P Q Q R S S T T U V 1.h.).8./.:.:.2.0.0.o {.! ) ) | + ",
". ]., ' | 1 2 ~ { ] ^ ,.K K L M M N N O P P Q R R S T T U V V W i.k j./.:.2.2.0.o o {.1 | ' , + ",
". ].> } , | 1 ! 2 { ] ,.K L L M N N O P P Q Q R S S T U U V W W Z Z /.:.:.2.0.0.o k.{.| , } > + ",
". ].[ m } ' ) ) 1 2 { b.K L M M N O O P Q Q R R S T T U V V W Z Z /.:.:.2.2.0.o o k.(.' } m [ + ",
". ].; [ > , | ) 1 2 { X L L M N N O P P Q R R S T T U U V W W Z /./.:.2.2.0.o o k.k.X , > [ ; + ",
". ].- < ; > , ' | 1 2 4.U 5.6.7.8.l.A [.6.m.n.n.n.n.n.n.n.n.n.n.n.n.n.o.p.q.[.m.r.h g > ; < - + ",
". ].- < < [ } f ' | 1 3.L h h h e A h h h h h h h h h h h h h h h h h h e A h h h h s.[ < < - + ",
". ].* = - ; > } , ' ) ) ! ~ { { ] ^ / _ ( 0 b a c a b 0 ( _ / ^ ] { { ~ ! ) ) ' , } > ; - = * + ",
". ].& 7 * - ; [ > , | | 1 ! ~ ~ 3 8 8 ^ _ ( 5 0 a 0 5 ( _ ^ 8 8 3 ~ ~ ! 1 | | , > [ ; - * 7 & + ",
". ].: 6 7 = < < ; > , , | 1 2 2 { ] 8 8 / 4 9 5 0 5 9 4 / 8 8 ] { 2 2 1 | , , > ; < < = 7 6 : + ",
". ].% : & * - < < [ } } ' | 1 1 2 { 3 ] ^ _ 4 ( 5 ( 4 _ ^ ] 3 { 2 1 1 | ' } } [ < < - * & : % + ",
". ].# $ % & * = - ; > > , ' ) ) ! ~ ~ { ] ^ / _ ( _ / ^ ] { ~ ~ ! ) ) ' , > > ; - = * & % $ # + ",
". ].].].].].].].].].].].].].].].].].].].].].].].].].].].].].].].].].].].].].].].].].].].].].].+ ",
"+ + + + + + + + + + + + + + + + + + + + + + + + + + + + + + + + + + + + + + + + + + + + + + + + "};
