/* XPM */
static char * image_name[] = {
"48 48 96 2",
"  	c #28A22CB228A2",
". 	c #E79DE79DE79D",
"X 	c #5965618579E7",
"o 	c #A699A289A699",
"O 	c #A699A699A699",
"+ 	c #AEBAAAAAAEBA",
"@ 	c #B6DAB2CAB6DA",
"# 	c #B6DAB6DAB6DA",
"$ 	c #59655D755965",
"% 	c #082004100820",
"& 	c #EFBEF3CEEFBE",
"* 	c #BEFBBAEABEFB",
"= 	c #000000000000",
"- 	c #69A66DB669A6",
"; 	c #10400C301040",
": 	c #71C671C671C6",
"> 	c #20811C712081",
", 	c #BEFBC30BBEFB",
"< 	c #208120812081",
"1 	c #082008200820",
"2 	c #FFFFFFFFFFFF",
"3 	c #69A669A669A6",
"4 	c #DF7DDF7DDF7D",
"5 	c #186118611861",
"6 	c #CF3CCB2BCF3C",
"7 	c #104010401040",
"8 	c #71C675D671C6",
"9 	c #CF3CCF3CCF3C",
"0 	c #D75CD34CD75C",
"q 	c #C71BC71BC71B",
"w 	c #9E799A699E79",
"e 	c #861779E771C6",
"r 	c #8E38861779E7",
"t 	c #A69992488617",
"y 	c #79E775D671C6",
"u 	c #9E7996589E79",
"i 	c #965892489E79",
"p 	c #965892489658",
"a 	c #9658820779E7",
"s 	c #9E79861771C6",
"d 	c #8E386DB65965",
"f 	c #69A655554103",
"g 	c #596559655144",
"h 	c #965896589E79",
"j 	c #8E388E388E38",
"k 	c #8E387DF79658",
"l 	c #79E779E779E7",
"z 	c #AEBAAEBAAEBA",
"x 	c #861775D669A6",
"c 	c #8E386DB65144",
"v 	c #71C65D754924",
"b 	c #61854D3438E3",
"n 	c #8E388A288E38",
"m 	c #8E388A289658",
"M 	c #79E77DF779E7",
"N 	c #79E775D669A6",
"B 	c #79E761854924",
"V 	c #5144451438E3",
"C 	c #492445144103",
"Z 	c #861786178617",
"A 	c #9E799E799658",
"S 	c #61855D755965",
"D 	c #9E799E799E79",
"F 	c #514455555144",
"G 	c #596559655965",
"H 	c #618561856185",
"J 	c #861782078617",
"K 	c #A699A699C71B",
"L 	c #AEBAAEBACF3C",
"P 	c #79E77DF79658",
"I 	c #79E77DF78617",
"U 	c #71C675D69658",
"Y 	c #8E388E38BEFB",
"T 	c #79E775D69E79",
"R 	c #514451446185",
"E 	c #6185659571C6",
"W 	c #5965555569A6",
"Q 	c #514451445144",
"! 	c #28A2249228A2",
"~ 	c #69A669A68617",
"^ 	c #A699618569A6",
"/ 	c #61854D344103",
"( 	c #BEFB69A669A6",
") 	c #8E3861854924",
"_ 	c #B6DAB6DA5144",
"` 	c #8617820771C6",
"' 	c #8E386DB669A6",
"] 	c #79E769A66185",
"[ 	c #AEBAAAAA6185",
"{ 	c #8E388A2879E7",
"} 	c #D75CDB6CD75C",
"| 	c #EFBEEFBEEFBE",
" .	c #38E33CF338E3",
"..	c #492449244924",
"X.	c #8E388E389658",
"o.	c #79E779E78617",
"                                                                                              . ",
"  X X X X X X X X X X X X X X X X X X X X X X X X X X X X X X X X X X X X X X X . . . . . . . . ",
"  X X X X X X X X X X X X X X X X X X X X X X X X X X X X X X X X X X X X X X X . o O + @ # $ . ",
"  X X X X X X X X X X X X X X X X X X X X X X X X X X X X X X X X X X X X X X X . O % % & * $ . ",
"  X X   @ @ @ = - = = = = = = = = = = = = = = = = = = = = - ; @ : o > X X X X X . + % & * , $ . ",
"  X X < * = @ = - = = = = = = = = = = = = = = = = = = = = - 1 > 2 3 = X X X X X . @ & * 1 , $ . ",
"  X X   @ @ @ = 3 = = = = = = = = = = = = = = = = = = = = 3 ; 4 5 +   X X X X X . # * , , 6 $ . ",
"  X X 7 = = = 5 3 1 7 7 7 7 7 7 7 7 7 7 7 7 7 7 7 7 7 7 1 3 > % = ; 5 X X X X X . $ $ $ $ $ $ . ",
"  X X 8 4 9 9 6 6 6 9 0 9 9 9 9 9 9 6 6 6 6 6 6 6 6 q q , , , q q 0 8 X X X X X . . . . . . . . ",
"  X X > + @ @ + @ @ + @ + w e r t y @ @ + w e r t y @ + @ @ + @ @ + 5 X X X X X . o + + @ # $ . ",
"  X X 5 @ w u i p @ @ @ @ a s d f g + @ @ a s d f g @ @ @ + # + @ @ 5 X X X X X . h u i p * $ . ",
"  X X > + j k l j + @ + z x c v b - # + @ x c v b - + @ + @ @ # + @ 5 X X X X X . j k l j , $ . ",
"  X X 5 @ n n m M @ @ @ @ N B V C j + @ @ N B V C j @ @ @ z + @ @ @ 5 X X X X X . n n m Z , $ . ",
"  X X > + A * @ n @ + Z z l S M D + @ n + l S M D + z Z + @ @ @ @ + 5 X X X X X . A * @ n 6 $ . ",
"  X X 5 @ @ + @ @ + # + @ z z z z @ @ + @ @ + @ z @ @ z @ @ + @ @ @ 5 X X X X X . $ $ $ $ $ $ . ",
"  X X 5 2 2 2 2 2 2 2 2 2 2 2 z F z F @ G + G z G + G + G + G + G + 5 X X X X X . . . . . . . . ",
"  X X 5 2 + @ + @ H + @ + @ = F z F z F z G + G + G + G + G @ F @ F 5 X X X X X . o O + @ # $ . ",
"  X X > 2 = = = = = = = = = = z F z F z F @ F @ F @ F @ G + G + F @ 5 X X X X X . J K L P * $ . ",
"  X X > 6 9 9 9 9 9 9 9 9 9 6 9 6 9 6 9 6 6 9 6 9 6 9 6 6 9 9 9 9 6 5 X X X X X . I U Y T , $ . ",
"  X X 5 2 2 2 @ + @ + @ + 2 $ + $ + @ + @ @ + 2 $ + G @ @ + @ + @ + 5 X X X X X . T k R U , $ . ",
"  X X > 2 +   + # @ @ @ @ 2 G $ @ $ @ @ z @ @ 2 G $ @ G @ @ @ @ @ @ 5 X X X X X . E W Q u 6 $ . ",
"  X X > 2 +   @ + @ + @ + 2 $ + G @ + @ + @ + 2 $ + $ + @ + @ + @ + 5 X X X X X . $ $ $ $ $ $ . ",
"  X X > 2 H ! @ @ @ @ @ @ 2 G 2 2 2 @ @ @ @ @ 2 G $ @ $ @ @ @ @ @ @ 5 X X X X X . . . . . . . . ",
"  X X > 2 @ ! @ + @ + @ + 2 G 2 + 5 + @ + @ + 2 $ + $ + @ + @ + @ + 5 X X X X X . U ~ ~ + # $ . ",
"  X X > 2 +   + # @ @ @ @ 2 G 2 l 7 @ @ @ @ @ 2 G $ @ $ @ @ @ @ @ @ 5 X X X X X . ^ / 8 M * $ . ",
"  X X 5 2 @ ! @ + @ + @ + 2 G 2 z 7 + @ + @ + 2 $ + $ + @ + @ + @ + 5 X X X X X . ( ) _ ` , $ . ",
"  X X > 2 ! ! @ @ @ @ @ @ 2 G 2 + 5 @ @ @ @ @ 2 G $ @ $ @ @ @ @ @ @ 5 X X X X X . ' ] [ { , $ . ",
"  X X > + G + @ + @ + @ + 2 G 2 7 7 + @ + @ + 2 $ + $ + @ + @ + @ + 5 X X X X X . # * , , 6 $ . ",
"  X X 5 G + G @ @ @ @ @ @ 2 G G + $ @ @ @ @ @ 2 G $ @ $ @ @ @ @ @ @ 5 X X X X X . $ $ $ $ $ $ . ",
"  X X > + G + @ + @ + @ + 2 $ + H + @ @ + @ + 2 $ + $ + @ + @ + @ + 5 X X X X X X X X X X X X . ",
"  X X > G + G @ @ @ @ @ @ 2 G $ + $ @ + # @ @ 2 G $ @ $ @ @ @ @ @ @ 5 X X X X X X X X X X X X . ",
"  X X 5 + G + @ + @ + @ + 2 $ + $ @ @ @ + @ + 2 $ + $ + @ + @ + @ + 5 X X X X X X X X X X X X . ",
"  X X 5 . 0 } } + + 0 } } } 0 } } 0 } } } } } } 0 } } } + + 0 } 4 + 1 X X X X X X X X X X X X . ",
"  X X   | Z Z n 8 0 o Z Z Z n Z n Z n Z Z Z Z Z n n Z n 8 0 o Z n M ; X X X X X X X X X X X X . ",
"  X X X X X X X X X X X X X X X X X X X X X X X X X X X X X X X X X X X X X X X X X X X X X X . ",
"  X X X X X X X X X X X X X X X X X X X X X X X X X X X X X X X X X X X X X X X X X X X X X X . ",
"  X X X X X X X X X X X X X X X X X X X X X X X X X X X X X X X X X X X X X X X X X X X X X X . ",
"  X X X X X X X X X X X X X X X X X X X X X X X X X X X X X X X X X X X X X X X X X X X X X X . ",
"  X X X X X X X X X X X X X X X X X X X X X X X X X X X X X X X X X X X X X X X X X X X X X X . ",
"  X X X X X X X X X X X X X X X X X X X X X X X X X X X X X X X X X X X X X X X X X X X X X X . ",
"  % % % % % %  . .% % % % % % X X X X X X X X X X X X X X X X X X X X X X X X X X X X X X X X . ",
"  % % % % % % ....% % % % % % X X X X X X X X X X X X X X X X X X X X X X X X X X X X X X X X . ",
"  . h u i p * 3 . w u i p * $ X X X X X X X X X X X X X X X X X X X X X X X X X X X X X X X X . ",
"  . X.o.l j , $ . j k l j , $ X X X X X X X X X X X X X X X X X X X X X X X X X X X X X X X X . ",
"  . n m m Z , $ . n n m Z , $ X X X X X X X X X X X X X X X X X X X X X X X X X X X X X X X X . ",
"  . A * @ n 6 $ . A * @ n 6 $ X X X X X X X X X X X X X X X X X X X X X X X X X X X X X X X X . ",
"  . $ $ $ $ $ $ . $ $ $ $ $ $ X X X X X X X X X X X X X X X X X X X X X X X X X X X X X X X X . ",
". . . . . . . . . . . . . . . . . . . . . . . . . . . . . . . . . . . . . . . . . . . . . . . . "};
