/* XPM */
static char * image_name[] = {
"48 48 169 2",
"  	c #000018611861",
". 	c #00009A69A699",
"X 	c #0000A2899E79",
"o 	c #1040A2899E79",
"O 	c #0000A289A699",
"+ 	c #08209E799E79",
"@ 	c #0000A2898E38",
"# 	c #0820A6999E79",
"$ 	c #0820AAAAA699",
"% 	c #00009E79A699",
"& 	c #0000AAAA9E79",
"* 	c #0000AAAAA699",
"= 	c #08209E79A699",
"- 	c #08209A699E79",
"; 	c #00009A699E79",
": 	c #0820A699A699",
"> 	c #0000AEBA9E79",
", 	c #0000A699A699",
"< 	c #0820A2899E79",
"1 	c #E79DE38DE79D",
"2 	c #DF7DE38DDF7D",
"3 	c #DF7DDF7DDF7D",
"4 	c #D75CDB6CD75C",
"5 	c #D75CD75CD75C",
"6 	c #D75CD34CD75C",
"7 	c #B6DAB6DAB6DA",
"8 	c #D75CF3CEEFBE",
"9 	c #0820A289A699",
"0 	c #0000A289AEBA",
"q 	c #0820A289AEBA",
"w 	c #0000A699AEBA",
"e 	c #0000A6999E79",
"r 	c #CF3CCB2BCF3C",
"t 	c #C71BC71BC71B",
"y 	c #C71BC30BC71B",
"u 	c #BEFBBAEABEFB",
"i 	c #861782078617",
"p 	c #0000AEBAA699",
"a 	c #0000B2CAA699",
"s 	c #00009658A699",
"d 	c #00009E799658",
"f 	c #0820A6999658",
"g 	c #0000B2CAAEBA",
"h 	c #08209A69A699",
"j 	c #00009E799E79",
"k 	c #AEBAAEBAAEBA",
"l 	c #0820AEBAA699",
"z 	c #0820A2899658",
"x 	c #082092489E79",
"c 	c #0000A6999658",
"v 	c #0820AAAA9E79",
"b 	c #B6DAB2CAB6DA",
"n 	c #AEBAAAAAAEBA",
"m 	c #79E77DF779E7",
"M 	c #000096589658",
"N 	c #0820AAAA9658",
"B 	c #00009A699658",
"V 	c #0820AEBA9658",
"C 	c #A699A699A699",
"Z 	c #00009A698E38",
"A 	c #0000AAAA9658",
"S 	c #00009E79AEBA",
"D 	c #9E799E799E79",
"F 	c #79E779E779E7",
"G 	c #08209E799658",
"H 	c #1040A6999E79",
"J 	c #9E799A699E79",
"K 	c #71C675D671C6",
"L 	c #0820A699AEBA",
"P 	c #00008E389658",
"I 	c #00008A288E38",
"U 	c #1861820779E7",
"Y 	c #18617DF779E7",
"T 	c #18617DF78617",
"R 	c #186175D679E7",
"E 	c #1040820779E7",
"W 	c #9E79A2899E79",
"Q 	c #965896589658",
"! 	c #18618A288617",
"~ 	c #104071C671C6",
"^ 	c #10407DF771C6",
"/ 	c #00006DB66185",
"( 	c #00006DB669A6",
") 	c #082069A66185",
"_ 	c #000065956185",
"` 	c #000069A669A6",
"' 	c #0000618569A6",
"] 	c #104071C669A6",
"[ 	c #8E388E388E38",
"{ 	c #71C671C671C6",
"} 	c #00008E389E79",
"| 	c #104075D671C6",
" .	c #000069A66185",
"..	c #000061856185",
"X.	c #082071C669A6",
"o.	c #08207DF78617",
"O.	c #0000A2899658",
"+.	c #861786178617",
"@.	c #D75CEFBEEFBE",
"#.	c #104079E779E7",
"$.	c #08206DB669A6",
"%.	c #0000659569A6",
"&.	c #000071C66185",
"*.	c #082079E771C6",
"=.	c #000071C669A6",
"-.	c #082065956185",
";.	c #104075D679E7",
":.	c #082069A669A6",
">.	c #38E3A2899E79",
",.	c #4103AAAAAEBA",
"<.	c #4924B2CAAEBA",
"1.	c #965892489658",
"2.	c #18618A2879E7",
"3.	c #4924B2CAA699",
"4.	c #5965C71BBEFB",
"5.	c #5965C30BC71B",
"6.	c #5965C30BBEFB",
"7.	c #5144BEFBB6DA",
"8.	c #8E388A288E38",
"9.	c #00005D756185",
"0.	c #4924B2CAB6DA",
"q.	c #6185CB2BC71B",
"w.	c #5965C71BC71B",
"e.	c #6185BEFBBEFB",
"r.	c #082079E779E7",
"t.	c #000065955965",
"y.	c #4924AEBAAEBA",
"u.	c #5965BEFBBEFB",
"i.	c #28A292489658",
"p.	c #08209A698E38",
"a.	c #08206DB671C6",
"s.	c #4924AEBAB6DA",
"d.	c #6185C30BBEFB",
"f.	c #5965CB2BC71B",
"g.	c #5144B6DAAEBA",
"h.	c #08209658A699",
"j.	c #08208A288E38",
"k.	c #08206DB66185",
"l.	c #5965BEFBC71B",
"z.	c #61855D756185",
"x.	c #10406DB671C6",
"c.	c #4103A6999E79",
"v.	c #38E3A289A699",
"b.	c #38E39E79A699",
"n.	c #30C29E799E79",
"m.	c #5144BEFBBEFB",
"M.	c #5965BAEABEFB",
"N.	c #186186178617",
"B.	c #6185BEFBC71B",
"V.	c #08209E79AEBA",
"C.	c #0820B2CAA699",
"Z.	c #20818A288617",
"A.	c #4924BAEAB6DA",
"S.	c #208186178E38",
"D.	c #5144B2CAB6DA",
"F.	c #514455555144",
"G.	c #00008A288617",
"H.	c #000092488617",
"J.	c #5144C30BBEFB",
"K.	c #30C296588E38",
"L.	c #0000AAAAAEBA",
"P.	c #4924B6DABEFB",
"I.	c #30C29A698E38",
"U.	c #30C296589E79",
"Y.	c #4103AAAA9E79",
"T.	c #20817DF78617",
"R.	c #0820AAAAAEBA",
"E.	c #000096589E79",
"W.	c #08209248AEBA",
"                                                                                                ",
"  . X o O + @ # X $ # % & . & . X * = & . - ; $ : > # , # < & . & O X * = 1 2 2 3 4 4 5 6 6 7 8 ",
"  < * O X = 9 # < < - # 9 = . $ 0 q w X 9 X > . - $ < = # e 9 = . : 0 q w 1 3 4 6 r t y u 7 i 8 ",
"  + < p < a + # O : $ s < * , d & O , f = 9 9 : g h . j : o < p # < & O , 2 4 6 r t y u 7 k i 8 ",
"  < % l 0 X z f & O @ x * : # + j 9 # c v : . X j . # = O j * : e + j 9 # 3 5 r t y u 7 b n m 8 ",
"  e $ O O M + j X v ; * < j j N O # # j : O B # j e O # c * < ; j V . v e 3 r t y u 7 b n C m 8 ",
"  : j h j Z q M = j + O q : e e & A : . ; o 9 O S : O # : O q : # e & A : 4 t t u 7 b k C D F 8 ",
"  j + B $ : G # c d H * @ : : 9 + % e + + X 9 < e B X c ; < f , : 9 + % e 4 y u 7 b n C D J K 8 ",
"  x * o L O : c 9 = # X . O j O + P I U Y Y T R E T T I G B . w j O : O ; 5 u 7 b k C W J Q K 8 ",
"  O + = < $ O # = O w j % v O ! ! ~ ^ / / ( ) _ _ ` ' ' ] E % l O < * + l 6 u b k C W J Q [ { 8 ",
"  o . * & ; d c H # # . $ } E |  ./  . .' .._ ( ` ) ) ' ..` X.o.Z O.j # # 7 +.i m m F K K { { @.",
"  q $ , + ; ; : j j , * X #.$./ (  ._ / / '  .%. .&._ / ) ' / ' *.Z : # ; 1 2 2 3 4 4 5 5 r b @.",
"  * e j $ f . , % G % h o.=.` -.-. .` _ ` (  .`  .` X. .` X.| | | ;.Y E ! k n 4 6 r t y u 7 i 8 ",
"  $ - v d & X N $ # M E :.$.' :._  .`  ./ (  .) ) ` )  .| >.,.<.,.,.Y  . .1.[ 6 r t y u 7 k i 8 ",
"  < = q . : # j : - 2.=. .:.) ) =._  .( ` ( _  ._ ' -._ *.3.4.5.6.6.7.Y  .1.8.r t y u 7 b n m 8 ",
"  9 z S # < } . < M ' / ` ` X.( -.) =.' `  .) 9.) _ / :.*.0.6.6.q.w.e.0.*.[ +.t y u 7 b n C m 8 ",
"  % , w B o # < . r.t._ `  .:./ ' _ ` :.( ) ( ' ` -.t. .| y.5.6.w.4.u.u.i.[ i y u 7 b k C D F 8 ",
"  0 # # = O.X < p.a.' ' -.) _ -.=... ._ _ `  .( ' ' _ ) ;.s.u.6.u.d.f.u.g.1.m u u b n C D J K 8 ",
"  a h.+ < . ; o j.=. ./ '  . ._ ` k.:.t.` %. ./ / &._ t.;.y.l.d.6.6.6.4.u.D m 7 b n C W J Q K 8 ",
"  # j . B < A < #.( / `  .:.`  . ./ ) ) &.' -.&.` ( %.) *.<.6.6.5.6.6.4.6.7 K b k C W J Q [ { 8 ",
"  , < w + A O p $.) ' )  .(  .' ' %.$._ ` ( / ( ' `  ._ ;.y.6.4.6.5.u.l.w.7 z.i m m F K K { { @.",
"  j O : a # - + _ k. ._ %.( _ `  .` ) :.' ( &.' / ` / _ ] <.l.4.6.6.6.6.q.4 W 2 3 4 4 5 5 r b 8 ",
"  j h 9 # + : < %.` /  . ./ ` )  . .)  .) ( ` %.` _ ( ) x.<.6.4.5.4.6.6.6.4 D 4 6 r t y u 7 i 8 ",
"  = & : = j : B _ ` ` t._ ) ) ( :. .Y c.v.>.>.>.b.v.n.v.,.m.6.6.6.4.5.6.M.4 J 6 r t y u 7 k i 8 ",
"  - % . M 9 < O. .'  .` -._  .)  ...N.M.5.u.6.e.6.4.u.w.4.B.u.6.6.4.6.u.4.4 Q r t y u 7 b n m 8 ",
"  O ; V., < * 0 X.) ) ) ) _ $.( _ -.2.M.4.4.6.l.e.6.5.4.l.4.q.u.q.4.M.d.4.6 1.t y u 7 b n C m 8 ",
"  j p p # # s C.;. .-. .) $._ -.` -.Z.4.6.6.4.4.u.6.4.u.w.6.6.w.6.u.5.u.l.y i y u u b n C D F 8 ",
"  # O : j . $ O I _ %...-._ :.' )  .N.4.u.q.4.4.6.5.4.6.4.6.u.u.d.6.6.6.4.C m u 7 b n C D J K 8 ",
"  : O e ; s O + + X.) :._ 9._ / ` k.N.d.6.l.5.u.6.4.u.u.l.4.6.u.u.4.6.4.A.1.m 7 b k C W J Q K 8 ",
"  O d : . # 9 d < r.$.` ` / _ ` / ` N.4.4.6.4.w.u.u.l.6.w.w.6.4.u.w.4.w.Z.8.K b k C W J Q [ { 8 ",
"  w q % d & C.# O M :.) _ )  .' _ ) S.u.4.u.e.6.6.u.d.w.u.6.6.6.4.6.6.D.#.K F.i m m F K K { { @.",
"  $ B h < + o # j f P =. ./ / ( ../ U 6.u.5.6.6.u.w.w.w.l.6.f.4.4.4.s.U / Q Q 2 3 4 4 5 5 r b 8 ",
"  9 ; . O , 9 = G.H.G.*._ ^ ~ ^ ^ ^ i.M.u.5.4.4.4.u.u.4.q.f.M.6.M.J.S.&.' Q [ 4 6 r t y u 7 i 8 ",
"  . 9 0 # # : ; _ -.`  .$.n.0.7.0.<.m.l.6.6.4.u.6.5.w.u.e.d.6.4.m.K.` ..( 1.[ 6 r t y u 7 k i 8 ",
"  h + # X ; L.. _ ' ( :. .%.Z.P.u.u.u.u.4.u.l.6.5.u.6.4.6.u.u.s.#.`  ._ ' 1.8.r t y u 7 b n m @.",
"  p O A h.= & # / ( _  .`  .-.Y I.6.7.4.w.6.w.6.u.w.u.l.5.7.U.| _ :./ $./ 1.+.t y u 7 b n C m 8 ",
"  L % : $ j . #  .( _  .&.' =.' %.X.i.Y.,.D.6.w.6.P.<.v.i.X.&.' =.' ` / ` [ i y u 7 b k C D F 8 ",
"  j V < < = . X ) ' (  .`  ._ -._ / -.) *.#.T.N.U #.| $.) _ :./ _ -.-./ %.8.m u u b n C D J K 8 ",
"  e O o x , & < % $ j < O f . O.+ A X . * L.l 9 X . O., O R.O f . # o A # 5 u 7 b n C W J Q K 8 ",
"  = < & 9 > O.: = X . < j v h d : o , d + $ X 0 e ; : # # * j $ % < : + , 6 u b k C W J Q [ { 8 ",
"  0 M O.O.B w ; : < * ; $ j j q * j O < a : h O h = 9 + = O $ < , 0 * . : 7 +.i m m F K K { { @.",
"  + $ p.O S j j # 9 . v * h : $ M , # M j h j o : w v < < G * h.: $ j , # j j h < o : w v < X @.",
"  < : E.# + < E.E.= + O.d + # : = j < ; j 0 & X < w o w O Z d < # : = j < j j 0 p X # w o w , 8 ",
"  - : , * , : N # j L.X . O : - L = , O : : O * # . V.9 E.O % O : - L = , O : : O * # % L 9 ; 8 ",
"  * = & O + ; $ : > # , # # : < e & % : O.j O w a p v : > 0 : # : < # > . $ e < O w a p v : > 8 ",
"  q w j = X > . - $ # = # X < 9 , & f # O # ; ; e # O + * * # X < O , e # # O * ; 9 e e O - p 8 ",
"  O , A o 9 O : g h . j : o : < W.+ # c a O q 9 - O j B . = $ o : < W.+ * c p O q 9 - w < B . 8 ",
"  8 8 8 8 8 @.8 8 8 8 8 8 8 8 8 8 @.@.8 8 8 8 8 8 8 8 8 8 8 8 8 8 8 8 8 @.8 8 8 8 8 8 8 8 8 8 8 "};
