/* XPM */
static char * image_name[] = {
"48 48 74 1",
" 	c #294A294A294A",
".	c #E738E738E738",
"X	c #5AD663187BDE",
"o	c #A528A528A528",
"O	c #AD6AAD6AAD6A",
"+	c #B5ACB5ACB5AC",
"@	c #5AD65AD65AD6",
"#	c #084208420842",
"$	c #EF7AEF7AEF7A",
"%	c #BDEEBDEEBDEE",
"&	c #000000000000",
"*	c #6B5A6B5A6B5A",
"=	c #108410841084",
"-	c #739C739C739C",
";	c #210821082108",
":	c #FFFFFFFFFFFF",
">	c #DEF6DEF6DEF6",
",	c #18C618C618C6",
"<	c #CE72CE72CE72",
"1	c #D6B4D6B4D6B4",
"2	c #C630C630C630",
"3	c #9CE69CE69CE6",
"4	c #84207BDE739C",
"5	c #8C6284207BDE",
"6	c #A52894A48420",
"7	c #7BDE739C739C",
"8	c #9CE694A49CE6",
"9	c #94A494A49CE6",
"0	c #94A494A494A4",
"q	c #94A484207BDE",
"w	c #9CE68420739C",
"e	c #8C626B5A5AD6",
"r	c #6B5A5AD64210",
"t	c #5AD65AD65294",
"y	c #8C628C628C62",
"u	c #8C627BDE94A4",
"i	c #7BDE7BDE7BDE",
"p	c #8420739C6B5A",
"a	c #8C626B5A5294",
"s	c #739C5AD64A52",
"d	c #63184A5239CE",
"f	c #8C628C6294A4",
"g	c #7BDE739C6B5A",
"h	c #7BDE63184A52",
"j	c #5294421039CE",
"k	c #4A5242104210",
"l	c #842084208420",
"z	c #9CE69CE694A4",
"x	c #63185AD65AD6",
"c	c #529452945294",
"v	c #631863186318",
"b	c #A528A528C630",
"n	c #AD6AAD6ACE72",
"m	c #7BDE7BDE94A4",
"M	c #7BDE7BDE8420",
"N	c #739C739C94A4",
"B	c #8C628C62BDEE",
"V	c #7BDE739C9CE6",
"C	c #529452946318",
"Z	c #63186318739C",
"A	c #5AD652946B5A",
"S	c #6B5A6B5A8420",
"D	c #A52863186B5A",
"F	c #63184A524210",
"G	c #BDEE6B5A6B5A",
"H	c #8C6263184A52",
"J	c #B5ACB5AC5294",
"K	c #84208420739C",
"L	c #8C626B5A6B5A",
"P	c #7BDE6B5A6318",
"I	c #AD6AAD6A6318",
"U	c #8C628C627BDE",
"Y	c #39CE39CE39CE",
"T	c #4A524A524A52",
"                                               .",
" XXXXXXXXXXXXXXXXXXXXXXXXXXXXXXXXXXXXXXX........",
" XXXXXXXXXXXXXXXXXXXXXXXXXXXXXXXXXXXXXXX.ooO++@.",
" XXXXXXXXXXXXXXXXXXXXXXXXXXXXXXXXXXXXXXX.o##$%@.",
" XX +++&*&&&&&&&&&&&&&&&&&&&&*=+-o;XXXXX.O#$%%@.",
" XX;%&+&*&&&&&&&&&&&&&&&&&&&&*#;:*&XXXXX.+$%#%@.",
" XX +++&*&&&&&&&&&&&&&&&&&&&&*=>,O XXXXX.+%%%<@.",
" XX=&&&,*#==================#*;#&=,XXXXX.@@@@@@.",
" XX-><<<<<<1<<<<<<<<<<<<<<22%%%221-XXXXX........",
" XX;O++O++O+O34567++O34567+O++O++O,XXXXX.oOO++@.",
" XX,+3890++++qwertO++qwert+++O+O++,XXXXX.9890%@.",
" XX;OyuiyO+OOpasd*+O+pasd*O+O+++O+,XXXXX.yuiy%@.",
" XX,+yyfi++++ghjkyO++ghjky+++OO+++,XXXXX.yyfl%@.",
" XX;Oz%+y+OlOixi3O+yOixi3OOlO++++O,XXXXX.z%+y<@.",
" XX,++O++O+O+OOOO++O++O+O++O++O+++,XXXXX.@@@@@@.",
" XX,:::::::::::OcOc+@O@O@O@O@O@O@O,XXXXX........",
" XX,:O+O+vO+O+&cOcOcO@O@O@O@O@+c+c,XXXXX.ooO++@.",
" XX;:&&&&&&&&&&OcOcOc+c+c+c+@O@Oc+,XXXXX.lbnm%@.",
" XX;<<<<<<<<<<<<<<<<<<<<<<<<<<<<<<,XXXXX.MNBV%@.",
" XX,:::+O+O+O:@O@O+O++O:@O@++O+O+O,XXXXX.VuCN%@.",
" XX;:O O+++++:@@+@++O++:@@+@++++++,XXXXX.ZAc8<@.",
" XX;:O +O+O+O:@O@+O+O+O:@O@O+O+O+O,XXXXX.@@@@@@.",
" XX;:v ++++++:@:::+++++:@@+@++++++,XXXXX........",
" XX;:+ +O+O+O:@:O,O+O+O:@O@O+O+O+O,XXXXX.NSSO+@.",
" XX;:O O+++++:@:i=+++++:@@+@++++++,XXXXX.DF-i%@.",
" XX,:+ +O+O+O:@:O=O+O+O:@O@O+O+O+O,XXXXX.GHJK%@.",
" XX;:  ++++++:@:O,+++++:@@+@++++++,XXXXX.LPIU%@.",
" XX;O@O+O+O+O:@:==O+O+O:@O@O+O+O+O,XXXXX.+%%%<@.",
" XX,@O@++++++:@@O@+++++:@@+@++++++,XXXXX.@@@@@@.",
" XX;O@O+O+O+O:@OvO++O+O:@O@O+O+O+O,XXXXXXXXXXXX.",
" XX;@O@++++++:@@O@+O+++:@@+@++++++,XXXXXXXXXXXX.",
" XX,O@O+O+O+O:@O@+++O+O:@O@O+O+O+O,XXXXXXXXXXXX.",
" XX,.111OO111111111111111111OO11>O#XXXXXXXXXXXX.",
" XX $lly-1olllylylylllllyyly-1olyi=XXXXXXXXXXXX.",
" XXXXXXXXXXXXXXXXXXXXXXXXXXXXXXXXXXXXXXXXXXXXXX.",
" XXXXXXXXXXXXXXXXXXXXXXXXXXXXXXXXXXXXXXXXXXXXXX.",
" XXXXXXXXXXXXXXXXXXXXXXXXXXXXXXXXXXXXXXXXXXXXXX.",
" XXXXXXXXXXXXXXXXXXXXXXXXXXXXXXXXXXXXXXXXXXXXXX.",
" XXXXXXXXXXXXXXXXXXXXXXXXXXXXXXXXXXXXXXXXXXXXXX.",
" XXXXXXXXXXXXXXXXXXXXXXXXXXXXXXXXXXXXXXXXXXXXXX.",
" ######YY######XXXXXXXXXXXXXXXXXXXXXXXXXXXXXXXX.",
" ######TT######XXXXXXXXXXXXXXXXXXXXXXXXXXXXXXXX.",
" .9890%*.3890%@XXXXXXXXXXXXXXXXXXXXXXXXXXXXXXXX.",
" .fMiy%@.yuiy%@XXXXXXXXXXXXXXXXXXXXXXXXXXXXXXXX.",
" .yffl%@.yyfl%@XXXXXXXXXXXXXXXXXXXXXXXXXXXXXXXX.",
" .z%+y<@.z%+y<@XXXXXXXXXXXXXXXXXXXXXXXXXXXXXXXX.",
" .@@@@@@.@@@@@@XXXXXXXXXXXXXXXXXXXXXXXXXXXXXXXX.",
"................................................"};
