/* XPM */
static char * image_name[] = {
"48 48 54 1",
" 	c None",
".	c #082004100820",
"X	c #082008200820",
"o	c #000000000000",
"O	c #186118611861",
"+	c #186114511861",
"@	c #20811C712081",
"#	c #38E33CF338E3",
"$	c #410345144103",
"%	c #69A66DB669A6",
"&	c #8E388A288E38",
"*	c #596559655965",
"=	c #AEBAAAAAAEBA",
"-	c #AEBAAEBAAEBA",
";	c #A699A699A699",
":	c #965896589658",
">	c #10400C301040",
",	c #49244D344924",
"<	c #B6DAB6DAB6DA",
"1	c #8E388E388E38",
"2	c #79E779E779E7",
"3	c #30C230C230C2",
"4	c #71C671C671C6",
"5	c #861786178617",
"6	c #B6DABAEAB6DA",
"7	c #BEFBC30BBEFB",
"8	c #30C234D330C2",
"9	c #79E77DF779E7",
"0	c #9E799A699E79",
"q	c #618565956185",
"w	c #59655D755965",
"e	c #71C675D671C6",
"r	c #861782078617",
"t	c #514451445144",
"y	c #28A228A228A2",
"u	c #208120812081",
"i	c #B6DAB2CAB6DA",
"p	c #9E799E799E79",
"a	c #965892489658",
"s	c #38E338E338E3",
"d	c #28A2249228A2",
"f	c #BEFBBEFBBEFB",
"g	c #492449244924",
"h	c #C71BC71BC71B",
"j	c #A699A289A699",
"k	c #C71BCB2BC71B",
"l	c #104010401040",
"z	c #618561856185",
"x	c #69A669A669A6",
"c	c #514455555144",
"v	c #410341034103",
"b	c #CF3CCF3CCF3C",
"n	c #DF7DE38DDF7D",
"m	c #D75CD34CD75C",
"                                                ",
"                                                ",
"                                                ",
"                                 .X.oOOO+++o    ",
"                             o@#$%&&*=---;:$>   ",
"                            o,:=<;12%*+34567,   ",
"                           O4=:8XXX... o.XX92   ",
"                          30=,..oooooooooooq%   ",
"                        o,;=wwe&1rt>.oooooy5too ",
"                      ou5=:2&-iii<6<%Xoooo#&@oo ",
"                     o3p=5ratsyyddywfgoooXweooo ",
"                   o+*-p91a3oooooooo:qoooy53ooo ",
"                   y0<1ra$Oooooooooo9qoo>*2Xooo ",
"                 >$i=9&:s.oooooooooo5*oou5yoooo ",
"                Orh040ay.ooooooooooy1#o>q4>oooo ",
"               djkre<t.oooooooooooowr.X*5uooooo ",
"             l47<e&=8ooooooooooooo3ago+&yoooooo ",
"           o+:kp2;2oooooooooooooo.wrX+a,.oooooo ",
"          Xuifa5jtooooooooooooooX,1zx:z+ooooooo ",
"         l2hi&:4y.oooooooooooo.@ca9r98loooooooo ",
"       .u1h0&jwXooooooooooooo.$:1r&9uooooooooo  ",
"      >t<<5jruXoooooooooooooy*;&&&8+oooooooooo  ",
"     lehj56e>ooooooooooooo #;jra5yooooooooooo   ",
"   .v:k1:7x.oooooooooooo uz6a9p$Xooooooooooo    ",
"  .qbfr-j>ooooooooooooooyp62&p3oooooooooooo     ",
"  5n<r=%Xooooooooooooolqf;e0woooooooooooooo     ",
"  sj<:@ooooooooooooood06:r5voooooooooooooo      ",
"  og=yooooooooooooo+y--1&q>ooooooooooooo        ",
"   >&tXoooooooooooOaf;&1g.ooooooooooooo         ",
"  oos:gXooooooool8;<aazu.ooooooooooooo          ",
" ooo.g:#.ooooooO97j&:tXooooooooooooo            ",
" ooooOaa>oooo>,pf105lXoooooooooooo              ",
" oooooyp%.ooX2kir=4.ooooooooooooo               ",
" oooooosjx.c=mp&:looooooooooooo                 ",
"  oooooog:&bm11%>ooooooooooooo                  ",
"  oooooooe-k:28.ooooooooooooo                   ",
"   ooooooOx=9@ooooooooooooo                     ",
"    oooooo>8looooooooooooo                      ",
"    ooooooooooooooooooooo                       ",
"     oooooooooooooooooo                         ",
"      ooooooooooooooo                           ",
"       ooooooooooooo                            ",
"        ooooooooooo                             ",
"        ooooooooo                               ",
"         ooooooo                                ",
"           oooo                                 ",
"                                                ",
"                                                "};
