/* XPM */
static char * DefaultAppIcon_xpm[] = {
"48 48 795 2",
"  	c None",
". 	c #3D3D99",
"+ 	c #6464F4",
"@ 	c #6262EE",
"# 	c #5E5EE8",
"$ 	c #5B5BE0",
"% 	c #5757D5",
"& 	c #5656D2",
"* 	c #5353CD",
"= 	c #5252CB",
"- 	c #5D5DE3",
"; 	c #6060EB",
"> 	c #5E5EE5",
", 	c #5B5BDF",
"' 	c #5959D9",
") 	c #5555D1",
"! 	c #5252CA",
"~ 	c #5151C8",
"{ 	c #5252C9",
"] 	c #5353CC",
"^ 	c #5454CE",
"/ 	c #5454CF",
"( 	c #5555CD",
"_ 	c #4444A9",
": 	c #6969F5",
"< 	c #6666F0",
"[ 	c #5F5FE4",
"} 	c #5151C7",
"| 	c #5050C5",
"1 	c #5050C4",
"2 	c #4F4FC2",
"3 	c #4E4EC0",
"4 	c #4D4DBD",
"5 	c #4B4BBA",
"6 	c #4949B4",
"7 	c #39398C",
"8 	c #1B1B47",
"9 	c #871919",
"0 	c #E82F2F",
"a 	c #F33232",
"b 	c #EE2F2F",
"c 	c #781717",
"d 	c #5656C2",
"e 	c #6A6AF6",
"f 	c #6161E7",
"g 	c #5A5AD8",
"h 	c #5454CD",
"i 	c #5252C7",
"j 	c #4F4FC3",
"k 	c #4C4CBA",
"l 	c #3E3E99",
"m 	c #353583",
"n 	c #292968",
"o 	c #1E1E4B",
"p 	c #131333",
"q 	c #04040E",
"r 	c #000001",
"s 	c #AA1E1E",
"t 	c #D02626",
"u 	c #DF2A2A",
"v 	c #8B1A1A",
"w 	c #0D0000",
"x 	c #6B6BF9",
"y 	c #6666F2",
"z 	c #5B5BDC",
"A 	c #5252C8",
"B 	c #4C4CBB",
"C 	c #2E2E73",
"D 	c #080816",
"E 	c #010104",
"F 	c #000002",
"G 	c #000000",
"H 	c #A91E1E",
"I 	c #D62828",
"J 	c #AD2020",
"K 	c #0F0000",
"L 	c #5F5FE3",
"M 	c #4E4EBE",
"N 	c #39398E",
"O 	c #141435",
"P 	c #4D0D0D",
"Q 	c #B52121",
"R 	c #CC2525",
"S 	c #180303",
"T 	c #6A6AF4",
"U 	c #1B1B44",
"V 	c #020206",
"W 	c #681111",
"X 	c #B72121",
"Y 	c #3C0A0A",
"Z 	c #030000",
"` 	c #5B5BD1",
" .	c #6565EF",
"..	c #5757D3",
"+.	c #5151C6",
"@.	c #212155",
"#.	c #030308",
"$.	c #901A1A",
"%.	c #6E1313",
"&.	c #0A0000",
"*.	c #5A5ADB",
"=.	c #5050C3",
"-.	c #4C46AA",
";.	c #564095",
">.	c #5B4195",
",.	c #564096",
"'.	c #51419B",
").	c #4E42A0",
"!.	c #4B45AB",
"~.	c #4C4AB6",
"{.	c #4A4AB5",
"].	c #282866",
"^.	c #060611",
"/.	c #771616",
"(.	c #A21E1E",
"_.	c #120202",
":.	c #6B6BF7",
"<.	c #5D5DE1",
"[.	c #4D429F",
"}.	c #8F363F",
"|.	c #DF680F",
"1.	c #E67A0F",
"2.	c #E37410",
"3.	c #D96617",
"4.	c #CE5B20",
"5.	c #AB453C",
"6.	c #7F375B",
"7.	c #4E3B8F",
"8.	c #4C4CBC",
"9.	c #313179",
"0.	c #0C0C23",
"a.	c #A71F1F",
"b.	c #160303",
"c.	c #6767F6",
"d.	c #6161EA",
"e.	c #65367B",
"f.	c #DD6211",
"g.	c #F59301",
"h.	c #F59001",
"i.	c #F59100",
"j.	c #F59200",
"k.	c #F69500",
"l.	c #F49701",
"m.	c #E57908",
"n.	c #943537",
"o.	c #483D95",
"p.	c #4E4EC1",
"q.	c #151535",
"r.	c #E7E7E9",
"s.	c #350808",
"t.	c #6565F3",
"u.	c #5B5BDD",
"v.	c #8B363F",
"w.	c #AE3912",
"x.	c #B73805",
"y.	c #BC3B01",
"z.	c #C33E00",
"A.	c #E25A00",
"B.	c #F38400",
"C.	c #F69600",
"D.	c #E16B08",
"E.	c #682A53",
"F.	c #4847B0",
"G.	c #4F4FC4",
"H.	c #4F4FC0",
"I.	c #40409E",
"J.	c #FBFBFB",
"K.	c #FCFCFC",
"L.	c #FAFAFA",
"M.	c #F8F8F8",
"N.	c #F5F5F5",
"O.	c #CACACA",
"P.	c #707072",
"Q.	c #5A0F0F",
"R.	c #290505",
"S.	c #6262EA",
"T.	c #6363EF",
"U.	c #5858D6",
"V.	c #4D4CB9",
"W.	c #41327B",
"X.	c #3A1432",
"Y.	c #35060F",
"Z.	c #370206",
"`.	c #3B0305",
" +	c #5F0D02",
".+	c #AD2C00",
"++	c #EE7500",
"@+	c #F48E00",
"#+	c #902120",
"$+	c #393789",
"%+	c #4747AE",
"&+	c #010105",
"*+	c #C7C7C7",
"=+	c #FDFDFD",
"-+	c #FEFEFE",
";+	c #E8E8E8",
">+	c #9B9B9D",
",+	c #444446",
"'+	c #490C0C",
")+	c #2E0707",
"!+	c #5555CF",
"~+	c #4F4FC1",
"{+	c #4242A0",
"]+	c #2B2B69",
"^+	c #1C1B43",
"/+	c #161534",
"(+	c #141330",
"_+	c #210F28",
":+	c #801D11",
"<+	c #EC7000",
"[+	c #F59300",
"}+	c #8B1C0B",
"|+	c #27245A",
"1+	c #4545AB",
"2+	c #4B4BB7",
"3+	c #292966",
"4+	c #060612",
"5+	c #DDDDDD",
"6+	c #F1F1F1",
"7+	c #BFBFBF",
"8+	c #6D6D6F",
"9+	c #222022",
"0+	c #6363F1",
"a+	c #5353CA",
"b+	c #4848B0",
"c+	c #4242A2",
"d+	c #3D3D98",
"e+	c #3B3B93",
"f+	c #3C3482",
"g+	c #7D313C",
"h+	c #EE8102",
"i+	c #F58D00",
"j+	c #841906",
"k+	c #1E1B45",
"l+	c #4141A0",
"m+	c #2F2F76",
"n+	c #0B0B1E",
"o+	c #E0E0E0",
"p+	c #DADADA",
"q+	c #939393",
"r+	c #373738",
"s+	c #070707",
"t+	c #5A5ADF",
"u+	c #5959D7",
"v+	c #5151C5",
"w+	c #4D4DBF",
"x+	c #4A46AC",
"y+	c #863E4E",
"z+	c #F39202",
"A+	c #F38200",
"B+	c #7B1504",
"C+	c #1E1A41",
"D+	c #3C3B93",
"E+	c #4545AC",
"F+	c #4646AE",
"G+	c #232358",
"H+	c #06060F",
"I+	c #E3E3E3",
"J+	c #EDEDED",
"K+	c #B5B5B5",
"L+	c #535354",
"M+	c #111111",
"N+	c #5252C6",
"O+	c #5151C4",
"P+	c #4541A1",
"Q+	c #8B3D44",
"R+	c #F49700",
"S+	c #F27E00",
"T+	c #971802",
"U+	c #400E23",
"V+	c #301F4D",
"W+	c #222051",
"X+	c #222256",
"Y+	c #1B1B46",
"Z+	c #0A0A1B",
"`+	c #E4E4E4",
" @	c #585858",
".@	c #0E0E0E",
"+@	c #5A5ADC",
"@@	c #4D4DBC",
"#@	c #4545AA",
"$@	c #363688",
"%@	c #2C2763",
"&@	c #853122",
"*@	c #F69800",
"=@	c #F59000",
"-@	c #DD6100",
";@	c #B83F02",
">@	c #892708",
",@	c #530D04",
"'@	c #430905",
")@	c #400804",
"!@	c #180000",
"~@	c #E9E9E9",
"{@	c #F6F6F6",
"]@	c #505051",
"^@	c #0F0F10",
"/@	c #5757D6",
"(@	c #5656D3",
"_@	c #17173B",
":@	c #0F0F28",
"<@	c #0D0816",
"[@	c #792405",
"}@	c #F39400",
"|@	c #F79B00",
"1@	c #F69700",
"2@	c #F49000",
"3@	c #EC8300",
"4@	c #E07700",
"5@	c #DA7200",
"6@	c #D97200",
"7@	c #B03700",
"8@	c #1A0000",
"9@	c #EFEFEF",
"0@	c #F9F9F9",
"a@	c #D6D6D6",
"b@	c #6D6D6D",
"c@	c #202021",
"d@	c #4949B2",
"e@	c #222255",
"f@	c #050511",
"g@	c #1D0100",
"h@	c #941D00",
"i@	c #C73500",
"j@	c #CE3A00",
"k@	c #DF5300",
"l@	c #EB7700",
"m@	c #F18900",
"n@	c #F38B00",
"o@	c #AF2B00",
"p@	c #F3F3F3",
"q@	c #383838",
"r@	c #080808",
"s@	c #5656D1",
"t@	c #4C4CB9",
"u@	c #2C2C6D",
"v@	c #090919",
"w@	c #0F0101",
"x@	c #200000",
"y@	c #290000",
"z@	c #530000",
"A@	c #7C0600",
"B@	c #9E1600",
"C@	c #BF2B00",
"D@	c #EA7000",
"E@	c #C53700",
"F@	c #350000",
"G@	c #ECECEC",
"H@	c #8B8B8B",
"I@	c #333333",
"J@	c #0A0A0A",
"K@	c #5555D0",
"L@	c #4E4EBD",
"M@	c #353582",
"N@	c #0E0E25",
"O@	c #040404",
"P@	c #313131",
"Q@	c #303030",
"R@	c #1A1A1A",
"S@	c #141414",
"T@	c #120C0C",
"U@	c #1D0606",
"V@	c #620402",
"W@	c #D44B00",
"X@	c #C23000",
"Y@	c #320202",
"Z@	c #BABABA",
"`@	c #7C7C7C",
" #	c #212121",
".#	c #030303",
"+#	c #5454CC",
"@#	c #3D3D96",
"##	c #131331",
"$#	c #1F1F1F",
"%#	c #969696",
"&#	c #C0C0C0",
"*#	c #ADADAD",
"=#	c #9E9E9E",
"-#	c #878787",
";#	c #6B6969",
">#	c #7A3737",
",#	c #D65508",
"'#	c #BF2D03",
")#	c #3F1C1C",
"!#	c #5C5C5C",
"~#	c #C2C2C2",
"{#	c #F7F7F7",
"]#	c #D9D9D9",
"^#	c #737373",
"/#	c #1D1D1D",
"(#	c #020202",
"_#	c #4B4BB8",
":#	c #1A1A44",
"<#	c #020209",
"[#	c #BCBCBC",
"}#	c #F2F2F2",
"|#	c #D7D6D6",
"1#	c #B58684",
"2#	c #E17419",
"3#	c #BC2D05",
"4#	c #523636",
"5#	c #9C9C9C",
"6#	c #EAEAEA",
"7#	c #D3D3D3",
"8#	c #6B6B6B",
"9#	c #1B1B1B",
"0#	c #4D4DC0",
"a#	c #5050C6",
"b#	c #4646AB",
"c#	c #24245C",
"d#	c #070713",
"e#	c #424242",
"f#	c #C4C4C4",
"g#	c #F3F2F2",
"h#	c #D29E95",
"i#	c #ED841A",
"j#	c #B52606",
"k#	c #523C3C",
"l#	c #A5A5A5",
"m#	c #EEEEEE",
"n#	c #CCCCCC",
"o#	c #5F5F5F",
"p#	c #151515",
"q#	c #010101",
"r#	c #2D2D70",
"s#	c #0A0A1A",
"t#	c #404040",
"u#	c #C9C9C9",
"v#	c #CB9A93",
"w#	c #EA8118",
"x#	c #BA2B07",
"y#	c #5E3C3C",
"z#	c #A8A0A0",
"A#	c #E6E4E4",
"B#	c #C8C8C8",
"C#	c #505050",
"D#	c #0F0F0F",
"E#	c #393990",
"F#	c #4A4AB6",
"G#	c #353584",
"H#	c #0F0F24",
"I#	c #3F3F3F",
"J#	c #CDCDCD",
"K#	c #F2F1F1",
"L#	c #CE968D",
"M#	c #ED8215",
"N#	c #D64B03",
"O#	c #A33920",
"P#	c #B86C56",
"Q#	c #CC9585",
"R#	c #D2BCBA",
"S#	c #DFD3D3",
"T#	c #E2DBDB",
"U#	c #EDEBEB",
"V#	c #EBEBEB",
"W#	c #AAAAAA",
"X#	c #080801",
"Y#	c #0B0B01",
"Z#	c #4B4BB9",
"`#	c #3C3C93",
" $	c #191938",
".$	c #49494D",
"+$	c #D2D2D2",
"@$	c #D09B92",
"#$	c #EB7F1A",
"$$	c #F58F00",
"%$	c #F27B02",
"&$	c #F48607",
"*$	c #F48C12",
"=$	c #DC7939",
"-$	c #DD8351",
";$	c #D0845E",
">$	c #CB998F",
",$	c #E2DCDC",
"'$	c #696969",
")$	c #101010",
"!$	c #131302",
"~$	c #46450F",
"{$	c #3A3A92",
"]$	c #1D1D43",
"^$	c #57575D",
"/$	c #D3BEBD",
"($	c #C96746",
"_$	c #DA5209",
":$	c #F48A00",
"<$	c #F79400",
"[$	c #F79900",
"}$	c #F79A00",
"|$	c #F79B02",
"1$	c #F79C05",
"2$	c #F69709",
"3$	c #DE712D",
"4$	c #C29A96",
"5$	c #EAE9E9",
"6$	c #DBDBDB",
"7$	c #2B2B2B",
"8$	c #060601",
"9$	c #2F2F0B",
"0$	c #575713",
"a$	c #202050",
"b$	c #3B3B92",
"c$	c #4545A8",
"d$	c #4949B3",
"e$	c #4D4DBA",
"f$	c #4D4DBB",
"g$	c #4444A6",
"h$	c #272761",
"i$	c #636365",
"j$	c #E9E8E8",
"k$	c #AB9695",
"l$	c #6E342E",
"m$	c #782404",
"n$	c #7F2603",
"o$	c #982802",
"p$	c #CE4301",
"q$	c #EF7600",
"r$	c #F68F00",
"s$	c #F79C00",
"t$	c #EB780B",
"u$	c #B36354",
"v$	c #C2BCBC",
"w$	c #444444",
"x$	c #0A0A0B",
"y$	c #2A2A0A",
"z$	c #A5A52B",
"A$	c #5E5E16",
"B$	c #11112C",
"C$	c #2C2C6F",
"D$	c #32327D",
"E$	c #34347F",
"F$	c #26265D",
"G$	c #1D1D49",
"H$	c #131332",
"I$	c #6E6E6E",
"J$	c #CECECE",
"K$	c #757373",
"L$	c #383131",
"M$	c #292020",
"N$	c #2B1818",
"O$	c #3F1613",
"P$	c #50150B",
"Q$	c #B32603",
"R$	c #EB7303",
"S$	c #9D3726",
"T$	c #887D7D",
"U$	c #ABABAB",
"V$	c #636363",
"W$	c #191919",
"X$	c #32320B",
"Y$	c #A9A92A",
"Z$	c #34340A",
"`$	c #03030A",
" %	c #0A0A1C",
".%	c #0F0F27",
"+%	c #0D0D22",
"@%	c #06060E",
"#%	c #05050B",
"$%	c #010102",
"%%	c #161616",
"&%	c #898989",
"*%	c #F0F0F0",
"=%	c #A8A8A8",
"-%	c #8F8F8F",
";%	c #808080",
">%	c #707070",
",%	c #5B4E4E",
"'%	c #C3350E",
")%	c #E56C01",
"!%	c #862114",
"~%	c #594D4D",
"{%	c #6A6A6A",
"]%	c #2D2D2D",
"^%	c #050505",
"/%	c #050500",
"(%	c #65651B",
"_%	c #ACAC2D",
":%	c #1A1A05",
"<%	c #19191B",
"[%	c #565659",
"}%	c #69696A",
"|%	c #565656",
"1%	c #414141",
"2%	c #747474",
"3%	c #E6E6E6",
"4%	c #DFDFDF",
"5%	c #D4D4D4",
"6%	c #B4AAAA",
"7%	c #DA581E",
"8%	c #D85E01",
"9%	c #64110E",
"0%	c #332D2D",
"a%	c #0C0C0C",
"b%	c #37370E",
"c%	c #D8D73B",
"d%	c #9A9A28",
"e%	c #525252",
"f%	c #BEBEBE",
"g%	c #DCDCDC",
"h%	c #E1E1E1",
"i%	c #DDD5D5",
"j%	c #E67525",
"k%	c #CD5300",
"l%	c #500908",
"m%	c #120F0F",
"n%	c #2D2D0B",
"o%	c #B1B12F",
"p%	c #E5E43D",
"q%	c #73721B",
"r%	c #060600",
"s%	c #24FD24",
"t%	c #25FF25",
"u%	c #23FD23",
"v%	c #20FD20",
"w%	c #13AE13",
"x%	c #2F2F2F",
"y%	c #666666",
"z%	c #A1A1A1",
"A%	c #DEDEDE",
"B%	c #D2C8C8",
"C%	c #E4771C",
"D%	c #CA4E00",
"E%	c #430101",
"F%	c #151505",
"G%	c #8D8D27",
"H%	c #F8F842",
"I%	c #CECD34",
"J%	c #525113",
"K%	c #040400",
"L%	c #20FF20",
"M%	c #20FE20",
"N%	c #1EFC1E",
"O%	c #1EFD1E",
"P%	c #18D818",
"Q%	c #0A670A",
"R%	c #171717",
"S%	c #848484",
"T%	c #A9A9A9",
"U%	c #947C7B",
"V%	c #DF780A",
"W%	c #C34100",
"X%	c #390000",
"Y%	c #2A2A0C",
"Z%	c #92922A",
"`%	c #E2E23F",
" &	c #F1F03D",
".&	c #B9B82D",
"+&	c #3A3A0D",
"@&	c #030300",
"#&	c #1EFF1E",
"$&	c #1BFA1B",
"%&	c #1CFB1C",
"&&	c #1CFC1C",
"*&	c #1DFC1D",
"=&	c #1FFF1F",
"-&	c #17CC17",
";&	c #2A2A2A",
">&	c #4D4D4D",
",&	c #A7A7A7",
"'&	c #CFCFCF",
")&	c #E7E7E7",
"!&	c #E2E2E2",
"~&	c #909090",
"{&	c #5B231D",
"]&	c #E78100",
"^&	c #F08200",
"/&	c #A41E00",
"(&	c #240000",
"_&	c #010000",
":&	c #3A3A10",
"<&	c #B6B635",
"[&	c #EDED41",
"}&	c #F2F03D",
"|&	c #E5E338",
"1&	c #A9A829",
"2&	c #262608",
"3&	c #010100",
"4&	c #1DFD1D",
"5&	c #1DFB1D",
"6&	c #19D919",
"7&	c #16C016",
"8&	c #121212",
"9&	c #242424",
"0&	c #929292",
"a&	c #676767",
"b&	c #616161",
"c&	c #545454",
"d&	c #353535",
"e&	c #232323",
"f&	c #131313",
"g&	c #420702",
"h&	c #E07200",
"i&	c #EA7500",
"j&	c #8F1300",
"k&	c #1A0100",
"l&	c #373710",
"m&	c #CACA3A",
"n&	c #F6F541",
"o&	c #EEEC3A",
"p&	c #DFDD36",
"q&	c #9E9C26",
"r&	c #131303",
"s&	c #1EFA1E",
"t&	c #1BF61B",
"u&	c #1CF71C",
"v&	c #1DF91D",
"w&	c #1BEC1B",
"x&	c #1AE31A",
"y&	c #011801",
"z&	c #010E01",
"A&	c #202020",
"B&	c #0D0D0D",
"C&	c #110000",
"D&	c #932500",
"E&	c #B13000",
"F&	c #530400",
"G&	c #2D250A",
"H&	c #A2A22D",
"I&	c #E9E83C",
"J&	c #EAE839",
"K&	c #E3E137",
"L&	c #E2E037",
"M&	c #D9D734",
"N&	c #898820",
"O&	c #16C616",
"P&	c #12A012",
"Q&	c #109410",
"R&	c #119511",
"S&	c #119711",
"T&	c #14AD14",
"U&	c #16B716",
"V&	c #18B718",
"W&	c #0C6D0C",
"X&	c #000E00",
"Y&	c #021B02",
"Z&	c #021D02",
"`&	c #021702",
" *	c #111104",
".*	c #171706",
"+*	c #33330E",
"@*	c #52340E",
"#*	c #551D07",
"$*	c #241505",
"%*	c #5A5918",
"&*	c #B5B42D",
"**	c #E0DE36",
"=*	c #D1CF32",
"-*	c #71701A",
";*	c #032503",
">*	c #000300",
",*	c #021F02",
"'*	c #053705",
")*	c #063C06",
"!*	c #033103",
"~*	c #181805",
"{*	c #272708",
"]*	c #202006",
"^*	c #63631C",
"/*	c #808024",
"(*	c #9B9B2B",
"_*	c #D5D53C",
":*	c #B4B331",
"<*	c #6A671B",
"[*	c #4F4F14",
"}*	c #81801F",
"|*	c #C2C02E",
"1*	c #DEDC35",
"2*	c #CAC831",
"3*	c #5B5A15",
"4*	c #2D2D09",
"5*	c #39390C",
"6*	c #32310B",
"7*	c #444412",
"8*	c #4F4F15",
"9*	c #5B5B18",
"0*	c #6C6C1B",
"a*	c #72711C",
"b*	c #69681A",
"c*	c #6E6D1A",
"d*	c #8C8C21",
"e*	c #B3B12B",
"f*	c #C9C730",
"g*	c #CDCB31",
"h*	c #D5D333",
"i*	c #BEBC2E",
"j*	c #44430F",
"k*	c #0A0A01",
"l*	c #0F0F03",
"m*	c #151504",
"n*	c #1B1B05",
"o*	c #212107",
"p*	c #484711",
"q*	c #605E17",
"r*	c #77761C",
"s*	c #252507",
"t*	c #020200",
"                                  . + @ # $ % & * =                                             ",
"                          - ; > , ' % ) * ! ~ { ] ^ / ( _                                       ",
"                    : < [ % / ] { } | | | | 1 2 3 4 5 6 7 8             9 0 a b c               ",
"                d e f g h i | | | | | | | | j k l m n o p q r             s t u v w             ",
"              x y z h A i i | | | | | | | | 1 B C p D E F G                 H I J K             ",
"            x L & i i i i i | | | | | | | | | M N O E G G G                 P Q R S G           ",
"          T f ^ i i i i i i | | | | | | | | | 3 l U V G G                     W X Y Z           ",
"        `  ...+.i i i i i i | | | | | | | | | 2 _ @.#.G                         $.%.&.          ",
"        : *.A | i i =.-.;.>.,.'.).!.~.3 | | | 1 {.].^.G                         /.(._.          ",
"      :.<.! +.| i i [.}.|.1.2.3.4.5.6.7.8.| | | k 9.0.G                           a.b.          ",
"    c.d.h | | | i i e.f.g.h.i.j.k.l.m.n.o.p.| | 4 7 q.r           r.                s.          ",
"    t.u.{ | | | i i '.v.w.x.y.z.A.B.C.D.E.F.G.| H.I.U r           J.K.L.M.N.O.P.    Q.R.        ",
"  S.T.U.} | | | i i V.W.X.Y.Z.`. +.+++@+#+$+8.| =.%+@.&+        *+J.=+-+-+=+;+>+,+  '+)+        ",
"  ; d.!++.| | | i i ~+{+]+^+/+(+_+:+<+[+}+|+1+j | 2+3+4+        5+L.-+-+-+=+6+7+8+9+            ",
"  0+<.a+| | | | i i i H.b+c+d+e+f+g+h+i+j+k+l+3 j 2+m+n+G       o+L.-+-+-+=+M.p+q+r+s+          ",
"  t+u+A | | | | i i i i v+=.3 w+x+y+z+A+B+C+D+E+F+l G+H+G       I+J.-+-+-+-+K.J+K+L+M+          ",
"  <.z a+| | | | i i i N++.O+~+k P+Q+R+S+T+U+V+W+X+Y+Z+F G       `+K.-+-+-+=+K.N.O. @.@          ",
"  > +@{ | | | | i i i +.=.@@#@$@%@&@*@=@-@;@>@,@'@)@!@G G       ~@-+-+-+-+=+K.{@O.]@^@G         ",
"  /@(@i | | | | i i i +.=.b+_@:@<@[@}@|@1@2@3@4@5@6@7@8@        9@-+-+-+-+=+K.0@a@b@c@G         ",
"    ) i | | | | i i i i v+d@e@f@G g@h@i@j@k@l@m@n@j.@+o@        p@K.-+-+-+=+=+K.;+q+q@r@        ",
"    s@{ | | | | i i i i N+t@u@v@G G w@x@y@z@A@B@C@D@i.E@F@      N.K.-+-+-+-+-+=+G@H@I@J@        ",
"    K@a+| | | | i i i i N+L@M@N@G O@P@Q@R@S@T@U@V@W@i+X@Y@    Z@0@K.-+-+-+-+=+K.;+`@ #.#        ",
"    +#{ 1 | | | i i i i N+=.@###r $#%#&#*#=#-#;#>#,#@+'#)#!#~#{#K.-+-+-+-+-+=+L.]#^#/#(#G       ",
"    _#~+1 | | | i i i i N+v+c+:#<#q@[#6+}#9@;+|#1#2#i.3#4#5#6#=+=+-+-+-+-+-+=+M.7#8#9#(#G       ",
"      0#{ +.| a#i i i i i v+b#c#d#e#f#0@K.K.K.g#h#i#j.j#k#l#m#-+-+-+-+-+-+-+=+{#n#o#p#q#G       ",
"      8.a+a#| | i i i i i v+6 r#s#t#u#L.K.K.K.p@v#w#j.x#y#z#A#0@=+=+-+-+=+=+=+{@B#C#D#G G       ",
"      E#F#2 1 | i i i i i v+8.G#H#I#J#K.K.K.K.K#L#M#k.N#O#P#Q#R#S#T#U#J.=+K.L.V#W#I@.#X#Y#      ",
"        G#Z#j 1 N+i i i i +.~+`# $.$+$K.K.K.K.g#@$#$1@$$%$&$*$=$-$;$>$,$J.J.p@O.'$)$G !$~$      ",
"        _@{$4 2 v++.+.+.v+v+3 d+]$^$p+K.K.K.K.{#/$($_$:$<$[$}$|$1$2$3$4$5${#6$H@7$q#8$9$0$      ",
"          a$b$c$d$e$M f$d@g$e+h$n+i$`+K.K.K.K.K.j$k$l$m$n$o$p$q$r$s$t$u$v$5+l#w$x$G y$z$A$      ",
"            B$e@C$D$E$r#F$G$H$d#G I$6#K.K.K.K.K.{@J$K$L$M$N$O$P$Q$s$R$S$T$U$V$W$q#G X$Y$Z$      ",
"              `$ %.%+%4+@%#%E $%%%&%*%K.K.K.K.K.K.p@+$=%-%;%>%,%'%s$)%!%~%{%]%^%G /%(%_%:%      ",
"                G <%[%}%|%e#q@1%2%B#{#K.K.K.K.K.K.K.{#m#3%4%5%6%7%}$8%9%0%]%a%G G b%c%d%Y#      ",
"                    e%-%f%g%h%6$`+{@K.K.K.K.K.K.K.K.K.K.K.J.0@i%j%*@k%l%m%s+G G n%o%p%q%r%      ",
"    s%t%u%u%v%w%      x%y%z%O.A%V#N.0@J.K.K.K.K.K.K.K.J.K.K.{#B%C%k.D%E%Z G G F%G%H%I%J%K%      ",
"    L%M%N%O%O%P%Q%      R%I@!#S%T%n#h%9@{#L.J.J.L.M.{#p@m#6#+$U%V%i.W%X%G G Y%Z%`% &.&+&@&G     ",
"    #&O%$&%&&&*&=&-&      (#M+;&>&2%H@,&'&)&9@J+!&5%n#7+l#~&8#{&]&^&/&(&_&:&<&[&}&|&1&2&3&G     ",
"    #&O%$&$&%&%&4&5&6&7&    G O@8&$#9&q@8#0&z%z%S%a&b&c&d&e&f&g&h&i&j&k&l&m&n&o&|&p&q&r&G G     ",
"    4&s&t&t&t&t&u&u&v&s&w&x&  y&z&G G O@p#A&$#R@B&J@a%s+q#G G C&D&E&F&G&H&I&J&K&L&M&N&X#G G     ",
"    O&P&Q&Q&Q&Q&R&R&R&S&P&T&U&V&W&X&Y&Z&`&G G G G G G G  * *.*+*@*#*$*%*&***L&L&L&=*-*r%G       ",
"    ;*G G G G G G G G G G G G G >*,*'*)*!*G G ~*X${*]*:%^*/*(*_*:*<*[*}*|*1*L&L&L&2*3*/%G       ",
"        G G G G G G G G G G G G               r&4*Z$5*6*7*8*9*0*a*b*c*d*e*f*g*=*h*i*j*@&G       ",
"          G G G G G G G G G G                               G K%k*l*m*n*o*9$p*q*r*}*s*3&G       ",
"                                                                G G G G G G G 3&t*t*G G G       ",
"                                                                    G G G G G G G G G G         ",
"                                                                              G G G G           ",
"                                                                                                ",
"                                                                                                "};
