/* XPM */
static char * GNUterm_xpm[] = {
"48 48 305 2",
"  	c None",
". 	c #BEBABE",
"+ 	c #E7E3E7",
"@ 	c #FFFBFF",
"# 	c #DFCBDF",
"$ 	c #BEBAAE",
"% 	c #DFEBEF",
"& 	c #EFEBEF",
"* 	c #EFEBFF",
"= 	c #DFDBDF",
"- 	c #CFDBDF",
"; 	c #CFCBCF",
"> 	c #BECBBE",
", 	c #AE9AAE",
"' 	c #415149",
") 	c #CFDBCF",
"! 	c #C7BACF",
"~ 	c #71718E",
"{ 	c #303051",
"] 	c #201828",
"^ 	c #000000",
"/ 	c #010101",
"( 	c #242424",
"_ 	c #1C1C1D",
": 	c #19191B",
"< 	c #161618",
"[ 	c #141415",
"} 	c #090909",
"| 	c #AEBABE",
"1 	c #696171",
"2 	c #202030",
"3 	c #302041",
"4 	c #2D2D4B",
"5 	c #4A4458",
"6 	c #909091",
"7 	c #828284",
"8 	c #737373",
"9 	c #606060",
"0 	c #4E4E4E",
"a 	c #3E3E3E",
"b 	c #2E2E2E",
"c 	c #1C1C1C",
"d 	c #202021",
"e 	c #1D1427",
"f 	c #1F1F2E",
"g 	c #59698E",
"h 	c #203041",
"i 	c #302051",
"j 	c #7A7780",
"k 	c #9D9D9E",
"l 	c #868686",
"m 	c #6F6F6F",
"n 	c #5C5C5C",
"o 	c #4C4C4C",
"p 	c #3D3D3D",
"q 	c #2F2F2F",
"r 	c #212121",
"s 	c #131313",
"t 	c #050505",
"u 	c #08050D",
"v 	c #18222D",
"w 	c #2F1F40",
"x 	c #101020",
"y 	c #413061",
"z 	c #3C3C3C",
"A 	c #777480",
"B 	c #A3A3A3",
"C 	c #838383",
"D 	c #6B6B6B",
"E 	c #5A5A5B",
"F 	c #3F3F3F",
"G 	c #323232",
"H 	c #252525",
"I 	c #181818",
"J 	c #0A0A0A",
"K 	c #020202",
"L 	c #1B1B29",
"M 	c #231C2C",
"N 	c #1C1C24",
"O 	c #1F1928",
"P 	c #B6AAB6",
"Q 	c #3C3C5A",
"R 	c #7C7884",
"S 	c #A0A0A0",
"T 	c #858585",
"U 	c #6D6D6E",
"V 	c #5E5E5F",
"W 	c #515252",
"X 	c #454545",
"Y 	c #383838",
"Z 	c #2B2B2B",
"` 	c #1E1E1E",
" .	c #101010",
"..	c #030303",
"+.	c #5F5F5F",
"@.	c #8D8D8D",
"#.	c #848484",
"$.	c #575757",
"%.	c #202041",
"&.	c #AEBAAE",
"*.	c #414161",
"=.	c #544D68",
"-.	c #A4A4A4",
";.	c #8C8C8C",
">.	c #646465",
",.	c #575758",
"'.	c #4A4A4B",
").	c #313131",
"!.	c #171717",
"~.	c #0F0F0F",
"{.	c #CDCDCD",
"].	c #FDFDFD",
"^.	c #BFBFBF",
"/.	c #3E3E3F",
"(.	c #304161",
"_.	c #3C2C67",
":.	c #9F9F9F",
"<.	c #909090",
"[.	c #7B7B7B",
"}.	c #6B6B6C",
"|.	c #5F5E5F",
"1.	c #525152",
"2.	c #111111",
"3.	c #040404",
"4.	c #C6C6C6",
"5.	c #FAFAFA",
"6.	c #E6E6E6",
"7.	c #C9C9C9",
"8.	c #111112",
"9.	c #413051",
"0.	c #514161",
"a.	c #474756",
"b.	c #989898",
"c.	c #585758",
"d.	c #4B4B4B",
"e.	c #C2C2C2",
"f.	c #F3F3F3",
"g.	c #D5D5D5",
"h.	c #C1C1C1",
"i.	c #999999",
"j.	c #363637",
"k.	c #77757B",
"l.	c #929292",
"m.	c #7C7C7D",
"n.	c #6C6C6C",
"o.	c #515152",
"p.	c #444445",
"q.	c #BDBDBD",
"r.	c #EAEAEA",
"s.	c #CBCBCB",
"t.	c #BBBBBB",
"u.	c #626262",
"v.	c #61518E",
"w.	c #888888",
"x.	c #727272",
"y.	c #656565",
"z.	c #151515",
"A.	c #B6B6B6",
"B.	c #DFDFDF",
"C.	c #B3B3B3",
"D.	c #767676",
"E.	c #7D7D7D",
"F.	c #828282",
"G.	c #434444",
"H.	c #1B1B1B",
"I.	c #121212",
"J.	c #B1B1B1",
"K.	c #D6D6D6",
"L.	c #B8B8B8",
"M.	c #A9A9A9",
"N.	c #969696",
"O.	c #1D1D1D",
"P.	c #9EAAAE",
"Q.	c #080810",
"R.	c #7A7A7A",
"S.	c #585858",
"T.	c #4B4A4B",
"U.	c #3B3B3B",
"V.	c #393939",
"W.	c #333333",
"X.	c #3A3A3A",
"Y.	c #555555",
"Z.	c #D3D3D3",
"`.	c #D0D0D0",
" +	c #AEAEAE",
".+	c #696969",
"++	c #596561",
"@+	c #201010",
"#+	c #303061",
"$+	c #747474",
"%+	c #525252",
"&+	c #454445",
"*+	c #343434",
"=+	c #3B3A3B",
"-+	c #DEDEDE",
";+	c #E8E8E8",
">+	c #EBEBEB",
",+	c #E4E4E4",
"'+	c #ECECEC",
")+	c #959595",
"!+	c #808080",
"~+	c #191919",
"{+	c #686868",
"]+	c #6A6A6A",
"^+	c #585859",
"/+	c #403F40",
"(+	c #F1F1F1",
"_+	c #FEFEFE",
":+	c #FBFBFB",
"<+	c #F5F5F5",
"[+	c #B9B9B9",
"}+	c #8B8B8B",
"|+	c #464646",
"1+	c #9EAA9E",
"2+	c #9E9A9E",
"3+	c #515161",
"4+	c #37374A",
"5+	c #525253",
"6+	c #383738",
"7+	c #282828",
"8+	c #141414",
"9+	c #3E3F3F",
"0+	c #E9E9E9",
"a+	c #DCDCDC",
"b+	c #CFCFCF",
"c+	c #B5B5B5",
"d+	c #A8A8A8",
"e+	c #9A9A9A",
"f+	c #8F8F8F",
"g+	c #7E7E7E",
"h+	c #9E92A6",
"i+	c #515171",
"j+	c #29293F",
"k+	c #545454",
"l+	c #4B4B4C",
"m+	c #303031",
"n+	c #222222",
"o+	c #3E3D3E",
"p+	c #F0F0F0",
"q+	c #F6F6F6",
"r+	c #D1D1D1",
"s+	c #C4C4C4",
"t+	c #ABABAB",
"u+	c #9E9E9E",
"v+	c #919191",
"w+	c #0D0D0D",
"x+	c #33363A",
"y+	c #404041",
"z+	c #0B0B0B",
"A+	c #3B3B3C",
"B+	c #EEEEEE",
"C+	c #D4D4D4",
"D+	c #C7C7C7",
"E+	c #A1A1A1",
"F+	c #878787",
"G+	c #777777",
"H+	c #8E9A9E",
"I+	c #2C1D3C",
"J+	c #333036",
"K+	c #39393A",
"L+	c #EDEDED",
"M+	c #979797",
"N+	c #676767",
"O+	c #8E9A8E",
"P+	c #9E8A9E",
"Q+	c #58575A",
"R+	c #4F5052",
"S+	c #3E3D3F",
"T+	c #313132",
"U+	c #646464",
"V+	c #A2A2A2",
"W+	c #F9F9F9",
"X+	c #B4B4B4",
"Y+	c #A7A7A7",
"Z+	c #787878",
"`+	c #565656",
" @	c #353535",
".@	c #8E8A96",
"+@	c #474747",
"@@	c #232323",
"#@	c #BABABA",
"$@	c #939393",
"%@	c #4D4D4D",
"&@	c #353536",
"*@	c #1A1A1A",
"=@	c #0E0E0E",
"-@	c #3C3C3D",
";@	c #8E8E8E",
">@	c #7C7C7C",
",@	c #4F4F4F",
"'@	c #373737",
")@	c #212122",
"!@	c #070707",
"~@	c #161616",
"{@	c #86718E",
"]@	c #414141",
"^@	c #38FB30",
"/@	c #797971",
"(@	c #416171",
"_@	c #302030",
":@	c #303030",
"<@	c #413041",
"[@	c #AEAAAE",
"}@	c #9E9ABE",
"|@	c #9E9A8E",
"      . + @ @ @ @ @ @ @ @ @ @ @ @ @ @ @ @ @ @ @ @ @ @ @ @ @ @ @ @ @ @ @ @ @ @ @ @ @ # $         ",
"      + % & % * % & % * % & % * % & % * % & % * % & % % % % + = + = - - - ; > ; > ; ; , '       ",
"      @ & % & & & % & & & % & & & % & & & % & & & % & % = + = = = - # ) ; ) ; ; ; > ! ~ {       ",
"      @ % * % & % * % & % * % & % * % & % * % & % & % % + = + = - - - ; ) ; ) ; > ! > ~ ]       ",
"      @ & & & % & & & % & & & % & & & % & & & % & % + + = = = - # ) ; ) ; ; ; > ! > . ~ ]       ",
"      @ % & % * ^ ^ ^ ^ ^ ^ ^ ^ ^ ^ ^ ^ / ( _ : < [ } ^ ^ ^ ^ ^ ^ ^ ^ ^ ^ ^ ^ @ > ! | 1 ]       ",
"      @ & % & & ^ 2 3 2 3 2 3 3 3 4 5 6 7 8 9 0 a b c d e f 3 2 3 2 3 2 3 2 3 @ ! . . g ]       ",
"      @ % * % & ^ 3 h 3 h i { { 4 j k l m n o p q r s t ^ u v w h 3 h 3 h 3 h @ | . | 1 x       ",
"      @ & & & % ^ 2 3 { i { y z A B C D E o F G H I J / / K K L M N O 2 3 2 3 @ . . P 1 x       ",
"      @ % & % * ^ 3 h { { y Q R S T U V W X Y Z `  ...t +.@.#.$...^ ^ 3 h 3 %.@ | . &.g x       ",
"      @ & % & & ^ { i { y *.=.-.;.8 >.,.'.a ).( !.J / ~.{.].].^././ ^ 2 3 2 3 @ P &.P 1 x       ",
"      @ % * % & ^ i { y (._.:.<.[.}.|.1.X Y Z ` 2.3.^ ~.4.5.6.7.@.8.^ 3 h 3 h @ &.P &.g x       ",
"      @ & & & % ^ { 9.9.0.a.b.T 8 >.c.d.a ).( !.J / ^ ~.e.f.g.h.i.j.^ 2 3 2 3 @ P &.&.1 x       ",
"      @ % & % * ^ { { y *.k.l.m.n.|.o.p.Y Z ` 2.3.^ ^ ~.q.r.s.t.S u./ 3 h 3 %.@ &.&.&.v.x       ",
"      @ & % & & ^ { 9.9.y ;.w.x.y.,.'.a b r z.} / ^ ^ ~.A.B.e.C.:.D.!.2 3 2 3 @ &.&.&.1 x       ",
"      @ % * % & ^ i { y (.E.F.n.+.o.G.G H.I.J K ^ ^ ^ ~.J.K.L.M.N.x.O.3 h 3 h @ P.&.&.v.Q.      ",
"      @ & & & % ^ { 9.{ y R.[.y.S.T.U.r I.Y U.V.W.X.W.Y.Z.`. +:.;..+c 2 3 2 3 @ , &.&.++@+      ",
"      @ % & % * ^ i { #+(.D.$++.%+&+*+c =+-+r.r.;+>+,+'+-+A.B )+!+9 ~+3 h 3 %.@ P., &.v.Q.      ",
"      @ & % & & ^ { i { 9.{+]+^+d.a b ~+/+(+_+:+<+r.B.`.[+-.b.}+m |+3.2 3 2 3 @ , 1+2+3+Q.      ",
"      @ % * % & ^ 3 h { { 4+u.5+X 6+7+8+9+(+:+0+a+b+e.c+d+e+f+g+u.q ^ 3 h 3 h @ 1+h+1+i+Q.      ",
"      @ & & & % ^ 2 3 { 3 j+k+l+a m+n+ .o+p+q+-+r+s+L.t+u+v+#.m o w+^ 2 3 2 3 @ 2+2+2+3+Q.      ",
"      @ % & % * ^ 3 %.3 h w x+y+W.H ~+z+A+B+B+C+D+t. +E+)+F+G+S.( ^ ^ 3 h 3 %.@ 2+2+H+i+Q.      ",
"      @ & % & % ^ 2 3 2 3 2 I+J+( 2.z+3.K+L+6.s.q.J.-.M+}+G+N+U.3.^ ^ 2 3 2 3 @ 2+O+P+3+Q.      ",
"      @ % & % % ^ 3 h 3 h Q+R+S+T+.+D U+V+W+a+h.X+Y+e+}+Z+`+ @J ^ ^ ^ 3 h 3 h @ H+.@O+3+Q.      ",
"      @ & % + + ^ 2 3 2 3 `++@*+@@%+t.6.r.g.#@t+:.$@!+n.k+O.K ^ ^ ^ ^ 2 3 2 3 @ P+O+.@' Q.      ",
"      @ % % + = ^ 3 %.3 h %@&@( *@=@z+-@8 ;@T >@8 D ,@'@s / ^ ^ ^ ^ ^ 3 h 3 %.@ O+.@.@0.Q.      ",
"      @ = + = = ^ 2 3 2 3 )@~.J !@..^ ^ / 2.~@H.~+z.} ^ ^ ^ ^ ^ ^ ^ ^ 2 3 2 3 @ .@.@{@]@Q.      ",
"      @ + = + = @ @ @ @ @ @ @ @ @ @ @ @ @ @ @ @ @ @ @ @ @ @ @ @ @ @ @ @ @ @ @ @ O+.@{@0.^       ",
"      @ = = = - # ) ; ) ; ; ; > ! > . . . . P &.&.&.&.&., 1+, 1+2+2+2+O+P+]@0.]@.@.@{@]@^       ",
"      @ + = - - - ; ) ; ) ; > ! > ! | ! | . &.P &.&.&.&.P., 1+h+2+2+H+P+H+*.^@^@{@.@/@*.^       ",
"      @ = - # ) ; ) ; ; ; > ! > ! . . | P &.P &.&.&., 1+, 1+2+2+2+O+P+.@.@.@.@/@{@/@{@]@^       ",
"      @ @ ~ ~ ~ g {@g 1 g g g g 1 g 1 g (@v.(@v.(@v.++i+3+i+3+3+*.0.*.0.' 0.*.0.]@*.]@]@^       ",
"      ~ ^ ^ ^ ^ ^ ^ ^ ^ ^ ^ ^ ^ ^ ^ ^ ^ ^ ^ ^ ^ ^ ^ ^ ^ ^ ^ ^ ^ ^ ^ ^ ^ ^ ^ ^ ^ ^ ^ ^ ^ ^       ",
"                        > - ) ; - ! - = | h+H+~ /@]@2 2 x x Q.2 /@~ O+.@                        ",
"            = = = = = = & &.1 ++1 ++0.2+P H+P+~ 1 ]@3 ] x Q._@:@0.' 0.' x ]@9.<@9.]@            ",
"          = + /@++1 {@&.> .@{@.@{@.@/@1 ++3+' ]@]@{ ]@{ ]@]@++.@/@~ /@.@1 x ' 3+/@9.]@          ",
"        = = /@/@/@/@@ @ @ @ @ @ @ @ @ @ @ @ @ @ @ @ @ @ @ @ @ @ @ @ @ @ @ 1 x ' 1 /@x ]@        ",
"      = @ 2+O+P+H+[@[@[@[@[@[@[@[@[@[@[@[@[@[@[@[@[@[@[@[@[@[@[@[@[@[@[@[@[@x ++/@2+O+x ]@      ",
"    = @ , 1+, h+, [@1 ]@_@2 _@2 _@2 _@2 _@2 _@2 _@2 _@2 _@2 _@2 _@2 _@2 _@2 9.1 {@h+, h+x ]@    ",
"  = @ , P.}@P., P.}@P., P.}@P., P.}@P., P.}@P., P.}@P., P.}@P., P.}@P., P.}@P., P.}@P., P.x ]@  ",
"  @ @ @ @ @ @ @ @ @ @ @ @ @ @ @ @ @ @ @ @ @ @ @ @ @ @ @ P @ @ @ @ @ @ @ @ @ @ @ @ @ @ @ @ @ x   ",
"  @ + = + = + = + = - = + = - = + = - = - ; ) ; > ; > ! ~ @ | . | P &.P P.&.1+h+1+2+H+P+H+.@Q.  ",
"  @ ; i+v.i+; h+, h+, h+, h+P+h+P+H+P+.@h+.@{@.@{@~ {@~ ~ @ P 2 ^ Q.x x x Q.x x x Q.x 2 P+.@Q.  ",
"  @ @ v.^@^@@ @ @ @ @ @ @ @ @ @ @ @ @ @ @ @ @ @ @ @ @ @ | @ | > @ @ @ @ ^ 2 2 > @ @ @ > O+.@Q.  ",
"  @ = = = = = = = = = = = = = - = ) # ) ; ; ; > ! . . . 1 @ P &.&.&.&.1+h+2+2+|@P+O+P+.@.@.@Q.  ",
"  @ + = + = - = + = - = + = - = - ; ) ; > ; > ! > ! | . ~ @ &.&.&.&.&.h+1+2+H+P+H+.@.@.@{@.@^   ",
"  @ = = = = = = = - = = = - # ) ; ) ; ; ; > ! . . | P &.{@@ &.&.&.1+, 2+2+H+P+O+P+.@.@.@{@/@^   ",
"  {@^ ^ ^ ^ ^ ^ ^ ^ ^ ^ ^ ^ ^ ^ ^ ^ ^ ^ ^ ^ ^ ^ ^ ^ ^ ^ 2 9.^ ^ ^ ^ ^ ^ ^ ^ ^ ^ ^ ^ ^ ^ ^ ^ 2   "};
